<svg width="34" height="34" viewBox="0 0 34 34" fill="none" xmlns="http://www.w3.org/2000/svg">
<g clip-path="url(#clip0_390_53)">
<path fill-rule="evenodd" clip-rule="evenodd" d="M4.0375 20.536L32.81 20.536C33.1092 20.536 34 20.6924 34 21.743C34 22.7936 33.1092 22.95 32.81 22.95L1.1917 22.95C0.501498 22.95 -1.00103e-06 22.4621 -9.38164e-07 21.743C-0.0065889 21.4605 0.0928755 21.1857 0.278796 20.9729C0.373763 20.8641 0.471835 20.7581 0.572898 20.655L9.622 11.356C10.2136 10.8834 10.7576 10.897 11.254 11.3985C11.7504 11.8983 11.7827 12.4355 11.3526 13.0135L4.0375 20.536Z" fill="#FDFDFD"/>
</g>
<defs>
<clipPath id="clip0_390_53">
<rect width="34" height="34" fill="white" transform="matrix(-1 -8.74228e-08 -8.74228e-08 1 34 0)"/>
</clipPath>
</defs>
</svg>
