<svg width="65" height="65" viewBox="0 0 65 65" fill="none" xmlns="http://www.w3.org/2000/svg">
<g clip-path="url(#clip0_390_57)">
<path fill-rule="evenodd" clip-rule="evenodd" d="M45.9625 29.464L17.19 29.464C16.8908 29.464 16 29.3076 16 28.257C16 27.2064 16.8908 27.05 17.19 27.05L48.8083 27.05C49.4985 27.05 50 27.5379 50 28.257C50.0066 28.5395 49.9071 28.8143 49.7212 29.0271C49.6262 29.1359 49.5282 29.2419 49.4271 29.345L40.378 38.644C39.7864 39.1166 39.2424 39.103 38.746 38.6015C38.2496 38.1017 38.2173 37.5645 38.6474 36.9865L45.9625 29.464Z" fill="#FDFDFD"/>
</g>
<defs>
<clipPath id="clip0_390_57">
<rect width="34" height="34" fill="white" transform="matrix(1 8.74228e-08 8.74228e-08 -1 16 50)"/>
</clipPath>
</defs>
</svg>
