<svg width="71" height="71" viewBox="0 0 71 71" fill="none" xmlns="http://www.w3.org/2000/svg">
<path d="M61.0156 49.9285V45.4844C61.0139 44.0138 60.4289 42.6039 59.389 41.5641C58.3492 40.5242 56.9393 39.9393 55.4688 39.9375H46.13C47.1569 38.0433 47.9852 36.048 48.6017 33.9835L52.8173 30.6099C53.4726 30.0867 53.9516 29.3752 54.1898 28.5713C54.4279 27.7673 54.4138 26.9097 54.1492 26.114C53.8846 25.3184 53.3823 24.6231 52.7101 24.1219C52.0379 23.6207 51.2281 23.3378 50.39 23.3113L52.8617 16.5153C53.4924 14.7809 53.6957 12.92 53.4545 11.0904C53.2132 9.26074 52.5345 7.5162 51.4758 6.00458C50.4171 4.49295 49.0096 3.2588 47.3727 2.40666C45.7357 1.55453 43.9174 1.10953 42.0719 1.10938H32.6533C25.6058 1.10762 18.6999 3.08821 12.7245 6.82488C12.545 6.93609 12.4009 7.09623 12.3093 7.2865C12.2176 7.47676 12.1822 7.68923 12.2071 7.89894C12.232 8.10865 12.3163 8.30689 12.45 8.47036C12.5837 8.63383 12.7613 8.75573 12.9619 8.82175L15.6366 9.70925C16.0048 9.83206 16.3439 10.0288 16.6333 10.2874C16.9227 10.5459 17.1562 10.8609 17.3195 11.2129C17.4828 11.565 17.5725 11.9467 17.583 12.3346C17.5935 12.7226 17.5246 13.1086 17.3806 13.4689C17.1148 14.1333 16.9927 14.8464 17.0223 15.5613C17.0519 16.2763 17.2326 16.9768 17.5525 17.6169L20.4125 23.3313C19.5943 23.3964 18.8146 23.706 18.1747 24.22C17.5348 24.7339 17.0641 25.4284 16.8239 26.2132C16.5837 26.998 16.5851 27.8369 16.8278 28.621C17.0705 29.405 17.5433 30.098 18.1849 30.6099L22.4005 33.9835C23.0164 36.0479 23.8439 38.0432 24.87 39.9375H15.5312C14.0607 39.9393 12.6508 40.5242 11.611 41.5641C10.5711 42.6039 9.98614 44.0138 9.98438 45.4844V49.9285C7.35875 51.0254 5.11567 52.8734 3.53671 55.2407C1.95776 57.6079 1.11331 60.3889 1.10938 63.2344V68.7812C1.10938 69.0755 1.22626 69.3577 1.4343 69.5657C1.64235 69.7737 1.92453 69.8906 2.21875 69.8906H68.7812C69.0755 69.8906 69.3577 69.7737 69.5657 69.5657C69.7737 69.3577 69.8906 69.0755 69.8906 68.7812V63.2344C69.8867 60.3889 69.0422 57.6079 67.4633 55.2407C65.8843 52.8734 63.6412 51.0254 61.0156 49.9285ZM44.375 23.2969H37.7188C37.4245 23.2969 37.1423 23.4138 36.9343 23.6218C36.7263 23.8299 36.6094 24.112 36.6094 24.4063V25.5156H34.3906V24.4063C34.3906 24.112 34.2737 23.8299 34.0657 23.6218C33.8577 23.4138 33.5755 23.2969 33.2812 23.2969H23.2969V21.6716L30.2216 17.0555C31.7117 16.06 33.4639 15.5295 35.2559 15.5313C37.8198 15.5283 40.3067 14.6557 42.3105 13.0562L44.1232 11.6063L46.0257 14.4618C47.1212 16.1009 47.705 18.0284 47.7031 19.9998V23.2969H44.375ZM43.2656 25.5156V28.8438C43.2656 29.138 43.1487 29.4202 42.9407 29.6282C42.7327 29.8362 42.4505 29.9531 42.1562 29.9531H39.9375C39.6433 29.9531 39.3611 29.8362 39.1531 29.6282C38.945 29.4202 38.8281 29.138 38.8281 28.8438V25.5156H43.2656ZM32.1719 25.5156V28.8438C32.1719 29.138 32.055 29.4202 31.8469 29.6282C31.6389 29.8362 31.3567 29.9531 31.0625 29.9531H28.8438C28.5495 29.9531 28.2674 29.8362 28.0593 29.6282C27.8513 29.4202 27.7344 29.138 27.7344 28.8438V25.5156H32.1719ZM52.1406 27.4016C52.1412 27.6846 52.0778 27.9641 51.9553 28.2192C51.8327 28.4743 51.6541 28.6984 51.4328 28.8748L49.4215 30.4834C49.7147 28.843 49.8761 27.1818 49.9041 25.5156H50.2547C50.7549 25.5156 51.2346 25.7143 51.5882 26.068C51.9419 26.4217 52.1406 26.9014 52.1406 27.4016ZM19.4396 14.2932C19.6959 13.6522 19.8185 12.9656 19.8 12.2756C19.7815 11.5855 19.6221 10.9065 19.3318 10.2802C19.0415 9.65392 18.6262 9.09355 18.1116 8.63349C17.5969 8.17342 16.9937 7.82336 16.3389 7.60477L15.9994 7.49383C21.1241 4.75786 26.8441 3.3271 32.6533 3.32813H42.0719C43.5604 3.32841 45.0268 3.68735 46.3471 4.37458C47.6674 5.0618 48.8027 6.05706 49.6567 7.27608C50.5108 8.4951 51.0586 9.90198 51.2536 11.3776C51.4486 12.8532 51.2852 14.3541 50.7772 15.7531L49.8132 18.4045C49.5722 16.5522 48.9079 14.7802 47.8717 13.226L45.298 9.36424C45.2126 9.23633 45.1015 9.12757 44.9719 9.04488C44.8422 8.96218 44.6967 8.90736 44.5447 8.88388C44.3928 8.86093 44.2378 8.86948 44.0893 8.90898C43.9408 8.94849 43.8021 9.01811 43.6816 9.11352L40.9248 11.3245C39.3142 12.6088 37.3159 13.3096 35.2559 13.3125C33.0256 13.3105 30.8449 13.9707 28.9902 15.2095L21.5718 20.1551C21.503 20.2018 21.4397 20.2562 21.3832 20.3171L19.5372 16.624C19.3573 16.2644 19.2556 15.8708 19.2388 15.469C19.2219 15.0673 19.2904 14.6666 19.4396 14.2932ZM19.5683 28.877C19.2621 28.6333 19.0393 28.3003 18.9308 27.9242C18.8224 27.5482 18.8336 27.1477 18.9629 26.7783C19.0923 26.4089 19.3333 26.0889 19.6527 25.8626C19.9721 25.6364 20.3539 25.5151 20.7453 25.5156H21.0937C21.1216 27.1825 21.2829 28.8445 21.5762 30.4856L19.5683 28.877ZM23.3146 25.5156H25.5156V28.8438C25.5156 29.7264 25.8663 30.5729 26.4904 31.1971C27.1146 31.8212 27.9611 32.1719 28.8438 32.1719H31.0625C31.9452 32.1719 32.7917 31.8212 33.4158 31.1971C34.04 30.5729 34.3906 29.7264 34.3906 28.8438V27.7344H36.6094V28.8438C36.6094 29.7264 36.96 30.5729 37.5842 31.1971C38.2083 31.8212 39.0548 32.1719 39.9375 32.1719H42.1562C43.0389 32.1719 43.8854 31.8212 44.5096 31.1971C45.1337 30.5729 45.4844 29.7264 45.4844 28.8438V25.5156H47.6854C47.5992 30.6004 46.1796 35.5735 43.5685 39.9375H27.4315C24.8204 35.5735 23.4008 30.6004 23.3146 25.5156ZM15.5312 42.1562H55.4688C56.3514 42.1562 57.1979 42.5069 57.8221 43.131C58.4462 43.7552 58.7969 44.6017 58.7969 45.4844V67.6719H12.2031V45.4844C12.2031 44.6017 12.5538 43.7552 13.1779 43.131C13.8021 42.5069 14.6486 42.1562 15.5312 42.1562ZM3.32812 63.2344C3.33114 60.9865 3.95408 58.783 5.12843 56.8663C6.30278 54.9495 7.98304 53.3938 9.98438 52.3703V67.6719H3.32812V63.2344ZM67.6719 67.6719H61.0156V52.3703C63.0169 53.3939 64.6971 54.9496 65.8714 56.8664C67.0457 58.7831 67.6687 60.9865 67.6719 63.2344V67.6719Z" fill="#F3C300"/>
<path d="M35.4998 64.3437C36.3774 64.3437 37.2354 64.0834 37.9651 63.5958C38.6949 63.1082 39.2636 62.4152 39.5995 61.6043C39.9353 60.7935 40.0232 59.9012 39.852 59.0404C39.6808 58.1797 39.2581 57.389 38.6375 56.7684C38.017 56.1478 37.2263 55.7251 36.3655 55.5539C35.5047 55.3827 34.6125 55.4706 33.8016 55.8064C32.9908 56.1423 32.2977 56.7111 31.8101 57.4408C31.3225 58.1706 31.0623 59.0285 31.0623 59.9062C31.0623 61.0831 31.5298 62.2118 32.362 63.0439C33.1942 63.8761 34.3229 64.3437 35.4998 64.3437ZM35.4998 57.6874C35.9386 57.6874 36.3676 57.8175 36.7324 58.0613C37.0973 58.3051 37.3817 58.6517 37.5496 59.0571C37.7176 59.4625 37.7615 59.9086 37.6759 60.339C37.5903 60.7694 37.379 61.1648 37.0687 61.4751C36.7584 61.7853 36.363 61.9967 35.9326 62.0823C35.5022 62.1679 35.0561 62.1239 34.6507 61.956C34.2453 61.7881 33.8987 61.5037 33.6549 61.1388C33.4111 60.774 33.281 60.345 33.281 59.9062C33.281 59.3177 33.5148 58.7534 33.9309 58.3373C34.347 57.9212 34.9113 57.6874 35.4998 57.6874ZM28.0592 54.0342L29.6278 52.4656L25.9747 48.8124L29.6278 45.1592L28.0592 43.5906L23.6217 48.0281C23.4137 48.2361 23.2969 48.5182 23.2969 48.8124C23.2969 49.1066 23.4137 49.3887 23.6217 49.5967L28.0592 54.0342ZM42.9403 54.0342L47.3778 49.5967C47.5858 49.3887 47.7027 49.1066 47.7027 48.8124C47.7027 48.5182 47.5858 48.2361 47.3778 48.0281L42.9403 43.5906L41.3717 45.1592L45.0249 48.8124L41.3717 52.4656L42.9403 54.0342ZM31.2841 52.5832L37.9404 43.7093L39.7154 45.0405L33.058 53.9155L31.2841 52.5832Z" fill="#F3C300"/>
</svg>
