<svg width="80" height="80" viewBox="0 0 80 80" fill="none" xmlns="http://www.w3.org/2000/svg">
<path d="M42.6313 12.321C42.5398 12.1375 42.3891 11.9904 42.2035 11.9034C42.0179 11.8163 41.8084 11.7946 41.6089 11.8417C41.4094 11.8887 41.2317 12.0018 41.1046 12.1626C40.9774 12.3233 40.9083 12.5224 40.9085 12.7273V42.191C40.9086 42.367 40.9597 42.5391 41.0557 42.6866C41.1518 42.8341 41.2885 42.9506 41.4494 43.0219C42.216 43.3552 42.8443 43.9423 43.2286 44.6846C43.6129 45.4268 43.7298 46.2788 43.5596 47.0971C43.3894 47.9155 42.9425 48.6502 42.294 49.1776C41.6456 49.7051 40.8353 49.993 39.9994 49.993C39.1636 49.993 38.3533 49.7051 37.7049 49.1776C37.0564 48.6502 36.6095 47.9155 36.4393 47.0971C36.2691 46.2788 36.386 45.4268 36.7703 44.6846C37.1546 43.9423 37.7829 43.3552 38.5494 43.0219C38.7104 42.9506 38.8471 42.8341 38.9431 42.6866C39.0392 42.5391 39.0903 42.367 39.0904 42.191V12.7273C39.0905 12.5224 39.0215 12.3233 38.8943 12.1626C38.7672 12.0018 38.5895 11.8887 38.39 11.8417C38.1905 11.7946 37.981 11.8163 37.7954 11.9034C37.6098 11.9904 37.4591 12.1375 37.3676 12.321L20.0949 46.8664C20.0318 46.9926 19.999 47.1317 19.999 47.2728C19.999 47.4138 20.0318 47.553 20.0949 47.6791L27.6204 62.7273H24.5449C24.3038 62.7273 24.0726 62.8231 23.9021 62.9936C23.7316 63.1641 23.6358 63.3953 23.6358 63.6364V69.091C23.6358 69.3321 23.7316 69.5633 23.9021 69.7338C24.0726 69.9043 24.3038 70.0001 24.5449 70.0001H26.3631V78.1819C26.3631 78.423 26.4589 78.6542 26.6293 78.8247C26.7998 78.9952 27.0311 79.091 27.2722 79.091C27.5133 79.091 27.7445 78.9952 27.915 78.8247C28.0855 78.6542 28.1813 78.423 28.1813 78.1819V70.0001H51.8176V78.1819C51.8176 78.423 51.9134 78.6542 52.0839 78.8247C52.2544 78.9952 52.4856 79.091 52.7267 79.091C52.9678 79.091 53.1991 78.9952 53.3695 78.8247C53.54 78.6542 53.6358 78.423 53.6358 78.1819V70.0001H55.454C55.6951 70.0001 55.9263 69.9043 56.0968 69.7338C56.2673 69.5633 56.3631 69.3321 56.3631 69.091V63.6364C56.3631 63.3953 56.2673 63.1641 56.0968 62.9936C55.9263 62.8231 55.6951 62.7273 55.454 62.7273H52.3794L59.904 47.6791C59.967 47.553 59.9999 47.4138 59.9999 47.2728C59.9999 47.1317 59.967 46.9926 59.904 46.8664L42.6313 12.321ZM54.5449 68.1819H25.454V64.5455H54.5449V68.1819ZM50.3467 62.7273H29.6522L21.9249 47.2728L37.2722 16.5782V41.6364C36.2323 42.2368 35.4196 43.1635 34.9601 44.2728C34.5006 45.3822 34.42 46.6121 34.7308 47.7719C35.0415 48.9318 35.7263 49.9566 36.6789 50.6876C37.6315 51.4185 38.7987 51.8147 39.9994 51.8147C41.2002 51.8147 42.3674 51.4185 43.32 50.6876C44.2726 49.9566 44.9574 48.9318 45.2681 47.7719C45.5789 46.6121 45.4983 45.3822 45.0388 44.2728C44.5793 43.1635 43.7666 42.2368 42.7267 41.6364V16.5782L58.074 47.2728L50.3467 62.7273Z" fill="#F3C300"/>
<path d="M71.8179 32.7274H69.9788C69.8265 26.7344 67.8714 20.9264 64.3685 16.0613C60.8657 11.1962 55.9777 7.49988 50.3424 5.45464H65.5833C65.8046 6.31161 66.3308 7.05845 67.0633 7.55519C67.7959 8.05193 68.6844 8.26446 69.5624 8.15293C70.4404 8.04141 71.2476 7.6135 71.8327 6.9494C72.4178 6.2853 72.7406 5.43062 72.7406 4.54555C72.7406 3.66049 72.4178 2.8058 71.8327 2.1417C71.2476 1.47761 70.4404 1.04969 69.5624 0.938171C68.6844 0.826649 67.7959 1.03918 67.0633 1.53591C66.3308 2.03265 65.8046 2.7795 65.5833 3.63646H43.6361V1.81828C43.6361 1.57717 43.5403 1.34594 43.3698 1.17546C43.1993 1.00497 42.9681 0.909189 42.727 0.909189H37.2724C37.0313 0.909189 36.8001 1.00497 36.6296 1.17546C36.4591 1.34594 36.3633 1.57717 36.3633 1.81828V3.63646H14.416C14.1948 2.7795 13.6686 2.03265 12.936 1.53591C12.2035 1.03918 11.315 0.826649 10.437 0.938171C9.55894 1.04969 8.75174 1.47761 8.16666 2.1417C7.58158 2.8058 7.25879 3.66049 7.25879 4.54555C7.25879 5.43062 7.58158 6.2853 8.16666 6.9494C8.75174 7.6135 9.55894 8.04141 10.437 8.15293C11.315 8.26446 12.2035 8.05193 12.936 7.55519C13.6686 7.05845 14.1948 6.31161 14.416 5.45464H29.657C24.0217 7.49988 19.1337 11.1962 15.6308 16.0613C12.128 20.9264 10.1729 26.7344 10.0206 32.7274H8.1815C7.9404 32.7274 7.70916 32.8232 7.53868 32.9936C7.36819 33.1641 7.27241 33.3954 7.27241 33.6365V39.091C7.27241 39.3321 7.36819 39.5634 7.53868 39.7338C7.70916 39.9043 7.9404 40.0001 8.1815 40.0001H13.636C13.8772 40.0001 14.1084 39.9043 14.2789 39.7338C14.4494 39.5634 14.5451 39.3321 14.5451 39.091V33.6365C14.5451 33.3954 14.4494 33.1641 14.2789 32.9936C14.1084 32.8232 13.8772 32.7274 13.636 32.7274H11.8388C12.0212 26.034 14.595 19.6274 19.0939 14.6682C23.5929 9.70896 29.7193 6.52521 36.3633 5.69373V7.27283C36.3633 7.51393 36.4591 7.74516 36.6296 7.91565C36.8001 8.08614 37.0313 8.18192 37.2724 8.18192H42.727C42.9681 8.18192 43.1993 8.08614 43.3698 7.91565C43.5403 7.74516 43.6361 7.51393 43.6361 7.27283V5.69373C50.2801 6.52521 56.4065 9.70896 60.9054 14.6682C65.4044 19.6274 67.9782 26.034 68.1606 32.7274H66.3633C66.1222 32.7274 65.891 32.8232 65.7205 32.9936C65.55 33.1641 65.4542 33.3954 65.4542 33.6365V39.091C65.4542 39.3321 65.55 39.5634 65.7205 39.7338C65.891 39.9043 66.1222 40.0001 66.3633 40.0001H71.8179C72.059 40.0001 72.2902 39.9043 72.4607 39.7338C72.6312 39.5634 72.727 39.3321 72.727 39.091V33.6365C72.727 33.3954 72.6312 33.1641 72.4607 32.9936C72.2902 32.8232 72.059 32.7274 71.8179 32.7274ZM12.727 38.1819H9.09059V34.5456H12.727V38.1819ZM69.0906 2.72737C69.4502 2.72737 69.8017 2.834 70.1007 3.03379C70.3997 3.23357 70.6328 3.51753 70.7704 3.84976C70.908 4.18199 70.944 4.54757 70.8738 4.90026C70.8037 5.25295 70.6305 5.57692 70.3762 5.8312C70.122 6.08548 69.798 6.25864 69.4453 6.3288C69.0926 6.39895 68.727 6.36295 68.3948 6.22533C68.0626 6.08772 67.7786 5.85468 67.5788 5.55568C67.3791 5.25668 67.2724 4.90515 67.2724 4.54555C67.2729 4.06349 67.4646 3.60131 67.8055 3.26044C68.1464 2.91956 68.6085 2.72785 69.0906 2.72737ZM10.9088 6.36373C10.5492 6.36373 10.1976 6.2571 9.89865 6.05732C9.59965 5.85753 9.36661 5.57357 9.22899 5.24134C9.09138 4.90911 9.05537 4.54354 9.12553 4.19084C9.19568 3.83815 9.36885 3.51418 9.62313 3.2599C9.8774 3.00563 10.2014 2.83246 10.5541 2.76231C10.9068 2.69215 11.2723 2.72816 11.6046 2.86577C11.9368 3.00339 12.2208 3.23643 12.4205 3.53542C12.6203 3.83442 12.727 4.18595 12.727 4.54555C12.7265 5.02762 12.5348 5.4898 12.1939 5.83067C11.853 6.17154 11.3908 6.36325 10.9088 6.36373ZM41.8179 6.36373H38.1815V2.72737H41.8179V6.36373ZM70.9088 38.1819H67.2724V34.5456H70.9088V38.1819Z" fill="#F3C300"/>
</svg>
