<svg width="75" height="75" viewBox="0 0 75 75" fill="none" xmlns="http://www.w3.org/2000/svg">
<g clip-path="url(#clip0_808_178)">
<path d="M65.5992 46.5478C66.5445 43.6301 67.0245 40.587 67.0245 37.4862C67.0245 34.3969 66.548 31.3648 65.6084 28.4563C67.6746 27.6804 69.5533 26.4381 71.113 24.7862C73.8086 21.9327 75.2311 18.1995 75.1191 14.2759C74.8868 6.17534 68.1083 -0.224854 60.0066 0.00629883C56.0823 0.118506 52.4375 1.7521 49.7417 4.6062C48.3804 6.04761 47.3448 7.71328 46.6667 9.5146C43.7575 8.57563 40.7256 8.09898 37.6351 8.09898C34.5428 8.09898 31.5085 8.57681 28.5977 9.51694C26.4983 3.96138 21.1252 0 14.8436 0C6.73945 0 0.146484 6.59297 0.146484 14.6965C0.146484 20.9776 4.10845 26.35 9.66401 28.4489C8.72329 31.3603 8.24605 34.3947 8.24605 37.4862C8.24605 40.587 8.72607 43.6301 9.67134 46.5478C4.11182 48.6448 0.146484 54.0195 0.146484 60.3035C0.146484 62.5156 0.625928 64.6425 1.57178 66.6246C1.6339 66.7549 1.72106 66.8716 1.8283 66.9681C1.93554 67.0647 2.06075 67.1392 2.19678 67.1873C2.33281 67.2355 2.47699 67.2564 2.62109 67.2488C2.7652 67.2412 2.90639 67.2053 3.03662 67.1432C3.29947 67.0175 3.50171 66.7927 3.59894 66.518C3.69616 66.2434 3.68042 65.9414 3.55518 65.6783C2.75112 63.9938 2.34375 62.1855 2.34375 60.3035C2.34375 53.4119 7.95132 47.8049 14.8436 47.8049C21.7364 47.8049 27.3439 53.4119 27.3439 60.3035C27.3439 67.1956 21.7364 72.8027 14.8436 72.8027C11.7 72.8027 8.69517 71.6314 6.3835 69.5045C5.93672 69.0938 5.24136 69.1229 4.83105 69.5692C4.73335 69.6754 4.65752 69.7998 4.60789 69.9352C4.55827 70.0707 4.53582 70.2146 4.54183 70.3588C4.54784 70.503 4.5822 70.6445 4.64294 70.7754C4.70367 70.9063 4.7896 71.0239 4.8958 71.1215C7.61426 73.6228 11.1472 75 14.8436 75C21.1343 75 26.5143 71.0266 28.6068 65.4585C31.5142 66.397 34.5457 66.8735 37.6351 66.8735C40.725 66.8735 43.7571 66.397 46.6644 65.459C48.7572 71.0273 54.137 75 60.4277 75C68.5318 75 75.1248 68.407 75.1248 60.3035C75.1248 54.0195 71.1595 48.6442 65.5992 46.5478ZM51.3394 6.11455C53.6316 3.6873 56.7324 2.29805 60.07 2.20239C60.1909 2.19897 60.3119 2.19726 60.4329 2.19727C67.1609 2.19727 72.7289 7.5709 72.9223 14.3383C73.0179 17.6754 71.8083 20.85 69.5161 23.2778C67.2237 25.7051 64.1229 27.0945 60.7853 27.19C60.6644 27.1934 60.5434 27.1951 60.4225 27.1951C53.6944 27.1951 48.1264 21.8216 47.9331 15.0542C47.8368 11.717 49.0471 8.54194 51.3394 6.11455ZM46.0481 63.3488C43.3411 64.2289 40.5161 64.6762 37.6351 64.6762C34.7552 64.6762 31.9302 64.2289 29.223 63.3488C29.4347 62.3475 29.5413 61.3268 29.5412 60.3034C29.5412 52.1999 22.9477 45.6076 14.8436 45.6076C13.7936 45.6076 12.7693 45.7191 11.7812 45.9291C10.8936 43.2123 10.4433 40.3771 10.4433 37.4862C10.4433 34.6046 10.8914 31.7785 11.7731 29.0685C12.7823 29.2841 13.8115 29.3927 14.8436 29.3924C17.3613 29.3924 19.8453 28.7446 22.0282 27.5196C22.557 27.2227 22.7451 26.5532 22.4481 26.024C22.1512 25.4947 21.4816 25.3069 20.9525 25.6039C19.0973 26.6448 16.9847 27.1951 14.8436 27.1951C7.95073 27.1951 2.34375 21.5881 2.34375 14.6959C2.34375 7.80425 7.95132 2.19727 14.8436 2.19727C21.7364 2.19727 27.3439 7.80425 27.3439 14.6965C27.3439 17.5799 26.3386 20.3928 24.5133 22.6181C24.128 23.0868 24.1969 23.7791 24.6661 24.1642C24.8914 24.3489 25.1808 24.4365 25.4707 24.4079C25.7606 24.3792 26.0273 24.2366 26.2121 24.0114C28.3585 21.3948 29.5412 18.0861 29.5412 14.6959C29.5412 13.6437 29.4284 12.6166 29.2173 11.626C31.9267 10.7442 34.7534 10.2962 37.6351 10.2962C40.5161 10.2962 43.3417 10.7438 46.0499 11.6243C45.8076 12.772 45.7024 13.9445 45.7364 15.117C45.9646 23.0747 52.5107 29.393 60.4219 29.3924C61.4557 29.3925 62.4866 29.2847 63.498 29.0709C64.3793 31.7796 64.8274 34.6058 64.8274 37.4864C64.8274 40.3771 64.3765 43.2125 63.4896 45.9291C62.483 45.7149 61.4568 45.6072 60.4277 45.6076C52.3235 45.6076 45.7307 52.2 45.7307 60.3035C45.7307 61.3478 45.8405 62.3663 46.0481 63.3488ZM60.4277 72.8027C53.5349 72.8027 47.9279 67.1958 47.9279 60.3041C47.9279 53.4119 53.5349 47.8049 60.4277 47.8049C67.3204 47.8049 72.9275 53.4119 72.9275 60.3041C72.9275 67.1958 67.3204 72.8027 60.4277 72.8027Z" fill="#F3C300"/>
<path d="M22.325 8.21128C22.1401 8.08545 21.9212 8.01907 21.6976 8.021C21.474 8.02294 21.2562 8.09311 21.0736 8.22212C20.7005 8.48514 20.2994 8.70601 19.8777 8.88071C18.3683 7.69961 16.1807 7.71338 14.6822 9.01636C13.9091 9.6875 13.4168 10.6249 13.303 11.6422C12.4984 11.5225 11.7267 11.2402 11.0348 10.8124C10.3429 10.3847 9.74546 9.82045 9.2788 9.1542C9.16691 8.99534 9.01495 8.86894 8.83837 8.78784C8.66179 8.70674 8.46689 8.67384 8.27348 8.69248C8.07992 8.71123 7.89481 8.78102 7.73705 8.89472C7.57929 9.00842 7.45453 9.16196 7.37553 9.33965C7.34418 9.41055 6.60487 11.0997 6.69921 13.1671C6.77143 14.7492 7.3373 16.7885 9.40126 18.3632C8.65578 18.6046 7.87361 18.7127 7.09062 18.6826C6.84381 18.673 6.60098 18.7469 6.40131 18.8923C6.20164 19.0377 6.05676 19.2461 5.99006 19.4839C5.92335 19.7217 5.9387 19.975 6.03364 20.2031C6.12857 20.4311 6.29755 20.6205 6.51332 20.7407C8.23686 21.6981 10.0833 22.1777 11.8874 22.1777C13.6206 22.1777 15.3144 21.7347 16.8216 20.8483C18.7115 19.7365 20.0848 18.0344 20.8304 15.9555C20.8538 15.9027 20.8733 15.8479 20.8889 15.7913C21.2722 14.6623 21.473 13.4257 21.473 12.1142C21.473 12.0571 21.4713 11.9992 21.4691 11.9419C22.0976 11.201 22.5447 10.3236 22.7748 9.37964C22.8275 9.16227 22.8127 8.93399 22.7324 8.72525C22.6521 8.51651 22.51 8.33722 22.3251 8.21128H22.325ZM19.2419 11.7714C19.2638 11.886 19.2752 12.0043 19.2752 12.1177C19.2752 13.1945 19.1149 14.1919 18.81 15.0931C18.7933 15.1349 18.7794 15.1777 18.7682 15.2213C18.1978 16.8178 17.1592 18.1001 15.7076 18.9544C14.3789 19.7367 12.854 20.0696 11.2998 19.9568C11.656 19.7806 11.9997 19.5803 12.3286 19.3573C12.4906 19.2471 12.6203 19.0957 12.7042 18.9186C12.7881 18.7416 12.8232 18.5453 12.8059 18.3502C12.7884 18.155 12.7191 17.968 12.6051 17.8087C12.4911 17.6493 12.3366 17.5233 12.1575 17.4437C10.1061 16.5322 9.00927 15.0823 8.89765 13.1351C8.87726 12.7572 8.8907 12.3782 8.93778 12.0027C10.4489 13.2654 12.3847 13.9545 14.4052 13.9023C14.6916 13.895 14.9638 13.7762 15.1638 13.571C15.3638 13.3659 15.4758 13.0908 15.4758 12.8043V12.1229C15.4718 11.8488 15.5277 11.5772 15.6397 11.327C15.7516 11.0768 15.9169 10.8541 16.124 10.6746C16.9092 9.99194 18.1027 10.0749 18.7853 10.86C18.9194 11.014 19.0938 11.1276 19.289 11.1878C19.221 11.3746 19.2048 11.5762 19.2421 11.7714H19.2419ZM56.813 15.5629H58.3705V22.1141C58.3705 22.4055 58.4863 22.6849 58.6923 22.891C58.8984 23.097 59.1778 23.2127 59.4692 23.2127C59.7606 23.2127 60.04 23.097 60.246 22.891C60.4521 22.6849 60.5678 22.4055 60.5678 22.1141V15.5629H62.2644C62.8708 15.5629 63.363 15.0707 63.363 14.4643C63.363 13.8578 62.8708 13.3656 62.2644 13.3656H60.5678V10.2918C60.5678 9.23667 61.4266 8.37769 62.4824 8.37769H63.9047C64.5115 8.37769 65.0034 7.88564 65.0034 7.27905C65.0034 6.98768 64.8876 6.70824 64.6816 6.5022C64.4755 6.29617 64.1961 6.18042 63.9047 6.18042H62.4824C60.2152 6.18042 58.3705 8.02466 58.3705 10.2918V13.3656H56.813C56.2065 13.3656 55.7143 13.8578 55.7143 14.4643C55.7143 15.0707 56.2065 15.5629 56.813 15.5629ZM12.3515 65.9854C12.6131 65.9854 12.8744 65.9181 13.1073 65.7836L20.5855 61.4641C20.8151 61.3311 21.0057 61.1402 21.1383 60.9104C21.271 60.6806 21.341 60.4201 21.3413 60.1548C21.3413 59.6169 21.0519 59.1152 20.5855 58.8462L13.1075 54.5266C12.8776 54.3941 12.6171 54.3244 12.3518 54.3244C12.0866 54.3244 11.826 54.3941 11.5962 54.5266C11.3665 54.6595 11.1758 54.8504 11.043 55.0801C10.9103 55.3099 10.8402 55.5705 10.8397 55.8358V64.4745C10.8397 65.0128 11.1298 65.5146 11.5962 65.7836C11.8257 65.9163 12.0863 65.986 12.3515 65.9856V65.9854ZM13.037 57.0237L18.4593 60.1555L13.037 63.2871V57.0237ZM65.2021 52.5228H55.6543C53.9961 52.5228 52.6467 53.8719 52.6467 55.5309V65.077C52.6467 66.7357 53.9959 68.085 55.6543 68.085H65.2021C66.8603 68.085 68.2095 66.7357 68.2095 65.077V55.5309C68.2095 53.8721 66.8603 52.5228 65.2021 52.5228ZM66.0122 65.077C66.0121 65.2918 65.9268 65.4979 65.7749 65.6499C65.623 65.8019 65.417 65.8875 65.2021 65.8877H55.6543C55.4394 65.8876 55.2333 65.8021 55.0813 65.65C54.9294 65.498 54.844 65.2919 54.8439 65.077V55.5309C54.8441 55.316 54.9296 55.1099 55.0815 54.9579C55.2334 54.8059 55.4394 54.7204 55.6543 54.7201H65.2021C65.417 54.7205 65.6229 54.806 65.7748 54.958C65.9266 55.11 66.012 55.316 66.0122 55.5309V65.077Z" fill="#F3C300"/>
<path d="M60.4278 56.9831C58.5968 56.9831 57.1067 58.4731 57.1067 60.3041C57.1067 62.1352 58.5968 63.6247 60.4278 63.6247C62.2589 63.6247 63.7488 62.1352 63.7488 60.3041C63.7488 58.4731 62.2589 56.9831 60.4278 56.9831ZM60.4278 61.4274C59.8082 61.4274 59.304 60.9232 59.304 60.3041C59.304 59.6845 59.8081 59.1803 60.4278 59.1803C61.0476 59.1803 61.5515 59.6844 61.5515 60.3041C61.5515 60.9232 61.0475 61.4274 60.4278 61.4274ZM45.5865 26.088C45.2951 26.088 45.0157 26.2038 44.8096 26.4098C44.6036 26.6159 44.4878 26.8953 44.4878 27.1867V27.6793C42.9382 28.5929 41.3161 29.3774 39.6377 30.0248C38.2926 30.5421 36.9148 30.9701 35.5133 31.306C35.2916 31.1341 35.0191 31.0407 34.7386 31.0404H29.7083C28.4931 31.0404 27.5049 32.0292 27.5049 33.2439V39.0135C27.5049 40.2289 28.4931 41.2171 29.7084 41.2171H30.7138L31.0948 48.5425C31.1023 48.6865 31.1381 48.8277 31.2002 48.9579C31.2623 49.0881 31.3494 49.2048 31.4566 49.3014C31.5638 49.3979 31.6889 49.4724 31.8249 49.5206C31.9609 49.5687 32.105 49.5896 32.2491 49.5821C32.54 49.5669 32.813 49.4368 33.0081 49.2204C33.2031 49.004 33.3042 48.719 33.2891 48.4281L32.9138 41.2171H34.7386C35.0299 41.2171 35.2981 41.1175 35.5129 40.9521C36.4048 41.1671 37.2873 41.4193 38.1581 41.708C38.2951 41.7534 38.4396 41.7714 38.5835 41.761C38.7274 41.7505 38.8679 41.7118 38.9968 41.6471C39.1258 41.5824 39.2407 41.4929 39.3351 41.3838C39.4295 41.2747 39.5014 41.148 39.5469 41.0111C39.5923 40.8741 39.6103 40.7296 39.5999 40.5857C39.5894 40.4418 39.5507 40.3013 39.486 40.1724C39.4213 40.0434 39.3318 39.9284 39.2227 39.8341C39.1136 39.7397 38.9869 39.6677 38.85 39.6223C37.9147 39.3122 36.9669 39.0415 36.0089 38.8109V33.4477C37.5104 33.088 38.9864 32.6294 40.4274 32.075C41.8192 31.5383 43.1753 30.9133 44.4874 30.2037V42.0563C44.0058 41.7962 43.5182 41.5474 43.0249 41.3103C42.8949 41.2476 42.7539 41.2113 42.6098 41.2032C42.4658 41.1951 42.3215 41.2156 42.1854 41.2633C42.0492 41.311 41.9238 41.3851 41.8163 41.4813C41.7088 41.5776 41.6213 41.6941 41.5589 41.8241C41.4963 41.9541 41.46 42.0952 41.4519 42.2393C41.4439 42.3834 41.4643 42.5276 41.5121 42.6638C41.5598 42.8 41.6339 42.9254 41.7301 43.033C41.8263 43.1405 41.9427 43.228 42.0728 43.2906C42.895 43.6872 43.7006 44.1175 44.4874 44.5804V45.0708C44.4874 45.3622 44.6032 45.6416 44.8092 45.8477C45.0152 46.0537 45.2947 46.1694 45.586 46.1694C45.8774 46.1694 46.1569 46.0537 46.3629 45.8477C46.5689 45.6416 46.6847 45.3622 46.6847 45.0708V27.1865C46.6847 27.0423 46.6564 26.8994 46.6013 26.7661C46.5461 26.6328 46.4652 26.5117 46.3633 26.4097C46.2613 26.3077 46.1402 26.2267 46.007 26.1715C45.8737 26.1163 45.7309 26.0879 45.5866 26.0879L45.5865 26.088ZM33.8122 39.0192L29.7021 39.0135L29.7084 33.2376H33.8122V39.0192Z" fill="#F3C300"/>
</g>
<defs>
<clipPath id="clip0_808_178">
<rect width="75" height="75" fill="white"/>
</clipPath>
</defs>
</svg>
