<svg width="77" height="77" viewBox="0 0 77 77" fill="none" xmlns="http://www.w3.org/2000/svg">
<g clip-path="url(#clip0_808_161)">
<path d="M75.7167 35.9328C75.7166 35.5924 75.5813 35.2661 75.3407 35.0254L65.074 24.7588C64.8332 24.5183 64.5069 24.3833 64.1667 24.3833C63.8264 24.3833 63.5001 24.5183 63.2593 24.7588L52.9927 35.0254C52.752 35.2661 52.6168 35.5924 52.6167 35.9328V74.4328H50.05V46.1994C50.0499 45.8591 49.9147 45.5327 49.674 45.2921L39.4073 35.0254C39.1666 34.785 38.8402 34.65 38.5 34.65C38.1598 34.65 37.8334 34.785 37.5927 35.0254L27.326 45.2921C27.0853 45.5327 26.9501 45.8591 26.95 46.1994V74.4328H24.3833V56.4661C24.3832 56.1258 24.248 55.7994 24.0073 55.5588L13.7406 45.2921C13.4999 45.0517 13.1736 44.9166 12.8333 44.9166C12.4931 44.9166 12.1668 45.0517 11.926 45.2921L1.65935 55.5588C1.41868 55.7994 1.28342 56.1258 1.28333 56.4661V74.4328H0V76.9994H77V74.4328H75.7167V35.9328ZM11.55 74.4328V70.5828H14.1167V74.4328H11.55ZM16.6833 74.4328V69.2994C16.6833 68.9591 16.5481 68.6326 16.3075 68.392C16.0668 68.1513 15.7404 68.0161 15.4 68.0161H10.2667C9.9263 68.0161 9.59988 68.1513 9.35921 68.392C9.11854 68.6326 8.98333 68.9591 8.98333 69.2994V74.4328H3.85V56.9977L12.8333 48.0144L21.8167 56.9977V74.4329L16.6833 74.4328ZM37.2167 74.4328V70.5828H39.7833V74.4328H37.2167ZM42.35 74.4328V69.2994C42.35 68.9591 42.2148 68.6326 41.9741 68.392C41.7334 68.1513 41.407 68.0161 41.0667 68.0161H35.9333C35.593 68.0161 35.2665 68.1513 35.0259 68.392C34.7852 68.6326 34.65 68.9591 34.65 69.2994V74.4328H29.5167V46.7311L38.5 37.7477L47.4833 46.7311V74.4329L42.35 74.4328ZM62.8833 74.4328V70.5828H65.45V74.4328H62.8833ZM68.0167 74.4328V69.2994C68.0167 68.9591 67.8815 68.6326 67.6408 68.392C67.4001 68.1513 67.0737 68.0161 66.7333 68.0161H61.6C61.2596 68.0161 60.9332 68.1513 60.6925 68.392C60.4519 68.6326 60.3167 68.9591 60.3167 69.2994V74.4328H55.1833V36.4644L64.1667 27.481L73.15 36.4644V74.4329L68.0167 74.4328Z" fill="#F3C300"/>
<path d="M43.6331 57.7495H33.3665C33.0261 57.7495 32.6997 57.8847 32.459 58.1254C32.2183 58.366 32.0831 58.6925 32.0831 59.0328V64.1662C32.0831 64.8755 32.6577 65.4495 33.3665 65.4495H43.6331C44.3419 65.4495 44.9165 64.8755 44.9165 64.1662V59.0328C44.9165 58.6925 44.7813 58.366 44.5406 58.1254C44.2999 57.8847 43.9735 57.7495 43.6331 57.7495ZM34.6498 60.3162H37.2165V62.8828H34.6498V60.3162ZM42.3498 62.8828H39.7831V60.3162H42.3498V62.8828ZM69.2998 57.7495H59.0331C58.6928 57.7495 58.3664 57.8847 58.1257 58.1254C57.885 58.366 57.7498 58.6925 57.7498 59.0328V64.1662C57.7498 64.8755 58.3244 65.4495 59.0331 65.4495H69.2998C70.0085 65.4495 70.5831 64.8755 70.5831 64.1662V59.0328C70.5831 58.6925 70.4479 58.366 70.2073 58.1254C69.9666 57.8847 69.6402 57.7495 69.2998 57.7495ZM60.3165 60.3162H62.8831V62.8828H60.3165V60.3162ZM68.0165 62.8828H65.4498V60.3162H68.0165V62.8828ZM17.9665 57.7495H7.6998C7.35944 57.7495 7.03302 57.8847 6.79234 58.1254C6.55167 58.366 6.41646 58.6925 6.41646 59.0328V64.1662C6.41646 64.8755 6.99108 65.4495 7.6998 65.4495H17.9665C18.6752 65.4495 19.2498 64.8755 19.2498 64.1662V59.0328C19.2498 58.6925 19.1146 58.366 18.8739 58.1254C18.6332 57.8847 18.3068 57.7495 17.9665 57.7495ZM8.98313 60.3162H11.5498V62.8828H8.98313V60.3162ZM16.6831 62.8828H14.1165V60.3162H16.6831V62.8828ZM69.2998 47.4828H59.0331C58.6928 47.4828 58.3664 47.618 58.1257 47.8587C57.885 48.0994 57.7498 48.4258 57.7498 48.7662V53.8995C57.7498 54.6089 58.3244 55.1828 59.0331 55.1828H69.2998C70.0085 55.1828 70.5831 54.6089 70.5831 53.8995V48.7662C70.5831 48.4258 70.4479 48.0994 70.2073 47.8587C69.9666 47.618 69.6402 47.4828 69.2998 47.4828ZM60.3165 50.0495H62.8831V52.6162H60.3165V50.0495ZM68.0165 52.6162H65.4498V50.0495H68.0165V52.6162ZM69.2998 37.2162H59.0331C58.6928 37.2162 58.3664 37.3514 58.1257 37.592C57.885 37.8327 57.7498 38.1591 57.7498 38.4995V43.6328C57.7498 44.3422 58.3244 44.9162 59.0331 44.9162H69.2998C70.0085 44.9162 70.5831 44.3422 70.5831 43.6328V38.4995C70.5831 38.1591 70.4479 37.8327 70.2073 37.592C69.9666 37.3514 69.6402 37.2162 69.2998 37.2162ZM60.3165 39.7828H62.8831V42.3495H60.3165V39.7828ZM68.0165 42.3495H65.4498V39.7828H68.0165V42.3495ZM43.6331 47.4828H33.3665C33.0261 47.4828 32.6997 47.618 32.459 47.8587C32.2183 48.0994 32.0831 48.4258 32.0831 48.7662V53.8995C32.0831 54.6089 32.6577 55.1828 33.3665 55.1828H43.6331C44.3419 55.1828 44.9165 54.6089 44.9165 53.8995V48.7662C44.9165 48.4258 44.7813 48.0994 44.5406 47.8587C44.2999 47.618 43.9735 47.4828 43.6331 47.4828ZM34.6498 50.0495H37.2165V52.6162H34.6498V50.0495ZM42.3498 52.6162H39.7831V50.0495H42.3498V52.6162ZM75.4057 0.0383093L65.1391 2.60498L65.7607 5.09464L72.0125 3.53299C54.1963 23.1495 30.2942 36.1961 4.15812 40.57L1.07764 41.0832L1.49873 43.6141L4.57857 43.1007C31.549 38.5854 56.1823 25.0329 74.4331 4.66874V11.5497H76.9998V1.28298C76.9997 1.08804 76.9552 0.895679 76.8697 0.720502C76.7841 0.545326 76.6598 0.391937 76.5062 0.27198C76.3525 0.152023 76.1735 0.0686499 75.9828 0.0281895C75.7921 -0.0122709 75.5947 -0.00875521 75.4056 0.0384697L75.4057 0.0383093Z" fill="#F3C300"/>
</g>
<defs>
<clipPath id="clip0_808_161">
<rect width="77" height="77" fill="white"/>
</clipPath>
</defs>
</svg>
