<svg width="324" height="303" viewBox="0 0 324 303" fill="none" xmlns="http://www.w3.org/2000/svg">
<g clip-path="url(#clip0_15_1257)">
<path d="M175.7 63.25C167.94 63.25 161.64 69.54 161.64 77.31V126.51L224.89 63.26H175.69L175.7 63.25Z" fill="#4BB5B0"/>
<path d="M161.64 77.31C161.64 69.55 155.35 63.25 147.58 63.25H98.3799L161.63 126.5V77.3L161.64 77.31Z" fill="#67BEB9"/>
<path d="M147.59 63.25C155.35 63.25 161.65 56.96 161.65 49.19V0L98.3999 63.25H147.6H147.59Z" fill="#90CECC"/>
<path d="M161.64 154.61C134.47 154.61 112.44 176.64 112.44 203.81V302.2L126.5 288.14V238.23C135.43 247.34 147.87 253 161.64 253C188.81 253 210.84 230.97 210.84 203.8C210.84 176.63 188.81 154.6 161.64 154.6V154.61ZM161.64 238.95C142.23 238.95 126.5 223.22 126.5 203.81C126.5 184.4 142.23 168.67 161.64 168.67C181.05 168.67 196.78 184.4 196.78 203.81C196.78 223.22 181.05 238.95 161.64 238.95Z" fill="#EBE1DF"/>
<path d="M0 203.81C0 230.98 22.03 253.01 49.2 253.01H98.4V238.95H49.2C29.79 238.95 14.06 223.22 14.06 203.81C14.06 184.4 29.79 168.67 49.2 168.67H98.4V154.61H49.2C22.03 154.61 0 176.64 0 203.81Z" fill="#EBE1DF"/>
<path d="M142 279.81H148.91V280.48H142.72V284.3H148.28V284.97H142.72V288.87H148.98V289.54H142V279.83V279.81Z" fill="#EBE1DF"/>
<path d="M159.63 279.81H160.31L167.01 288.26V279.81H167.7V289.52H167.16L160.32 280.89V289.52H159.63V279.81Z" fill="#EBE1DF"/>
<path d="M178.5 284.69V284.66C178.5 282.04 180.4 279.64 183.3 279.64C184.88 279.64 185.88 280.11 186.85 280.92L186.38 281.46C185.62 280.79 184.73 280.29 183.26 280.29C180.9 280.29 179.25 282.29 179.25 284.63V284.66C179.25 287.17 180.82 289.05 183.41 289.05C184.64 289.05 185.8 288.54 186.5 287.94V285.15H183.25V284.48H187.19V288.23C186.32 289.01 184.96 289.69 183.37 289.69C180.3 289.69 178.48 287.43 178.48 284.69H178.5Z" fill="#EBE1DF"/>
<path d="M198.15 279.81H205.06V280.48H198.87V284.3H204.43V284.97H198.87V288.87H205.13V289.54H198.15V279.83V279.81Z" fill="#EBE1DF"/>
<path d="M215.78 279.81H216.46L223.16 288.26V279.81H223.85V289.52H223.31L216.47 280.89V289.52H215.78V279.81Z" fill="#EBE1DF"/>
<path d="M235.08 279.81H235.8V284.31H242.02V279.81H242.74V289.52H242.02V284.97H235.8V289.52H235.08V279.81Z" fill="#EBE1DF"/>
<path d="M257.65 279.74H258.34L262.86 289.52H262.07L260.84 286.8H255.11L253.88 289.52H253.13L257.65 279.74ZM260.54 286.15L257.99 280.53L255.42 286.15H260.54Z" fill="#EBE1DF"/>
<path d="M273.26 279.81H277.34C278.53 279.81 279.49 280.18 280.07 280.77C280.53 281.23 280.8 281.88 280.8 282.57V282.6C280.8 284.22 279.59 285.15 277.96 285.37L281.17 289.52H280.25L277.16 285.5H273.98V289.52H273.26V279.81ZM277.26 284.84C278.88 284.84 280.09 284.02 280.09 282.62V282.59C280.09 281.29 279.06 280.47 277.3 280.47H273.98V284.84H277.25H277.26Z" fill="#EBE1DF"/>
<path d="M291.73 279.81H292.45V289.52H291.73V279.81Z" fill="#EBE1DF"/>
<path d="M307.45 279.74H308.14L312.66 289.52H311.87L310.64 286.8H304.91L303.68 289.52H302.93L307.45 279.74ZM310.34 286.15L307.79 280.53L305.22 286.15H310.34Z" fill="#EBE1DF"/>
<path d="M274.09 154.61C260.32 154.61 247.88 160.27 238.95 169.38V161.64H224.89V253H238.95V203.8C238.95 184.39 254.68 168.66 274.09 168.66C293.5 168.66 309.23 184.39 309.23 203.8V253H323.29V203.8C323.29 176.63 301.26 154.6 274.09 154.6V154.61Z" fill="#EBE1DF"/>
</g>
<defs>
<clipPath id="clip0_15_1257">
<rect width="323.28" height="302.2" fill="white"/>
</clipPath>
</defs>
</svg>
