<svg width="670" height="456" viewBox="0 0 670 456" fill="none" xmlns="http://www.w3.org/2000/svg">
<path d="M667.465 400.133C653.802 398.84 640.996 397.499 628.157 396.498C622.699 396.078 617.16 396.223 611.669 396.401C600.203 396.772 588.737 397.693 577.271 397.758C561.235 397.855 545.166 397.709 529.146 397.031C519.634 396.627 510.058 395.545 500.724 393.703C492.584 392.087 484.591 390.132 476.241 390.375C474.352 390.423 472.026 390.132 470.686 391.086C466.729 393.881 462.079 393.687 457.783 394.995C450.031 397.338 442.393 400.068 434.819 402.912C429.909 404.753 425.21 407.161 420.333 409.099C417.894 410.053 415.31 410.715 412.726 411.151C399.759 413.3 386.516 414.318 373.871 417.646C360.581 421.135 346.676 422.735 334.29 429.569C323.76 435.385 314.006 442.122 305.544 450.636C297.534 458.698 291.898 457.826 288.506 447.001C286.908 441.912 286.407 436.112 286.908 430.764C289.217 406.159 296.113 382.959 309.549 361.924C310.615 360.26 310.76 357.853 310.841 355.769C311.051 350.26 313.764 346.883 318.915 345.203C327.087 342.521 335.485 340.324 343.317 336.85C352.393 332.844 361.776 332.1 371.368 332.036C374.937 332.02 378.571 332.23 382.091 332.795C394.349 334.798 406.751 336.333 418.766 339.322C440.552 344.734 459.075 356.593 475.902 371.117C479.487 374.219 483.169 376.222 487.804 377.208C510.316 381.974 532.909 382.911 555.663 379.324C556.584 379.179 557.617 379.663 558.586 379.857C558.603 379.179 558.635 378.5 558.651 377.822C557.085 376.578 555.599 375.22 553.968 374.09C546.911 369.21 539.66 364.59 532.796 359.452C528.872 356.528 525.416 352.941 521.976 349.436C514.822 342.117 506.424 336.269 499.868 328.094C489.871 315.638 478.874 303.844 465.438 294.893C461.352 292.163 456.329 290.741 451.63 289.045C439.696 284.731 427.858 279.998 415.666 276.573C400.082 272.21 384.11 269.27 368.445 265.118C359.434 262.727 350.487 263.438 341.46 263.599C331.673 263.777 321.887 264.343 312.117 264.019C300.941 263.648 293.642 268.624 288.91 278.382C285.89 284.602 283.759 291.064 281.691 297.672C276.911 312.939 270.871 327.787 265.332 342.812C263.62 347.465 260.229 350.631 256.289 353.41C254.609 354.606 253.253 356.286 251.783 357.756C251.121 358.418 250.62 359.517 249.845 359.775C241.286 362.522 234.31 368.597 225.46 370.955C219.824 372.458 214.607 375.527 209.246 377.999C203.658 380.568 198.168 383.379 192.531 385.851C187.961 387.871 183.342 389.858 178.562 391.296C174.993 392.378 171.15 393.024 167.452 392.943C165.998 392.911 163.689 390.52 163.35 388.888C162.591 385.205 162.3 381.263 162.72 377.547C164.238 364.154 169.454 351.972 177.222 341.196C185.329 329.952 194.405 319.402 203.271 308.723C211.087 299.32 219.355 290.305 229.659 283.487C233.841 280.725 237.846 277.526 242.336 275.377C253.559 270.013 265.155 265.425 276.33 259.964C286.229 255.134 296.5 252.581 307.433 252.193C310.486 252.08 313.522 251.644 317.284 251.305C315.427 247.928 312.488 247.508 310.146 246.167C302.912 242.047 295.741 237.815 288.587 233.549C286.956 232.58 285.406 231.401 283.968 230.124C273.52 220.867 261.586 220.447 249.005 224.244C244.677 225.552 240.398 226.522 235.811 226.877C231.645 227.2 227.559 229.171 223.554 230.738C205.515 237.782 188.139 246.2 170.795 254.794C158.182 261.047 145.844 268.01 131.875 271.241C123.574 273.148 115.37 274.149 107.021 272.227C97.9291 270.126 88.6756 268.495 79.842 265.603C67.8592 261.677 56.038 257.121 44.4428 252.145C30.393 246.119 16.6499 239.382 2.79389 232.903C1.72804 232.402 0.839833 231.546 -0.0322266 230.9C0.161564 223.694 0.177714 223.743 6.50822 221.933C20.2835 218.024 32.993 212.046 43.5223 202.126C54.0193 192.223 66.099 185.324 79.9712 181.317C91.2433 178.054 102.257 173.853 113.61 170.978C129.872 166.874 146.538 165.921 162.478 171.818C172.022 175.356 181.098 180.59 189.689 186.148C197.473 191.173 204.256 197.7 211.588 203.451C214.591 205.81 217.676 208.201 221.035 209.946C225.363 212.191 229.772 212.644 234.826 210.77C240.333 208.734 246.405 208.233 252.235 207.102C253.317 206.892 254.448 206.844 256.644 206.585C251.589 200.963 247.891 195.422 241.351 192.82C240.414 192.449 239.752 191.415 238.977 190.672C237.426 189.185 236.151 187.134 234.31 186.277C217.143 178.393 199.944 170.493 185.975 157.407C177.206 149.2 169.664 139.797 165.772 128.132C162.752 119.085 159.377 110.054 157.471 100.748C154.645 86.9509 156.454 73.0891 159.361 59.4213C161.202 50.794 163.027 42.1668 164.916 33.5557C165.32 31.6978 165.562 29.6621 166.531 28.095C167.435 26.641 169.147 24.8315 170.568 24.7669C172.022 24.7023 174.137 26.2532 174.929 27.6749C176.883 31.1969 178.32 35.0097 179.806 38.774C184.36 50.3578 192.321 59.5667 200.17 68.9694C208.584 79.0507 216.707 89.4227 224.394 100.069C228.56 105.837 231.758 112.348 235.085 118.697C242.126 132.187 242.465 146.76 241.27 161.43C240.769 167.536 242.126 172.626 246.082 177.375C249.425 181.398 252.058 186.019 255.061 190.332C257.5 193.838 259.438 197.99 262.603 200.656C275.022 211.109 287.263 221.95 300.683 231.029C315.847 241.288 333.143 247.411 351.149 251.062C367.299 254.342 383.496 257.315 400.259 259.173C398.644 258.042 397.013 256.959 395.431 255.796C385.983 248.865 376.552 241.918 367.137 234.939C364.844 233.226 362.518 231.514 360.451 229.559C356.301 225.633 351.65 221.998 348.404 217.41C339.296 204.533 329.203 192.4 321.661 178.345C318.06 171.624 311.519 166.341 305.818 160.929C290.638 146.534 278.09 130.733 273.633 109.537C271.081 97.4038 269.886 84.9476 267.109 73.0245C262.28 52.3127 259.438 30.5992 246.212 12.6176C243.741 9.25722 242.142 5.23441 239.897 1.06619C245.113 -1.0987 249.619 0.339171 252.833 2.31019C262.199 8.04553 273.035 9.62881 282.806 14.0394C295.241 19.6616 308.079 24.7184 319.674 31.7624C339.231 43.6531 354.573 60.2614 365.441 80.4239C375.632 99.3263 380.073 119.699 377.699 141.332C377.053 147.164 376.633 153.045 376.633 158.909C376.633 170.784 372.838 181.964 370.625 193.418C368.3 205.39 369.559 216.343 377.408 225.94C380.089 229.22 383.27 232.338 386.807 234.632C404.28 245.957 422.028 256.879 439.534 268.188C447.173 273.131 455.054 277.51 463.177 281.613C472.866 286.508 481.07 293.504 488.386 301.582C501.192 315.751 514.095 329.855 526.966 343.959C533.49 351.116 541.517 356.431 549.947 360.826C563.964 368.144 578.482 374.364 594.745 374.639C594.809 374.154 595.035 373.492 594.874 373.379C581.082 363.75 571.086 350.567 561.396 337.189C551.707 323.829 542.679 310.015 535.881 294.861C531.294 284.634 526.449 274.521 521.605 264.407C517.503 255.812 513.821 246.943 508.911 238.816C503.873 230.464 497.671 222.79 491.825 214.938C489.128 211.319 486.157 207.894 483.089 204.582C481.684 203.063 479.94 201.48 478.034 200.85C450.823 191.803 433.656 172.092 423.11 146.679C418.492 135.564 417.975 122.93 422.012 110.829C422.691 108.794 423.24 106.71 423.611 104.593C424.968 96.9029 427.761 90.2952 433.365 84.3013C438.84 78.4367 442.457 70.8596 447.06 64.1388C450.031 59.809 453.406 55.7377 456.442 51.4403C461.497 44.267 469.669 42.2152 477.017 39.0002C481.555 37.013 486.658 36.2214 491.551 35.139C499.722 33.3295 508.104 32.2147 515.29 27.3841C517.535 25.8816 520.297 25.6878 521.718 27.9173C523.09 30.066 525.335 32.6025 523.01 35.7206C519.861 39.9534 516.938 44.3317 513.853 48.613C504.713 61.2792 502.855 75.9326 502.484 90.9252C502.339 96.6606 502.678 102.412 502.807 108.147C503.259 126.597 502.096 144.918 498.98 163.142C497.042 174.451 495.701 185.873 493.925 197.215C493.182 201.949 494.91 205.293 498.124 208.718C509.315 220.657 518.149 234.244 525.367 248.946C537.253 273.18 549.155 297.43 565.708 319.563C565.369 317.431 565.305 315.201 564.659 313.166C561.332 302.616 562.721 292.195 565.951 282.066C569.875 269.739 574.526 257.638 578.741 245.408C579.419 243.437 579.807 241.256 579.742 239.188C579.613 233.42 580.872 227.814 584.926 223.953C594.066 215.245 603.433 206.698 613.397 198.976C623.506 191.14 636.087 189.04 648.312 186.552C652.527 185.696 656.79 184.969 661.07 184.484C663.783 184.161 666.819 183.127 668.854 186.326C670.888 189.525 669.709 192.417 667.998 195.05C665.672 198.653 663.056 202.094 660.391 205.471C654.626 212.773 648.861 220.108 642.869 227.232C636.426 234.907 627.721 238.816 618.145 240.884C609.182 242.823 600.671 245.715 592.871 250.707C586.589 254.73 581.712 259.157 578.741 266.701C574.946 276.346 573.476 286.169 573.234 296.089C573.088 302.05 575.204 308.448 577.723 314.006C582.148 323.764 587.607 333.054 592.726 342.489C593.986 344.799 595.956 346.754 596.989 349.129C602.319 361.246 612.929 367.126 624.055 372.345C632.275 376.19 640.479 380.148 648.974 383.25C657.323 386.303 663.492 391.247 667.384 400.117L667.465 400.133ZM185.458 384.542C185.652 384.866 185.846 385.205 186.023 385.528C186.911 385.14 187.8 384.736 188.704 384.349C188.413 383.832 188.123 383.315 187.816 382.798C187.025 383.379 186.233 383.961 185.458 384.542Z" fill="#DE9555"/>
</svg>
