<svg width="267" height="597" viewBox="0 0 267 597" fill="none" xmlns="http://www.w3.org/2000/svg">
<g clip-path="url(#clip0_15_1894)">
<path d="M287.233 580.436C289.798 570.317 292.109 560.798 294.672 551.343C295.765 547.325 297.285 543.393 298.815 539.504C302.01 531.384 305.599 523.403 308.575 515.204C312.741 503.739 316.742 492.188 320.349 480.536C322.49 473.618 324.161 466.48 325.227 459.321C326.149 453.077 326.791 446.85 329.098 440.929C329.616 439.588 330.001 437.847 331.027 437.13C334.039 435.009 335.089 431.627 337.123 428.883C340.782 423.927 344.689 419.151 348.66 414.451C351.234 411.403 354.158 408.651 356.793 405.651C358.099 404.148 359.233 402.465 360.206 400.725C365.058 391.982 369.17 382.754 374.784 374.543C380.679 365.912 385.377 356.357 393.436 349.227C400.292 343.168 407.609 337.9 415.869 334.011C423.69 330.33 424.505 326.069 417.619 320.875C414.382 318.429 410.356 316.59 406.398 315.583C388.185 310.954 369.807 309.97 351.308 314.225C349.844 314.564 348.083 314.053 346.57 313.579C342.57 312.322 339.459 313.404 336.939 316.666C332.931 321.836 329.212 327.292 324.723 332.017C319.534 337.497 316.605 344.03 314.108 350.887C313.184 353.44 312.407 356.097 311.912 358.764C310.215 368.058 308.146 377.337 307.217 386.709C305.528 403.701 309.288 420.002 315.392 435.768C316.698 439.129 317.192 442.279 316.713 445.851C314.375 463.199 309.275 479.626 300.892 495.014C300.553 495.637 300.636 496.501 300.527 497.245C300.037 497.083 299.543 496.933 299.053 496.771C298.562 495.331 297.97 493.92 297.577 492.463C295.885 486.16 294.428 479.784 292.502 473.555C291.41 469.996 289.724 466.604 288.092 463.244C284.678 456.249 282.635 448.738 278.455 441.953C272.087 431.609 266.45 420.717 263.472 408.804C262.561 405.179 262.826 401.218 262.811 397.417C262.771 387.764 262.405 378.074 263.066 368.463C263.924 356.183 265.898 343.988 266.927 331.703C267.516 324.636 270.311 318.407 272.733 311.98C275.361 305.013 278.266 298.145 280.531 291.062C283.12 282.96 288.549 279.001 296.746 278.102C301.973 277.527 307.146 277.65 312.407 277.856C324.563 278.33 336.74 277.794 348.916 277.662C352.686 277.624 355.821 276.003 358.818 273.889C360.103 272.991 361.653 272.448 363.081 271.77C363.725 271.465 364.64 271.387 365.023 270.898C369.177 265.466 375.31 262.019 379.26 256.28C381.776 252.625 385.307 249.672 388.448 246.461C391.715 243.114 395.131 239.897 398.341 236.49C400.956 233.731 403.559 230.93 405.81 227.872C407.497 225.591 408.942 223.002 409.829 220.331C410.177 219.282 409.054 217.016 407.972 216.357C405.528 214.872 402.779 213.657 400.01 213.009C390.03 210.677 379.972 211.303 370.27 214.117C360.145 217.054 350.27 220.863 340.357 224.488C331.625 227.688 323.056 231.31 315.541 236.951C312.493 239.243 309.179 241.295 306.493 243.963C299.784 250.636 293.535 257.772 286.769 264.385C280.78 270.244 276.328 276.952 273.257 284.686C272.396 286.844 271.308 288.908 270.104 291.518C268.16 289.325 268.61 287.112 268.248 285.091C267.146 278.855 265.946 272.637 264.719 266.421C264.441 265.005 263.993 263.593 263.446 262.237C259.485 252.387 262.233 243.728 268.166 235.684C270.209 232.917 271.997 230.098 273.423 226.903C274.719 224 277.175 221.576 279.32 219.106C288.974 207.98 299.442 197.679 310.029 187.446C317.729 180.006 325.869 172.944 331.752 163.76C335.238 158.299 338.051 152.677 338.807 146.203C339.626 139.152 340.822 132.105 341.007 125.037C341.257 115.449 341.014 105.815 340.412 96.2364C339.686 84.6305 338.372 73.0629 337.271 61.4803C337.185 60.5887 336.799 59.7336 336.559 58.9437C331.348 57.2424 331.379 57.2663 328.466 61.3402C322.146 70.212 314.618 77.792 304.823 82.8031C295.048 87.7953 287.021 94.6888 280.607 103.605C275.39 110.849 269.567 117.667 264.607 125.068C257.513 135.672 252.573 147.37 252.724 160.297C252.82 168.039 254.25 175.879 256.036 183.454C257.646 190.314 260.587 196.841 262.834 203.563C263.756 206.318 264.68 209.139 265.072 211.991C265.574 215.666 264.772 218.94 262.138 222.083C259.273 225.509 257.363 229.732 255.064 233.621C254.637 234.342 254.314 235.14 253.567 236.648C250.832 231.59 247.808 227.525 247.616 222.174C247.589 221.408 247.018 220.67 246.683 219.925C246.015 218.434 244.871 216.996 244.728 215.458C243.467 201.145 242.203 186.804 236.399 173.453C232.761 165.073 227.954 157.268 220.594 151.501C214.885 147.027 209.279 142.302 203.101 138.56C193.941 133.011 183.551 130.767 173.019 129.36C166.37 128.476 159.725 127.58 153.074 126.735C151.641 126.55 150.121 126.203 148.751 126.497C147.478 126.774 145.745 127.538 145.336 128.54C144.918 129.565 145.488 131.477 146.304 132.407C148.328 134.707 150.691 136.71 153.008 138.736C160.141 144.957 164.702 153.014 169.432 161.039C174.503 169.642 179.856 178.111 185.518 186.338C188.584 190.796 192.43 194.75 196.128 198.755C203.991 207.245 214.342 211.21 225.154 214.1C229.655 215.301 232.954 217.572 235.345 221.62C237.372 225.043 240.009 228.109 242.331 231.363C244.219 234.005 246.698 236.454 247.798 239.403C252.112 250.971 256.749 262.51 259.823 274.445C263.297 287.93 263.264 301.887 261.278 315.721C259.501 328.13 257.492 340.495 254.54 352.98C254.143 351.534 253.784 350.089 253.356 348.658C250.805 340.119 248.239 331.587 245.646 323.059C245.005 320.978 244.373 318.875 243.501 316.894C241.749 312.918 240.334 308.657 237.877 305.16C230.982 295.345 224.87 285.015 216.73 276.021C212.836 271.725 210.724 265.689 208.304 260.222C201.872 245.669 193.761 232.643 179.719 224.036C171.68 219.11 163.064 215.072 155.234 210.037C141.634 201.288 126.808 193.706 117.308 179.637C115.533 177.009 113.06 174.836 110.648 172.163C107.765 175.348 107.644 178.943 108.234 181.749C109.949 189.925 108.315 198.094 108.977 206.221C109.827 216.566 110.169 227.057 112.252 237.164C115.772 254.213 123.747 269.447 135.412 282.384C146.346 294.513 159.803 302.898 175.904 306.721C180.246 307.748 184.565 308.949 188.765 310.446C197.27 313.479 206.247 313.615 215.016 314.955C224.185 316.346 231.708 320.046 236.576 328.12C238.24 330.878 239.661 333.954 240.4 337.074C244.048 352.487 247.336 367.992 250.963 383.424C252.552 390.159 253.675 396.924 254.538 403.793C255.569 411.985 258.483 419.65 262.4 426.955C269.276 439.749 276.081 452.597 282.895 465.421C286.354 471.923 288.11 479.032 289.104 486.194C290.764 498.107 291.51 510.098 287.552 521.82C287.188 521.743 286.656 521.736 286.617 521.591C283.244 509.25 276.355 498.721 269.25 488.362C262.156 478.007 254.569 468.011 245.452 459.27C239.299 453.372 233.293 447.317 227.288 441.263C222.18 436.129 216.768 431.226 212.202 425.633C207.507 419.89 203.595 413.486 199.465 407.292C197.562 404.436 195.868 401.432 194.28 398.388C193.551 396.993 192.862 395.339 192.898 393.813C193.37 372.005 183.639 354.671 168.132 340.625C161.351 334.477 152.434 330.88 142.736 330.683C141.104 330.649 139.471 330.51 137.861 330.236C132.006 329.244 126.56 329.558 120.835 332.043C115.236 334.468 108.885 335.125 102.896 336.706C99.0354 337.729 95.2571 339.108 91.4035 340.186C84.9744 341.976 81.4172 347.307 77.2373 351.751C74.6546 354.495 72.7839 357.949 70.7585 361.179C67.3748 366.572 64.4351 372.293 59.1392 376.208C57.4896 377.433 56.6452 379.362 57.879 380.95C59.0673 382.482 60.3105 384.738 63.1378 383.868C66.974 382.693 70.8566 381.717 74.711 380.6C86.1181 377.285 97.0877 379.697 107.921 383.259C112.066 384.62 116.098 386.332 120.173 387.889C133.272 392.925 146.691 396.77 160.539 399.191C169.134 400.691 177.658 402.647 186.235 404.271C189.815 404.947 191.769 407.039 193.401 410.217C199.093 421.285 206.567 431.084 215.253 440.011C229.573 454.716 243.901 469.437 255.524 486.95C254.083 486.162 252.503 485.547 251.21 484.564C244.504 479.486 236.686 477.82 228.605 477.547C218.774 477.211 208.919 477.453 199.083 477.35C197.498 477.333 195.836 477.054 194.372 476.479C190.274 474.914 185.937 474.385 182.136 476.303C173.564 480.628 165.049 485.157 156.973 490.324C148.778 495.567 144.06 504.045 139.154 512.169C137.464 514.97 135.854 517.839 134.414 520.782C133.489 522.643 131.973 524.555 133.744 526.829C135.515 529.104 137.888 528.998 140.211 528.444C143.386 527.698 146.519 526.702 149.618 525.655C156.321 523.389 163.047 521.131 169.681 518.658C176.824 516.001 181.848 510.762 185.775 504.429C189.454 498.502 193.699 493.142 199.268 488.828C203.754 485.355 208.17 482.99 214.333 482.788C222.211 482.532 229.622 483.988 236.788 486.347C241.095 487.766 245.137 490.915 248.474 494.14C254.332 499.802 259.591 506.086 265.041 512.163C266.374 513.656 267.271 515.567 268.708 516.914C276.025 523.827 277.526 532.931 278.421 542.236C279.074 549.108 279.813 555.997 279.865 562.876C279.919 569.638 281.883 575.32 287.242 580.374L287.233 580.436ZM399.211 231.088C399.393 231.309 399.587 231.535 399.773 231.745C399.268 232.282 398.752 232.815 398.243 233.364C397.947 233.024 397.651 232.684 397.359 232.332C397.978 231.913 398.597 231.495 399.211 231.088Z" fill="#74A6A3"/>
</g>
<defs>
<clipPath id="clip0_15_1894">
<rect width="509.672" height="346.739" fill="white" transform="matrix(-0.335852 0.941915 0.941915 0.335852 171.174 0)"/>
</clipPath>
</defs>
</svg>
