<svg width="568" height="878" viewBox="0 0 568 878" fill="none" xmlns="http://www.w3.org/2000/svg">
<g clip-path="url(#clip0_15_1077)">
<g clip-path="url(#clip1_15_1077)">
<path d="M441.811 321.584C440.743 305.015 439.398 288.47 438.71 271.865C437.972 253.945 437.542 235.987 437.563 218.066C437.56 203.953 437.85 189.771 439.101 175.709C440.236 162.804 442.043 149.868 445.06 137.311C447.031 129.104 451.334 121.355 455.292 113.752C458.985 106.692 463.501 100.07 467.83 93.3566C469.48 90.8332 471.498 88.5134 473.608 86.3483C477.293 82.563 483.186 83.3978 485.61 88.1675C486.984 90.8543 487.828 93.8672 488.57 96.8199C492.193 111.21 492.454 125.977 492.725 140.65C493.08 160.758 495.366 180.595 498.688 200.406C501.99 220.137 504.252 240.038 506.83 259.88C508.44 272.214 508.715 284.589 507.167 296.932C506.291 303.911 505.036 310.854 503.608 317.736C502.14 324.799 500.235 331.782 498.563 338.798C495.226 352.881 491.882 366.986 488.588 381.085C485.483 394.443 486.707 407.594 491.065 420.458C495.589 433.821 500.354 447.122 504.9 460.493C506.002 463.744 506.868 467.107 507.333 470.5C508.659 480.385 512.477 489.169 518.403 497.109C521.103 500.753 523.839 504.361 526.924 508.435C527.605 507.062 528.344 506.149 528.5 505.152C530.277 493.893 536.531 485.121 543.97 477.012C547.064 473.654 550.446 470.519 553.813 467.428C557.336 464.173 559.022 460.439 559.526 455.481C560.633 444.596 559.724 433.807 559.414 422.985C559.291 418.832 559.833 414.67 559.732 410.525C559.624 406.745 558.802 402.981 558.694 399.201C558.144 375.282 562.964 352.502 574.405 331.474C582.429 316.723 591.212 302.387 599.973 288.043C606.826 276.817 613.787 265.628 621.425 254.948C632.848 238.952 645.481 223.897 660.539 211.045C667.028 205.486 673.216 199.601 680.611 195.145C683.494 193.425 685.835 193.445 688.578 195.025C691.278 196.591 693.147 198.572 692.474 201.929C691.993 204.328 691.916 207.04 690.699 209.031C684.971 218.527 681.516 228.998 677.236 239.104C673.003 249.079 668.601 259.044 665.223 269.297C662.338 278.086 660.635 287.268 658.693 296.365C655.892 309.415 653.273 322.504 650.72 335.617C648.223 348.358 646.011 361.127 643.493 373.861C641.497 383.942 639.232 393.952 637.032 403.986C636.786 405.097 636.068 406.091 635.554 407.132C636.118 407.405 636.69 407.656 637.254 407.928C638.858 407.125 640.576 406.485 642.067 405.52C653.169 398.118 664.243 390.657 675.26 383.152C681.89 378.646 689.132 375.872 697.128 375.322C706.082 374.695 715.051 374.024 724.025 373.892C729.533 373.808 735.179 374.164 740.534 375.347C752.347 377.98 764.243 379.199 776.325 379.407C791.594 379.666 806.87 380.734 822.133 379.278C825.165 379.004 828.251 378.578 831.25 378.879C837.715 379.549 840.229 385.035 836.674 390.457C835.654 392.029 834.305 393.631 832.722 394.514C822.781 400.15 813.015 406.263 802.084 409.787C794.469 412.233 786.685 414.399 778.819 415.754C766.916 417.809 755.228 420.43 744.129 425.192C730.266 431.129 715.58 433.376 700.849 435.68C695.407 436.546 689.944 437.746 684.699 439.44C672.205 443.512 659.256 444.441 646.348 445.53C639.599 446.081 633.188 447.68 626.957 450.224C624.011 451.433 622.001 453.315 620.647 456.384C615.145 468.773 609.412 481.055 603.7 493.345C602.341 496.29 601.204 499.508 599.156 501.915C591.587 510.736 587.767 521.689 581.852 531.437C580.785 533.213 579.349 534.784 578.448 536.643C575.681 542.465 573.074 548.392 570.43 554.282C568.804 557.914 567.157 561.539 565.618 565.202C561.877 574.129 559.85 583.05 562.862 592.87C565.57 601.751 569.781 609.77 574.211 617.792C577.235 623.287 579.713 629.079 582.807 635.553C583.527 632.823 584.407 630.468 584.771 628.053C586.701 615.185 589.924 602.602 594.712 590.573C601.593 573.241 608.809 556.004 616.877 539.19C621.218 530.157 627.181 521.795 633.168 513.711C639.102 505.707 647.287 499.916 655.2 493.857C661.397 489.125 666.874 483.453 672.557 478.099C677.141 473.776 681.29 468.955 686.103 464.957C690.774 461.08 695.954 457.773 701.11 454.532C704.474 452.419 709.445 454.273 710.199 458.159C710.9 461.782 710.757 465.718 710.196 469.385C709.148 476.156 707.424 482.836 706.166 489.582C704.01 501.221 702.392 513.001 699.765 524.522C697.43 534.728 693.76 544.634 691.106 554.776C687.072 570.276 680.073 584.41 672.138 598.215C659.642 619.946 645.771 640.653 629.162 659.488C624.926 664.278 621.512 669.993 618.71 675.778C614.22 685.027 610.604 694.707 606.46 704.151C605.007 707.503 605.715 710.345 607.301 713.401C614.118 726.644 621.192 739.783 627.427 753.286C631.655 762.435 637.48 770.314 644.243 779.21C644.043 776.938 644.042 775.763 643.829 774.636C638.93 749.596 640.303 725.011 648.273 700.654C652.162 688.747 658.464 678.108 663.719 666.904C667.844 658.137 670.994 648.806 673.56 639.465C678.599 621.189 685.144 603.494 692.602 586.122C694.246 582.301 696.528 578.68 698.974 575.288C702.886 569.822 709.209 570.27 712.083 576.398C713.994 580.473 714.889 585.069 716.043 589.488C721.232 608.931 720.593 629.153 723.662 648.851C726.294 665.63 725.531 682.188 723.758 698.976C722.604 710.064 721.141 720.92 717.17 731.33C714.583 738.097 711.657 744.718 708.752 751.348C705.323 759.186 701.863 767.038 698.202 774.769C696.664 778.017 694.553 781.013 692.653 784.108C688.243 791.258 683.495 798.19 679.519 805.566C676.328 811.482 675.39 817.877 679.429 824.098C680.089 825.138 680.276 826.476 680.906 828.362C676.87 826.911 673.584 825.897 669.804 827.179C668.3 827.699 665.853 826.248 664.135 825.225C657.489 821.262 652.509 815.418 647.491 809.683C640.929 802.228 634.403 794.738 627.944 787.197C622.615 780.96 617.41 774.646 612.176 768.345C608.021 763.355 603.692 758.646 598.044 755.109C591.754 751.175 585.706 746.763 579.963 742.044C573.04 736.369 565.095 732.828 556.834 729.763C540.547 723.666 523.943 718.534 507.029 714.417C488.648 709.953 470.26 705.437 452.671 698.318C441.548 693.801 430.692 688.669 419.6 684.065C411.107 680.551 402.915 676.531 395.761 670.751C388.535 664.896 381.145 659.228 375.869 651.249C373.155 647.16 369.394 643.752 366.379 639.825C363.492 636.09 363.72 634.336 365.9 631.144C367.338 629.01 369.147 628.598 371.327 629.074C375.629 629.983 379.877 631.043 384.155 632.017C399.688 635.475 415.46 636.938 431.311 638.111C458.24 640.117 484.844 644.013 510.771 651.975C534.092 659.139 554.305 671.294 571.659 688.358C575.164 691.798 578.558 695.345 582.864 699.704C581.328 690.136 577.265 683.221 570.838 677.942C562.536 671.12 556.731 662.49 551.828 653.176C548.626 647.079 548.351 640.035 548.969 633.577C549.734 625.458 546.322 619.678 541.963 613.809C528.986 596.334 512.561 582.387 496.191 568.287C480.819 555.029 464.249 543.5 447.777 531.762C437.543 524.453 428.118 515.962 418.728 507.581C407.348 497.422 395.896 487.261 385.312 476.306C372.278 462.798 361.383 447.6 353.764 430.258C350.617 423.104 347.103 416.09 343.905 408.944C342.986 406.907 342.588 404.639 341.9 402.365C343.278 401.164 344.235 399.839 345.529 399.294C346.742 398.768 348.548 398.502 349.676 399.047C376.088 411.656 401.22 426.503 424.991 443.609C434.036 450.131 441.913 457.879 449.255 466.245C461.956 480.761 474.688 495.263 487.567 509.621C498.652 522 509.958 534.164 521.139 546.479C525.201 550.972 529.16 555.55 534.024 559.714C533.822 558.763 533.76 557.762 533.381 556.895C531.454 552.52 529.46 548.196 527.503 543.836C524.437 537.005 520.264 530.957 515.399 525.202C511.121 520.144 507.247 514.495 504.473 508.501C500.512 499.911 494.949 492.467 489.859 484.651C484.038 475.722 478.541 466.565 472.735 457.591C468.206 450.61 463.619 443.658 458.736 436.918C451.511 426.906 444.924 416.336 435.887 407.787C428.155 400.457 420.276 393.197 411.911 386.622C399.259 376.673 385.31 368.663 370.657 362.092C359.68 357.162 348.468 352.76 337.216 348.54C322.03 342.857 306.683 337.557 291.405 332.134C278.148 327.426 264.528 325.549 250.443 325.954C231.71 326.502 213.76 330.163 196.735 337.992C189.991 341.088 183.535 344.823 176.735 347.802C173.147 349.372 169.126 350.299 165.216 350.776C161.356 351.247 159 349.192 158.619 345.217C158.414 342.821 158.887 340.029 159.74 337.615C160.677 334.962 162.325 332.512 163.878 330.125C169.43 321.472 174.99 312.796 180.744 304.263C187.614 294.094 197.652 287.906 208.522 282.893C212.501 281.046 216.606 279.463 220.614 277.675C230.524 273.301 240.869 272.333 251.483 273.93C261.841 275.487 272.028 274.414 282.236 272.591C299.314 269.526 316.525 269.272 333.476 272.938C341.614 274.688 349.338 278.371 357.245 281.189C358.463 281.619 359.635 282.18 361.694 282.027C360.457 279.853 359.219 277.679 357.944 275.541C349.983 262.285 341.396 249.345 334.215 235.679C329.545 226.814 326.342 217.049 323.452 207.369C319.688 194.764 316.591 181.929 313.823 169.064C310.247 152.465 308.535 135.571 307.102 118.653C306.354 109.902 305.379 101.168 304.661 92.4024C304.536 90.8174 304.653 88.7554 305.563 87.6338C306.749 86.1452 308.272 84.1884 310.847 85.0003C313.066 85.711 314.314 87.3015 314.69 89.562C317.318 105.313 325.647 118.43 334.494 131.119C346.74 148.654 360.021 165.477 372.046 183.154C382.877 199.088 392.741 215.682 402.768 232.163C418.675 258.305 428.923 286.897 438.479 315.784C439.171 317.912 440.192 319.936 441.045 322.023C441.317 321.874 441.56 321.74 441.833 321.592L441.811 321.584ZM475.918 418.261C475.664 416.973 475.453 415.7 475.118 414.432C471.714 401.294 470.789 388.126 474.498 374.859C475.208 372.297 475.518 369.619 476.127 366.996C479.363 353.269 482.395 339.494 485.951 325.83C489.858 310.824 493.468 295.761 493.331 280.156C493.078 251.866 489.904 223.816 484.631 196.027C481.664 180.401 480.523 164.662 480.792 148.81C481.067 132.594 481.437 116.386 479.727 100.25C479.52 98.343 478.831 96.4853 478.144 93.7233C468.47 106.497 461.566 119.393 456.432 133.233C452.34 144.261 451.25 155.861 449.745 167.387C449.003 173.019 448.398 178.676 448.224 184.362C447.979 192.738 448.216 201.138 448.147 209.503C448.066 220.53 447.212 231.601 447.957 242.577C449.586 266.902 451.865 291.188 454.174 315.459C456.97 344.721 460.95 373.815 469.219 402.124C470.854 407.741 472.056 413.546 475.918 418.261ZM670.073 222.411C669.77 222.231 669.445 222.043 669.15 221.84C668.085 222.638 667.028 223.414 665.985 224.22C665.238 224.812 664.455 225.367 663.793 226.063C649.167 240.878 635.511 256.476 624.53 274.266C613.705 291.819 602.939 309.416 591.877 326.812C575.036 353.294 567.679 382.148 569.22 413.437C569.768 424.833 570.753 436.236 569.257 447.668C569.164 448.418 569.944 449.256 570.619 450.668C575.55 446.956 579.926 443.293 584.643 440.19C592.148 435.284 599.62 430.195 607.613 426.195C615.047 422.462 618.29 416.882 619.787 409.046C623.125 391.636 627.175 374.357 630.725 356.973C633.633 342.787 636.04 328.498 639 314.306C641.25 303.507 643.659 292.741 646.563 282.1C648.945 273.281 651.793 264.528 655.075 256.001C657.935 248.598 661.722 241.547 665.01 234.319C666.787 230.398 668.405 226.371 670.095 222.419L670.073 222.411ZM437.597 392.077C432.684 383.762 428.368 375.902 423.535 368.398C412.535 351.279 398.397 336.745 384.761 321.826C368.771 304.363 348.65 294.026 325.99 288.172C323.057 287.405 320.026 286.848 316.995 286.633C304.976 285.762 292.958 286.065 281.017 287.74C269.975 289.294 259.007 289.601 247.972 287.536C241.16 286.255 234.27 286.511 227.58 288.624C223.759 289.817 219.902 290.974 216.163 292.417C203.986 297.115 193.405 303.943 186.115 315.162C183.4 319.314 180.346 323.25 177.574 327.357C175.514 330.421 173.677 333.612 171.732 336.764C173.351 337.165 174.166 336.866 174.925 336.449C181.429 332.853 187.731 328.794 194.453 325.69C210.566 318.297 227.847 314.937 245.294 312.908C262.178 310.948 278.811 313.23 294.959 318.544C310.013 323.495 325.013 328.599 340.135 333.355C363.243 340.639 385.176 350.418 404.639 364.975C415.767 373.284 426.14 382.624 437.582 392.121L437.597 392.077ZM696.123 473.218C694.792 474.215 694.165 474.605 693.646 475.106C692.667 476.008 691.63 476.864 690.781 477.885C678.994 491.722 665.769 504.024 651.984 515.835C643.052 523.465 636.074 533.107 631.102 543.579C622.113 562.514 612.197 581.097 606.001 601.263C602.896 611.368 599.376 621.4 597.774 631.889C595.099 649.288 595.362 666.82 596.486 684.338C596.557 685.244 597.206 686.109 597.864 687.638C598.81 685.722 599.465 684.559 599.961 683.364C605.873 669.262 612.94 655.836 622.837 644.022C628.591 637.152 634.828 630.574 639.789 623.18C648.167 610.682 656.019 597.802 663.452 584.726C667.654 577.332 670.919 569.338 673.935 561.354C676.745 553.884 678.621 546.084 680.975 538.453C687.411 517.467 692.634 496.175 696.121 473.29L696.123 473.218ZM665.95 806.519C667.444 803.33 668.585 800.724 669.892 798.202C677.326 783.805 685.006 769.545 692.195 755.012C695.979 747.348 698.989 739.313 702.166 731.361C705.502 723.026 707.168 714.296 708.566 705.422C710.319 694.301 711.707 683.173 711.2 671.939C710.7 660.34 709.711 648.74 708.51 637.187C707.098 623.529 705.255 609.915 703.558 596.303C703.451 595.361 702.883 594.475 702.465 593.374C701.805 593.996 701.393 594.193 701.278 594.52C696.236 608.93 691.201 623.318 686.202 637.744C682.841 647.465 679.893 657.332 676.083 666.869C673.251 673.916 669.115 680.428 665.892 687.336C657.708 704.892 653.634 723.485 653.121 742.797C652.669 759.514 654.396 775.949 660.489 791.725C661.639 794.699 662.31 797.994 662.56 801.164C662.757 803.581 663.672 805.005 665.98 806.505L665.95 806.519ZM436.162 356.472C435.832 355.328 435.563 354.083 435.154 352.887C427.843 330.59 420.451 308.314 413.242 286.004C403.945 257.283 389.322 231.106 374.027 205.377C363.569 187.765 351.688 170.996 340.543 153.802C334.24 144.09 328.136 134.229 321.929 124.454C321.609 123.974 320.972 123.7 319.849 122.863C320.698 137.838 322.768 151.777 325.804 165.544C327.903 175.042 330.184 184.506 332.796 193.867C336.135 205.809 339.45 217.815 345.352 228.803C355.849 248.312 366.605 267.644 380.414 285.119C388.338 295.158 395.426 305.832 403.313 315.907C414.017 329.57 425.157 342.898 436.191 356.458L436.162 356.472ZM384.367 642.633C392.554 654.698 403.537 662.932 416.11 668.744C438.847 679.223 462.257 688.008 486.502 694.495C507.147 700.028 527.831 705.452 548.289 711.653C562.566 715.964 576.327 721.804 587.893 731.711C588.36 732.121 589.02 732.33 589.606 732.61C589.889 732.294 590.172 731.978 590.454 731.662C584.031 724.159 577.467 716.777 571.23 709.094C563.223 699.221 553.993 690.8 543.522 683.676C531.632 675.586 519.198 668.551 505.416 664.293C493.947 660.755 482.39 657.259 470.67 654.781C459.502 652.401 448.097 650.621 436.717 649.878C421.68 648.895 406.771 647.272 391.976 644.564C389.403 644.095 386.893 643.306 384.381 642.663L384.367 642.633ZM360.411 415.876C361.271 417.941 361.592 418.764 361.964 419.58C371.478 440.209 385.693 457.436 401.936 472.934C413.511 483.994 426.021 494.138 438.31 504.423C446.351 511.153 454.346 518.086 463.105 523.823C475.462 531.907 486.925 541.068 498.133 550.605C505.828 557.139 513.665 563.479 521.442 569.92C517.961 565.095 514.169 560.6 510.384 556.083C500.806 544.701 491.666 532.911 481.539 522.044C469.387 509.019 458.818 494.768 447.546 481.051C437.852 469.236 427.659 458.004 414.963 449.287C405.719 442.915 396.519 436.485 387.207 430.235C382.184 426.87 377.049 423.613 371.776 420.674C368.57 418.881 364.972 417.781 360.425 415.905L360.411 415.876ZM633.411 427.874C633.645 428.25 633.865 428.597 634.099 428.973C636.357 428.744 638.607 428.536 640.858 428.255C650.88 427.026 661.057 426.537 670.877 424.357C685.025 421.211 699.116 417.947 713.471 415.877C717.983 415.221 722.544 414.288 726.845 412.775C743.787 406.776 760.853 401.53 778.776 399.4C782.329 398.968 785.781 397.643 789.283 396.729C787.2 395.772 785.296 395.76 783.394 395.675C772.723 395.28 762.072 395.382 751.449 393.536C742.09 391.917 732.563 390.777 723.07 390.578C713.971 390.372 704.811 391.514 695.716 392.336C693.115 392.566 690.331 393.246 688.077 394.504C681.925 397.932 675.786 401.462 670.068 405.532C661.535 411.615 652.919 417.45 643.329 421.815C639.829 423.415 636.7 425.832 633.411 427.874ZM598.985 466.952C598.62 466.603 598.232 466.246 597.859 465.918C596.698 466.78 595.488 467.575 594.413 468.541C587.431 474.732 580.799 481.39 573.433 487.079C568.389 490.971 567.22 495.523 567.196 501.409C567.136 508.432 566.382 515.479 565.652 522.461C565.167 527.157 564.26 531.801 563.534 536.486C567.061 532.595 569.763 528.34 572.125 523.941C576.976 514.917 581.365 505.608 586.52 496.765C592.057 487.324 594.644 476.816 598.978 466.974L598.985 466.952ZM549.189 551.058C553.252 537.622 556.305 525.102 556.522 511.751C550.482 517.493 544.909 522.812 538.936 528.504C542.059 535.38 545.399 542.748 549.189 551.058ZM540.476 505.592C547.935 497.98 551.08 487.693 557.212 479.269C548.368 486.025 542.734 494.772 540.476 505.592ZM477.833 424.539C475.414 428.527 475.246 432.071 477.33 435.172C480.072 439.247 482.829 443.352 485.564 447.449C485.762 447.372 485.939 447.288 486.137 447.211C483.46 439.906 480.774 432.622 477.826 424.561L477.833 424.539ZM562.874 647.319C562.457 647.392 562.032 647.486 561.593 647.551C563.149 653.947 567.711 658.689 571.594 663.828C568.694 658.327 565.773 652.819 562.874 647.319ZM578.219 460.031C574.592 462.198 571.858 463.776 571.079 467.365C573.218 465.186 575.344 462.977 578.219 460.031Z" fill="#DE9555"/>
</g>
</g>
<defs>
<clipPath id="clip0_15_1077">
<rect width="682.393" height="702.266" fill="white" transform="translate(0.949219 643.787) rotate(-70.5412)"/>
</clipPath>
<clipPath id="clip1_15_1077">
<rect width="537.854" height="553.517" fill="white" transform="translate(77.345 502.247) rotate(-70.5412)"/>
</clipPath>
</defs>
</svg>
