<svg width="638" height="506" viewBox="0 0 638 506" fill="none" xmlns="http://www.w3.org/2000/svg">
<path d="M0.664872 297.305C12.3236 290.088 23.3301 283.427 34.1576 276.476C38.7575 273.516 43.0806 270.058 47.3455 266.603C56.2516 259.387 64.8263 251.734 73.9175 244.763C86.6285 235.008 99.5113 225.427 112.677 216.299C120.495 210.88 128.774 205.962 137.317 201.794C144.773 198.168 152.318 194.9 158.82 189.668C160.295 188.49 162.323 187.318 162.815 185.75C164.279 181.137 168.1 178.485 170.731 174.851C175.49 168.308 179.926 161.525 184.242 154.691C187.04 150.262 189.33 145.51 192.044 141.023C193.411 138.793 195.068 136.706 196.863 134.8C205.893 125.263 215.823 116.461 223.885 106.181C232.363 95.3826 242.47 85.7181 248.211 72.8033C253.086 61.8194 256.789 50.5705 258.391 38.6866C259.906 27.4357 264.921 24.7287 274.151 31.2978C278.494 34.3837 282.392 38.6981 285.219 43.2567C298.223 64.2353 306.728 86.863 308.718 111.715C308.873 113.683 310.21 115.686 311.403 117.394C314.559 121.906 314.435 126.231 311.347 130.677C306.458 137.743 301.096 144.56 296.955 152.052C292.145 160.718 285.122 166.972 277.522 172.813C274.69 174.98 271.67 177.005 268.526 178.68C257.557 184.482 246.755 190.746 235.384 195.618C214.772 204.457 192.869 206.197 170.707 204.792C165.981 204.487 161.841 205.114 157.556 207.127C136.755 216.92 118.199 229.809 102.244 246.396C101.598 247.067 100.483 247.305 99.5945 247.735C99.991 248.285 100.375 248.845 100.771 249.394C102.769 249.439 104.771 249.623 106.752 249.539C115.315 249.163 123.876 248.465 132.44 248.412C137.329 248.371 142.245 249.141 147.099 249.855C157.211 251.363 167.425 250.95 177.578 253.5C193.052 257.382 208.924 260.132 225.022 259.148C229.923 258.855 234.78 256.956 239.545 255.47C251.651 251.701 263.932 248.325 275.707 243.693C290.748 237.76 305.24 230.461 320.218 224.313C328.836 220.777 335.532 214.812 342.623 209.236C350.308 203.188 357.76 196.832 365.735 191.193C374.858 184.744 377.668 176.378 375.549 165.755C374.202 158.982 372.001 152.552 369.661 146.045C364.257 131.008 360.11 115.545 355.457 100.243C354.013 95.5061 354.803 90.939 356.265 86.3491C356.881 84.3839 356.947 82.2278 357.231 80.1707C357.358 79.2439 357.094 78.0674 357.556 77.3938C362.714 70.0423 364.605 60.9968 370.229 53.7785C373.811 49.1811 376.113 43.5899 378.891 38.3867C381.79 32.9699 384.467 27.4187 387.464 22.0498C389.885 17.6842 392.364 13.3151 395.303 9.28578C397.492 6.2703 400.162 3.43635 403.156 1.2688C404.333 0.417367 407.614 0.92686 408.868 2.02099C411.695 4.4949 414.304 7.45717 416.212 10.6682C423.082 22.2449 426.277 35.0888 426.593 48.354C426.92 62.1967 426.058 76.0712 425.44 89.9219C424.888 102.123 423.742 114.289 419.651 125.933C417.987 130.657 416.728 135.62 414.449 140.04C408.747 151.082 402.282 161.732 396.678 172.823C391.709 182.642 385.07 190.873 376.598 197.779C374.236 199.711 372.081 201.891 369.29 204.432C372.806 205.999 375.399 204.559 378.073 204.213C386.319 203.126 394.582 202.168 402.852 201.245C404.736 201.033 406.682 201.036 408.596 201.184C422.501 202.247 432.257 195.379 439.984 184.765C442.641 181.111 445.464 177.757 448.902 174.706C452.025 171.935 454.089 167.9 456.333 164.235C466.448 147.742 475.207 130.556 483.833 113.247C490.104 100.659 495.728 87.6706 504.902 76.6683C510.362 70.1414 516.29 64.3931 524.099 60.8847C532.605 57.0693 540.958 52.7836 549.737 49.7544C561.647 45.6476 573.808 42.1398 586.043 39.1028C600.866 35.4203 615.874 32.4888 630.815 29.2833C631.966 29.0387 633.19 29.1842 634.274 29.1723C638.467 35.0245 638.425 34.9957 634.475 40.2564C625.865 51.6818 619.35 64.11 616.95 78.3601C614.566 92.5779 609.109 105.359 600.479 116.92C593.472 126.32 587.236 136.311 579.931 145.451C569.457 158.532 556.761 169.348 540.511 174.274C530.777 177.218 520.392 178.529 510.198 179.29C500.969 179.988 491.631 178.886 482.323 178.733C478.508 178.669 474.609 178.627 470.882 179.265C466.081 180.09 462.298 182.39 459.403 186.933C456.246 191.876 451.713 195.939 447.753 200.358C447.018 201.178 446.147 201.899 444.554 203.43C451.971 204.855 458.259 207.034 465.036 205.157C466.006 204.887 467.157 205.311 468.222 205.434C470.354 205.682 472.607 206.545 474.59 206.116C493.015 202.031 511.477 197.94 530.494 199.925C542.428 201.166 554.106 204.099 564.241 211.034C572.104 216.413 580.24 221.565 587.371 227.822C597.944 237.098 604.866 249.223 610.797 261.856C614.535 269.834 618.286 277.803 621.976 285.797C622.776 287.519 623.811 289.286 623.985 291.118C624.142 292.821 623.87 295.294 622.778 296.204C621.659 297.132 619.039 297.174 617.551 296.52C613.871 294.896 610.426 292.729 606.972 290.629C596.358 284.157 584.463 281.632 572.541 278.885C559.76 275.938 547.034 272.585 534.491 268.749C527.693 266.673 521.22 263.42 514.74 260.374C500.996 253.886 491.935 242.492 484.037 230.094C480.751 224.931 476.601 221.699 470.585 220.306C465.497 219.121 460.613 217.032 455.619 215.412C451.562 214.093 447.514 211.957 443.386 211.746C427.191 210.92 410.904 209.679 394.741 210.551C376.477 211.537 359.011 217.102 342.47 225.062C327.632 232.198 312.941 239.607 298.472 248.245C300.44 248.17 302.392 248.047 304.354 248.018C316.057 247.833 327.758 247.671 339.466 247.545C342.325 247.524 345.21 247.483 348.035 247.792C353.708 248.412 359.604 248.498 364.957 250.192C379.977 254.944 395.334 258.51 409.818 265.146C416.74 268.322 425.135 268.58 432.94 269.448C453.711 271.744 473.235 276.748 489.571 290.93C498.922 299.047 507.388 308.241 516.792 316.055C533.132 329.626 548.494 345.194 569.873 351.525C573.868 352.708 577.568 354.945 581.87 356.908C579.022 361.779 574.567 363.354 570.819 363.725C559.9 364.812 550.317 370.092 539.876 372.478C526.582 375.507 513.309 379.23 499.826 380.621C477.08 382.959 454.845 378.998 434.027 369.509C414.51 360.613 398.684 347.078 387.524 328.426C384.52 323.394 381.307 318.46 377.769 313.792C370.606 304.34 366.884 293.151 361.735 282.698C356.365 271.766 348.754 263.808 336.716 260.906C332.602 259.913 328.188 259.351 323.988 259.66C303.242 261.19 282.521 263.208 261.759 264.772C252.694 265.446 243.778 266.718 234.834 268.354C224.165 270.305 213.413 269.688 202.714 267.673C183.969 264.124 165.186 260.685 146.429 257.226C136.916 255.467 127.319 256.08 117.955 257.669C102.378 260.304 87.0654 264.115 73.9502 273.71C74.1912 274.135 74.4108 274.799 74.6076 274.791C91.3982 274.132 107.311 278.593 123.096 283.393C138.872 288.18 154.393 293.727 168.949 301.686C178.77 307.058 188.729 312.184 198.688 317.31C207.139 321.676 215.422 326.514 224.234 330.019C233.284 333.627 242.852 335.992 252.244 338.714C256.574 339.967 261.006 340.9 265.448 341.684C267.483 342.045 269.827 342.253 271.724 341.604C298.85 332.383 324.41 337.712 348.138 351.576C358.521 357.635 366.554 367.38 370.639 379.448C371.327 381.478 372.147 383.468 373.128 385.377C376.687 392.316 378.448 399.262 377.602 407.415C376.78 415.387 378.47 423.601 378.86 431.728C379.106 436.967 378.874 442.245 379.049 447.498C379.351 456.258 374.082 462.823 370.171 469.816C367.756 474.137 364.17 477.846 360.926 481.661C355.511 488.033 349.51 493.978 346.701 502.16C345.82 504.711 343.738 506.532 341.261 505.615C338.872 504.733 335.555 504.069 335.525 500.183C335.479 494.914 335.166 489.665 335.039 484.396C334.677 468.798 327.316 456.013 318.567 443.856C315.223 439.203 311.484 434.829 307.921 430.342C296.431 415.93 286.304 400.645 277.793 384.259C272.514 374.088 266.69 364.187 261.263 354.088C258.999 349.872 255.606 348.253 250.981 347.466C234.867 344.717 219.636 339.233 205.019 331.888C180.935 319.772 156.829 307.652 130.296 300.025C131.852 301.517 133.249 303.253 134.991 304.484C144.005 310.873 149.185 320.006 152.724 330.018C157.035 342.198 160.631 354.636 164.653 366.915C165.302 368.893 166.309 370.863 167.608 372.47C171.19 376.983 173.569 382.205 172.671 387.725C170.645 400.172 168.343 412.628 165.067 424.788C161.744 437.126 152.993 446.39 144.759 455.748C141.92 458.973 138.963 462.125 135.848 465.093C133.883 466.988 132.089 469.643 128.539 468.325C124.989 467.007 124.183 463.993 123.957 460.864C123.636 456.593 123.643 452.275 123.728 447.979C123.914 438.688 124.08 429.37 124.552 420.083C125.054 410.086 129.627 401.721 136.005 394.296C141.972 387.343 147.005 379.905 150.204 371.225C152.78 364.231 153.993 357.764 151.808 349.966C149.011 339.998 144.256 331.293 138.464 323.251C134.984 318.418 129.44 314.603 124.081 311.699C114.671 306.603 104.721 302.503 94.9524 298.082C92.5556 297.004 89.8075 296.637 87.5519 295.37C75.9987 288.942 64.0024 290.664 51.9943 293.226C43.1293 295.126 34.2089 296.926 25.5736 299.584C17.0833 302.192 9.18864 301.98 0.738881 297.269L0.664872 297.305ZM393.886 18.8226C393.536 18.6823 393.177 18.5293 392.841 18.3793C392.368 19.2239 391.904 20.0815 391.418 20.9359C391.961 21.1719 392.504 21.408 393.061 21.6343C393.34 20.6938 393.619 19.7533 393.886 18.8226Z" fill="#588F9C"/>
</svg>
