<svg width="810" height="931" viewBox="0 0 810 931" fill="none" xmlns="http://www.w3.org/2000/svg">
<g clip-path="url(#clip0_15_1066)">
<path d="M60.104 730.935C68.1827 717.171 75.8917 704.333 83.2591 691.294C86.3853 685.747 88.9554 679.838 91.4677 673.963C96.7135 661.696 101.381 649.159 106.95 637.042C114.732 620.093 122.785 603.229 131.376 586.678C136.478 576.852 142.327 567.29 148.857 558.357C154.56 550.573 160.55 543.109 164.399 534.19C165.277 532.175 166.727 529.866 166.382 527.985C165.383 522.442 167.873 517.635 168.607 512.464C169.95 503.143 170.829 493.751 171.557 484.371C172.03 478.291 171.805 472.155 172.16 466.062C172.355 463.024 172.927 459.975 173.738 457.037C177.85 442.314 183.288 427.856 185.999 412.894C188.857 397.171 194.008 381.73 192.898 365.316C191.947 351.361 189.645 337.769 184.836 324.666C180.281 312.262 183.971 306.751 197.042 308.496C203.19 309.312 209.546 311.635 214.934 314.79C239.721 329.317 260.772 347.986 276.327 372.485C277.556 374.426 280.021 375.762 282.177 376.871C287.878 379.8 290.101 384.319 289.339 390.574C288.146 400.505 286.333 410.435 286.141 420.397C285.9 431.932 282.07 442.186 277.422 452.328C275.684 456.098 273.677 459.824 271.35 463.257C263.213 475.191 255.498 487.509 246.442 498.703C230.03 519.004 208.43 532.699 184.855 543.297C179.824 545.551 175.903 548.447 172.586 552.847C156.497 574.232 144.402 597.583 136.994 623.328C136.694 624.37 135.676 625.221 134.995 626.147C135.702 626.497 136.401 626.865 137.108 627.215C139.189 626.176 141.349 625.277 143.342 624.113C151.952 619.073 160.385 613.702 169.172 608.993C174.182 606.294 179.66 604.414 185.044 602.512C196.272 598.568 206.562 592.592 218.398 589.699C236.436 585.285 254.268 579.49 270.303 569.727C275.188 566.763 279.155 562.168 283.253 558.049C293.665 547.59 304.472 537.441 314.075 526.273C326.332 511.992 337.283 496.604 349.358 482.134C356.308 473.812 359.958 464.033 364.226 454.439C368.85 444.037 373.066 433.445 378.21 423.306C384.096 411.71 382.442 401.572 374.488 391.789C369.42 385.549 363.66 380.127 357.714 374.701C343.98 362.159 331.308 348.497 318.202 335.275C314.141 331.184 312.473 326.054 311.483 320.535C311.049 318.177 309.946 315.922 309.119 313.65C308.747 312.627 307.836 311.559 307.944 310.615C309.259 300.245 306.289 289.906 308.155 279.42C309.343 272.741 308.674 265.735 308.706 258.87C308.747 251.718 308.485 244.549 308.651 237.394C308.771 231.585 308.948 225.741 309.783 219.996C310.398 215.702 311.606 211.334 313.51 207.476C314.258 205.96 317.913 204.701 319.799 205.145C324.053 206.156 328.349 207.787 332.057 210.055C345.421 218.237 355.69 229.722 363.223 243.204C371.084 257.275 377.736 272.025 384.628 286.618C390.691 299.477 396.123 312.622 398.241 326.831C399.095 332.597 400.496 338.391 400.552 344.178C400.685 358.644 399.818 373.119 400.077 387.581C400.299 400.389 397.938 412.469 392.972 424.182C391.59 427.455 390.557 430.869 389.064 435.001C393.535 434.703 395.422 431.812 397.986 430.003C405.884 424.402 413.868 418.926 421.879 413.481C423.702 412.239 425.707 411.184 427.758 410.297C442.648 403.834 448.958 391.462 451.143 376.337C451.893 371.133 452.975 366.146 454.856 361.137C456.564 356.587 456.496 351.312 456.814 346.321C458.262 323.847 457.937 301.396 457.41 278.892C457.024 262.526 455.754 246.101 459.218 229.79C461.29 220.104 464.268 210.965 470.399 203.111C477.081 194.56 483.35 185.609 490.74 177.72C500.767 167.02 511.379 156.8 522.322 147.025C535.578 135.178 549.433 124.005 563.07 112.585C564.122 111.708 565.461 111.192 566.57 110.591C574.066 114.336 574.007 114.329 572.801 121.891C570.147 138.331 570.196 154.664 575.47 170.636C580.743 186.567 582.072 202.688 579.473 219.278C577.369 232.762 576.38 246.435 573.828 259.814C570.155 278.97 562.966 297.004 548.917 310.905C540.497 319.226 530.52 326.219 520.441 332.542C511.32 338.277 501.109 342.218 491.445 347.119C487.484 349.126 483.448 351.201 479.958 353.884C475.465 357.342 472.82 361.766 472.31 368.015C471.747 374.819 469.289 381.465 467.614 388.165C467.304 389.409 466.799 390.624 465.991 393.066C474.4 390.502 482.056 389.327 488.012 383.712C488.864 382.908 490.279 382.718 491.443 382.266C493.771 381.363 496.56 381.026 498.367 379.507C515.113 365.289 531.892 351.044 552.547 342.753C565.504 337.544 579.118 334.216 593.321 335.847C604.337 337.11 615.511 337.991 626.252 340.556C642.177 344.358 655.891 353.077 668.862 362.857C677.045 369.038 685.237 375.201 693.38 381.424C695.139 382.763 697.165 384.018 698.339 385.81C699.427 387.477 700.491 390.171 699.861 391.701C699.214 393.264 696.54 394.732 694.653 394.867C689.982 395.196 685.258 394.837 680.562 394.553C666.119 393.66 652.503 397.525 638.739 401.176C623.981 405.089 609.06 408.553 594.064 411.423C585.939 412.98 577.508 413.15 569.183 413.536C551.509 414.327 535.99 407.523 521.123 399.054C514.935 395.525 508.907 394.454 501.957 396.29C496.076 397.836 489.914 398.34 483.892 399.386C479 400.233 473.673 400.235 469.308 402.261C452.19 410.213 434.751 417.787 418.587 427.469C400.324 438.409 385.369 453.629 372.67 470.813C361.275 486.222 350.18 501.832 339.981 518.587C341.966 517.44 343.908 516.253 345.912 515.157C357.859 508.606 369.814 502.08 381.796 495.587C384.728 494.012 387.675 492.402 390.751 491.184C396.928 488.74 403.044 485.624 409.474 484.458C427.517 481.186 445.262 476.511 463.778 475.47C472.629 474.977 481.41 470.68 489.915 467.332C512.544 458.407 535.359 452.947 559.882 458.666C573.919 461.94 587.629 466.802 601.556 469.734C625.75 474.823 650.024 482.499 675.47 477.396C680.225 476.443 685.249 476.735 690.744 476.418C690.461 482.979 686.731 487.021 683.074 489.44C672.427 496.493 665.431 507.136 655.981 515.266C643.944 525.609 632.304 536.655 619.183 545.414C597.04 560.182 572 568.19 545.415 569.736C520.491 571.186 496.845 565.855 475.221 552.722C469.394 549.175 463.405 545.842 457.227 542.96C444.717 537.124 434.804 527.63 423.824 519.669C412.355 511.334 400.196 507.279 386.227 510.835C381.454 512.048 376.605 513.869 372.449 516.469C351.927 529.32 331.695 542.658 311.174 555.55C302.21 561.172 293.723 567.326 285.406 573.871C275.485 581.677 264.081 586.886 251.974 590.626C230.751 597.161 209.548 603.829 188.361 610.463C177.613 613.822 168.067 619.669 159.293 626.394C144.691 637.571 131 649.816 122.715 666.821C123.194 667.127 123.781 667.691 123.98 667.576C140.904 657.772 159.708 653.716 178.565 650.077C197.405 646.431 216.396 643.705 235.704 643.987C248.733 644.179 261.77 644.043 274.807 643.907C285.878 643.808 297.033 644.286 308.008 643.106C319.285 641.9 330.418 639.136 341.565 636.833C346.703 635.769 351.773 634.32 356.77 632.714C359.061 631.98 361.587 630.919 363.187 629.221C386.097 604.987 415.302 596.581 447.261 597.956C461.242 598.55 474.806 604.215 485.569 614.417C487.38 616.132 489.306 617.735 491.353 619.166C498.788 624.375 504.376 630.567 507.936 639.419C511.422 648.071 517.627 655.608 522.444 663.762C525.545 669.021 528.175 674.579 531.21 679.891C536.282 688.744 534.426 698.365 534.2 707.689C534.063 713.449 532.388 719.216 531.122 724.905C529.011 734.407 526.065 743.789 527.621 753.737C528.1 756.841 526.947 759.847 523.899 760.249C520.96 760.64 517.184 761.759 515.043 757.776C512.132 752.376 508.956 747.144 505.962 741.789C497.112 725.931 482.587 716.772 466.975 709.012C461.004 706.04 454.778 703.571 448.672 700.889C429.012 692.298 410.282 682.069 392.615 669.828C381.654 662.228 370.279 655.201 359.204 647.755C354.582 644.646 350.209 644.824 345.021 646.528C326.941 652.455 308.283 655.088 289.245 655.471C257.871 656.089 226.471 656.715 195.015 663.284C197.428 663.975 199.809 665.002 202.271 665.322C215.021 667 225.316 673.585 234.4 681.968C245.458 692.162 255.919 703.011 266.732 713.463C268.475 715.147 270.582 716.627 272.792 717.575C278.932 720.274 284.219 724.357 286.294 730.526C290.974 744.44 295.373 758.512 298.61 772.809C301.895 787.314 297.923 801.606 294.533 815.713C293.363 820.576 292.033 825.427 290.44 830.176C289.446 833.194 289.043 836.902 284.672 837.474C280.302 838.047 277.835 835.383 275.902 832.285C273.25 828.063 270.911 823.615 268.663 819.147C263.804 809.482 258.912 799.801 254.351 789.985C249.434 779.422 249.595 768.326 252.125 757.217C254.489 746.818 255.626 736.427 254.202 725.752C253.052 717.154 250.786 709.838 244.299 702.999C236.003 694.259 226.377 687.883 216.046 682.752C209.836 679.669 202.056 678.755 194.962 678.679C182.506 678.547 170.036 679.734 157.579 680.493C154.526 680.685 151.498 681.801 148.487 681.723C133.102 681.385 121.69 689.678 110.722 698.84C102.629 705.614 94.4259 712.315 86.9817 719.744C79.6599 727.043 71.4186 731.115 60.1607 730.858L60.104 730.935ZM313.508 230.582C313.072 230.628 312.619 230.665 312.192 230.694C312.163 231.821 312.152 232.955 312.116 234.099C312.804 234.047 313.491 233.994 314.187 233.925C313.963 232.805 313.739 231.685 313.508 230.582Z" fill="#6B9B83"/>
</g>
<defs>
<clipPath id="clip0_15_1066">
<rect width="779.204" height="530.106" fill="white" transform="translate(809.813 224.1) rotate(115.008)"/>
</clipPath>
</defs>
</svg>
