<svg width="545" height="535" viewBox="0 0 545 535" fill="none" xmlns="http://www.w3.org/2000/svg">
<g clip-path="url(#clip0_528_73)">
<path d="M493.82 51.76C476.06 28.95 386.22 -0.159999 277.47 5.61879e-07C275.74 5.61879e-07 274.02 0.0200006 272.3 0.0300006C270.58 0.0100006 268.86 5.61879e-07 267.13 5.61879e-07C158.38 -0.159999 68.5397 28.95 50.7897 51.76C29.2597 74.2 0.149656 162.75 -0.000344293 267.19C-0.160344 376.06 30.0797 465.22 52.9297 482.84C75.8697 504.21 163.24 534.17 267.19 534.33C268.9 534.33 270.61 534.33 272.31 534.31C274.01 534.32 275.72 534.33 277.43 534.33C381.38 534.18 468.75 504.22 491.69 482.84C514.53 465.22 544.78 376.07 544.62 267.19C544.47 162.76 515.36 74.2 493.83 51.76H493.82Z" fill="#F0F8FE"/>
<path d="M493.82 51.76C476.06 28.95 386.22 -0.159999 277.47 5.61879e-07C275.74 5.61879e-07 274.02 0.0200006 272.3 0.0300006C270.58 0.0100006 268.86 5.61879e-07 267.13 5.61879e-07C158.38 -0.159999 68.5397 28.95 50.7897 51.76C29.2597 74.2 0.149656 162.75 -0.000344293 267.19C-0.160344 376.06 30.0797 465.22 52.9297 482.84C75.8697 504.21 163.24 534.17 267.19 534.33C268.9 534.33 270.61 534.33 272.31 534.31C274.01 534.32 275.72 534.33 277.43 534.33C381.38 534.18 468.75 504.22 491.69 482.84C514.53 465.22 544.78 376.07 544.62 267.19C544.47 162.76 515.36 74.2 493.83 51.76H493.82Z" fill="#F0F8FE"/>
<path d="M235.839 255.64C231.679 264.49 225.739 271.56 217.749 277.08C207.989 283.83 196.719 287.1 183.299 287.1C172.129 287.1 162.109 284.6 153.509 279.66C144.849 274.7 138.309 267.97 133.509 259.09C128.669 250.16 126.209 239.69 126.209 227.97C126.209 216.25 128.669 205.78 133.509 196.84C138.299 187.99 144.819 181.33 153.449 176.47C162.069 171.62 172.119 169.15 183.309 169.15C195.959 169.15 206.779 172.17 216.389 178.38C224.849 183.86 231.139 191.24 235.749 200.61H275.369L274.759 198.31C269.449 178.47 258.209 162.37 241.329 150.42C224.619 138.62 205.109 132.63 183.309 132.63C165.079 132.63 148.559 136.73 134.209 144.82C119.769 152.96 108.369 164.43 100.329 178.91C92.3593 193.24 88.3193 209.74 88.3193 227.96C88.3193 246.18 92.3593 262.68 100.319 277.01C108.359 291.48 119.739 302.99 134.159 311.23C148.529 319.44 165.059 323.61 183.309 323.61C205.819 323.61 225.609 317.49 242.099 305.42C258.539 293.4 269.999 276.64 276.199 255.64H235.859H235.839Z" fill="#1A2B4C"/>
<path d="M418.159 250.08V134.56H372.439L292.029 230.24C291.749 247.68 287.759 263.52 280.079 277.33C278.869 279.51 277.549 281.6 276.189 283.65H383.399V321.69H418.169V283.65H455.669V250.08H418.169H418.159ZM383.389 249.43H315.509L383.389 170.2V249.43Z" fill="#1A2B4C"/>
<path d="M103.6 362.25C99.2698 362.25 95.4598 363.86 92.8098 366.73L92.5898 362.93H88.2998V401.99H93.1098V388.08C95.7798 390.76 99.4798 392.26 103.6 392.26C112.13 392.26 118.33 385.94 118.33 377.23C118.33 368.52 112.14 362.25 103.6 362.25ZM113.52 377.23C113.52 383.41 109.41 387.57 103.29 387.57C97.1698 387.57 93.0098 383.41 93.0098 377.23C93.0098 371.05 97.2398 366.94 103.29 366.94C109.34 366.94 113.52 371.07 113.52 377.23Z" fill="#1A2B4C"/>
<path d="M150.699 377.7C150.699 383.6 147.259 387.57 142.139 387.57C137.379 387.57 134.419 384.07 134.419 378.43V362.93H129.609V378.69C129.609 386.94 134.369 392.27 141.729 392.27C145.509 392.27 148.789 390.78 151.069 388.11L151.279 391.59H155.519V362.93H150.709V377.7H150.699Z" fill="#1A2B4C"/>
<path d="M185.01 362.25C180.87 362.25 177.17 363.74 174.52 366.42V351.33H169.71V391.59H174L174.22 387.77C176.88 390.65 180.7 392.26 185.01 392.26C193.54 392.26 199.74 385.94 199.74 377.23C199.74 368.52 193.55 362.25 185.01 362.25ZM194.93 377.23C194.93 383.41 190.82 387.57 184.7 387.57C178.58 387.57 174.42 383.41 174.42 377.23C174.42 371.05 178.65 366.94 184.7 366.94C190.75 366.94 194.93 371.07 194.93 377.23Z" fill="#1A2B4C"/>
<path d="M216.4 351.33H211.59V391.59H216.4V351.33Z" fill="#1A2B4C"/>
<path d="M235.4 362.93H230.59V391.59H235.4V362.93Z" fill="#1A2B4C"/>
<path d="M271.42 381C270.01 385.12 266.46 387.57 261.93 387.57C256.03 387.57 252.07 383.41 252.07 377.23C252.07 371.05 256.03 366.94 261.93 366.94C266.25 366.94 269.66 369.18 271.29 373.1L271.52 373.65H276.36L276.06 372.53C274.41 366.38 268.73 362.25 261.94 362.25C253.3 362.25 247.26 368.41 247.26 377.23C247.26 386.05 253.43 392.26 261.94 392.26C268.99 392.26 274.37 388.25 276.32 381.53L276.65 380.39H271.64L271.43 380.99L271.42 381Z" fill="#1A2B4C"/>
<path d="M292.84 362.93H288.03V391.59H292.84V362.93Z" fill="#1A2B4C"/>
<path d="M329.9 366.36C327.24 363.72 323.54 362.25 319.41 362.25C310.88 362.25 304.68 368.55 304.68 377.23C304.68 385.91 310.87 392.26 319.41 392.26C323.74 392.26 327.57 390.66 330.22 387.79L330.48 391.58H334.71V351.32H329.9V366.35V366.36ZM330.01 377.23C330.01 383.32 325.8 387.57 319.78 387.57C313.76 387.57 309.5 383.41 309.5 377.23C309.5 371.05 313.73 366.94 319.78 366.94C325.83 366.94 330.01 371.17 330.01 377.23Z" fill="#1A2B4C"/>
<path d="M360.82 362.25C354.68 362.25 349.99 365.61 348.58 371.03L348.29 372.15H353.16L353.37 371.55C354.35 368.65 357.23 366.85 360.88 366.85C365.38 366.85 368.29 369.42 368.29 373.39V374.42H357.28C351.16 374.42 347.2 377.83 347.2 383.11C347.2 388.39 351.55 392.01 358.27 392.01C362.48 392.01 366.09 390.7 368.64 388.27L368.87 391.6H373.1V373.24C373.1 366.78 368.05 362.26 360.83 362.26L360.82 362.25ZM368.34 378.85V379.1C368.34 383.98 364.15 387.51 358.37 387.51C354.38 387.51 352 385.84 352 383.05C352 380.5 354.11 378.85 357.37 378.85H368.33H368.34Z" fill="#1A2B4C"/>
<path d="M409.59 366.36C406.93 363.72 403.23 362.25 399.1 362.25C390.57 362.25 384.37 368.55 384.37 377.23C384.37 385.91 390.56 392.26 399.1 392.26C403.43 392.26 407.26 390.66 409.91 387.79L410.17 391.58H414.4V351.32H409.59V366.35V366.36ZM409.69 377.23C409.69 383.32 405.48 387.57 399.46 387.57C393.44 387.57 389.18 383.41 389.18 377.23C389.18 371.05 393.41 366.94 399.46 366.94C405.51 366.94 409.69 371.17 409.69 377.23Z" fill="#1A2B4C"/>
<path d="M455.65 378.5C455.76 373.6 454.25 369.29 451.39 366.37C448.76 363.68 445.15 362.25 440.97 362.25C432.3 362.25 426.24 368.41 426.24 377.23C426.24 386.05 432.27 392.26 440.92 392.26C447.26 392.26 452.58 388.86 454.8 383.39L455.29 382.18L450.04 382.1L449.79 382.6C448.16 385.79 444.93 387.62 440.93 387.62C435.77 387.62 432.06 384.41 431.23 379.37H455.63L455.65 378.5ZM440.98 366.89C446.1 366.89 449.76 369.94 450.74 374.93H431.23C432.06 370.01 435.79 366.89 440.97 366.89H440.98Z" fill="#1A2B4C"/>
</g>
<defs>
<clipPath id="clip0_528_73">
<rect width="544.6" height="534.32" fill="white"/>
</clipPath>
</defs>
</svg>
