<svg width="547" height="536" viewBox="0 0 547 536" fill="none" xmlns="http://www.w3.org/2000/svg">
<path d="M495.949 52.7911C478.152 29.9714 388.108 0.850027 279.103 1.00058C277.38 1.00058 275.656 1.00054 273.932 1.02204C272.209 1.02204 270.485 1.00058 268.761 1.00058C159.756 0.850027 69.7129 29.9714 51.9153 52.7911C30.3256 75.2452 1.15139 163.857 1.00056 268.341C0.849734 377.278 31.1444 466.47 54.0485 484.107C77.0388 505.485 164.604 535.467 268.804 535.618C270.528 535.618 272.23 535.618 273.932 535.618C275.634 535.618 277.337 535.618 279.06 535.618C383.26 535.467 470.826 505.485 493.816 484.107C516.72 466.492 547.015 377.278 546.864 268.341C546.713 163.857 517.539 75.2667 495.971 52.8127L495.949 52.7911Z" stroke="#1A2B4B" stroke-width="0.05" stroke-miterlimit="10"/>
<path d="M487.006 61.4804C469.92 39.5855 383.518 11.6254 278.909 11.776C277.249 11.776 275.59 11.776 273.931 11.7975C272.272 11.7975 270.613 11.776 268.954 11.776C164.345 11.6254 77.9211 39.564 60.8562 61.4804C40.1498 83.0311 12.1607 168.051 12.0099 268.32C11.859 372.848 40.947 458.47 62.9246 475.375C84.9884 495.893 169.02 524.67 269.019 524.799C270.656 524.799 272.294 524.799 273.931 524.799C275.569 524.799 277.206 524.799 278.844 524.799C378.842 524.649 462.874 495.893 484.938 475.375C506.915 458.47 536.003 372.848 535.853 268.32C535.702 168.051 507.713 83.0311 487.006 61.4804Z" stroke="#1A2B4B" stroke-width="0.08" stroke-miterlimit="10"/>
<path d="M478.001 70.2123C461.647 49.2423 378.864 22.4652 278.672 22.6157C277.078 22.6157 275.505 22.6158 273.911 22.6373C272.338 22.6373 270.743 22.6157 269.149 22.6157C168.957 22.4652 86.1959 49.2423 69.8204 70.2123C49.9975 90.8597 23.1719 172.288 23.0426 268.32C22.8918 368.438 50.7516 450.447 71.8027 466.642C92.94 486.301 173.438 513.852 269.192 513.981C270.765 513.981 272.338 513.981 273.911 513.981C275.483 513.981 277.056 513.981 278.629 513.981C374.404 513.852 454.881 486.279 476.018 466.642C497.069 450.447 524.929 368.46 524.778 268.32C524.649 172.288 497.824 90.8382 478.001 70.2123Z" stroke="#1A2B4B" stroke-width="0.11" stroke-miterlimit="10"/>
<path d="M469.016 78.9445C453.373 58.8994 374.253 33.3052 278.478 33.4557C276.949 33.4557 275.44 33.4558 273.932 33.4773C272.424 33.4773 270.894 33.4557 269.386 33.4557C173.611 33.3267 94.4914 58.8994 78.8486 78.9445C59.8875 98.6671 34.2469 176.525 34.1177 268.32C33.9884 364.029 60.6201 442.403 80.7231 457.889C100.934 476.687 177.877 503.012 269.429 503.141C270.937 503.141 272.445 503.141 273.932 503.141C275.44 503.141 276.927 503.141 278.435 503.141C369.987 503.012 446.93 476.665 467.141 457.889C487.266 442.403 513.897 364.029 513.747 268.32C513.617 176.504 487.977 98.6671 469.016 78.9445Z" stroke="#1A2B4B" stroke-width="0.11" stroke-miterlimit="10"/>
<path d="M459.191 88.4726C444.346 69.4382 369.191 45.1345 278.242 45.2636C276.799 45.2636 275.355 45.2636 273.911 45.2851C272.468 45.2851 271.024 45.2636 269.581 45.2636C178.632 45.1345 103.477 69.4382 88.6316 88.4726C70.6401 107.206 46.2924 181.149 46.1631 268.342C46.0338 359.233 71.3296 433.671 90.4415 448.383C109.618 466.234 182.704 491.248 269.645 491.377C271.067 491.377 272.511 491.377 273.933 491.377C275.355 491.377 276.777 491.377 278.221 491.377C365.162 491.248 438.248 466.234 457.424 448.383C476.536 433.671 501.832 359.233 501.703 268.342C501.574 181.149 477.226 107.227 459.234 88.4726H459.191Z" stroke="#1A2B4B" stroke-width="0.14" stroke-miterlimit="10"/>
<path d="M449.022 98.3446C434.995 80.3427 363.978 57.3725 278.006 57.5015C276.649 57.5015 275.27 57.5015 273.912 57.523C272.555 57.523 271.198 57.5015 269.819 57.5015C183.847 57.3725 112.851 80.3427 98.8026 98.3446C81.7807 116.045 58.7689 185.924 58.6612 268.32C58.5319 354.222 82.4487 424.574 100.505 438.468C118.626 455.33 187.704 478.967 269.862 479.096C271.219 479.096 272.555 479.096 273.912 479.096C275.248 479.096 276.606 479.096 277.963 479.096C360.121 478.967 429.199 455.33 447.32 438.468C465.376 424.574 489.271 354.222 489.164 268.32C489.034 185.924 466.023 116.045 449.022 98.3446Z" stroke="#1A2B4B" stroke-width="0.2" stroke-miterlimit="10"/>
<path d="M438.463 108.582C425.276 91.6769 358.546 70.0832 277.746 70.2122C276.453 70.2122 275.182 70.2123 273.911 70.2338C272.64 70.2338 271.347 70.2122 270.076 70.2122C189.297 70.1047 122.567 91.6769 109.359 108.582C93.3714 125.229 71.7385 190.892 71.6308 268.32C71.523 349.038 93.9747 415.153 110.953 428.208C127.997 444.059 192.895 466.277 270.097 466.384C271.368 466.384 272.64 466.384 273.889 466.384C275.161 466.384 276.41 466.384 277.682 466.384C354.905 466.277 419.804 444.059 436.825 428.208C453.783 415.153 476.256 349.038 476.148 268.32C476.04 190.892 454.407 125.229 438.42 108.582H438.463Z" stroke="#1A2B4B" stroke-width="0.23" stroke-miterlimit="10"/>
<path d="M427.495 119.228C415.192 103.442 352.901 83.3105 277.509 83.418C276.302 83.418 275.117 83.418 273.932 83.4395C272.747 83.4395 271.54 83.4395 270.355 83.418C194.963 83.3105 132.672 103.463 120.369 119.228C105.437 134.757 85.2693 196.032 85.1615 268.32C85.0538 343.661 106.019 405.367 121.856 417.562C137.757 432.359 198.325 453.093 270.398 453.2C271.583 453.2 272.768 453.2 273.954 453.2C275.139 453.2 276.324 453.2 277.509 453.2C349.582 453.093 410.15 432.359 426.052 417.562C441.888 405.367 462.853 343.661 462.745 268.32C462.638 196.054 442.449 134.757 427.538 119.228H427.495Z" stroke="#1A2B4B" stroke-width="0.23" stroke-miterlimit="10"/>
<path d="M417.046 129.38C405.561 114.669 347.514 95.8927 277.251 96.0002C276.13 96.0002 275.031 96.0002 273.911 96.0002C272.791 96.0002 271.692 96.0002 270.571 96.0002C200.308 95.8927 142.261 114.669 130.776 129.38C116.879 143.855 98.0686 200.979 97.9609 268.32C97.8532 338.543 117.396 396.054 132.155 407.41C146.98 421.197 203.432 440.511 270.593 440.618C271.692 440.618 272.791 440.618 273.889 440.618C274.988 440.618 276.087 440.618 277.186 440.618C344.347 440.511 400.799 421.197 415.623 407.41C430.383 396.054 449.926 338.543 449.818 268.32C449.71 200.958 430.9 143.855 417.002 129.38H417.046Z" stroke="#1A2B4B" stroke-width="0.25" stroke-miterlimit="10"/>
<path d="M407.242 138.908C396.555 125.208 342.494 107.722 277.035 107.808C276.001 107.808 274.967 107.808 273.933 107.808C272.898 107.808 271.864 107.808 270.83 107.808C205.371 107.722 151.311 125.208 140.623 138.908C127.674 152.394 110.156 205.582 110.049 268.342C109.962 333.747 128.148 387.322 141.895 397.904C155.706 410.744 208.28 428.746 270.851 428.832C271.886 428.832 272.898 428.832 273.933 428.832C274.967 428.832 275.98 428.832 277.014 428.832C339.585 428.746 392.159 410.744 405.971 397.904C419.717 387.322 437.924 333.747 437.817 268.342C437.73 205.604 420.213 152.394 407.242 138.908Z" stroke="#1A2B4B" stroke-width="0.31" stroke-miterlimit="10"/>
<path d="M396.382 149.425C386.556 136.843 336.891 120.777 276.776 120.863C275.828 120.863 274.858 120.863 273.91 120.863C272.962 120.863 272.014 120.863 271.045 120.863C210.929 120.777 161.243 136.843 151.439 149.425C139.545 161.814 123.45 210.679 123.364 268.32C123.277 328.413 139.998 377.601 152.624 387.322C165.315 399.108 213.601 415.648 271.088 415.734C272.036 415.734 272.984 415.734 273.91 415.734C274.858 415.734 275.785 415.734 276.733 415.734C334.198 415.648 382.505 399.108 395.196 387.322C407.823 377.601 424.543 328.391 424.457 268.32C424.371 210.679 408.275 161.814 396.382 149.425Z" stroke="#1A2B4B" stroke-width="0.34" stroke-miterlimit="10"/>
<path d="M385.975 159.534C376.99 148.027 331.548 133.316 276.518 133.402C275.634 133.402 274.772 133.402 273.91 133.402C273.049 133.402 272.165 133.402 271.303 133.402C216.295 133.316 170.831 148.027 161.846 159.534C150.965 170.868 136.227 215.583 136.162 268.32C136.076 323.293 151.374 368.309 162.945 377.213C174.559 388.01 218.751 403.13 271.325 403.216C272.187 403.216 273.049 403.216 273.91 403.216C274.772 403.216 275.634 403.216 276.496 403.216C329.091 403.13 373.284 388.01 384.876 377.213C396.425 368.309 411.723 323.293 411.658 268.32C411.572 215.583 396.856 170.868 385.975 159.534Z" stroke="#1A2B4B" stroke-width="0.37" stroke-miterlimit="10"/>
<path d="M375.997 169.212C367.809 158.717 326.418 145.339 276.301 145.403C275.503 145.403 274.706 145.403 273.909 145.403C273.112 145.403 272.315 145.403 271.517 145.403C221.4 145.339 179.987 158.717 171.821 169.212C161.909 179.536 148.486 220.272 148.421 268.32C148.356 318.412 162.276 359.427 172.812 367.514C183.391 377.343 223.641 391.129 271.56 391.194C272.358 391.194 273.133 391.194 273.909 391.194C274.685 391.194 275.482 391.194 276.258 391.194C324.156 391.129 364.427 377.343 375.006 367.514C385.542 359.405 399.461 318.39 399.397 268.32C399.332 220.272 385.909 179.536 375.997 169.212Z" stroke="#1A2B4B" stroke-width="0.4" stroke-miterlimit="10"/>
<path d="M367.164 177.794C359.687 168.201 321.873 155.985 276.086 156.049C275.353 156.049 274.642 156.049 273.91 156.049C273.177 156.049 272.466 156.049 271.734 156.049C225.947 155.985 188.132 168.223 180.656 177.794C171.585 187.214 159.346 224.444 159.281 268.32C159.217 314.067 171.951 351.533 181.561 358.932C191.214 367.922 227.994 380.504 271.755 380.568C272.466 380.568 273.199 380.568 273.91 380.568C274.621 380.568 275.353 380.568 276.064 380.568C319.826 380.504 356.606 367.922 366.259 358.932C375.869 351.533 388.603 314.067 388.538 268.32C388.473 224.444 376.213 187.214 367.164 177.794Z" stroke="#1A2B4B" stroke-width="0.43" stroke-miterlimit="10"/>
<path d="M356.24 188.419C349.647 179.966 316.25 169.17 275.85 169.213C275.203 169.213 274.578 169.213 273.932 169.213C273.286 169.213 272.661 169.213 272.014 169.213C231.614 169.148 198.217 179.945 191.624 188.419C183.63 196.742 172.813 229.585 172.749 268.32C172.684 308.712 183.932 341.769 192.421 348.307C200.953 356.244 233.403 367.342 272.036 367.406C272.682 367.406 273.307 367.406 273.932 367.406C274.557 367.406 275.203 367.406 275.828 367.406C314.461 367.342 346.911 356.244 355.443 348.307C363.932 341.769 375.158 308.712 375.115 268.32C375.051 229.585 364.234 196.742 356.24 188.419Z" stroke="#1A2B4B" stroke-width="0.46" stroke-miterlimit="10"/>
<path d="M345.941 198.398C340.167 191 310.971 181.558 275.613 181.601C275.053 181.601 274.493 181.601 273.932 181.601C273.372 181.601 272.812 181.601 272.252 181.601C236.894 181.558 207.698 191 201.923 198.398C194.921 205.689 185.462 234.424 185.419 268.298C185.376 303.635 195.201 332.563 202.634 338.284C210.09 345.21 238.488 354.953 272.295 354.996C272.855 354.996 273.415 354.996 273.954 354.996C274.514 354.996 275.053 354.996 275.613 354.996C309.398 354.953 337.818 345.231 345.273 338.284C352.707 332.563 362.532 303.635 362.489 268.298C362.446 234.402 352.966 205.668 345.984 198.398H345.941Z" stroke="#1A2B4B" stroke-width="0.49" stroke-miterlimit="10"/>
<g clip-path="url(#clip0_677_2)">
<path d="M336.547 205.918C331.492 199.344 305.923 190.954 274.971 191C274.479 191 273.989 191.006 273.5 191.008C273.01 191.003 272.521 191 272.028 191C241.077 190.954 215.507 199.344 210.455 205.918C204.327 212.386 196.042 237.907 196 268.008C195.954 299.387 204.561 325.084 211.064 330.162C217.593 336.322 242.46 344.957 272.045 345.003C272.532 345.003 273.019 345.003 273.503 344.997C273.986 345 274.473 345.003 274.96 345.003C304.545 344.959 329.412 336.324 335.941 330.162C342.441 325.084 351.051 299.39 351.005 268.008C350.963 237.91 342.678 212.386 336.55 205.918H336.547Z" fill="#1A2B4C"/>
<path d="M336.547 205.918C331.492 199.344 305.923 190.954 274.971 191C274.479 191 273.989 191.006 273.5 191.008C273.01 191.003 272.521 191 272.028 191C241.077 190.954 215.507 199.344 210.455 205.918C204.327 212.386 196.042 237.907 196 268.008C195.954 299.387 204.561 325.084 211.064 330.162C217.593 336.322 242.46 344.957 272.045 345.003C272.532 345.003 273.019 345.003 273.503 344.997C273.986 345 274.473 345.003 274.96 345.003C304.545 344.959 329.412 336.324 335.941 330.162C342.441 325.084 351.051 299.39 351.005 268.008C350.963 237.91 342.678 212.386 336.55 205.918H336.547Z" fill="#1A2B4C"/>
<path d="M263.123 264.68C261.939 267.23 260.248 269.268 257.974 270.859C255.196 272.805 251.989 273.747 248.169 273.747C244.99 273.747 242.138 273.027 239.691 271.603C237.226 270.173 235.364 268.233 233.998 265.674C232.621 263.1 231.921 260.083 231.921 256.705C231.921 253.327 232.621 250.309 233.998 247.733C235.362 245.182 237.217 243.262 239.674 241.862C242.127 240.464 244.987 239.752 248.172 239.752C251.772 239.752 254.852 240.622 257.587 242.412C259.995 243.992 261.785 246.119 263.097 248.819H274.373L274.2 248.156C272.689 242.438 269.49 237.798 264.685 234.354C259.929 230.953 254.377 229.226 248.172 229.226C242.984 229.226 238.282 230.408 234.198 232.74C230.088 235.086 226.843 238.391 224.555 242.565C222.287 246.695 221.137 251.451 221.137 256.702C221.137 261.953 222.287 266.709 224.552 270.839C226.84 275.009 230.079 278.327 234.183 280.702C238.273 283.068 242.978 284.27 248.172 284.27C254.579 284.27 260.211 282.506 264.904 279.027C269.583 275.563 272.845 270.732 274.61 264.68H263.128H263.123Z" fill="white"/>
<path d="M315.014 263.077V229.782H302.001L279.116 257.359C279.036 262.386 277.9 266.951 275.715 270.931C275.37 271.559 274.994 272.162 274.607 272.753H305.121V283.716H315.017V272.753H325.69V263.077H315.017H315.014ZM305.118 262.89H285.798L305.118 240.055V262.89Z" fill="white"/>
<path d="M225.486 295.406C224.254 295.406 223.169 295.871 222.415 296.698L222.352 295.602H221.131V306.86H222.5V302.851C223.26 303.624 224.313 304.056 225.486 304.056C227.914 304.056 229.678 302.234 229.678 299.724C229.678 297.214 227.917 295.406 225.486 295.406ZM228.309 299.724C228.309 301.505 227.14 302.704 225.398 302.704C223.656 302.704 222.472 301.505 222.472 299.724C222.472 297.943 223.676 296.758 225.398 296.758C227.12 296.758 228.309 297.949 228.309 299.724Z" fill="white"/>
<path d="M238.891 299.86C238.891 301.56 237.912 302.704 236.455 302.704C235.1 302.704 234.258 301.695 234.258 300.07V295.603H232.889V300.145C232.889 302.523 234.243 304.059 236.338 304.059C237.414 304.059 238.348 303.629 238.996 302.86L239.056 303.863H240.263V295.603H238.894V299.86H238.891Z" fill="white"/>
<path d="M248.656 295.407C247.478 295.407 246.425 295.836 245.671 296.608V292.259H244.302V303.863H245.523L245.585 302.762C246.342 303.592 247.43 304.056 248.656 304.056C251.084 304.056 252.849 302.234 252.849 299.724C252.849 297.214 251.087 295.407 248.656 295.407ZM251.48 299.724C251.48 301.505 250.31 302.704 248.568 302.704C246.826 302.704 245.642 301.505 245.642 299.724C245.642 297.943 246.846 296.758 248.568 296.758C250.29 296.758 251.48 297.949 251.48 299.724Z" fill="white"/>
<path d="M257.59 292.259H256.221V303.863H257.59V292.259Z" fill="white"/>
<path d="M262.998 295.603H261.629V303.863H262.998V295.603Z" fill="white"/>
<path d="M273.25 300.811C272.848 301.998 271.838 302.704 270.549 302.704C268.87 302.704 267.743 301.505 267.743 299.724C267.743 297.943 268.87 296.758 270.549 296.758C271.778 296.758 272.749 297.404 273.213 298.534L273.278 298.692H274.656L274.57 298.369C274.101 296.597 272.484 295.406 270.552 295.406C268.093 295.406 266.374 297.182 266.374 299.724C266.374 302.266 268.13 304.056 270.552 304.056C272.558 304.056 274.089 302.9 274.644 300.963L274.738 300.635H273.312L273.253 300.808L273.25 300.811Z" fill="white"/>
<path d="M279.346 295.603H277.977V303.863H279.346V295.603Z" fill="white"/>
<path d="M289.894 296.591C289.137 295.83 288.084 295.407 286.908 295.407C284.48 295.407 282.716 297.222 282.716 299.724C282.716 302.226 284.478 304.056 286.908 304.056C288.141 304.056 289.231 303.595 289.985 302.768L290.059 303.86H291.263V292.256H289.894V296.588V296.591ZM289.925 299.724C289.925 301.479 288.727 302.704 287.013 302.704C285.3 302.704 284.088 301.505 284.088 299.724C284.088 297.943 285.292 296.758 287.013 296.758C288.735 296.758 289.925 297.977 289.925 299.724Z" fill="white"/>
<path d="M298.694 295.406C296.946 295.406 295.611 296.375 295.21 297.937L295.128 298.26H296.514L296.573 298.087C296.852 297.251 297.672 296.732 298.711 296.732C299.992 296.732 300.82 297.473 300.82 298.617V298.914H297.686C295.944 298.914 294.817 299.897 294.817 301.419C294.817 302.94 296.055 303.984 297.968 303.984C299.166 303.984 300.194 303.606 300.919 302.906L300.985 303.866H302.189V298.574C302.189 296.712 300.752 295.409 298.697 295.409L298.694 295.406ZM300.834 300.191V300.263C300.834 301.669 299.642 302.687 297.997 302.687C296.861 302.687 296.184 302.206 296.184 301.401C296.184 300.666 296.784 300.191 297.712 300.191H300.831H300.834Z" fill="white"/>
<path d="M312.574 296.591C311.817 295.83 310.764 295.407 309.589 295.407C307.161 295.407 305.396 297.222 305.396 299.724C305.396 302.226 307.158 304.056 309.589 304.056C310.821 304.056 311.911 303.595 312.665 302.768L312.739 303.86H313.943V292.256H312.574V296.588V296.591ZM312.603 299.724C312.603 301.479 311.405 302.704 309.691 302.704C307.978 302.704 306.765 301.505 306.765 299.724C306.765 297.943 307.969 296.758 309.691 296.758C311.413 296.758 312.603 297.977 312.603 299.724Z" fill="white"/>
<path d="M325.684 300.09C325.715 298.678 325.285 297.436 324.471 296.594C323.723 295.819 322.696 295.406 321.506 295.406C319.038 295.406 317.313 297.182 317.313 299.724C317.313 302.266 319.03 304.056 321.492 304.056C323.296 304.056 324.81 303.076 325.442 301.499L325.581 301.151L324.087 301.128L324.016 301.272C323.552 302.191 322.633 302.719 321.494 302.719C320.026 302.719 318.97 301.793 318.734 300.341H325.678L325.684 300.09ZM321.509 296.744C322.966 296.744 324.008 297.623 324.286 299.061H318.734C318.97 297.643 320.032 296.744 321.506 296.744H321.509Z" fill="white"/>
</g>
<defs>
<clipPath id="clip0_677_2">
<rect width="155" height="154" fill="white" transform="translate(196 191)"/>
</clipPath>
</defs>
</svg>
