<svg width="870" height="465" viewBox="0 0 870 465" fill="none" xmlns="http://www.w3.org/2000/svg">
<g clip-path="url(#clip0_15_1033)">
<path d="M145.612 367.167C139.263 372.183 131.613 374.711 122.586 374.711H57.5639V151.539C57.5639 147.059 58.5583 143.344 60.5472 140.434C62.5362 137.524 64.7163 135.418 67.0877 134.077C69.9946 132.507 73.284 131.282 76.9941 130.516V127.721H10.3652V130.516C13.8076 131.32 16.9822 132.507 19.8891 134.077C22.2605 135.418 24.5172 137.524 26.6208 140.434C28.7245 143.344 29.7955 147.059 29.7955 151.539V355.641C29.7955 360.389 28.7245 364.18 26.6208 366.976C24.5172 369.771 22.2605 371.8 19.8891 373.141C16.9822 374.749 13.8076 375.936 10.3652 376.702V379.076H164.239L180.494 342.928H165.425C158.54 354.033 151.923 362.112 145.574 367.167H145.612Z" fill="#004151"/>
<path d="M315.167 244.859C308.015 237.813 299.447 232.107 289.694 227.895C269.919 219.394 246.435 219.586 227.425 227.895C217.787 232.107 209.295 237.813 202.143 244.821C194.952 251.867 189.177 260.406 185.008 270.171C180.8 279.935 178.658 290.389 178.658 301.226C178.658 312.063 180.8 322.862 185.008 332.512C189.215 342.123 194.952 350.663 202.143 357.824C209.295 365.023 217.825 370.767 227.425 374.979C237.026 379.191 247.544 381.335 258.674 381.335C269.805 381.335 279.979 379.191 289.694 375.017C299.409 370.805 307.977 365.061 315.206 357.862C322.358 350.701 328.134 342.162 332.341 332.55C336.548 322.9 338.69 312.37 338.69 301.265C338.69 290.16 336.548 279.974 332.379 270.209C328.172 260.444 322.396 251.943 315.244 244.859H315.167ZM306.638 338.409C304.764 345.723 301.627 352.118 297.343 357.402C293.136 362.61 287.858 366.363 281.662 368.622C275.771 370.843 269.499 371.15 262.958 369.541C256.303 367.895 249.839 364.755 243.757 360.198C237.599 355.564 231.824 349.552 226.584 342.238C221.306 334.886 216.945 326.462 213.618 317.233C210.519 307.928 208.684 298.584 208.186 289.432C207.689 280.318 208.454 271.932 210.481 264.542C212.508 257.189 215.721 250.718 220.005 245.28C224.212 239.958 229.338 236.281 235.266 234.29C238.823 232.988 242.495 232.375 246.244 232.375C248.921 232.375 251.675 232.72 254.39 233.371C261.084 235.018 267.548 238.158 273.591 242.715C279.711 247.31 285.486 253.36 290.765 260.674C296.043 268.026 300.25 276.413 303.387 285.718C306.714 294.985 308.627 304.328 309.009 313.442C309.392 322.556 308.627 330.942 306.714 338.409H306.638Z" fill="#004151"/>
<path d="M505.76 371.226C503.924 370.077 502.164 368.431 500.596 366.401C499.181 364.563 498.492 362.036 498.492 358.819V221.539H492.564L491.914 222.151C488.089 225.713 483.269 229.312 477.609 232.797C471.871 236.32 466.325 239.575 461.124 242.408C454.813 245.587 448.463 248.612 442.152 251.522L440.049 252.479L443.262 258.874L445.25 257.994C452.173 254.892 457.528 254.317 461.085 256.309C464.528 258.262 466.287 262.78 466.287 269.826V305.975C466.287 310.302 465.56 316.352 464.145 324.011C462.73 331.555 460.129 339.022 456.419 346.221C452.747 353.343 447.775 359.585 441.693 364.793C435.803 369.848 428.268 372.413 419.356 372.413C409.297 372.413 402.527 369.082 398.702 362.227C394.686 355.066 392.659 345.876 392.659 334.924V221.5H387.151L386.501 222.113C382.676 225.674 377.857 229.274 372.196 232.758C366.42 236.32 360.836 239.575 355.711 242.37C349.361 245.548 342.859 248.612 336.395 251.445L334.215 252.403L337.428 258.836L339.417 257.955C346.378 254.854 351.695 254.279 355.252 256.27C358.694 258.223 360.454 262.742 360.454 269.788V331.746C360.454 338.141 361.869 344.421 364.623 350.356C367.377 356.292 371.278 361.615 376.25 366.171C381.184 370.728 387.113 374.404 393.768 377.123C400.461 379.88 407.767 381.259 415.455 381.259C423.678 381.259 430.984 379.842 437.18 377.085C443.338 374.366 448.693 370.728 453.13 366.286C457.528 361.921 461.2 356.904 464.03 351.429C464.834 349.897 465.599 348.327 466.325 346.719V376.434H468.582C473.707 376.434 478.909 376.702 483.996 377.2C489.16 377.736 493.826 378.272 497.957 378.77C502.7 379.574 507.328 380.34 511.803 381.144L513.715 381.489L515.895 374.941L513.524 374.366C510.617 373.639 508.054 372.528 505.836 371.073L505.76 371.226Z" fill="#004151"/>
<path d="M565.236 170.226C560.722 170.226 556.171 172.294 551.543 176.391C546.915 180.488 543.549 185.313 541.445 190.866C539.342 196.686 538.997 201.588 540.451 205.57C541.904 209.553 544.888 211.544 549.363 211.544C553.838 211.544 558.428 209.553 563.056 205.57C567.684 201.588 571.05 196.725 573.153 190.866C575.257 185.313 575.601 180.488 574.148 176.391C572.694 172.294 569.711 170.226 565.236 170.226Z" fill="#004151"/>
<path d="M577.361 368.775C575.639 366.669 574.798 363.759 574.798 360.045V223.836H572.427C568.449 227.551 563.553 231.188 557.739 234.75C551.925 238.311 546.379 241.566 541.063 244.476C534.714 247.654 528.25 250.68 521.633 253.59L522.818 255.964C530.468 252.518 536.435 251.982 540.68 254.394C544.888 256.768 547.03 261.938 547.03 269.864V360.006C547.03 363.721 546.15 366.631 544.467 368.737C542.746 370.843 540.833 372.566 538.73 373.907C536.09 375.247 533.298 376.166 530.391 376.702V379.076H591.474V376.702C588.3 376.166 585.508 375.247 583.136 373.907C581.032 372.566 579.12 370.881 577.399 368.737L577.361 368.775Z" fill="#004151"/>
<path d="M695.319 299.312L693.33 298.125C689.352 295.75 684.609 292.84 679.063 289.394C673.517 285.947 667.857 282.386 662.043 278.672C656.306 275.034 650.913 271.128 645.978 267.107C641.159 263.201 637.526 259.296 635.154 255.543C632.936 252.058 632.133 248.803 632.706 245.625C633.242 242.638 635.996 239.689 640.891 236.856C644.908 234.597 649.574 232.797 654.814 231.533C659.671 230.346 663.955 230.691 667.512 232.529C670.955 234.328 673.364 238.158 674.665 243.94C676.042 250.029 675.047 259.487 671.72 272.047L670.343 277.217L711.957 253.781L711.269 251.982C709.662 247.654 707.712 243.634 705.531 240.072C703.275 236.435 700.444 233.18 697.117 230.384C693.713 227.589 689.544 225.368 684.648 223.798C679.828 222.266 673.9 221.5 667.13 221.5C658.715 221.5 651.104 222.611 644.41 224.793C637.679 227.014 631.903 230.001 627.237 233.716C622.532 237.468 618.86 241.834 616.336 246.774C613.812 251.675 612.396 256.883 612.129 262.206C611.861 269.252 613.812 276.413 617.981 283.497C622.111 290.504 628.614 297.091 637.411 303.141L639.285 304.252C645.137 308.272 652.213 312.676 660.245 317.424C668.163 322.096 675.468 327.113 682.009 332.32C688.396 337.452 693.292 342.659 696.581 347.829C699.526 352.462 699.45 356.522 696.314 360.542C694.669 362.687 692.144 364.678 688.855 366.516C685.527 368.354 681.703 369.694 677.457 370.422C673.25 371.149 668.889 371.149 664.567 370.422C660.283 369.694 656.191 367.933 652.404 365.252C648.656 362.572 645.405 358.513 642.804 353.19C640.165 347.791 638.597 340.668 638.061 332.014L637.832 327.802L596.064 359.508L598.359 361.308C603.523 365.406 609.719 368.967 616.68 371.915C622.57 374.596 629.723 377.008 637.908 379C644.41 380.608 651.639 381.412 659.404 381.412C661.469 381.412 663.573 381.335 665.715 381.259C682.774 380.455 696.161 376.128 705.531 368.431C714.979 360.657 720.066 351.275 720.64 340.592C720.907 333.546 718.957 326.385 714.788 319.301C710.695 312.331 704.193 305.63 695.357 299.273L695.319 299.312Z" fill="#004151"/>
<path d="M853.974 344.536C851.602 349.82 848.16 355.066 843.647 360.236C839.133 365.406 834.123 368.89 828.577 370.767C822.227 373.141 815.534 373.485 808.535 371.762C801.535 370.039 794.842 366.784 788.492 362.036C782.143 357.287 776.253 351.122 770.86 343.579C765.428 336.035 760.992 327.495 757.588 317.96C756.249 314.246 755.484 310.953 755.216 308.043L832.172 277.868L868.279 263.163C864.301 258.645 860.591 254.088 857.187 249.454C853.744 244.821 850.111 240.57 846.286 236.741C842.461 232.912 838.177 229.81 833.396 227.397C828.615 225.023 823.069 223.836 816.72 223.836C805.857 223.836 795.148 225.904 784.591 230.001C773.996 234.099 764.434 239.613 755.828 246.467C747.222 253.36 740.299 261.555 735.021 271.09C729.743 280.625 727.104 290.696 727.104 301.265C727.104 311.834 729.169 322.249 733.262 331.631C737.354 341.013 742.9 349.246 749.938 356.254C756.937 363.261 765.122 368.814 774.532 372.949C783.902 377.047 794.038 379.114 804.863 379.114C817.026 379.114 828.653 376.319 839.745 370.767C850.837 365.214 860.782 356.483 869.503 344.574H854.012L853.974 344.536ZM755.407 279.629C757.129 271.817 759.768 264.733 763.325 258.376C766.882 252.02 771.242 246.621 776.406 242.102C781.569 237.583 787.039 234.29 792.853 232.184C797.595 230.614 801.688 230.652 805.13 232.375C808.573 234.099 811.747 236.932 814.654 240.915C817.561 244.897 820.2 249.799 822.572 255.619C824.178 259.525 825.823 263.546 827.544 267.682L753.763 295.291C753.686 290.007 754.222 284.76 755.331 279.629H755.407Z" fill="#004151"/>
<path d="M153.338 209.4C167.643 209.4 180.533 201.626 192.007 186.118C192.199 187.343 192.466 188.53 192.849 189.64C194.035 192.934 195.947 195.538 198.433 197.452C200.919 199.367 203.941 200.477 207.383 200.784C207.881 200.822 208.416 200.86 208.951 200.86C211.82 200.86 214.88 200.209 218.016 198.907C221.114 197.72 223.907 196.15 226.431 194.236C228.802 192.436 231.059 190.56 233.239 188.492C238.671 183.284 243.719 177.693 248.156 171.872C249.686 169.843 251.254 167.813 252.822 165.822C252.784 166.243 252.708 166.665 252.669 167.124C252.325 170.034 252.363 172.868 252.784 175.549C253.205 178.344 254.161 181.063 255.691 183.59C257.221 186.194 259.478 188.607 262.385 190.674C271.947 197.567 283.421 196.227 296.502 186.615C296.617 186.539 296.693 186.462 296.808 186.347C295.776 188.721 294.781 191.134 293.94 193.393C293.213 195.04 292.945 196.725 293.136 198.486C293.289 199.826 293.978 202.354 297.267 203.809C298.262 204.268 299.294 204.498 300.251 204.498C301.704 204.498 303.043 204 304.19 203.043C305.338 202.047 306.332 200.899 307.25 199.367C308.245 197.414 309.201 195.461 310.119 193.546L313.026 187.458C313.638 186.118 314.135 185.467 314.211 185.237C314.556 185.39 315.282 185.773 316.391 186.768C328.593 197.797 342.898 201.243 359.039 197.069C374.644 192.934 388.681 186.271 400.768 177.234C402.757 175.74 404.707 174.132 406.658 172.523C405.74 178.88 406.887 184.662 410.253 189.64C414.002 195.193 419.509 198.984 426.624 200.899C429.339 201.626 432.017 202.009 434.656 202.009C437.448 202.009 440.164 201.588 442.841 200.784C447.546 199.329 452.212 197.529 456.61 195.384C468.62 189.487 479.368 181.944 488.624 172.945C495.012 166.703 501.17 159.963 507.175 153.032C507.213 152.994 507.251 152.956 507.328 152.917C507.443 152.764 507.596 152.573 507.71 152.42C510.005 149.739 512.377 147.135 514.595 144.34C514.863 143.995 514.901 143.497 515.092 143.114C527.714 127.759 543.128 112.671 563.783 112.48C588.262 112.25 607.118 132.009 625.324 145.642C643.301 159.121 663.649 166.55 686.216 166.933C708.553 167.316 730.431 161.342 750.55 151.922C775.297 140.357 797.29 123.815 819.053 107.464C823.528 104.094 819.13 96.4352 814.616 99.8433C776.98 128.142 735.633 158.929 686.216 158.087C674.78 157.896 663.382 155.866 652.787 151.615C641.274 146.982 631.368 139.362 621.767 131.703C604.594 117.994 585.278 102.524 561.947 103.711C539.686 104.86 523.239 119.947 509.546 136.26C507.672 137.332 505.989 138.672 504.727 140.396C503.618 141.851 502.432 143.268 501.055 144.761C495.012 151.884 488.663 158.547 482.084 164.559C475.505 170.571 468.276 176.2 460.512 181.216C456.19 184.011 451.638 186.424 446.934 188.377C442.497 190.215 437.639 191.134 432.552 190.981C429.951 190.904 427.695 190.291 425.897 189.181C424.29 188.224 423.143 186.577 422.378 184.126C420.695 178.765 420.963 174.208 423.22 170.226C425.438 166.243 429.148 163.639 434.541 162.261C441.082 160.614 447.048 158.049 452.212 154.679C457.49 151.233 462.003 146.523 465.675 140.664C466.938 138.711 467.894 136.681 468.467 134.613C469.003 132.737 469.118 129.827 466.67 126.265C464.91 123.891 462.768 122.245 460.282 121.402C457.987 120.636 455.463 120.407 452.786 120.713C451.6 120.866 450.376 121.058 449.075 121.326C447.546 121.67 446.13 122.245 445.136 122.857C430.907 129.674 420.466 139.553 413.696 152.266C411.324 154.487 409.029 156.747 406.62 158.853C401.724 163.103 396.56 167.048 391.282 170.609C385.965 174.208 380.381 177.387 374.606 180.067C368.83 182.786 362.634 184.93 356.132 186.462C350.433 187.917 344.887 188.07 339.723 186.883C334.598 185.735 329.74 183.016 325.342 178.804C321.823 175.395 322.167 173.098 322.282 172.332C322.588 170.226 324.194 168.464 327.369 166.741C328.019 166.358 328.707 166.052 329.472 165.899C330.849 165.631 332.226 165.171 333.259 164.673C340.564 162.146 347.449 158.815 353.76 154.794C359.995 150.773 366.076 146.178 371.546 141.238L373.267 139.898C374.185 139.17 374.912 138.328 375.524 137.332C376.174 136.222 376.518 134.996 376.518 133.733C376.518 132.163 375.83 130.669 374.529 129.367C371.546 126.112 368.601 126.419 367.109 126.916C365.579 127.414 364.049 128.18 362.404 129.214C360.607 130.363 358.886 131.588 357.241 132.852C355.711 134.039 354.143 135.149 352.192 136.451C351.963 136.643 351.351 137.026 350.356 137.677L345.728 140.817C344.007 142.004 342.171 143.229 340.259 144.455C345.422 136.03 350.93 127.759 356.629 119.794C364.623 108.612 372.617 97.1245 380.343 85.5983C383.365 81.118 386.463 76.676 389.637 72.2723C392.85 67.8303 395.987 63.3883 399.046 58.908C402.145 54.3894 405.128 49.7943 408.035 45.1225C410.942 40.3742 413.619 35.4344 415.914 30.6477C416.947 28.6948 417.865 26.7418 418.63 24.8272C419.509 22.6062 419.968 20.232 419.968 17.7047C419.968 12.65 417.291 9.12704 412.701 8.05484C408.723 7.05922 406.773 9.12704 406.084 10.0844C405.319 11.1566 404.631 12.4202 404.057 13.9137C402.068 18.9301 399.582 23.8316 396.713 28.4267C393.73 33.1751 390.67 37.8468 387.534 42.442C374.95 60.6695 362.519 78.897 350.318 97.0862C338.155 115.16 326.183 133.886 314.709 152.649C313.791 154.105 312.758 155.33 311.725 156.287C310.884 157.053 309.774 157.513 308.359 157.781C306.294 158.125 304.496 158.968 303.081 160.193C301.322 161.725 300.251 164.597 302.431 167.89C300.939 169.422 299.447 170.992 297.879 172.409C293.481 176.391 288.394 179.761 282.809 182.365C277.837 184.586 273.974 184.777 271.411 183.092C268.81 181.369 267.548 177.77 267.663 172.37C267.663 168.771 268.122 165.286 269.002 162.069C269.958 158.623 271.067 155.177 272.367 151.769C273.438 149.012 274.586 146.254 275.81 143.574L279.558 135.035C279.979 133.924 280.323 132.852 280.591 131.78C281.203 129.444 280.208 127.146 278.028 125.691C276.384 124.504 274.433 124.121 272.635 124.657C271.22 125.078 270.034 125.768 268.81 127.031C267.969 128.065 267.433 128.333 267.472 128.41C266.209 128.027 264.794 127.414 263.341 126.648C260.51 124.925 257.412 123.891 254.238 123.623C251.216 123.355 248.118 123.547 244.982 124.236C236.108 126.151 228.267 129.75 221.65 134.843C218.82 137.064 216.066 139.438 213.388 142.004C213.159 141.774 212.891 141.659 212.509 141.659C211.514 141.659 209.219 144.531 205.624 150.237C205.05 150.926 204.438 151.615 203.864 152.343C200.766 156.096 198.127 160.231 196.023 164.559C195.794 165.056 195.641 165.631 195.411 166.129C194.914 166.665 194.455 167.277 193.958 167.813C188.718 173.596 183.057 179.11 177.09 184.241C173.572 187.305 169.862 190.062 166.037 192.474C162.403 194.772 158.272 196.457 153.721 197.491C152.688 197.759 151.77 197.95 150.89 198.065C148.557 194.963 147.371 190.177 147.371 183.628C147.371 178.306 148.136 172.792 149.666 167.048C152.076 157.742 154.409 150.467 156.589 145.144C182.598 121.249 205.165 88.049 224.327 45.5437C229.606 33.8261 232.245 24.0613 232.245 16.3261C232.245 6.14019 228.382 1.04721 220.694 1.04721C209.908 1.04721 199.313 9.77802 188.948 27.2397C166.916 64.5754 150.164 103.558 138.727 144.225C132.99 164.559 130.121 178.267 130.121 185.313C130.121 201.435 137.848 209.515 153.262 209.515L153.338 209.4ZM441.005 144.378C444.906 140.855 449.228 137.753 453.857 135.188L454.009 135.073C454.507 134.767 455.042 134.498 455.654 134.498C455.884 134.498 456.113 134.537 456.381 134.613C456.075 135.532 455.654 136.337 455.042 137.179C451.944 141.698 448.119 145.144 443.644 147.365C441.082 148.667 438.213 149.777 435.038 150.696C436.989 148.322 438.978 146.178 441.043 144.34L441.005 144.378ZM211.514 25.4016C216.563 18.1259 220.235 14.4881 222.415 14.4881C223.945 14.4881 224.71 16.0198 224.71 19.1215C224.71 24.8655 222.95 31.9114 219.432 40.2976C203.138 78.6672 183.057 109.914 159.267 133.924C179.309 82.7646 196.712 46.5776 211.476 25.4016H211.514ZM231.48 149.509C237.447 144.799 244.37 141.047 251.943 138.404C253.664 137.868 255.462 137.485 257.298 137.332C257.374 137.332 257.412 137.332 257.489 137.332C257.91 137.332 258.598 137.524 259.669 139.285C259.669 139.591 259.554 139.898 259.401 140.204C259.095 140.74 258.713 141.276 258.254 141.774C257.565 142.502 256.992 143.229 256.456 143.88L256.38 143.957C251.254 150.926 246.091 157.857 240.889 164.75C235.878 171.413 229.95 177.463 223.142 182.824C220.197 185.313 217.06 187.381 213.733 188.989C210.52 190.598 208.722 190.674 208.186 190.253C208.034 190.138 206.695 188.913 206.963 182.863C207.154 180.412 208.034 177.808 209.487 175.204C211.132 172.255 213.006 169.345 214.918 166.588C219.852 160.002 225.437 154.258 231.48 149.509Z" fill="#004151"/>
<path d="M315.206 454.36C313.714 454.36 313.676 455.93 313.561 456.543C312.681 460.985 310.692 463.742 305.949 463.742C300.633 463.742 296.693 457.577 296.693 450.761C296.693 443.945 300.327 437.779 305.644 437.779C309.315 437.779 311.916 440.575 313.064 444.634C313.331 445.553 314.02 446.817 315.282 446.319C316.468 445.859 316.238 444.672 315.741 443.677C313.982 439.886 310.578 437.282 305.644 437.282C297.994 437.282 294.054 443.638 294.054 450.761C294.054 457.883 298.262 464.24 305.911 464.24C311.955 464.24 315.435 460.985 316.468 456.581C316.697 455.624 316.468 454.399 315.167 454.399L315.206 454.36Z" fill="#D7683B"/>
<path d="M335.707 462.861C334.789 462.861 334.598 462.325 334.598 460.832V454.743H334.177C332.532 459.76 329.281 463.359 326.489 463.359C324.232 463.359 322.664 461.559 322.664 459.721C322.664 457.117 324.118 455.088 327.56 453.977C333.106 452.369 334.407 450.837 334.407 448.731C334.407 446.625 332.265 445.361 328.669 445.361C328.631 445.361 328.593 445.361 328.554 445.361C324.921 445.4 322.129 447.544 322.129 449.995C322.129 451.756 324.347 451.756 324.347 449.995C324.347 448.846 324.768 445.744 328.669 445.744C331.117 445.744 332.571 447.008 332.571 448.769C332.571 450.531 331.347 452.254 327.522 453.403C327.407 453.403 327.292 453.48 327.178 453.518C323.773 454.552 320.446 456.122 320.446 459.721C320.446 463.321 323.2 464.278 325.38 464.278C328.784 464.278 331.155 461.789 332.609 459.338V460.64C332.609 462.478 333.297 463.857 334.942 463.857C337.199 463.857 337.313 461.253 337.313 461.253L337.046 461.176C337.046 461.176 336.74 462.861 335.745 462.861H335.707Z" fill="#D7683B"/>
<path d="M349.132 453.135C345.804 451.871 343.012 450.569 343.012 448.54C343.012 446.395 345.843 445.744 347.602 445.744C349.4 445.744 351.924 446.587 351.924 448.54C351.924 448.808 351.733 449.382 351.236 449.65L350.127 450.263V450.646L353.378 448.808C353.378 448.808 353.76 448.578 353.76 448.31C353.76 446.51 350.203 445.323 347.602 445.323C344.045 445.323 341.368 447.046 341.368 449.421C341.368 452.216 344.198 453.518 348.291 454.973C351.695 456.198 353.531 457.539 353.531 459.798C353.531 462.057 350.93 463.819 347.602 463.819C345.116 463.819 342.4 462.478 342.4 459.492C342.4 458.726 341.827 458.228 341.176 458.228C340.526 458.228 339.991 458.649 339.991 459.492C339.991 462.287 344.389 464.24 347.602 464.24C352.383 464.24 355.214 461.674 355.214 458.687C355.214 455.701 352.498 454.437 349.17 453.173L349.132 453.135Z" fill="#D7683B"/>
<path d="M373.573 462.861C372.655 462.861 372.464 462.325 372.464 460.832V454.743H372.043C370.398 459.76 367.147 463.359 364.355 463.359C362.098 463.359 360.53 461.559 360.53 459.721C360.53 457.117 361.984 455.088 365.426 453.977C370.972 452.369 372.272 450.837 372.272 448.731C372.272 446.625 370.131 445.361 366.535 445.361C366.497 445.361 366.459 445.361 366.42 445.361C362.787 445.4 359.995 447.544 359.995 449.995C359.995 451.756 362.213 451.756 362.213 449.995C362.213 448.846 362.634 445.744 366.535 445.744C368.983 445.744 370.437 447.008 370.437 448.769C370.437 450.531 369.213 452.254 365.388 453.403C365.273 453.403 365.158 453.48 365.044 453.518C361.639 454.552 358.312 456.122 358.312 459.721C358.312 463.321 361.066 464.278 363.246 464.278C366.65 464.278 369.021 461.789 370.475 459.338V460.64C370.475 462.478 371.163 463.857 372.808 463.857C375.065 463.857 375.179 461.253 375.179 461.253L374.912 461.176C374.912 461.176 374.606 462.861 373.611 462.861H373.573Z" fill="#D7683B"/>
<path d="M386.998 453.135C383.67 451.871 380.878 450.569 380.878 448.54C380.878 446.395 383.709 445.744 385.468 445.744C387.266 445.744 389.79 446.587 389.79 448.54C389.79 448.808 389.599 449.382 389.102 449.65L387.993 450.263V450.646L391.244 448.808C391.244 448.808 391.626 448.578 391.626 448.31C391.626 446.51 388.069 445.323 385.468 445.323C381.911 445.323 379.234 447.046 379.234 449.421C379.234 452.216 382.064 453.518 386.157 454.973C389.561 456.198 391.397 457.539 391.397 459.798C391.397 462.057 388.796 463.819 385.468 463.819C382.982 463.819 380.266 462.478 380.266 459.492C380.266 458.726 379.693 458.228 379.042 458.228C378.392 458.228 377.857 458.649 377.857 459.492C377.857 462.287 382.255 464.24 385.468 464.24C390.249 464.24 393.08 461.674 393.08 458.687C393.08 455.701 390.364 454.437 387.036 453.173L386.998 453.135Z" fill="#D7683B"/>
<path d="M421.537 457.194C420.466 457.194 420.351 458.419 420.274 458.841C419.662 461.942 417.75 463.819 414.843 463.819C412.586 463.819 410.903 462.287 409.947 459.989C409.106 456.734 411.63 454.667 414.422 454.169C418.324 453.48 421.728 452.943 421.728 449.497C421.728 447.276 419.586 445.323 415.455 445.323C409.565 445.323 406.734 449.765 406.734 454.782C406.734 459.798 409.488 464.24 414.843 464.24C419.089 464.24 421.804 461.942 422.531 458.841C422.684 458.19 422.569 457.194 421.537 457.194ZM409.297 458.113C409.068 457.079 408.915 455.93 408.915 454.782C408.915 449.995 411.056 445.744 415.226 445.744C417.214 445.744 419.28 446.663 419.28 449.497C419.28 451.718 417.406 453.212 414.384 453.748C411.63 454.245 409.718 456.007 409.297 458.113Z" fill="#D7683B"/>
<path d="M441.502 462.44L435.536 453.709L440.776 447.085C441.273 446.434 441.923 446.127 442.611 446.127H443.95V445.706H438.175V446.127H439.896C440.584 446.127 440.584 446.663 440.049 447.276L435.268 453.326L431.137 447.276C430.716 446.625 430.754 446.127 431.443 446.127H433.164V445.706H425.476V446.127H426.815C427.503 446.127 428.115 446.434 428.574 447.085L434.006 455.011L428.115 462.478C427.618 463.129 426.968 463.436 426.279 463.436H424.941V463.857H430.716V463.436H428.995C428.307 463.436 428.307 462.9 428.842 462.287L434.235 455.433L438.94 462.287C439.36 462.938 439.322 463.436 438.634 463.436H436.912V463.857H444.6V463.436H443.262C442.573 463.436 441.961 463.129 441.541 462.478L441.502 462.44Z" fill="#D7683B"/>
<path d="M460.473 457.194C459.402 457.194 459.364 458.419 459.288 458.841C458.676 461.942 456.993 463.819 453.665 463.819C449.955 463.819 447.545 459.53 447.545 454.782C447.545 450.033 449.726 445.744 453.474 445.744C456.075 445.744 458.178 447.659 458.943 450.493C459.135 451.144 459.517 452.178 460.588 451.871C461.621 451.565 461.391 450.493 461.047 449.765C459.823 447.123 456.955 445.323 453.474 445.323C448.119 445.323 445.365 449.765 445.365 454.782C445.365 459.798 448.31 464.24 453.703 464.24C457.949 464.24 460.856 461.942 461.583 458.841C461.736 458.19 461.583 457.194 460.512 457.194H460.473Z" fill="#D7683B"/>
<path d="M469.424 462.823C468.506 462.823 468.314 462.287 468.314 460.794V440C468.314 438.66 467.779 437.665 467.358 437.665C467.243 437.665 467.09 437.741 466.937 437.856L463.686 439.694V440.115L465.599 439.043C466.058 438.775 466.287 439.579 466.287 440.077V460.679C466.287 462.517 466.976 463.895 468.62 463.895C470.877 463.895 470.992 461.291 470.992 461.291L470.724 461.215C470.724 461.215 470.418 462.9 469.424 462.9V462.823Z" fill="#D7683B"/>
<path d="M491.11 463.053C490.192 463.053 490.001 462.517 490.001 461.023V447.506C490.001 446.855 490.422 446.357 491.072 446.357H492.602V445.936H485.373V446.357H486.903C487.592 446.357 487.974 446.893 487.974 447.506V458.994C485.909 461.904 483.575 463.512 481.587 463.512C479.483 463.512 477.915 462.134 477.915 459.721V448.233C477.915 446.893 477.379 445.898 476.958 445.898C476.844 445.898 476.691 445.974 476.538 446.089L473.287 447.927V448.348L475.199 447.276C475.658 447.008 475.888 447.812 475.888 448.31V459.53C475.888 462.095 477.953 464.278 480.86 464.278C483.461 464.278 485.603 462.746 487.936 459.683V460.87C487.936 462.708 488.624 464.087 490.269 464.087C492.526 464.087 492.64 461.483 492.64 461.483L492.373 461.406C492.373 461.406 492.067 463.091 491.072 463.091L491.11 463.053Z" fill="#D7683B"/>
<path d="M504.536 453.135C501.208 451.871 498.416 450.569 498.416 448.54C498.416 446.395 501.246 445.744 503.006 445.744C504.803 445.744 507.328 446.587 507.328 448.54C507.328 448.808 507.137 449.382 506.639 449.65L505.53 450.263V450.646L508.781 448.808C508.781 448.808 509.164 448.578 509.164 448.31C509.164 446.51 505.607 445.323 503.006 445.323C499.449 445.323 496.771 447.046 496.771 449.421C496.771 452.216 499.602 453.518 503.694 454.973C507.098 456.198 508.934 457.539 508.934 459.798C508.934 462.057 506.333 463.819 503.006 463.819C500.52 463.819 497.804 462.478 497.804 459.492C497.804 458.726 497.23 458.228 496.58 458.228C495.93 458.228 495.394 458.649 495.394 459.492C495.394 462.287 499.793 464.24 503.006 464.24C507.787 464.24 510.617 461.674 510.617 458.687C510.617 455.701 507.902 454.437 504.574 453.173L504.536 453.135Z" fill="#D7683B"/>
<path d="M515.781 441.992C516.431 441.992 516.966 441.456 516.966 440.766C516.966 440.077 516.431 439.579 515.781 439.579C515.13 439.579 514.557 440.115 514.557 440.766C514.557 441.417 515.092 441.992 515.781 441.992Z" fill="#D7683B"/>
<path d="M517.884 462.823C516.967 462.823 516.775 462.287 516.775 460.794V448.042C516.775 446.702 516.24 445.706 515.819 445.706C515.704 445.706 515.551 445.783 515.398 445.898L512.147 447.736V448.157L514.06 447.085C514.519 446.817 514.748 447.621 514.748 448.119V460.64C514.748 462.478 515.437 463.857 517.081 463.857C519.338 463.857 519.453 461.253 519.453 461.253L519.185 461.176C519.185 461.176 518.879 462.861 517.884 462.861V462.823Z" fill="#D7683B"/>
<path d="M535.708 446.127H537.429C538.118 446.127 538.271 446.663 538.003 447.276L532.036 461.215L526.07 447.276C525.802 446.625 525.993 446.127 526.643 446.127H528.365V445.706H520.944V446.127H522.283C522.972 446.127 523.584 446.663 523.851 447.276L530.927 463.819H531.424L538.5 447.276C538.768 446.625 539.418 446.127 540.069 446.127H541.407V445.706H535.67V446.127H535.708Z" fill="#D7683B"/>
<path d="M556.707 462.861C555.789 462.861 555.597 462.325 555.597 460.832V454.743H555.177C553.532 459.76 550.281 463.359 547.489 463.359C545.232 463.359 543.664 461.559 543.664 459.721C543.664 457.117 545.117 455.088 548.56 453.977C554.106 452.369 555.406 450.837 555.406 448.731C555.406 446.625 553.264 445.361 549.669 445.361C549.631 445.361 549.592 445.361 549.554 445.361C545.921 445.4 543.128 447.544 543.128 449.995C543.128 451.756 545.347 451.756 545.347 449.995C545.347 448.846 545.768 445.744 549.669 445.744C552.117 445.744 553.57 447.008 553.57 448.769C553.57 450.531 552.346 452.254 548.522 453.403C548.407 453.403 548.292 453.48 548.177 453.518C544.773 454.552 541.446 456.122 541.446 459.721C541.446 463.321 544.199 464.278 546.38 464.278C549.784 464.278 552.155 461.789 553.609 459.338V460.64C553.609 462.478 554.297 463.857 555.942 463.857C558.198 463.857 558.313 461.253 558.313 461.253L558.045 461.176C558.045 461.176 557.739 462.861 556.745 462.861H556.707Z" fill="#D7683B"/>
<path d="M570.132 453.135C566.804 451.871 564.012 450.569 564.012 448.54C564.012 446.395 566.843 445.744 568.602 445.744C570.4 445.744 572.924 446.587 572.924 448.54C572.924 448.808 572.733 449.382 572.236 449.65L571.126 450.263V450.646L574.377 448.808C574.377 448.808 574.76 448.578 574.76 448.31C574.76 446.51 571.203 445.323 568.602 445.323C565.045 445.323 562.367 447.046 562.367 449.421C562.367 452.216 565.198 453.518 569.29 454.973C572.695 456.198 574.53 457.539 574.53 459.798C574.53 462.057 571.93 463.819 568.602 463.819C566.116 463.819 563.4 462.478 563.4 459.492C563.4 458.726 562.826 458.228 562.176 458.228C561.526 458.228 560.99 458.649 560.99 459.492C560.99 462.287 565.389 464.24 568.602 464.24C573.383 464.24 576.213 461.674 576.213 458.687C576.213 455.701 573.498 454.437 570.17 453.173L570.132 453.135Z" fill="#D7683B"/>
<path d="M274.089 453.862H0.726721C0.344236 453.862 0 454.284 0 454.82C0 455.356 0.305988 455.777 0.726721 455.777H274.089C274.471 455.777 274.815 455.356 274.815 454.82C274.815 454.284 274.509 453.862 274.089 453.862Z" fill="#D7683B"/>
<path d="M869.273 453.862H595.911C595.529 453.862 595.185 454.284 595.185 454.82C595.185 455.356 595.491 455.777 595.911 455.777H869.273C869.656 455.777 870 455.356 870 454.82C870 454.284 869.694 453.862 869.273 453.862Z" fill="#D7683B"/>
</g>
<defs>
<clipPath id="clip0_15_1033">
<rect width="870" height="463.346" fill="white" transform="translate(0 0.932335)"/>
</clipPath>
</defs>
</svg>
