<svg width="24" height="24" viewBox="0 0 24 24" fill="none" xmlns="http://www.w3.org/2000/svg">
<mask id="mask0_464_14" style="mask-type:luminance" maskUnits="userSpaceOnUse" x="2" y="2" width="20" height="20">
<path d="M2.5 2.49951H21.5V21.4995H2.5V2.49951Z" fill="white"/>
</mask>
<g mask="url(#mask0_464_14)">
<path d="M13.79 2.63953L13.22 2.55953C11.5069 2.31219 9.75885 2.55689 8.17954 3.2651C6.60023 3.97331 5.25476 5.11585 4.3 6.55953C3.28416 7.93951 2.67859 9.57827 2.55298 11.2872C2.42737 12.9962 2.78684 14.7059 3.59 16.2195C3.6722 16.3712 3.72337 16.5378 3.74054 16.7095C3.75771 16.8812 3.74053 17.0546 3.69 17.2195C3.28 18.6295 2.9 20.0495 2.5 21.5395L3 21.3895C4.35 21.0295 5.7 20.6695 7.05 20.3395C7.33494 20.2803 7.63112 20.3082 7.9 20.4195C9.1112 21.0107 10.4348 21.3359 11.782 21.3733C13.1293 21.4108 14.4689 21.1597 15.7111 20.6368C16.9533 20.1139 18.0692 19.3313 18.9841 18.3416C19.899 17.352 20.5915 16.178 21.0153 14.8987C21.4392 13.6193 21.5844 12.2641 21.4414 10.9239C21.2983 9.5838 20.8703 8.28977 20.1859 7.12869C19.5016 5.9676 18.5769 4.96632 17.4737 4.19205C16.3706 3.41778 15.1146 2.88843 13.79 2.63953ZM16.31 15.7595C15.9466 16.0849 15.5034 16.3082 15.0256 16.4065C14.5478 16.5049 14.0524 16.4749 13.59 16.3195C11.4946 15.7295 9.67661 14.4148 8.46 12.6095C7.99529 11.9711 7.6217 11.271 7.35 10.5295C7.20285 10.0993 7.17632 9.637 7.27327 9.19276C7.37023 8.74853 7.58698 8.33932 7.9 8.00953C8.05239 7.81505 8.25981 7.67096 8.49526 7.59605C8.7307 7.52113 8.98325 7.51886 9.22 7.58953C9.42 7.63953 9.56 7.92953 9.74 8.14953C9.886 8.56253 10.057 8.96653 10.25 9.35953C10.3964 9.56004 10.4576 9.81033 10.4201 10.0558C10.3826 10.3012 10.2496 10.5218 10.05 10.6695C9.6 11.0695 9.67 11.3995 9.99 11.8495C10.6974 12.8687 11.6736 13.6718 12.81 14.1695C13.13 14.3095 13.37 14.3395 13.58 14.0095C13.67 13.8795 13.79 13.7695 13.89 13.6495C14.47 12.9195 14.29 12.9295 15.21 13.3295C15.503 13.4525 15.787 13.5965 16.06 13.7595C16.33 13.9195 16.74 14.0895 16.8 14.3295C16.8577 14.5899 16.8425 14.8611 16.7561 15.1134C16.6696 15.3657 16.5153 15.5893 16.31 15.7595Z" fill="#FFC635"/>
</g>
</svg>
