<svg width="360" height="256" viewBox="0 0 360 256" fill="none" xmlns="http://www.w3.org/2000/svg">
<path d="M227.963 62.4345C227.745 60.6219 227.642 58.7064 226.987 57.0353C225.87 54.1814 226.152 52.3045 228.747 50.6333C230.198 49.6949 231.829 49.0264 233.422 48.3065C234.925 47.6381 236.273 47.0981 236.993 45.247C237.417 44.1543 238.958 43.023 240.165 42.8045C241.668 42.5217 243.453 42.8816 244.918 43.4729C248.334 44.8356 251.61 46.5454 254.988 48.0237C258.944 49.7592 261.423 52.8444 263.362 56.5853C265.032 59.7863 261.628 62.5887 262.861 65.6997C262.887 65.7511 262.758 65.9054 262.668 65.9568C261.063 66.831 262.155 68.2579 262.078 69.402C261.435 69.6206 260.742 69.6463 260.408 70.0062C257.852 72.8215 254.114 73.8243 251.224 76.1125C250.929 76.3439 250.402 76.4082 249.991 76.3825C248.437 76.2796 246.857 76.2539 245.354 75.9197C243.633 75.534 242.002 74.7884 240.294 74.3128C239.587 74.1199 238.791 74.1713 238.033 74.1713C235.49 74.1713 235.13 73.7728 235.349 71.0604C231.007 69.7877 228.503 66.9981 227.963 62.4345ZM140.519 220.734C140.442 221.081 140.339 221.596 140.172 222.418C142.677 223.228 145.092 222.701 147.442 221.891C149.587 221.159 151.591 219.886 153.903 220.67C155.919 218.806 156.857 216.518 157.897 214.152C158.809 212.07 159.118 210.026 159.375 207.892C159.644 205.655 158.976 203.843 157.114 202.351C154.712 200.423 152.516 198.25 150.229 196.168C149.061 195.101 146.145 195.101 144.655 196.168C143.165 197.235 141.701 198.34 140.16 199.343C139.736 199.613 139.042 199.755 138.58 199.626C136.242 198.932 135.189 200.474 134.559 202.133C133.994 203.637 133.904 205.347 133.763 206.966C133.647 208.368 133.647 209.807 133.84 211.196C134.264 214.371 135.831 217.045 137.95 219.372C138.528 220.014 139.569 220.246 140.506 220.721L140.519 220.734ZM259.522 91.1275C256.799 91.6031 257.492 94.0199 256.773 95.8453C253.254 94.6498 251.995 98.095 249.734 99.5091C249.118 99.8948 248.874 102.08 249.375 102.864C250.698 104.973 250.531 107.389 251.34 109.562C251.571 110.166 251.802 110.847 252.252 111.272C254.191 113.084 256.195 114.833 258.199 116.568C259.111 117.352 260.035 117.545 261.23 116.941C263.169 115.964 265.494 115.745 266.881 113.727C267.177 113.29 268.269 112.866 268.59 113.071C270.722 114.408 271.505 112.583 272.07 111.4C273.085 109.292 273.843 107.004 274.395 104.728C274.986 102.324 272.469 97.6579 270.144 96.2567C268.834 95.4725 267.588 94.5727 266.278 93.8014C264.891 92.9786 263.67 91.8088 261.795 91.9373C261.012 91.9888 260.189 91.3846 259.496 91.1275H259.522ZM182.16 69.8777C183.804 70.5205 185.359 68.515 186.99 70.0191C187.17 70.1862 188.48 68.9521 189.353 68.5665C191.845 67.448 193.862 65.6997 195.891 63.9514C196.161 63.72 196.225 63.2058 196.34 62.8073C196.841 61.0204 196.649 59.1692 197.098 57.3309C197.805 54.3485 194.992 50.0034 192.063 48.6793C189.854 47.6895 187.696 46.5325 185.397 45.7998C183.984 45.337 182.353 45.3498 180.85 45.4655C179.001 45.5941 178.692 47.1753 178.012 48.6408C177.485 49.772 175.88 50.4148 174.736 51.2504C171.782 53.3972 171.32 55.6212 173.157 58.8607C173.426 59.3235 173.555 59.8763 173.722 60.3905C174.891 63.9128 176.946 66.5739 180.581 67.8851C181.223 68.1165 181.57 69.1321 182.148 69.9034L182.16 69.8777ZM221.554 123.69C222.312 123.6 223.159 123.497 223.994 123.394C224.38 123.908 224.752 124.397 225.176 124.963C227.128 123.934 228.978 123.021 230.763 121.993C231.714 121.453 232.626 122.777 233.872 121.312C237.288 117.288 238.431 113.046 237.083 108.032C236.389 105.474 235.13 103.507 232.446 102.492C230.943 101.926 229.71 100.692 228.31 99.8176C225.266 97.9022 223.545 98.4035 221.335 101.167C220.295 102.466 218.741 103.533 217.2 104.214C214.798 105.281 213.706 106.027 213.924 108.444C214.323 113.059 215.067 117.635 219.126 120.81C220.051 121.53 220.68 122.636 221.554 123.716V123.69ZM199.616 87.0909C197.818 80.4576 191.216 80.4704 188.159 84.1085C186.913 85.5868 185.102 86.6024 183.509 87.7722C180.555 89.9319 180.054 91.3203 180.966 94.8941C181.326 96.2824 181.492 97.7351 181.968 99.072C182.982 101.926 184.742 104.086 188.03 104.51C187.94 105.114 187.85 105.628 187.773 106.142C187.915 106.284 188.043 106.515 188.197 106.554C190.946 107.158 193.091 105.667 195.172 104.304C196.263 103.597 196.996 102.736 198.588 102.761C200.926 102.787 203.366 99.522 202.775 97.028C202.416 95.4983 202.596 94.4827 203.482 93.4157C204.831 91.7831 204.342 90.1762 203.598 88.4793C202.788 86.641 201.401 86.4996 199.603 87.1038L199.616 87.0909ZM323.692 82.5144C322.317 81.4474 321.033 80.2133 319.53 79.3777C318.541 78.8378 317.218 78.9535 316.075 78.645C314.482 78.2208 314.046 79.3649 313.224 80.3033C312.569 81.0618 311.464 81.576 310.449 81.8588C307.88 82.5787 305.774 84.417 305.967 86.8466C306.198 89.7648 305.633 92.9915 307.482 95.5368C309.036 97.6579 309.923 100.229 312.569 101.669C315.484 103.263 317.809 102.003 320.314 101.077C321.02 100.82 321.739 100.01 322.317 100.139C324.899 100.679 325.683 98.9563 326.209 97.1437C326.916 94.6627 328.444 92.4387 328.007 89.5591C327.622 87.0009 327.095 84.7898 324.629 83.4914C324.244 83.2857 323.949 82.9258 323.615 82.643C323.64 82.6044 323.666 82.5787 323.692 82.5401V82.5144ZM31.3811 159.145C32.0234 159.685 32.4215 160.07 32.8711 160.405C35.2601 162.23 37.7391 162.783 40.4364 160.983C41.7208 160.122 43.2621 159.569 44.3924 158.553C45.3172 157.718 46.2035 156.484 46.4218 155.288C46.8842 152.794 47.0769 150.223 47.0383 147.678C46.9998 145.557 45.5099 143.95 43.853 142.831C41.9905 141.572 39.9354 140.569 37.8675 139.682C35.1445 138.499 34.6821 138.833 32.717 141.25C31.7793 142.407 30.4692 143.436 29.1206 144.078C26.4746 145.338 26.0764 147.524 26.5003 149.927C27.1425 153.578 28.5169 156.946 31.3811 159.132V159.145ZM70.2223 155.558C71.5453 156.522 72.7655 157.705 74.2297 158.386C75.116 158.798 76.3619 158.566 77.428 158.425C82.6299 157.743 85.8795 155.057 85.8795 149.349C85.8795 147.922 86.0208 146.482 86.1878 145.068C86.4703 142.741 86.1107 141.674 84.1198 140.723C82.129 139.772 80.0225 139.026 77.9417 138.281C74.8591 137.162 72.3801 138.332 70.1581 140.427C69.5287 141.019 68.7709 141.494 68.103 142.047C66.2149 143.577 65.3158 145.634 65.8552 147.948C66.536 150.866 67.5764 153.694 70.2223 155.545V155.558ZM113.752 185.035C116.218 188.532 120.277 187.195 123.822 187.362C125.247 187.426 126.943 186.269 128.163 185.254C130.346 183.415 131.323 180.742 131.978 178.042C132.556 175.664 128.754 168.233 126.493 167.424C124.798 166.819 122.935 166.048 121.227 167.706C120.855 168.066 120.084 168.131 119.493 168.118C116.449 168.028 113.944 169.416 113.161 172.27C112.236 175.587 111.106 178.993 113.264 182.374C113.687 183.03 113.585 184.033 113.739 185.048L113.752 185.035ZM176.547 134.565C176.586 135.35 176.612 135.967 176.65 136.751C178.821 136.712 180.76 136.969 182.559 135.735C183.92 134.81 185.384 133.936 187.362 135.581C188.608 132.534 190.098 129.938 190.728 127.135C191.383 124.178 189.739 121.466 187.863 119.319C186.463 117.712 184.46 116.568 182.559 115.488C180.054 114.061 178.757 114.665 176.83 116.928C175.892 118.034 174.377 118.676 173.067 119.422C171.191 120.489 170.125 122.7 170.613 124.654C170.934 125.914 171.281 127.174 171.461 128.446C171.859 131.197 173.696 133.537 176.547 134.54V134.565ZM194.915 199.459C196.713 201.336 198.832 200.384 200.836 200.127C201.902 199.986 202.981 199.639 203.97 199.189C205.614 198.43 206.886 197.505 207.785 195.589C209.442 192.054 208.889 188.776 207.888 185.369C207.733 184.855 207.618 184.135 207.245 183.917C204.497 182.271 202.531 179.456 199.076 178.788C197.419 178.466 196.366 178.813 195.929 180.24C195.583 181.384 195.056 181.719 193.964 182.04C192.744 182.4 191.537 183.184 190.638 184.084C189.931 184.804 189.109 186.154 189.34 186.938C190.291 190.319 189.726 194.278 192.988 196.849C193.81 197.492 194.285 198.585 194.915 199.472V199.459ZM231.611 17.3767C232.908 18.1866 234.103 19.2407 235.516 19.755C236.659 20.1663 238.059 20.1021 239.305 19.9221C242.066 19.5107 244.057 17.6724 245.894 15.7441C246.433 15.1785 246.742 14.2529 246.857 13.4559C247.178 11.1805 247.512 8.89225 247.525 6.60401C247.525 5.52417 247.114 3.95582 246.343 3.46732C243.518 1.64187 240.756 -0.453536 236.954 0.0863857C234.809 0.394912 232.883 0.433478 231.778 2.82456C231.316 3.81442 230.07 4.53431 229.042 5.13851C227.591 5.99981 226.987 7.28534 227.295 8.7637C227.963 11.9904 228.644 15.2685 231.611 17.3896V17.3767ZM356.252 113.727C357.177 112.493 358.191 111.31 359.014 110.012C360.491 107.672 360.272 105.5 358.551 103.301C357.87 102.44 357.177 101.553 356.663 100.589C355.391 98.1979 353.054 97.478 350.767 96.6809C350.369 96.5395 349.663 96.411 349.509 96.6167C347.711 98.9049 344.808 97.8379 342.611 98.9306C340.954 99.7533 339.811 100.679 340.042 102.684C340.094 103.121 340.222 103.61 340.068 103.983C338.514 107.646 340.839 110.616 341.879 113.766C342.521 115.732 345 115.668 346.465 115.771C349.342 115.964 352.399 116.247 355.173 114.833C355.623 114.601 356.021 114.254 356.445 113.958C356.38 113.881 356.316 113.817 356.252 113.74V113.727ZM214.143 246.021C216.108 244.131 218.201 242.344 220.013 240.326C221.772 238.359 221.631 236.045 220.346 233.821C219.46 232.291 218.33 230.89 217.585 229.296C216.763 227.509 215.016 226.956 213.655 225.902C212.807 225.247 211.702 225.362 211.009 226.365C210.251 227.471 209.288 227.471 208.093 227.316C207.13 227.188 206.012 227.239 205.152 227.625C204.227 228.036 203.058 228.795 202.801 229.656C202.108 231.957 201.375 234.438 201.555 236.765C201.735 239.143 202.66 241.637 203.893 243.707C204.985 245.558 207.374 245.121 209.339 245.147C210.816 245.172 212.293 245.262 213.783 245.326C213.899 245.558 214.027 245.789 214.143 246.021ZM86.997 52.9987C91.6851 56.8424 97.0155 56.5339 101.46 52.176C101.768 51.8674 102.076 51.3918 102.449 51.3275C105.095 50.8776 104.825 48.8079 104.979 46.9567C105.056 45.9926 105.12 45.0413 105.236 44.0771C105.506 41.7503 104.658 40.4648 102.41 39.5007C101.421 39.0764 100.509 38.4208 99.6101 37.7909C97.4008 36.2483 96.4375 36.2611 94.2925 37.9452C93.8558 38.2794 93.4063 38.9222 92.9824 38.8965C89.7199 38.7551 88.1273 41.7889 85.4685 42.7788C84.7749 43.0359 83.8758 43.9872 83.8886 44.6042C83.9529 47.728 84.2611 50.839 87.0098 52.9859L86.997 52.9987ZM223.532 71.1246C221.271 70.2248 219.499 67.718 216.493 67.628C214.721 67.5766 212.833 67.1652 212.422 69.7748C212.357 70.1605 211.715 70.6619 211.266 70.739C209.455 71.0861 208.504 72.1788 207.669 73.7985C206.783 75.5212 207.476 76.8324 207.81 78.4522C208.324 80.9332 209.365 82.9386 210.932 84.8669C213.513 88.0679 214.965 88.6721 218.818 87.4766C220.154 87.0652 221.502 86.5895 222.736 85.9468C223.365 85.6254 223.981 84.9184 224.2 84.2499C224.996 81.7817 225.805 79.3006 226.242 76.7553C226.627 74.5313 225.613 72.6544 223.532 71.1375V71.1246ZM280.933 37.5724C281.061 35.9269 281.37 33.7801 281.344 31.6461C281.306 29.1779 280.368 27.0696 277.838 26.1183C275.782 25.347 273.689 24.6271 271.595 23.9458C270.979 23.7529 270.285 23.7658 269.617 23.7272C266.65 23.573 266.059 26.7482 263.889 27.8538C261.525 29.0622 261.679 30.7848 262.45 34.2043C263.234 37.6624 265.623 39.7192 268.037 41.6475C269.322 42.6759 271.492 43.0487 273.214 42.9202C274.562 42.8302 275.872 41.5961 277.105 40.7348C278.339 39.8606 279.43 38.8065 280.933 37.5467V37.5724ZM30.4435 128.408C30.6619 126.801 31.1499 124.654 31.1499 122.507C31.1499 121.427 30.5077 119.949 29.6729 119.345C26.6031 117.147 23.148 115.617 19.4359 114.781C17.9589 114.447 15.6597 115.977 14.9661 117.391C14.6065 118.136 14.1569 118.972 13.5019 119.396C11.4853 120.682 11.1514 122.61 11.4853 124.641C12.1147 128.549 16.7258 132.933 20.3607 133.987C23.4177 134.874 25.0746 133.267 26.8728 131.416C27.7847 130.477 28.8765 129.706 30.4435 128.395V128.408ZM303 197.749C301.895 197.235 300.739 196.566 299.493 196.181C298.825 195.975 297.579 196.001 297.348 196.374C296.179 198.315 294.111 197.968 292.442 198.52C290.194 199.266 289.5 199.935 289.449 202.197C289.423 203.521 289.449 204.858 289.449 206.182C289.385 209.885 291.953 212.211 294.137 214.577C295.55 216.106 297.708 215.052 299.493 214.731C300.829 214.5 301.869 213.523 303.539 213.96C304.811 214.294 305.8 212.918 306.39 211.633C306.93 210.463 307.572 209.332 308.163 208.188C308.869 206.799 308.946 205.321 308.047 204.087C306.493 201.953 304.759 199.947 303 197.762V197.749ZM270.503 238.14C269.283 237.395 268.384 237.022 266.958 237.498C265.391 238.025 263.606 238.179 261.936 238.102C259.611 237.986 259.034 238.102 258.147 240.133C257.441 241.753 256.67 243.372 256.285 245.082C255.643 247.936 256.644 250.533 258.327 252.783C259.2 253.952 260.318 255.495 261.538 255.714C264.107 256.176 266.804 255.932 269.45 255.881C269.938 255.881 270.658 255.521 270.85 255.122C272.032 252.615 274.537 250.803 274.537 247.679C274.537 246.008 274.999 244.35 273.059 243.321C272.636 243.09 272.597 242.177 272.315 241.611C271.737 240.441 271.12 239.297 270.529 238.153L270.503 238.14ZM141.059 145.544C146.954 149.735 150.242 150.429 154.751 146.688C156.562 145.184 157.692 144.078 157.435 141.327C157.23 139.18 157.101 137.599 155.714 135.735C153.235 132.431 149.985 131.082 146.235 130.387C144.668 130.092 143.229 130.246 142.343 132.059C141.906 132.946 140.892 133.666 139.967 134.167C138.117 135.195 137.552 136.738 138.002 138.628C138.721 141.649 139.633 144.618 141.059 145.544ZM198.935 31.9803C201.966 30.939 204.651 29.7949 207.091 27.6995C209.724 25.437 208.838 22.8274 208.954 20.2435C208.979 19.7292 208.427 19.1636 208.504 18.6751C208.799 16.7854 208.735 15.307 206.667 14.2529C203.854 12.8131 201.119 11.3862 197.856 12.3503C197.304 12.5174 196.918 13.2245 196.43 13.6616C195.364 14.6257 194.44 15.9627 193.194 16.464C190.805 17.4153 190.599 19.1636 190.676 21.259C190.83 25.7969 193.348 29.1136 197.599 30.4506C198.087 30.6048 198.396 31.3247 198.948 31.9803H198.935ZM59.9982 132.676C61.3212 131.48 62.657 130.259 63.9928 129.038C64.0699 128.961 64.1213 128.832 64.2112 128.793C65.547 128.254 67.2167 128.292 67.4222 126.184C67.5635 124.718 68.2571 123.304 68.4113 121.839C68.6553 119.512 67.2553 117.879 65.5727 116.529C62.657 114.19 59.112 113.92 55.5926 113.637C55.3871 113.624 55.1174 113.688 54.9633 113.804C53.0623 115.231 50.9045 116.452 49.3632 118.201C48.3742 119.319 48.4641 120.99 49.1577 122.829C50.4164 126.184 51.8935 129.115 55.1945 130.76C56.6202 131.467 58.1744 131.943 60.0239 132.663L59.9982 132.676ZM326.492 128.061C325.169 128.845 323.82 129.603 322.523 130.426C321.418 131.12 320.224 131.763 319.325 132.676C318.297 133.717 319.504 134.99 319.415 135.992C319.055 139.875 320.84 142.459 323.525 144.875C325.785 146.907 328.406 147.434 331.18 146.919C333.916 146.405 336.356 145.274 337.474 142.279C337.962 140.955 338.206 139.785 337.705 138.448C337.32 137.419 337.088 136.327 336.754 135.285C336.562 134.655 336.472 133.846 336.048 133.46C334.108 131.699 332.156 129.938 330.024 128.408C329.099 127.752 327.776 127.662 326.633 127.315L326.505 128.086L326.492 128.061ZM52.1375 55.4926C53.8587 56.3796 55.4899 57.6266 57.3266 58.0894C61.2185 59.0535 63.98 56.7653 66.4846 54.1428C68.7581 51.7646 68.681 48.8979 67.936 46.044C67.692 45.1056 66.7543 43.9614 65.8681 43.6272C62.6955 42.4188 59.4331 41.4161 56.145 40.5162C54 39.9249 53.499 40.4005 52.1889 42.4188C51.4953 43.4987 50.4678 44.3857 49.5045 45.247C48.1558 46.4554 47.7833 47.7409 48.6696 49.3864C49.7742 51.4047 50.0054 53.9371 52.1375 55.4926ZM319.582 47.4067C319.864 46.3654 320.416 44.8099 320.686 43.203C320.93 41.7503 320.532 40.2977 321.418 38.8065C321.881 38.0352 321.547 36.184 320.879 35.4641C319.35 33.8186 317.488 32.4174 315.561 31.2476C314.791 30.7719 313.391 30.8748 312.453 31.209C310.616 31.8646 308.959 33.0602 307.097 33.6387C305.594 34.1143 304.913 35.0013 304.515 36.3511C303.321 40.3234 305.17 46.6996 308.266 49.1807C310.578 51.0447 317.026 50.2605 319.569 47.3938L319.582 47.4067ZM240.114 215.644C239.048 217.263 237.943 218.536 235.734 218.678C233.717 218.819 232.51 221.133 232.921 223.138C233.075 223.884 233.358 224.642 233.306 225.388C233.152 228.178 234.231 230.273 236.466 231.931C237.173 232.458 237.442 233.847 238.149 234.052C239.459 234.438 240.962 234.438 242.336 234.232C244.044 233.975 245.701 233.384 247.358 232.87C247.872 232.715 248.373 232.42 248.784 232.073C250.813 230.337 251.327 227.689 251.622 225.427C251.905 223.241 250.454 221.004 248.167 219.783C247.602 219.475 246.908 219.179 246.575 218.69C245.097 216.505 243.081 215.502 240.101 215.644H240.114ZM217.546 209.435C218.728 211.916 221.169 210.489 223.031 210.861C224.161 211.093 225.433 210.566 226.627 210.579C229.736 210.617 231.11 208.548 232.163 206.118C232.407 205.552 232.6 204.447 232.317 204.215C230.416 202.686 231.226 200.603 230.969 198.739C230.892 198.225 230.596 197.376 230.288 197.325C228.104 196.952 227.372 194.882 225.87 193.751C223.981 192.324 222.813 192.401 220.77 193.661C219.486 194.458 218.06 195.062 216.66 195.667C213.976 196.824 213.141 198.263 213.603 201.13C213.667 201.567 213.911 201.991 213.886 202.416C213.68 205.462 214.862 207.763 217.559 209.435H217.546ZM129.833 54.5413C128.176 56.2125 127.212 57.5495 125.941 58.3851C124.014 59.6577 123.822 61.2132 124.233 63.2572C125.119 67.6409 127.752 70.5205 131.669 72.423C133.403 73.2586 134.983 73.3615 136.653 72.2173C137.732 71.4717 138.991 70.9961 140.108 70.3019C142.793 68.6436 143.692 63.8614 141.842 61.2389C141.585 60.879 141.084 60.5833 141.033 60.2105C140.609 56.9324 137.745 56.3282 135.484 55.107C133.391 53.9757 131.207 54.3742 129.846 54.5413H129.833ZM103.386 84.5584C102.847 85.1112 102.397 85.8054 101.755 86.2039C100.124 87.1937 100.047 88.7235 100.252 90.279C100.946 95.3568 105.48 99.4191 110.643 99.6505C114.291 99.8176 117.194 97.6065 118.106 93.9942C118.324 93.1586 118.645 92.3359 119.031 91.5517C120.02 89.5463 120.02 88.235 118.555 86.731C115.409 83.4529 111.363 82.0002 106.944 82.0131C105.66 82.0131 104.388 83.4014 103.117 84.147L103.386 84.5584ZM217.521 163.541C217.02 163.516 216.262 163.258 215.723 163.49C214.335 164.094 212.884 164.711 211.754 165.688C210.315 166.922 211.651 168.529 211.6 169.969C211.535 172.129 211.754 174.044 213.012 175.908C213.911 177.245 216.069 177.451 216.159 179.507C216.159 179.687 217.405 180.06 217.957 179.932C219.422 179.572 220.835 178.98 222.273 178.479C222.748 178.312 223.301 177.913 223.712 178.029C225.523 178.518 226.422 177.271 226.923 176.088C227.86 173.89 228.618 171.563 229.081 169.223C229.582 166.691 228.695 165.649 226.293 164.891C225.78 164.724 225.343 164.223 224.906 163.85C223.93 163.001 223.095 161.883 221.978 161.33C218.908 159.787 218.805 159.903 217.508 163.554L217.521 163.541ZM291.44 156.265C292.12 154.761 292.467 153.643 293.084 152.691C294.612 150.313 294.561 148.758 292.686 146.804C291.619 145.685 290.566 144.554 289.487 143.448C288.152 142.073 286.687 141.07 284.632 140.942C283.425 140.865 282.667 140.852 281.858 142.009C281.331 142.754 280.034 143.063 279.019 143.358C276.45 144.104 275.513 145.261 275.693 147.858C275.911 150.943 276.027 154.003 278.827 156.201C279.623 156.831 279.289 158.476 280.895 158.811C282.898 159.222 284.825 159.26 286.7 158.489C288.396 157.782 290.027 156.921 291.427 156.252L291.44 156.265ZM332.952 170.367C330.628 168.272 329.6 168.233 327.417 169.378C326.196 170.02 324.873 170.522 323.538 170.894C321.932 171.344 321.059 172.437 320.853 173.928C320.249 178.235 320.776 182.284 323.897 185.665C325.092 186.951 328.457 187.786 330.307 187.118C331.424 186.719 332.529 186.282 333.62 185.819C335.046 185.202 335.868 184.148 336.6 182.696C338.912 178.145 338.45 174.481 334.006 171.576C333.389 171.177 332.991 170.419 332.94 170.367H332.952ZM13.5789 89.8419C14.2854 89.0063 15.0175 88.2093 15.6854 87.348C16.0065 86.9238 16.3533 86.4096 16.3918 85.9082C16.6487 83.2086 16.79 80.4833 17.0341 77.7837C17.1497 76.5496 16.7258 75.7525 15.6726 75.0198C12.5129 72.8473 8.4926 72.3202 5.78246 74.4927C3.68884 76.1768 2.05761 78.465 0.362163 80.599C-0.0488544 81.1132 -0.0231658 82.0902 0.0282114 82.8487C0.349319 88.055 4.81913 92.2459 9.98254 91.9373C11.2798 91.8602 12.5129 90.8189 13.7716 90.2147C13.7074 90.0862 13.6432 89.9705 13.5789 89.8419ZM93.676 178.582C92.0448 176.718 90.7475 175.535 89.8355 174.121C88.8208 172.54 87.4722 171.807 85.7254 171.743C83.2079 171.666 80.5234 171.242 79.0207 174.108C78.9693 174.198 78.8665 174.263 78.7766 174.327C76.9399 175.677 74.7435 176.705 75.116 179.662C75.6169 183.66 77.2225 187.066 80.973 188.686C82.6042 189.393 85.0703 189.38 86.7015 188.66C91.7879 186.398 93.2907 185.627 93.6888 179.379C93.7145 178.942 93.676 178.505 93.6888 178.582H93.676ZM252.74 183.673C255.386 182.169 258.019 180.677 260.228 179.43C260.999 177.206 261.615 175.355 262.283 173.504C263.285 170.714 262.758 169.429 260.305 168.272C259.599 167.938 258.931 167.321 258.468 166.678C256.285 163.58 253.588 163.336 250.813 165.919C250.043 166.639 248.989 167.115 247.987 167.488C246.164 168.182 244.532 169.84 244.879 171.589C245.431 174.442 245.316 177.553 247.641 179.919C248.591 180.883 249.285 181.899 250.787 182.066C251.314 182.13 251.764 182.837 252.74 183.673ZM170.87 164.39C176.586 168.645 180.234 167.951 185.012 163.927C186.001 163.091 186.001 161.112 186.566 159.698C187.285 157.885 186.001 157.242 184.948 156.188C183.239 154.465 181.775 152.421 179.463 151.534C177.061 150.609 174.544 149.85 172.296 152.049C171.975 152.357 171.615 152.64 171.243 152.859C169.766 153.746 167.633 154.157 167.723 156.381C167.839 159.248 167.942 162.23 170.613 164.184C170.703 164.248 170.793 164.313 170.883 164.377L170.87 164.39ZM38.9978 97.388C42.3245 100.165 46.242 100.113 49.4788 97.2723C50.1467 96.6938 50.8916 96.1667 51.4568 95.4983C52.3944 94.3927 53.7431 93.48 52.8825 91.5645C52.5999 90.9475 53.3192 89.9448 53.3577 89.1092C53.3963 87.8494 53.5247 86.461 53.1009 85.3297C52.3944 83.4529 47.1668 80.9332 45.1631 81.306C44.5466 81.4217 43.9172 81.7688 43.4419 82.1802C41.1557 84.237 38.8822 86.3196 36.673 88.4664C36.2491 88.8778 35.8638 89.662 35.928 90.2147C36.2491 92.8758 36.7758 95.4983 38.9978 97.3494V97.388ZM206.076 134.218C205.704 135.067 205.344 135.864 205.062 136.519C203.957 136.995 202.904 137.316 202.005 137.869C199.449 139.425 199.924 139.45 200.04 142.484C200.194 146.495 202.069 149.066 205.177 151.084C205.755 151.457 206.372 151.946 207.014 152.023C210.148 152.396 213.167 151.419 215.35 149.49C216.673 148.321 217.2 145.737 217.212 143.783C217.212 142.176 216.365 139.99 215.145 139.065C212.64 137.188 210.354 134.784 207.091 134.077C206.886 134.038 206.654 134.128 206.076 134.218ZM322.099 148.089C320.275 147.074 318.503 145.942 316.615 145.094C314.932 144.348 313.224 144.503 311.657 145.75C310.924 146.341 309.935 146.637 309.036 147.009C306.84 147.922 306.776 148.565 306.557 150.994C306.223 154.723 308.266 157.178 310.693 159.183C312.915 161.022 315.818 160.867 318.554 159.877C319.582 159.505 320.571 159.055 321.611 158.733C324.45 157.872 322.831 154.363 324.976 153.103C324.475 151.933 324.064 150.725 323.448 149.632C323.139 149.092 322.471 148.758 321.971 148.321C322.022 148.243 322.06 148.153 322.112 148.076L322.099 148.089ZM289.731 60.2877C289.333 59.902 288.922 59.5292 288.524 59.1435C287.175 57.8066 285.711 57.5623 284.003 58.5008C282.744 59.1821 281.228 59.4906 280.162 60.3776C279.148 61.2261 277.953 62.5887 277.915 63.7586C277.799 67.2038 278.197 70.6619 281.652 72.7444C282.628 73.3358 283.656 74.6727 284.465 74.5313C287.15 74.0556 289.988 73.4643 292.287 72.1016C293.623 71.3175 294.188 69.0292 294.831 67.3066C295.036 66.7667 294.548 65.8026 294.111 65.2241C292.788 63.4758 291.35 61.8174 289.95 60.1205C289.873 60.172 289.808 60.2362 289.731 60.2877ZM283.797 242.293C284.761 242.807 285.827 243.18 286.662 243.861C289.372 246.072 292.262 244.684 294.805 243.951C297.99 243.038 299.249 237.549 297.438 234.592C296.976 233.847 296.59 233.05 296.243 232.24C294.92 229.18 293.52 228.37 290.284 229.065C289.089 229.322 288.023 229.733 286.751 229.142C286.315 228.936 285.082 229.45 284.838 229.939C283.836 231.996 282.975 234.142 282.282 236.328C281.909 237.498 282.217 238.655 283.181 239.696C283.656 240.197 283.566 241.239 283.784 242.293H283.797ZM109.115 128.138C110.451 129.385 112.493 129.976 114.843 129.758C119.763 129.32 121.844 125.644 120.559 120.875C119.416 116.645 116.449 115.115 112.865 113.958C111.607 113.56 110.515 113.598 109.474 114.575C108.832 115.18 108.1 115.745 107.304 116.08C104.838 117.134 104.568 119.255 104.953 121.363C105.416 123.883 106.507 126.222 109.115 128.138ZM135.381 117.159C138.991 120.258 144.103 119.306 147.134 114.498C148.084 112.994 149.061 111.683 148.894 109.729C148.74 107.955 147.905 106.772 146.44 106.065C144.95 105.345 143.383 104.78 141.791 104.33C139.209 103.597 136.704 103.404 135.112 106.232C135.009 106.425 134.829 106.58 134.649 106.708C133.224 107.762 131.515 108.791 131.913 110.86C132.324 113.007 132.967 115.18 135.381 117.147V117.159ZM167.454 181.886C169.856 178.865 169.856 178.633 167.749 175.535C167.261 174.815 167.043 173.825 166.426 173.273C165.322 172.27 164.088 171.293 162.74 170.702C161.327 170.085 159.965 170.226 158.501 171.422C157.409 172.321 155.29 171.601 154.16 173.144C153.916 173.478 153.261 173.697 153.235 174.005C153.042 176.589 152.118 179.25 153.659 181.693C155.072 183.93 157.024 185.421 159.85 185.305C162.894 185.189 165.822 184.804 167.454 181.899V181.886ZM184.999 213.985C185.731 212.751 186.476 211.53 187.17 210.296C187.324 210.013 187.349 209.653 187.401 209.332C187.838 206.568 183.47 200.963 180.722 200.744C180.606 200.744 180.465 200.693 180.401 200.744C178.423 202.416 175.725 201.683 173.606 202.788C173.054 203.071 172.489 203.611 172.257 204.164C170.613 208.213 172.026 213.24 175.456 215.798C175.713 215.991 176.021 216.158 176.329 216.261C178.153 216.852 183.625 215.335 184.999 213.998V213.985ZM159.4 90.1762C157.949 89.122 156.485 88.0422 157.371 85.8954C157.474 85.6383 157.332 85.2397 157.242 84.9184C156.523 82.7073 151.154 80.9461 149.305 82.3602C147.905 83.44 146.582 84.6098 145.194 85.7154C143.64 86.9623 143.281 88.6592 143.525 90.4847C144.038 94.3156 147.866 98.2364 151.154 98.095C155.419 97.915 158.861 94.9969 159.272 91.2432C159.298 91.0246 159.323 90.8061 159.387 90.1633L159.4 90.1762ZM80.1766 111.272C83.3235 113.264 87.0098 114.717 90.208 112.223C92.6485 110.308 94.3824 106.425 93.3677 103.469C92.52 101 90.3236 100.165 87.9603 99.7148C83.4776 98.8663 80.6647 101.45 78.2115 104.587C77.7619 105.165 77.672 106.4 77.9546 107.107C78.5968 108.713 79.5858 110.192 80.1766 111.272ZM318.888 125.091C319.029 124.924 319.132 124.693 319.312 124.615C321.958 123.368 321.457 121.235 320.622 119.255C319.864 117.468 318.747 115.835 317.706 114.177C317.141 113.277 316.358 112.904 315.163 113.11C313.57 113.38 311.901 113.226 310.295 113.444C309.486 113.547 308.458 113.843 308.009 114.421C305.568 117.519 305.889 122.841 308.6 125.721C309.023 126.171 309.64 126.698 310.192 126.749C312.273 126.942 314.392 127.109 316.46 126.955C317.372 126.891 318.233 126.017 319.119 125.502C319.042 125.361 318.965 125.233 318.888 125.091ZM126.493 144.168C123.128 141.109 118.067 141.109 114.895 144.168C112.197 146.765 113.045 151.997 116.513 153.694C120.187 155.507 123.924 155.391 127.071 152.794C128.317 151.766 128.959 149.658 129.255 147.935C129.396 147.099 128.15 145.994 127.482 145.055C127.238 144.708 126.827 144.477 126.493 144.194V144.168ZM249.298 152.499C249.824 151.239 250.441 149.838 250.967 148.398C251.507 146.958 250.89 144.824 249.657 143.898C248.36 142.921 247.011 142.009 245.65 141.122C243.646 139.798 242.863 139.888 241.039 141.456C240.371 142.021 239.651 142.561 238.906 143.011C236.35 144.541 236.363 144.515 236.8 147.652C237.198 150.467 237.661 153.193 241.27 153.553C242.94 156.445 244.532 154.812 246.266 153.566C246.986 153.051 248 152.936 249.298 152.499ZM253.588 125.76C251.391 126.865 249.876 127.919 248.193 128.369C246.947 128.703 246.446 129.295 246.408 130.336C246.253 134.038 246.934 137.355 250.287 139.682C251.52 140.53 252.855 141.006 253.999 140.492C256.336 139.438 259.612 139.18 259.547 135.388C259.547 134.9 260.241 134.398 260.228 133.923C260.177 132.753 260.318 131.159 259.637 130.503C257.646 128.601 255.309 127.071 253.588 125.76ZM289.886 99.5348C290.579 97.9408 291.131 96.6809 291.684 95.4211C292.326 93.9685 292.043 91.9631 290.643 91.2946C289.346 90.6647 288.691 89.6491 287.856 88.6721C286.122 86.6667 285.326 86.7567 283.412 88.9164C283.245 89.1092 282.962 89.2635 282.718 89.3149C281.19 89.6491 279.649 89.9448 277.812 90.3176C277.902 92.503 277.76 94.5084 278.159 96.3853C278.403 97.5294 279.289 99.0206 280.252 99.4063C281.665 99.959 281.794 102.427 283.836 101.694C285.159 101.219 286.443 100.602 287.766 100.1C288.46 99.8433 289.205 99.7148 289.898 99.5348H289.886ZM86.1492 74.7884C84.5565 72.6801 82.7455 72.7058 80.7161 74.2742C80.2409 74.647 79.4702 74.827 78.8537 74.7884C77.1582 74.6599 75.8481 75.0584 74.9105 76.6267C74.2683 77.7066 72.5728 78.8378 72.7526 79.5963C73.1765 81.3189 74.1398 83.2343 75.4885 84.3399C79.6757 87.7722 86.7272 84.8541 87.652 79.5063C87.9603 77.7066 88.9364 75.6754 86.1492 74.8013V74.7884ZM160.184 44.5399C162.611 41.6861 161.982 38.5237 158.527 36.9682C156.639 36.1197 154.635 35.3741 152.606 35.0142C151.604 34.8342 150.422 35.6055 149.356 36.0555C148.996 36.2097 148.791 36.7239 148.483 37.0325C145.618 40.0277 146.273 43.9743 149.96 45.9026C153.877 47.9594 157.692 47.4452 160.171 44.5399H160.184ZM285.647 120.013C282.962 120.245 280.74 120.437 278.338 120.63C276.9 123.767 275.834 126.788 278.48 130.092C280.689 132.843 286.199 133.267 288.563 130.58C288.986 130.105 289.526 129.719 290.027 129.308C291.042 128.472 291.234 127.405 290.605 126.338C289.153 123.87 287.985 121.157 285.647 120.013ZM293.315 185.498C295.524 187.118 298.889 187.156 300.867 185.601C302.422 184.38 303.847 180.24 302.678 178.659C301.394 176.911 299.39 175.664 297.592 174.353C297.245 174.108 296.346 174.494 295.768 174.738C295.177 174.995 294.702 175.535 294.111 175.792C292.608 176.448 290.926 176.782 290.733 178.903C290.399 182.4 290.875 183.698 293.315 185.485V185.498ZM207.669 47.021C210.932 48.9879 212.858 49.0778 215.222 47.1624C217.636 45.1956 217.598 39.5649 215.042 37.7652C213.796 36.891 212.357 36.2868 210.983 35.6184C210.713 35.477 210.225 35.387 210.033 35.5284C208.504 36.7239 206.834 37.8295 205.614 39.295C205.1 39.912 205.293 41.3904 205.601 42.3417C206.115 43.9614 206.976 45.4655 207.682 47.021H207.669ZM257.531 201.94C258.186 200.95 258.892 200.269 259.111 199.459C259.342 198.572 259.342 197.479 259.008 196.656C258.635 195.718 257.826 194.934 257.133 194.15C256.786 193.738 256.336 193.365 255.861 193.121C255.052 192.723 249.426 194.612 248.951 195.371C247.268 198.058 248.077 202.171 250.633 204.01C252.303 205.205 254.962 204.652 256.876 202.711C257.184 202.403 257.454 202.043 257.531 201.94ZM267.716 211.8C267.678 213.124 267.511 214.345 267.626 215.541C267.819 217.521 269.335 219.179 271.094 219.577C272.726 219.95 274.138 219.205 275.307 217.148C275.821 216.248 276.605 214.782 276.258 214.255C275.256 212.751 273.92 211.029 272.34 210.476C271.133 210.052 269.347 211.286 267.742 211.813L267.716 211.8ZM273.753 183.724C273.308 186.578 274.361 188.939 276.913 190.807C280.15 190.923 280.933 188.288 282.243 186.359C282.102 185.974 282.076 185.729 281.935 185.562C279.863 183.111 277.135 182.494 273.753 183.711V183.724Z" fill="#DE9555"/>
</svg>
