<svg width="357" height="322" viewBox="0 0 357 322" fill="none" xmlns="http://www.w3.org/2000/svg">
<g clip-path="url(#clip0_15_1080)">
<path d="M286.85 78.5354C286.576 76.2555 286.446 73.8462 285.622 71.7442C284.216 68.1545 284.572 65.7938 287.836 63.6918C289.663 62.5114 291.715 61.6706 293.719 60.7651C295.61 59.9243 297.308 59.2451 298.213 56.9167C298.746 55.5423 300.685 54.1194 302.205 53.8445C304.096 53.4888 306.342 53.9415 308.185 54.6853C312.484 56.3993 316.605 58.5499 320.856 60.4094C325.834 62.5922 328.954 66.4729 331.394 71.1783C333.495 75.2045 329.212 78.7294 330.764 82.6425C330.796 82.7071 330.634 82.9012 330.521 82.9658C328.501 84.0654 329.875 85.8602 329.778 87.2993C328.97 87.5742 328.097 87.6065 327.677 88.0592C324.46 91.6004 319.757 92.8616 316.121 95.7398C315.749 96.0308 315.086 96.1117 314.569 96.0793C312.613 95.95 310.625 95.9176 308.734 95.4972C306.569 95.0121 304.516 94.0743 302.366 93.476C301.477 93.2335 300.475 93.2982 299.522 93.2982C296.322 93.2982 295.869 92.7969 296.144 89.3851C290.681 87.7844 287.529 84.2756 286.85 78.5354ZM176.817 277.647C176.72 278.084 176.59 278.73 176.38 279.765C179.532 280.784 182.571 280.121 185.528 279.102C188.227 278.181 190.749 276.58 193.658 277.566C196.195 275.222 197.375 272.343 198.684 269.368C199.832 266.749 200.22 264.178 200.543 261.494C200.883 258.68 200.042 256.4 197.699 254.525C194.676 252.099 191.912 249.366 189.036 246.747C187.565 245.405 183.896 245.405 182.021 246.747C180.146 248.089 178.304 249.48 176.364 250.741C175.831 251.08 174.958 251.258 174.376 251.097C171.435 250.223 170.109 252.164 169.317 254.25C168.606 256.141 168.493 258.292 168.315 260.329C168.17 262.092 168.17 263.903 168.412 265.649C168.946 269.643 170.917 273.006 173.584 275.933C174.312 276.741 175.621 277.033 176.801 277.631L176.817 277.647ZM326.561 114.626C323.135 115.224 324.008 118.264 323.103 120.56C318.674 119.056 317.09 123.39 314.246 125.168C313.47 125.653 313.163 128.402 313.793 129.389C315.458 132.04 315.248 135.08 316.266 137.813C316.557 138.573 316.848 139.43 317.414 139.963C319.854 142.243 322.375 144.442 324.897 146.625C326.044 147.612 327.208 147.854 328.711 147.094C331.152 145.865 334.077 145.59 335.823 143.052C336.194 142.502 337.568 141.968 337.972 142.227C340.655 143.909 341.641 141.613 342.352 140.125C343.629 137.473 344.583 134.595 345.278 131.733C346.021 128.709 342.853 122.84 339.928 121.077C338.279 120.091 336.711 118.959 335.063 117.989C333.317 116.954 331.782 115.483 329.422 115.644C328.436 115.709 327.402 114.949 326.529 114.626H326.561ZM229.215 87.8976C231.284 88.706 233.24 86.1836 235.292 88.0754C235.519 88.2856 237.167 86.7333 238.266 86.2483C241.402 84.8415 243.939 82.6424 246.493 80.4434C246.832 80.1523 246.913 79.5056 247.059 79.0043C247.689 76.7567 247.447 74.4283 248.012 72.1161C248.901 68.3648 245.362 62.8995 241.677 61.234C238.897 59.9889 236.181 58.5337 233.288 57.612C231.51 57.0299 229.458 57.0461 227.567 57.1916C225.239 57.3533 224.851 59.3422 223.995 61.1855C223.332 62.6084 221.312 63.4169 219.873 64.4679C216.156 67.1682 215.574 69.9655 217.885 74.0403C218.225 74.6224 218.386 75.3177 218.597 75.9644C220.067 80.3949 222.653 83.742 227.227 85.3913C228.035 85.6823 228.472 86.9597 229.199 87.9299L229.215 87.8976ZM278.785 155.583C279.739 155.47 280.806 155.341 281.856 155.211C282.341 155.858 282.81 156.473 283.343 157.184C285.8 155.89 288.127 154.742 290.374 153.449C291.57 152.77 292.717 154.435 294.285 152.592C298.584 147.531 300.023 142.195 298.326 135.889C297.453 132.671 295.869 130.197 292.491 128.92C290.6 128.208 289.049 126.656 287.287 125.556C283.456 123.147 281.291 123.778 278.511 127.254C277.202 128.887 275.246 130.229 273.306 131.086C270.284 132.428 268.91 133.366 269.185 136.406C269.686 142.211 270.623 147.967 275.731 151.961C276.894 152.867 277.686 154.257 278.785 155.616V155.583ZM251.18 109.549C248.917 101.205 240.61 101.221 236.763 105.797C235.195 107.657 232.916 108.934 230.912 110.406C227.195 113.122 226.565 114.868 227.712 119.363C228.165 121.11 228.375 122.937 228.973 124.619C230.25 128.208 232.464 130.925 236.602 131.458C236.488 132.218 236.375 132.865 236.278 133.512C236.456 133.69 236.618 133.981 236.812 134.029C240.27 134.789 242.97 132.914 245.588 131.2C246.962 130.31 247.883 129.227 249.887 129.259C252.829 129.292 255.899 125.184 255.156 122.048C254.703 120.123 254.93 118.846 256.045 117.504C257.742 115.45 257.128 113.429 256.19 111.295C255.172 108.983 253.427 108.805 251.164 109.565L251.18 109.549ZM407.309 103.792C405.579 102.45 403.963 100.898 402.072 99.8468C400.828 99.1677 399.163 99.3132 397.725 98.9252C395.72 98.3916 395.171 99.8307 394.137 101.011C393.312 101.965 391.922 102.612 390.645 102.968C387.413 103.873 384.762 106.185 385.005 109.241C385.296 112.912 384.585 116.97 386.912 120.172C388.868 122.84 389.983 126.074 393.312 127.885C396.981 129.89 399.907 128.305 403.058 127.141C403.947 126.818 404.852 125.799 405.58 125.961C408.828 126.64 409.814 124.473 410.477 122.193C411.366 119.072 413.289 116.275 412.739 112.653C412.255 109.435 411.592 106.654 408.489 105.021C408.004 104.762 407.632 104.31 407.212 103.954C407.244 103.905 407.277 103.873 407.309 103.825V103.792ZM39.4848 200.179C40.2929 200.858 40.7939 201.343 41.3596 201.763C44.3658 204.059 47.4852 204.755 50.8793 202.491C52.4955 201.408 54.435 200.712 55.8573 199.435C57.021 198.384 58.1362 196.832 58.4109 195.328C58.9928 192.191 59.2352 188.957 59.1867 185.756C59.1383 183.088 57.2634 181.066 55.1785 179.66C52.8349 178.075 50.2489 176.814 47.6468 175.698C44.2204 174.21 43.6385 174.631 41.1657 177.671C39.9858 179.126 38.3372 180.42 36.6402 181.228C33.3107 182.813 32.8097 185.561 33.3431 188.585C34.1512 193.177 35.8806 197.414 39.4848 200.163V200.179ZM88.3599 195.667C90.0246 196.88 91.5601 198.368 93.4026 199.225C94.5178 199.742 96.0855 199.451 97.427 199.273C103.973 198.416 108.062 195.037 108.062 187.858C108.062 186.063 108.24 184.252 108.45 182.473C108.805 179.546 108.353 178.204 105.848 177.008C103.342 175.811 100.692 174.873 98.0735 173.936C94.1945 172.529 91.0752 174 88.2791 176.636C87.4871 177.38 86.5335 177.978 85.6931 178.673C83.3172 180.597 82.1859 183.185 82.8647 186.095C83.7213 189.766 85.0304 193.323 88.3599 195.651V195.667ZM143.134 232.744C146.237 237.142 151.345 235.461 155.806 235.671C157.6 235.752 159.733 234.296 161.269 233.019C164.016 230.707 165.244 227.344 166.069 223.948C166.796 220.957 162.012 211.611 159.167 210.592C157.034 209.832 154.69 208.862 152.541 210.948C152.072 211.4 151.102 211.481 150.359 211.465C146.528 211.352 143.377 213.098 142.391 216.688C141.227 220.86 139.805 225.144 142.52 229.397C143.053 230.222 142.924 231.483 143.118 232.76L143.134 232.744ZM222.152 169.263C222.201 170.249 222.233 171.025 222.282 172.011C225.013 171.963 227.454 172.286 229.716 170.734C231.43 169.57 233.272 168.47 235.761 170.54C237.329 166.708 239.204 163.442 239.996 159.917C240.82 156.198 238.751 152.786 236.391 150.086C234.63 148.064 232.108 146.625 229.716 145.267C226.565 143.472 224.932 144.232 222.508 147.078C221.328 148.469 219.421 149.277 217.772 150.215C215.413 151.557 214.071 154.338 214.685 156.796C215.089 158.381 215.526 159.965 215.752 161.566C216.253 165.026 218.564 167.969 222.152 169.23V169.263ZM245.265 250.886C247.527 253.247 250.194 252.051 252.715 251.727C254.057 251.549 255.415 251.113 256.659 250.547C258.728 249.593 260.328 248.429 261.459 246.019C263.544 241.573 262.849 237.45 261.589 233.165C261.395 232.518 261.249 231.612 260.78 231.337C257.322 229.268 254.849 225.727 250.501 224.886C248.416 224.482 247.091 224.918 246.541 226.713C246.105 228.152 245.442 228.572 244.069 228.977C242.533 229.429 241.014 230.416 239.882 231.548C238.994 232.453 237.959 234.151 238.25 235.137C239.446 239.39 238.735 244.37 242.84 247.604C243.875 248.412 244.473 249.787 245.265 250.903V250.886ZM291.441 21.8612C293.073 22.8799 294.576 24.2058 296.354 24.8526C297.792 25.37 299.554 25.2891 301.122 25.0628C304.597 24.5453 307.102 22.2331 309.413 19.8077C310.092 19.0962 310.48 17.932 310.625 16.9295C311.029 14.0675 311.45 11.1893 311.466 8.31112C311.466 6.95288 310.949 4.9802 309.979 4.36576C306.423 2.06969 302.948 -0.565947 298.164 0.113174C295.465 0.501242 293.041 0.549751 291.651 3.55728C291.069 4.80234 289.501 5.70783 288.208 6.4678C286.382 7.55116 285.622 9.16811 286.01 11.0276C286.85 15.0862 287.707 19.2094 291.441 21.8774V21.8612ZM448.281 143.052C449.444 141.5 450.721 140.012 451.756 138.379C453.614 135.436 453.339 132.703 451.174 129.938C450.317 128.855 449.444 127.739 448.798 126.527C447.198 123.519 444.256 122.614 441.379 121.611C440.878 121.433 439.989 121.271 439.795 121.53C437.533 124.408 433.88 123.066 431.116 124.441C429.031 125.476 427.593 126.64 427.884 129.162C427.948 129.712 428.11 130.326 427.916 130.795C425.96 135.404 428.886 139.139 430.195 143.1C431.003 145.574 434.122 145.493 435.965 145.623C439.585 145.865 443.432 146.221 446.923 144.442C447.489 144.151 447.99 143.715 448.523 143.343C448.442 143.246 448.361 143.165 448.281 143.068V143.052ZM269.46 309.452C271.933 307.076 274.567 304.828 276.846 302.289C279.06 299.815 278.882 296.905 277.266 294.108C276.151 292.183 274.729 290.421 273.791 288.416C272.757 286.168 270.559 285.473 268.846 284.147C267.779 283.322 266.389 283.468 265.516 284.729C264.562 286.12 263.35 286.12 261.847 285.926C260.635 285.764 259.229 285.829 258.146 286.314C256.982 286.831 255.512 287.785 255.188 288.869C254.316 291.763 253.394 294.884 253.621 297.81C253.847 300.802 255.011 303.939 256.562 306.542C257.936 308.87 260.942 308.321 263.415 308.353C265.274 308.385 267.132 308.498 269.007 308.579C269.153 308.87 269.314 309.161 269.46 309.452ZM109.468 66.667C115.367 71.5016 122.075 71.1136 127.667 65.6321C128.055 65.244 128.443 64.6458 128.911 64.5649C132.241 63.999 131.901 61.3957 132.095 59.0673C132.192 57.8546 132.273 56.658 132.419 55.4453C132.758 52.5186 131.691 50.9017 128.863 49.6889C127.618 49.1554 126.471 48.3307 125.339 47.5384C122.56 45.5981 121.347 45.6142 118.648 47.7324C118.099 48.1528 117.533 48.9613 117 48.929C112.894 48.7511 110.89 52.5671 107.545 53.8122C106.672 54.1356 105.541 55.3321 105.557 56.1083C105.638 60.0375 106.025 63.9505 109.484 66.6508L109.468 66.667ZM281.274 89.466C278.43 88.3341 276.199 85.1811 272.417 85.0679C270.187 85.0032 267.811 84.4858 267.294 87.7682C267.213 88.2533 266.405 88.8839 265.839 88.9809C263.56 89.4175 262.364 90.7919 261.314 92.8293C260.199 94.996 261.071 96.6453 261.492 98.6826C262.138 101.803 263.447 104.326 265.419 106.751C268.668 110.777 270.494 111.537 275.343 110.034C277.024 109.516 278.721 108.918 280.272 108.109C281.064 107.705 281.84 106.816 282.115 105.975C283.117 102.871 284.135 99.7498 284.685 96.5482C285.17 93.7509 283.893 91.3902 281.274 89.4822V89.466ZM353.504 47.2635C353.666 45.1938 354.054 42.4935 354.021 39.8094C353.973 36.7048 352.793 34.053 349.609 32.8565C347.023 31.8863 344.389 30.9808 341.754 30.1238C340.978 29.8813 340.106 29.8974 339.265 29.8489C335.532 29.6549 334.788 33.6488 332.057 35.0394C329.083 36.5593 329.277 38.726 330.247 43.0271C331.232 47.3767 334.239 49.9638 337.277 52.3893C338.893 53.6828 341.625 54.1517 343.791 53.99C345.488 53.8769 347.136 52.3246 348.688 51.2412C350.239 50.1417 351.613 48.8158 353.504 47.2312V47.2635ZM38.3049 161.517C38.5797 159.496 39.1938 156.796 39.1938 154.096C39.1938 152.737 38.3857 150.878 37.3352 150.118C33.4724 147.353 29.1247 145.429 24.4537 144.378C22.5951 143.957 19.702 145.881 18.8292 147.66C18.3767 148.598 17.811 149.649 16.9867 150.183C14.4492 151.8 14.029 154.225 14.4492 156.78C15.2412 161.695 21.0435 167.209 25.6174 168.535C29.4641 169.651 31.549 167.63 33.8118 165.301C34.9593 164.121 36.3331 163.151 38.3049 161.501V161.517ZM381.271 248.736C379.881 248.089 378.427 247.248 376.859 246.763C376.018 246.504 374.451 246.537 374.16 247.006C372.689 249.447 370.087 249.011 367.986 249.706C365.157 250.644 364.285 251.485 364.22 254.33C364.188 255.996 364.22 257.678 364.22 259.343C364.139 264 367.372 266.927 370.119 269.902C371.897 271.826 374.612 270.5 376.859 270.096C378.54 269.805 379.849 268.576 381.95 269.126C383.55 269.546 384.795 267.816 385.538 266.199C386.217 264.728 387.025 263.305 387.769 261.865C388.657 260.119 388.754 258.26 387.623 256.707C385.667 254.023 383.486 251.501 381.271 248.752V248.736ZM340.38 299.54C338.845 298.603 337.714 298.134 335.92 298.732C333.948 299.395 331.701 299.589 329.6 299.492C326.675 299.346 325.947 299.492 324.832 302.047C323.943 304.084 322.973 306.121 322.489 308.272C321.68 311.862 322.941 315.128 325.058 317.958C326.157 319.429 327.564 321.369 329.099 321.644C332.331 322.226 335.726 321.919 339.055 321.854C339.669 321.854 340.574 321.402 340.817 320.9C342.304 317.747 345.455 315.467 345.455 311.538C345.455 309.436 346.037 307.35 343.597 306.057C343.063 305.766 343.015 304.618 342.659 303.906C341.932 302.435 341.156 300.996 340.413 299.557L340.38 299.54ZM177.496 183.071C184.914 188.343 189.052 189.216 194.725 184.51C197.004 182.619 198.426 181.228 198.103 177.768C197.844 175.067 197.682 173.079 195.937 170.734C192.818 166.578 188.728 164.881 184.009 164.008C182.037 163.636 180.227 163.83 179.112 166.11C178.562 167.225 177.285 168.131 176.122 168.761C173.794 170.055 173.083 171.995 173.649 174.372C174.554 178.172 175.702 181.907 177.496 183.071ZM250.323 40.2298C254.138 38.92 257.516 37.481 260.587 34.8453C263.9 31.9995 262.785 28.7171 262.93 25.467C262.962 24.8202 262.267 24.1088 262.364 23.4943C262.736 21.1174 262.655 19.2579 260.053 17.932C256.514 16.121 253.071 14.3262 248.966 15.5389C248.271 15.7491 247.786 16.6384 247.172 17.1882C245.83 18.4009 244.667 20.0825 243.099 20.7132C240.093 21.9097 239.834 24.1088 239.931 26.7444C240.125 32.4522 243.293 36.624 248.643 38.3056C249.257 38.4996 249.645 39.4051 250.34 40.2298H250.323ZM75.4946 166.886C77.1593 165.382 78.8402 163.846 80.5211 162.31C80.6181 162.213 80.6828 162.051 80.7959 162.003C82.4768 161.323 84.5779 161.372 84.8365 158.72C85.0143 156.877 85.887 155.098 86.081 153.255C86.3881 150.328 84.6264 148.275 82.5091 146.577C78.8402 143.634 74.3794 143.294 69.9509 142.939C69.6923 142.922 69.3529 143.003 69.159 143.149C66.7669 144.944 64.0516 146.48 62.1121 148.679C60.8676 150.086 60.9808 152.188 61.8535 154.5C63.4375 158.72 65.2961 162.407 69.4499 164.476C71.2439 165.366 73.1996 165.964 75.5269 166.87L75.4946 166.886ZM410.832 161.081C409.168 162.067 407.471 163.021 405.838 164.056C404.448 164.929 402.945 165.738 401.814 166.886C400.521 168.195 402.04 169.796 401.927 171.057C401.474 175.941 403.721 179.191 407.099 182.231C409.943 184.785 413.24 185.448 416.732 184.802C420.174 184.155 423.245 182.732 424.651 178.964C425.265 177.299 425.572 175.827 424.942 174.146C424.457 172.852 424.166 171.478 423.746 170.168C423.504 169.376 423.39 168.357 422.857 167.872C420.417 165.657 417.96 163.442 415.277 161.517C414.113 160.693 412.449 160.58 411.01 160.143L410.848 161.113L410.832 161.081ZM65.6032 69.8038C67.769 70.9195 69.8216 72.488 72.1328 73.0701C77.03 74.2828 80.505 71.4046 83.6566 68.106C86.5174 65.1147 86.4204 61.5089 85.483 57.9192C85.1759 56.7389 83.996 55.2998 82.8808 54.8794C78.8887 53.3594 74.7835 52.0982 70.6459 50.9663C67.9468 50.2225 67.3164 50.8208 65.6679 53.3594C64.7951 54.7177 63.5021 55.8334 62.2899 56.9167C60.5929 58.4367 60.1242 60.0536 61.2394 62.1233C62.6293 64.6619 62.9203 67.8473 65.6032 69.8038ZM402.137 59.6332C402.492 58.3235 403.187 56.367 403.527 54.3458C403.834 52.5186 403.333 50.6915 404.448 48.8158C405.03 47.8456 404.61 45.5172 403.769 44.6117C401.846 42.542 399.502 40.7795 397.078 39.3081C396.108 38.7098 394.347 38.8392 393.167 39.2596C390.856 40.0842 388.771 41.588 386.427 42.3156C384.536 42.9139 383.679 44.0296 383.178 45.7274C381.675 50.7238 384.003 58.7439 387.898 61.8646C390.807 64.2092 398.921 63.2228 402.121 59.617L402.137 59.6332ZM302.14 271.244C300.799 273.281 299.409 274.882 296.629 275.06C294.091 275.238 292.572 278.148 293.089 280.671C293.283 281.608 293.639 282.562 293.574 283.5C293.38 287.009 294.738 289.645 297.55 291.731C298.439 292.394 298.778 294.14 299.667 294.399C301.316 294.884 303.207 294.884 304.936 294.625C307.086 294.302 309.171 293.558 311.256 292.911C311.902 292.717 312.533 292.345 313.05 291.908C315.603 289.726 316.25 286.395 316.622 283.549C316.977 280.8 315.151 277.987 312.274 276.45C311.563 276.062 310.69 275.69 310.27 275.076C308.411 272.327 305.874 271.066 302.124 271.244H302.14ZM273.743 263.434C275.23 266.555 278.301 264.76 280.644 265.229C282.066 265.52 283.666 264.857 285.17 264.873C289.081 264.922 290.81 262.318 292.136 259.262C292.443 258.551 292.685 257.16 292.329 256.869C289.937 254.945 290.956 252.325 290.632 249.981C290.535 249.334 290.164 248.267 289.776 248.202C287.028 247.733 286.107 245.13 284.216 243.707C281.84 241.912 280.369 242.009 277.8 243.594C276.183 244.596 274.389 245.356 272.628 246.116C269.25 247.572 268.199 249.383 268.781 252.988C268.862 253.538 269.169 254.072 269.136 254.605C268.878 258.438 270.365 261.332 273.759 263.434H273.743ZM163.37 68.6073C161.285 70.7093 160.073 72.391 158.472 73.442C156.048 75.0428 155.806 76.9993 156.323 79.5702C157.438 85.084 160.751 88.706 165.681 91.0991C167.863 92.1501 169.851 92.2795 171.952 90.8404C173.31 89.9026 174.893 89.3043 176.3 88.4311C179.678 86.3453 180.809 80.3302 178.481 77.0316C178.158 76.5789 177.528 76.207 177.463 75.7381C176.93 71.6148 173.326 70.8549 170.481 69.3188C167.847 67.8958 165.099 68.3971 163.386 68.6073H163.37ZM130.091 106.363C129.412 107.058 128.847 107.932 128.039 108.433C125.986 109.678 125.889 111.602 126.148 113.559C127.02 119.946 132.726 125.055 139.223 125.346C143.813 125.556 147.466 122.775 148.613 118.232C148.888 117.181 149.292 116.146 149.777 115.159C151.022 112.637 151.022 110.988 149.179 109.096C145.219 104.973 140.128 103.145 134.568 103.162C132.952 103.162 131.352 104.908 129.752 105.846L130.091 106.363ZM273.71 205.709C273.08 205.676 272.126 205.353 271.448 205.644C269.702 206.404 267.876 207.18 266.453 208.409C264.643 209.961 266.324 211.982 266.26 213.793C266.179 216.51 266.453 218.919 268.037 221.264C269.169 222.945 271.884 223.204 271.997 225.791C271.997 226.018 273.565 226.487 274.26 226.325C276.102 225.872 277.88 225.128 279.691 224.498C280.289 224.288 280.983 223.786 281.501 223.932C283.78 224.546 284.911 222.978 285.541 221.49C286.721 218.725 287.675 215.799 288.257 212.856C288.887 209.67 287.772 208.361 284.749 207.407C284.103 207.196 283.553 206.566 283.004 206.097C281.775 205.03 280.725 203.623 279.319 202.928C275.456 200.987 275.327 201.133 273.694 205.725L273.71 205.709ZM366.725 196.557C367.582 194.665 368.018 193.258 368.794 192.062C370.717 189.07 370.653 187.114 368.293 184.656C366.951 183.249 365.626 181.826 364.268 180.436C362.588 178.706 360.745 177.444 358.159 177.283C356.64 177.186 355.686 177.17 354.668 178.625C354.005 179.563 352.373 179.951 351.096 180.323C347.864 181.26 346.684 182.716 346.91 185.982C347.185 189.863 347.33 193.711 350.854 196.476C351.856 197.268 351.435 199.338 353.456 199.758C355.977 200.276 358.401 200.324 360.761 199.354C362.895 198.465 364.947 197.381 366.709 196.541L366.725 196.557ZM418.962 214.295C416.037 211.659 414.744 211.611 411.996 213.05C410.461 213.858 408.796 214.489 407.115 214.958C405.095 215.524 403.996 216.898 403.737 218.774C402.977 224.191 403.64 229.284 407.568 233.536C409.071 235.153 413.305 236.204 415.633 235.364C417.039 234.862 418.429 234.313 419.802 233.731C421.596 232.954 422.631 231.628 423.552 229.801C426.461 224.077 425.879 219.469 420.287 215.815C419.512 215.313 419.01 214.359 418.946 214.295H418.962ZM17.0837 113.009C17.9726 111.958 18.8939 110.955 19.7343 109.872C20.1384 109.338 20.5747 108.692 20.6232 108.061C20.9465 104.665 21.1243 101.237 21.4314 97.8418C21.5768 96.2895 21.0435 95.287 19.7181 94.3654C15.7422 91.6327 10.6834 90.9698 7.27309 93.7024C4.63861 95.8206 2.58599 98.6988 0.452548 101.383C-0.0646489 102.03 -0.0323241 103.259 0.0323255 104.213C0.436386 110.761 6.0609 116.033 12.5582 115.644C14.1906 115.547 15.7422 114.238 17.3261 113.478C17.2453 113.316 17.1645 113.171 17.0837 113.009ZM117.872 224.627C115.82 222.282 114.187 220.795 113.04 219.016C111.763 217.027 110.066 216.106 107.868 216.025C104.7 215.928 101.322 215.394 99.4311 219C99.3665 219.113 99.2372 219.194 99.1241 219.275C96.8128 220.973 94.0491 222.266 94.5178 225.985C95.1481 231.014 97.1684 235.299 101.888 237.336C103.94 238.226 107.044 238.209 109.096 237.304C115.497 234.458 117.388 233.488 117.889 225.63C117.921 225.08 117.872 224.53 117.889 224.627H117.872ZM318.028 231.03C321.357 229.138 324.671 227.263 327.45 225.694C328.42 222.897 329.196 220.569 330.036 218.24C331.297 214.731 330.634 213.114 327.547 211.659C326.658 211.239 325.818 210.463 325.236 209.654C322.489 205.757 319.094 205.45 315.603 208.7C314.634 209.606 313.308 210.204 312.048 210.673C309.753 211.546 307.7 213.632 308.136 215.831C308.831 219.42 308.686 223.334 311.611 226.309C312.807 227.521 313.68 228.799 315.571 229.009C316.234 229.09 316.799 229.979 318.028 231.03ZM215.009 206.776C222.201 212.128 226.791 211.255 232.803 206.194C234.048 205.143 234.048 202.653 234.759 200.874C235.664 198.594 234.048 197.786 232.723 196.46C230.573 194.293 228.73 191.722 225.821 190.606C222.799 189.442 219.631 188.488 216.803 191.253C216.399 191.641 215.946 191.997 215.477 192.272C213.619 193.388 210.936 193.905 211.049 196.702C211.194 200.308 211.324 204.059 214.685 206.517C214.798 206.598 214.912 206.679 215.025 206.76L215.009 206.776ZM49.0691 122.5C53.2551 125.993 58.1847 125.928 62.2576 122.355C63.098 121.627 64.0355 120.964 64.7466 120.123C65.9265 118.733 67.6235 117.585 66.5406 115.176C66.1851 114.399 67.0902 113.138 67.1387 112.087C67.1871 110.503 67.3488 108.756 66.8154 107.333C65.9265 104.973 59.3484 101.803 56.827 102.272C56.0512 102.418 55.2593 102.854 54.6613 103.372C51.7844 105.959 48.9236 108.578 46.1437 111.279C45.6103 111.796 45.1255 112.782 45.2063 113.478C45.6103 116.825 46.273 120.123 49.0691 122.452V122.5ZM259.31 168.826C258.841 169.893 258.388 170.896 258.033 171.72C256.643 172.319 255.318 172.723 254.186 173.418C250.97 175.375 251.568 175.407 251.713 179.223C251.907 184.268 254.267 187.502 258.178 190.04C258.906 190.509 259.681 191.124 260.49 191.221C264.433 191.69 268.231 190.461 270.979 188.035C272.644 186.564 273.306 183.314 273.323 180.856C273.323 178.835 272.256 176.086 270.72 174.922C267.569 172.561 264.692 169.538 260.587 168.648C260.328 168.6 260.037 168.713 259.31 168.826ZM405.305 186.273C403.01 184.996 400.779 183.573 398.403 182.505C396.286 181.568 394.137 181.762 392.165 183.33C391.243 184.074 389.999 184.446 388.868 184.915C386.104 186.063 386.023 186.871 385.748 189.927C385.328 194.616 387.898 197.705 390.953 200.227C393.749 202.54 397.401 202.345 400.844 201.1C402.137 200.632 403.381 200.066 404.691 199.661C408.262 198.578 406.226 194.164 408.925 192.579C408.295 191.108 407.778 189.588 407.002 188.213C406.614 187.534 405.773 187.114 405.143 186.564C405.208 186.467 405.256 186.354 405.321 186.257L405.305 186.273ZM364.576 75.8351C364.074 75.35 363.557 74.8811 363.056 74.396C361.359 72.7144 359.517 72.4071 357.367 73.5875C355.783 74.4445 353.876 74.8326 352.534 75.9483C351.258 77.0155 349.755 78.7294 349.706 80.2009C349.561 84.5343 350.062 88.8839 354.409 91.5034C355.638 92.2472 356.931 93.9288 357.949 93.7509C361.327 93.1526 364.899 92.4088 367.792 90.6949C369.473 89.7085 370.184 86.8304 370.992 84.6636C371.251 83.9845 370.636 82.7718 370.087 82.0442C368.422 79.8451 366.612 77.7593 364.85 75.6249C364.753 75.6896 364.672 75.7704 364.576 75.8351ZM357.108 304.763C358.321 305.41 359.662 305.879 360.713 306.736C364.123 309.517 367.759 307.771 370.96 306.849C374.968 305.701 376.552 298.797 374.273 295.078C373.691 294.14 373.206 293.137 372.77 292.119C371.105 288.27 369.343 287.252 365.27 288.125C363.767 288.448 362.426 288.966 360.826 288.222C360.276 287.963 358.725 288.61 358.418 289.224C357.157 291.811 356.074 294.512 355.201 297.261C354.733 298.732 355.12 300.187 356.333 301.497C356.931 302.128 356.818 303.437 357.092 304.763H357.108ZM137.3 161.178C138.981 162.746 141.55 163.49 144.508 163.215C150.698 162.665 153.317 158.041 151.7 152.042C150.262 146.722 146.528 144.798 142.019 143.343C140.435 142.842 139.061 142.89 137.752 144.119C136.944 144.879 136.023 145.59 135.021 146.011C131.918 147.337 131.578 150.005 132.063 152.657C132.645 155.826 134.019 158.769 137.3 161.178ZM170.352 147.369C174.893 151.266 181.326 150.069 185.14 144.022C186.336 142.13 187.565 140.481 187.355 138.023C187.161 135.792 186.11 134.304 184.268 133.415C182.393 132.509 180.421 131.798 178.417 131.232C175.168 130.31 172.017 130.068 170.012 133.625C169.883 133.868 169.657 134.062 169.431 134.223C167.637 135.549 165.487 136.843 165.988 139.446C166.505 142.146 167.313 144.879 170.352 147.353V147.369ZM210.709 228.783C213.732 224.983 213.732 224.692 211.081 220.795C210.467 219.889 210.192 218.644 209.416 217.949C208.026 216.688 206.475 215.459 204.778 214.715C203 213.939 201.287 214.117 199.444 215.621C198.07 216.753 195.404 215.847 193.981 217.787C193.674 218.208 192.85 218.483 192.818 218.871C192.575 222.121 191.411 225.468 193.351 228.54C195.129 231.354 197.585 233.229 201.141 233.084C204.972 232.938 208.657 232.453 210.709 228.799V228.783ZM232.787 269.158C233.708 267.606 234.646 266.07 235.519 264.517C235.713 264.162 235.745 263.709 235.81 263.305C236.359 259.828 230.864 252.778 227.405 252.503C227.26 252.503 227.082 252.439 227.001 252.503C224.512 254.605 221.118 253.684 218.451 255.074C217.756 255.43 217.045 256.109 216.754 256.804C214.685 261.898 216.463 268.22 220.779 271.438C221.102 271.68 221.49 271.891 221.878 272.02C224.173 272.764 231.058 270.856 232.787 269.174V269.158ZM200.576 113.429C198.749 112.103 196.907 110.745 198.022 108.045C198.151 107.721 197.973 107.22 197.86 106.816C196.955 104.035 190.199 101.82 187.872 103.598C186.11 104.956 184.445 106.428 182.7 107.818C180.744 109.387 180.292 111.521 180.599 113.817C181.245 118.636 186.062 123.568 190.199 123.39C195.565 123.163 199.897 119.493 200.414 114.771C200.446 114.496 200.479 114.222 200.559 113.413L200.576 113.429ZM100.886 139.963C104.846 142.47 109.484 144.297 113.509 141.16C116.579 138.751 118.761 133.868 117.485 130.149C116.418 127.044 113.654 125.993 110.68 125.427C105.04 124.36 101.5 127.61 98.4129 131.555C97.8472 132.283 97.7341 133.835 98.0897 134.725C98.8978 136.746 100.142 138.605 100.886 139.963ZM401.264 157.346C401.442 157.135 401.571 156.844 401.798 156.747C405.127 155.179 404.497 152.495 403.446 150.005C402.492 147.757 401.086 145.704 399.777 143.618C399.066 142.486 398.08 142.017 396.577 142.276C394.573 142.615 392.472 142.421 390.452 142.696C389.433 142.825 388.14 143.197 387.575 143.925C384.504 147.822 384.908 154.516 388.318 158.138C388.851 158.704 389.627 159.367 390.322 159.432C392.941 159.674 395.607 159.884 398.209 159.69C399.357 159.609 400.44 158.51 401.555 157.863C401.458 157.685 401.361 157.524 401.264 157.346ZM159.167 181.341C154.933 177.493 148.565 177.493 144.573 181.341C141.179 184.607 142.245 191.188 146.609 193.323C151.232 195.603 155.935 195.457 159.895 192.191C161.462 190.897 162.271 188.246 162.642 186.079C162.82 185.028 161.252 183.637 160.412 182.457C160.105 182.02 159.588 181.729 159.167 181.374V181.341ZM313.696 191.819C314.359 190.234 315.135 188.472 315.797 186.661C316.476 184.85 315.7 182.166 314.149 181.002C312.516 179.773 310.819 178.625 309.106 177.509C306.585 175.844 305.599 175.957 303.304 177.929C302.463 178.641 301.558 179.32 300.621 179.886C297.405 181.81 297.421 181.778 297.97 185.723C298.471 189.264 299.053 192.692 303.595 193.145C305.696 196.783 307.7 194.73 309.882 193.161C310.787 192.514 312.064 192.369 313.696 191.819ZM319.094 158.186C316.331 159.577 314.424 160.903 312.306 161.469C310.738 161.889 310.108 162.633 310.06 163.943C309.866 168.6 310.722 172.771 314.941 175.698C316.492 176.765 318.173 177.364 319.612 176.717C322.553 175.391 326.675 175.067 326.594 170.297C326.594 169.683 327.467 169.052 327.45 168.454C327.386 166.983 327.564 164.978 326.707 164.153C324.202 161.76 321.26 159.836 319.094 158.186ZM364.769 125.201C365.642 123.196 366.337 121.611 367.032 120.026C367.84 118.199 367.485 115.677 365.723 114.836C364.091 114.044 363.266 112.766 362.216 111.537C360.034 109.015 359.032 109.128 356.624 111.845C356.413 112.087 356.058 112.281 355.751 112.346C353.827 112.766 351.888 113.138 349.577 113.607C349.69 116.356 349.512 118.878 350.013 121.239C350.32 122.678 351.435 124.554 352.648 125.039C354.426 125.734 354.587 128.839 357.157 127.917C358.822 127.319 360.438 126.543 362.103 125.912C362.975 125.589 363.913 125.427 364.786 125.201H364.769ZM108.401 94.0743C106.397 91.4225 104.118 91.4548 101.565 93.4275C100.967 93.8964 99.9968 94.1228 99.221 94.0743C97.0876 93.9126 95.439 94.4139 94.2592 96.3866C93.4511 97.7448 91.3176 99.1677 91.5439 100.122C92.0772 102.288 93.2894 104.698 94.9865 106.088C100.255 110.406 109.129 106.735 110.292 100.009C110.68 97.7448 111.909 95.19 108.401 94.0905V94.0743ZM201.561 56.0274C204.616 52.4378 203.824 48.4601 199.476 46.5036C197.101 45.4364 194.579 44.4985 192.026 44.0458C190.765 43.8194 189.278 44.7896 187.936 45.3555C187.484 45.5495 187.225 46.1963 186.837 46.5844C183.233 50.3519 184.058 55.3159 188.696 57.7414C193.626 60.3285 198.426 59.6817 201.545 56.0274H201.561ZM359.436 150.959C356.058 151.25 353.262 151.492 350.239 151.735C348.429 155.68 347.088 159.48 350.417 163.636C353.197 167.096 360.131 167.63 363.105 164.25C363.638 163.652 364.317 163.167 364.947 162.649C366.224 161.598 366.466 160.256 365.675 158.914C363.848 155.81 362.377 152.398 359.436 150.959ZM369.085 233.326C371.865 235.364 376.099 235.412 378.588 233.456C380.544 231.92 382.338 226.713 380.867 224.724C379.251 222.525 376.73 220.957 374.467 219.307C374.03 219 372.899 219.485 372.172 219.792C371.428 220.116 370.83 220.795 370.087 221.118C368.196 221.943 366.079 222.363 365.836 225.031C365.416 229.429 366.014 231.063 369.085 233.31V233.326ZM261.314 59.1481C265.419 61.6221 267.843 61.7352 270.817 59.326C273.856 56.8521 273.807 49.7698 270.591 47.5061C269.023 46.4065 267.213 45.6466 265.484 44.8057C265.144 44.6279 264.53 44.5147 264.288 44.6926C262.364 46.1963 260.263 47.5869 258.728 49.4302C258.081 50.2064 258.324 52.0659 258.712 53.2624C259.358 55.2998 260.441 57.1916 261.33 59.1481H261.314ZM324.056 254.007C324.881 252.762 325.77 251.905 326.044 250.886C326.335 249.771 326.335 248.396 325.915 247.361C325.446 246.181 324.428 245.195 323.555 244.208C323.119 243.691 322.553 243.222 321.955 242.915C320.937 242.414 313.858 244.79 313.26 245.744C311.143 249.124 312.161 254.298 315.377 256.61C317.478 258.114 320.824 257.419 323.232 254.977C323.62 254.589 323.959 254.136 324.056 254.007ZM336.873 266.409C336.825 268.075 336.615 269.611 336.76 271.114C337.002 273.605 338.91 275.69 341.124 276.192C343.176 276.661 344.954 275.723 346.425 273.136C347.072 272.004 348.057 270.16 347.621 269.498C346.36 267.606 344.68 265.439 342.692 264.744C341.172 264.21 338.926 265.762 336.905 266.425L336.873 266.409ZM344.469 231.095C343.909 234.685 345.234 237.654 348.445 240.004C352.518 240.15 353.504 236.835 355.153 234.41C354.975 233.925 354.943 233.617 354.765 233.407C352.157 230.324 348.726 229.548 344.469 231.079V231.095Z" fill="#588F9C"/>
</g>
<defs>
<clipPath id="clip0_15_1080">
<rect width="453" height="322" fill="white"/>
</clipPath>
</defs>
</svg>
