<svg width="271" height="489" viewBox="0 0 271 489" fill="none" xmlns="http://www.w3.org/2000/svg">
<g clip-path="url(#clip0_15_1888)">
<path d="M18.658 119.267C18.2407 115.804 18.0444 112.145 16.7925 108.953C14.6569 103.502 15.1969 99.9168 20.1554 96.7245C22.9292 94.932 26.0466 93.6551 29.0905 92.28C31.9624 91.0031 34.5399 89.9718 35.9145 86.4358C36.7245 84.3485 39.6702 82.1876 41.9776 81.7702C44.8495 81.23 48.2616 81.9175 51.0599 83.0471C57.5894 85.65 63.8488 88.9159 70.3047 91.7398C77.8651 95.0548 82.6026 100.948 86.3092 108.094C89.5003 114.208 82.9954 119.561 85.3519 125.504C85.401 125.602 85.1555 125.897 84.9837 125.995C81.9153 127.665 84.0018 130.39 83.8545 132.576C82.6272 132.993 81.3017 133.042 80.6635 133.73C75.7787 139.107 68.6355 141.023 63.1124 145.394C62.5479 145.836 61.5414 145.959 60.756 145.909C57.7858 145.713 54.7665 145.664 51.8945 145.025C48.6052 144.289 45.4878 142.865 42.2231 141.956C40.873 141.588 39.3511 141.686 37.9028 141.686C33.0425 141.686 32.3552 140.925 32.7725 135.743C24.4756 133.312 19.689 127.984 18.658 119.267ZM-148.457 421.644C-148.604 422.307 -148.801 423.289 -149.12 424.861C-144.333 426.408 -139.718 425.401 -135.226 423.854C-131.127 422.454 -127.298 420.023 -122.879 421.521C-119.025 417.961 -117.234 413.59 -115.245 409.072C-113.502 405.094 -112.913 401.189 -112.422 397.113C-111.907 392.84 -113.183 389.378 -116.743 386.53C-121.333 382.846 -125.53 378.696 -129.9 374.718C-132.133 372.68 -137.706 372.68 -140.553 374.718C-143.401 376.757 -146.199 378.868 -149.144 380.784C-149.955 381.299 -151.28 381.569 -152.164 381.324C-156.631 379.998 -158.644 382.945 -159.847 386.112C-160.927 388.985 -161.099 392.251 -161.369 395.345C-161.59 398.022 -161.59 400.772 -161.222 403.424C-160.411 409.489 -157.417 414.597 -153.367 419.041C-152.262 420.269 -150.274 420.711 -148.482 421.62L-148.457 421.644ZM78.9697 174.075C73.7658 174.983 75.0913 179.6 73.7167 183.087C66.9908 180.803 64.5852 187.384 60.265 190.085C59.0867 190.822 58.6203 194.996 59.5777 196.494C62.106 200.521 61.7869 205.137 63.3333 209.287C63.7752 210.441 64.217 211.743 65.0762 212.553C68.7828 216.016 72.6121 219.355 76.4414 222.67C78.1842 224.168 79.9516 224.536 82.2345 223.382C85.941 221.516 90.384 221.099 93.0351 217.243C93.5997 216.409 95.6862 215.598 96.2998 215.991C100.375 218.545 101.872 215.058 102.952 212.799C104.891 208.772 106.34 204.401 107.395 200.054C108.524 195.463 103.713 186.549 99.27 183.872C96.7662 182.374 94.3852 180.656 91.8814 179.182C89.2303 177.611 86.8984 175.376 83.3145 175.622C81.8172 175.72 80.2462 174.566 78.9206 174.075H78.9697ZM-68.8761 133.484C-65.7341 134.712 -62.764 130.881 -59.6465 133.754C-59.3029 134.074 -56.7991 131.716 -55.1299 130.98C-50.3678 128.843 -46.5139 125.504 -42.6356 122.164C-42.1201 121.722 -41.9973 120.74 -41.7764 119.979C-40.8191 116.565 -41.1873 113.029 -40.3281 109.518C-38.9781 103.821 -44.3538 95.5213 -49.9505 92.9921C-54.1726 91.1013 -58.2964 88.8913 -62.6903 87.4917C-65.3905 86.6077 -68.5079 86.6322 -71.3799 86.8532C-74.9147 87.0988 -75.5038 90.1191 -76.8048 92.9184C-77.8112 95.0793 -80.8796 96.3071 -83.0643 97.9032C-88.7101 102.004 -89.5937 106.252 -86.0835 112.44C-85.5681 113.324 -85.3226 114.38 -85.0034 115.362C-82.7697 122.09 -78.8422 127.173 -71.8954 129.678C-70.6681 130.12 -70.0053 132.06 -68.9007 133.533L-68.8761 133.484ZM6.40915 236.274C7.85742 236.102 9.47751 235.906 11.073 235.709C11.8094 236.691 12.5213 237.625 13.3314 238.705C17.0625 236.741 20.5972 234.997 24.0092 233.033C25.8257 232.001 27.5685 234.531 29.9496 231.731C36.4791 224.045 38.6638 215.942 36.0863 206.365C34.7608 201.479 32.3552 197.722 27.2249 195.782C24.3529 194.701 21.9964 192.344 19.3208 190.674C13.5032 187.015 10.2139 187.973 5.99185 193.253C4.00357 195.733 1.03339 197.771 -1.91223 199.072C-6.5025 201.11 -8.58899 202.535 -8.17169 207.151C-7.41077 215.966 -5.98703 224.708 1.76978 230.774C3.53717 232.149 4.73996 234.26 6.40915 236.323V236.274ZM-35.5169 166.364C-38.9535 153.694 -51.5706 153.718 -57.4128 160.667C-59.7938 163.491 -63.2549 165.431 -66.2987 167.666C-71.9445 171.791 -72.9019 174.443 -71.159 181.269C-70.4717 183.921 -70.1526 186.696 -69.2444 189.25C-67.3051 194.701 -63.9422 198.827 -57.6582 199.637C-57.83 200.791 -58.0019 201.773 -58.1492 202.756C-57.8792 203.026 -57.6337 203.468 -57.3391 203.541C-52.0861 204.695 -47.9868 201.847 -44.0102 199.244C-41.9237 197.894 -40.5245 196.248 -37.4807 196.297C-33.0132 196.347 -28.3493 190.109 -29.4784 185.346C-30.1657 182.424 -29.8221 180.484 -28.1283 178.446C-25.5509 175.327 -26.4837 172.258 -27.9074 169.016C-29.4539 165.505 -32.1049 165.235 -35.5415 166.389L-35.5169 166.364ZM201.606 157.622C198.979 155.584 196.525 153.227 193.653 151.631C191.763 150.6 189.234 150.821 187.05 150.231C184.006 149.421 183.171 151.606 181.6 153.399C180.348 154.848 178.237 155.83 176.298 156.37C171.389 157.745 167.363 161.257 167.731 165.898C168.173 171.472 167.093 177.635 170.628 182.497C173.598 186.549 175.292 191.46 180.348 194.21C185.921 197.255 190.363 194.849 195.15 193.081C196.5 192.59 197.875 191.043 198.979 191.288C203.913 192.319 205.411 189.029 206.417 185.567C207.767 180.827 210.688 176.579 209.854 171.079C209.117 166.192 208.111 161.969 203.398 159.489C202.661 159.096 202.097 158.408 201.459 157.868C201.508 157.794 201.557 157.745 201.606 157.672V157.622ZM-357.032 303.998C-355.805 305.03 -355.044 305.766 -354.185 306.405C-349.619 309.892 -344.881 310.948 -339.726 307.51C-337.272 305.865 -334.326 304.809 -332.166 302.869C-330.399 301.273 -328.705 298.915 -328.288 296.632C-327.404 291.868 -327.036 286.957 -327.109 282.095C-327.183 278.043 -330.03 274.974 -333.197 272.837C-336.756 270.431 -340.684 268.515 -344.636 266.821C-349.84 264.562 -350.723 265.2 -354.479 269.817C-356.271 272.027 -358.775 273.991 -361.352 275.219C-366.409 277.626 -367.17 281.8 -366.36 286.392C-365.132 293.366 -362.506 299.799 -357.032 303.974V303.998ZM-282.802 297.147C-280.274 298.989 -277.942 301.248 -275.144 302.549C-273.45 303.335 -271.069 302.893 -269.031 302.623C-259.09 301.322 -252.88 296.19 -252.88 285.287C-252.88 282.561 -252.61 279.811 -252.29 277.11C-251.75 272.665 -252.438 270.627 -256.243 268.81C-260.047 266.993 -264.073 265.569 -268.05 264.145C-273.941 262.008 -278.678 264.243 -282.925 268.245C-284.128 269.375 -285.576 270.283 -286.852 271.339C-290.461 274.261 -292.179 278.19 -291.148 282.61C-289.847 288.184 -287.859 293.587 -282.802 297.123V297.147ZM-199.613 353.453C-194.9 360.132 -187.143 357.579 -180.368 357.898C-177.643 358.021 -174.403 355.811 -172.071 353.871C-167.898 350.359 -166.033 345.252 -164.781 340.095C-163.676 335.552 -170.942 321.359 -175.262 319.812C-178.503 318.658 -182.062 317.185 -185.327 320.352C-186.038 321.04 -187.511 321.163 -188.64 321.138C-194.458 320.966 -199.245 323.618 -200.742 329.07C-202.509 335.405 -204.67 341.912 -200.546 348.37C-199.736 349.623 -199.932 351.538 -199.637 353.478L-199.613 353.453ZM-79.6031 257.048C-79.5295 258.546 -79.4804 259.725 -79.4068 261.222C-75.2584 261.149 -71.5518 261.64 -68.1152 259.283C-65.5132 257.515 -62.7149 255.845 -58.9347 258.988C-56.5536 253.168 -53.7062 248.208 -52.5034 242.855C-51.2515 237.207 -54.3935 232.026 -57.9774 227.925C-60.653 224.856 -64.4822 222.67 -68.1152 220.607C-72.9018 217.882 -75.3811 219.036 -79.0631 223.358C-80.855 225.47 -83.7516 226.697 -86.2553 228.122C-89.8392 230.16 -91.8766 234.383 -90.9438 238.116C-90.3301 240.522 -89.6674 242.929 -89.3237 245.36C-88.5627 250.614 -85.0526 255.084 -79.6031 256.999V257.048ZM-44.5011 381.005C-41.0645 384.59 -37.0143 382.773 -33.185 382.281C-31.1476 382.011 -29.0857 381.348 -27.1955 380.489C-24.0535 379.04 -21.6234 377.272 -19.9051 373.613C-16.7386 366.861 -17.7941 360.599 -19.7087 354.092C-20.0033 353.109 -20.2242 351.734 -20.9361 351.317C-26.1891 348.174 -29.9448 342.796 -36.5479 341.519C-39.7144 340.905 -41.7273 341.568 -42.5619 344.294C-43.2247 346.479 -44.2311 347.118 -46.3176 347.732C-48.6495 348.419 -50.9569 349.917 -52.6752 351.636C-54.0253 353.011 -55.5963 355.59 -55.1544 357.087C-53.338 363.546 -54.418 371.109 -48.1831 376.02C-46.6121 377.248 -45.7039 379.335 -44.5011 381.029V381.005ZM25.6294 33.1992C28.1086 34.7462 30.3914 36.7598 33.0916 37.742C35.2763 38.5278 37.9519 38.405 40.3329 38.0612C45.6105 37.2755 49.4153 33.764 52.9255 30.0807C53.9565 29.0002 54.5456 27.2322 54.7665 25.7098C55.3802 21.3634 56.0184 16.9925 56.0429 12.6217C56.0429 10.559 55.2574 7.5632 53.7846 6.63009C48.3843 3.14319 43.1067 -0.859367 35.8409 0.171968C31.7415 0.761302 28.0595 0.834969 25.9485 5.40231C25.0648 7.29309 22.6837 8.6682 20.72 9.82232C17.9462 11.4675 16.7925 13.9231 17.3816 16.747C18.6581 22.9104 19.959 29.1721 25.6294 33.2238V33.1992ZM263.832 217.243C265.6 214.886 267.539 212.627 269.11 210.147C271.933 205.678 271.515 201.528 268.226 197.329C266.925 195.684 265.6 193.989 264.618 192.148C262.188 187.58 257.72 186.205 253.351 184.683C252.59 184.413 251.24 184.167 250.945 184.56C247.509 188.931 241.961 186.893 237.763 188.98C234.597 190.551 232.412 192.319 232.854 196.15C232.952 196.985 233.198 197.918 232.903 198.63C229.933 205.629 234.376 211.301 236.364 217.317C237.592 221.074 242.329 220.951 245.128 221.148C250.626 221.516 256.468 222.056 261.77 219.355C262.629 218.913 263.39 218.25 264.201 217.685C264.078 217.538 263.955 217.415 263.832 217.268V217.243ZM-7.75443 469.945C-3.99875 466.335 0.00238037 462.922 3.4635 459.067C6.82642 455.31 6.55643 450.89 4.10175 446.642C2.40799 443.72 0.247864 441.043 -1.17587 437.998C-2.74686 434.585 -6.08524 433.529 -8.68719 431.515C-10.3073 430.263 -12.4183 430.484 -13.7439 432.399C-15.1921 434.511 -17.0331 434.511 -19.316 434.217C-21.157 433.971 -23.2926 434.069 -24.9372 434.806C-26.7046 435.592 -28.9384 437.04 -29.4293 438.686C-30.7549 443.081 -32.154 447.82 -31.8104 452.265C-31.4667 456.808 -29.6993 461.572 -27.3428 465.525C-25.2563 469.061 -20.6906 468.226 -16.935 468.275C-14.1121 468.324 -11.2892 468.496 -8.44171 468.619C-8.22079 469.061 -7.97534 469.503 -7.75443 469.945ZM-250.744 101.243C-241.784 108.585 -231.597 107.996 -223.104 99.6712C-222.515 99.0819 -221.926 98.1733 -221.214 98.0506C-216.157 97.1911 -216.673 93.2377 -216.378 89.7017C-216.231 87.86 -216.108 86.0429 -215.887 84.2012C-215.372 79.7566 -216.992 77.3011 -221.288 75.4594C-223.178 74.6491 -224.921 73.3967 -226.639 72.1935C-230.861 69.2468 -232.702 69.2714 -236.801 72.4882C-237.636 73.1266 -238.495 74.3544 -239.305 74.3053C-245.54 74.0352 -248.584 79.8303 -253.665 81.7211C-254.991 82.2122 -256.709 84.0293 -256.684 85.208C-256.562 91.175 -255.973 97.1174 -250.719 101.218L-250.744 101.243ZM10.1894 135.866C5.86911 134.147 2.48163 129.359 -3.26233 129.187C-6.64981 129.089 -10.2582 128.303 -11.0437 133.288C-11.1664 134.024 -12.3938 134.982 -13.2529 135.129C-16.7141 135.792 -18.5305 137.88 -20.1261 140.974C-21.8198 144.264 -20.4943 146.769 -19.856 149.863C-18.8742 154.602 -16.8859 158.433 -13.8911 162.116C-8.95721 168.23 -6.18341 169.385 1.18066 167.101C3.73352 166.315 6.31094 165.407 8.66745 164.179C9.87027 163.565 11.0485 162.214 11.4658 160.937C12.9877 156.223 14.5341 151.484 15.3687 146.622C16.1052 142.373 14.166 138.788 10.1894 135.891V135.866ZM119.889 71.7761C120.135 68.6329 120.724 64.5322 120.675 60.4559C120.601 55.7413 118.809 51.7141 113.974 49.897C110.046 48.4237 106.045 47.0486 102.044 45.7471C100.866 45.3788 99.54 45.4034 98.2636 45.3297C92.5933 45.035 91.4641 51.1003 87.3156 53.212C82.799 55.5203 83.0936 58.8107 84.5664 65.3425C86.0638 71.948 90.6295 75.8769 95.2443 79.5602C97.699 81.5246 101.847 82.2368 105.137 81.9912C107.714 81.8193 110.218 79.462 112.574 77.8167C114.931 76.147 117.017 74.1334 119.889 71.727V71.7761ZM-358.824 245.286C-358.407 242.216 -357.474 238.116 -357.474 234.015C-357.474 231.952 -358.701 229.128 -360.297 227.974C-366.163 223.775 -372.767 220.853 -379.861 219.257C-382.684 218.618 -387.077 221.541 -388.403 224.242C-389.09 225.666 -389.949 227.262 -391.201 228.072C-395.055 230.528 -395.693 234.211 -395.055 238.091C-393.852 245.556 -385.04 253.929 -378.093 255.943C-372.251 257.637 -369.085 254.568 -365.648 251.032C-363.905 249.239 -361.819 247.766 -358.824 245.261V245.286ZM162.061 377.739C159.95 376.757 157.741 375.48 155.36 374.743C154.083 374.35 151.702 374.399 151.26 375.111C149.027 378.819 145.074 378.156 141.883 379.212C137.588 380.636 136.262 381.913 136.164 386.235C136.115 388.764 136.164 391.318 136.164 393.847C136.041 400.919 140.951 405.364 145.124 409.882C147.824 412.804 151.948 410.791 155.36 410.177C157.912 409.735 159.901 407.868 163.092 408.703C165.522 409.342 167.412 406.714 168.541 404.259C169.572 402.024 170.8 399.863 171.929 397.678C173.279 395.026 173.426 392.202 171.708 389.845C168.738 385.768 165.424 381.938 162.061 377.763V377.739ZM99.9573 454.892C97.6254 453.468 95.907 452.756 93.1824 453.665C90.1877 454.671 86.7756 454.966 83.5845 454.819C79.1415 454.598 78.0369 454.819 76.3432 458.698C74.9931 461.793 73.5203 464.886 72.7839 468.152C71.5565 473.604 73.4712 478.564 76.6869 482.861C78.356 485.096 80.4916 488.042 82.8236 488.46C87.7329 489.344 92.8878 488.877 97.9445 488.779C98.8773 488.779 100.252 488.092 100.62 487.33C102.878 482.542 107.665 479.08 107.665 473.113C107.665 469.92 108.549 466.753 104.842 464.788C104.032 464.346 103.958 462.603 103.418 461.522C102.314 459.288 101.136 457.102 100.006 454.917L99.9573 454.892ZM-147.426 278.018C-136.159 286.024 -129.875 287.35 -121.259 280.204C-117.798 277.331 -115.638 275.219 -116.129 269.964C-116.522 265.863 -116.767 262.843 -119.418 259.283C-124.156 252.972 -130.366 250.393 -137.534 249.067C-140.529 248.503 -143.278 248.797 -144.972 252.26C-145.806 253.954 -147.745 255.329 -149.513 256.287C-153.047 258.251 -154.128 261.198 -153.268 264.808C-151.894 270.578 -150.151 276.25 -147.426 278.018ZM-36.8179 61.0944C-31.0248 59.1054 -25.8946 56.9199 -21.2307 52.9174C-16.1985 48.5956 -17.8923 43.6108 -17.6714 38.6751C-17.6223 37.6929 -18.6778 36.6125 -18.5305 35.6794C-17.9659 32.0697 -18.0887 29.2458 -22.0407 27.2322C-27.4165 24.482 -32.645 21.7563 -38.8799 23.598C-39.9354 23.9172 -40.6718 25.2678 -41.6046 26.1027C-43.642 27.9443 -45.4093 30.4981 -47.7904 31.4558C-52.3561 33.2729 -52.7489 36.6125 -52.6016 40.615C-52.307 49.2831 -47.4958 55.6185 -39.3708 58.1723C-38.438 58.4669 -37.8489 59.842 -36.7934 61.0944H-36.8179ZM-302.342 253.438C-299.813 251.155 -297.26 248.822 -294.707 246.489C-294.56 246.342 -294.462 246.096 -294.29 246.023C-291.737 244.991 -288.546 245.065 -288.153 241.038C-287.883 238.238 -286.558 235.537 -286.263 232.738C-285.797 228.293 -288.473 225.175 -291.688 222.597C-297.26 218.127 -304.035 217.612 -310.761 217.072C-311.154 217.047 -311.669 217.17 -311.964 217.391C-315.597 220.116 -319.721 222.449 -322.666 225.789C-324.556 227.925 -324.385 231.117 -323.059 234.629C-320.654 241.038 -317.831 246.636 -311.522 249.78C-308.797 251.13 -305.827 252.039 -302.292 253.414L-302.342 253.438ZM206.957 244.623C204.429 246.121 201.851 247.57 199.372 249.141C197.261 250.467 194.978 251.695 193.26 253.438C191.296 255.427 193.604 257.858 193.432 259.774C192.745 267.189 196.157 272.125 201.287 276.742C205.607 280.621 210.615 281.628 215.917 280.646C221.145 279.664 225.809 277.503 227.945 271.781C228.878 269.252 229.344 267.018 228.387 264.464C227.65 262.499 227.208 260.412 226.57 258.423C226.202 257.22 226.03 255.673 225.22 254.936C221.513 251.572 217.782 248.208 213.708 245.286C211.94 244.034 209.412 243.862 207.227 243.199L206.982 244.672L206.957 244.623ZM-317.364 106.007C-314.075 107.701 -310.958 110.083 -307.447 110.967C-300.01 112.808 -294.732 108.438 -289.945 103.428C-285.601 98.8854 -285.748 93.4095 -287.172 87.9582C-287.638 86.1656 -289.43 83.9802 -291.124 83.3418C-297.187 81.0335 -303.422 79.1182 -309.706 77.3993C-313.805 76.2697 -314.762 77.1783 -317.266 81.0335C-318.592 83.0962 -320.555 84.7905 -322.396 86.4358C-324.974 88.744 -325.686 91.1995 -323.992 94.3427C-321.881 98.1979 -321.439 103.035 -317.364 106.007ZM193.751 90.5611C194.291 88.5721 195.346 85.6009 195.862 82.5314C196.328 79.7566 195.567 76.9819 197.261 74.1334C198.145 72.6601 197.507 69.1241 196.23 67.749C193.309 64.6058 189.75 61.9293 186.068 59.6947C184.595 58.7862 181.919 58.9826 180.127 59.6211C176.617 60.8734 173.451 63.1571 169.891 64.2621C167.019 65.1706 165.718 66.865 164.957 69.4433C162.675 77.031 166.209 89.2105 172.125 93.9498C176.544 97.5103 188.866 96.0124 193.726 90.5365L193.751 90.5611ZM41.8794 411.92C39.842 415.014 37.731 417.445 33.5089 417.715C29.655 417.985 27.3476 422.405 28.1331 426.236C28.4277 427.66 28.9677 429.109 28.8695 430.533C28.575 435.862 30.6369 439.864 34.9081 443.032C36.2581 444.039 36.7737 446.691 38.1237 447.084C40.6275 447.82 43.4995 447.82 46.126 447.427C49.3907 446.936 52.5573 445.807 55.7238 444.825C56.7057 444.53 57.663 443.965 58.4485 443.302C62.3269 439.987 63.3088 434.929 63.8734 430.607C64.4134 426.432 61.6396 422.16 57.2703 419.827C56.1902 419.238 54.8647 418.673 54.2265 417.74C51.4036 413.565 47.5497 411.65 41.8548 411.92H41.8794ZM-1.24951 400.06C1.00882 404.799 5.67273 402.073 9.23203 402.785C11.3922 403.227 13.8223 402.221 16.1052 402.245C22.0455 402.319 24.672 398.365 26.6849 393.724C27.1512 392.644 27.5194 390.532 26.9794 390.09C23.3465 387.168 24.8929 383.19 24.402 379.63C24.2547 378.647 23.6901 377.027 23.101 376.928C18.928 376.216 17.5289 372.263 14.6569 370.102C11.0485 367.376 8.81473 367.524 4.91177 369.93C2.45709 371.452 -0.267639 372.607 -2.94324 373.761C-8.07355 375.971 -9.66907 378.721 -8.78537 384.197C-8.66263 385.032 -8.19626 385.842 -8.24533 386.652C-8.63809 392.472 -6.37979 396.867 -1.22495 400.06H-1.24951ZM-168.88 104.189C-172.047 107.382 -173.888 109.935 -176.318 111.532C-180 113.963 -180.368 116.934 -179.583 120.838C-177.889 129.212 -172.857 134.712 -165.37 138.346C-162.056 139.942 -159.037 140.139 -155.846 137.953C-153.784 136.529 -151.378 135.621 -149.243 134.295C-144.112 131.127 -142.394 121.992 -145.929 116.983C-146.42 116.295 -147.377 115.731 -147.475 115.018C-148.285 108.757 -153.759 107.603 -158.08 105.27C-162.081 103.109 -166.254 103.87 -168.856 104.189H-168.88ZM-219.422 161.527C-220.453 162.583 -221.312 163.909 -222.54 164.67C-225.657 166.561 -225.804 169.483 -225.412 172.454C-224.086 182.153 -215.421 189.913 -205.553 190.355C-198.582 190.674 -193.034 186.451 -191.291 179.551C-190.874 177.954 -190.261 176.383 -189.524 174.885C-187.634 171.054 -187.634 168.55 -190.432 165.677C-196.446 159.415 -204.179 156.64 -212.623 156.665C-215.077 156.665 -217.508 159.317 -219.938 160.741L-219.422 161.527ZM-1.29858 312.396C-2.25589 312.347 -3.70419 311.856 -4.73517 312.298C-7.38623 313.452 -10.16 314.631 -12.3201 316.497C-15.0694 318.854 -12.5165 321.924 -12.6147 324.674C-12.7374 328.799 -12.3202 332.458 -9.91455 336.019C-8.19626 338.573 -4.07239 338.965 -3.90057 342.894C-3.90057 343.238 -1.5195 343.95 -0.463989 343.705C2.33435 343.017 5.03452 341.888 7.78378 340.93C8.69202 340.611 9.7475 339.849 10.533 340.07C13.9941 341.004 15.7124 338.622 16.6697 336.363C18.4616 332.164 19.9099 327.719 20.7936 323.25C21.7509 318.412 20.0572 316.423 15.4669 314.975C14.485 314.655 13.6505 313.698 12.8159 312.986C10.9503 311.365 9.35477 309.229 7.21921 308.173C1.35251 305.226 1.1561 305.447 -1.32315 312.421L-1.29858 312.396ZM139.969 298.498C141.27 295.625 141.932 293.488 143.111 291.671C146.032 287.129 145.934 284.157 142.35 280.425C140.312 278.289 138.3 276.128 136.238 274.016C133.685 271.388 130.886 269.473 126.959 269.228C124.651 269.08 123.203 269.056 121.657 271.266C120.65 272.69 118.171 273.279 116.232 273.844C111.323 275.268 109.531 277.478 109.874 282.438C110.292 288.332 110.512 294.176 115.864 298.375C117.386 299.578 116.747 302.721 119.816 303.36C123.645 304.146 127.327 304.219 130.911 302.746C134.151 301.395 137.269 299.75 139.944 298.473L139.969 298.498ZM219.304 325.435C214.861 321.433 212.898 321.359 208.725 323.544C206.393 324.772 203.864 325.73 201.311 326.442C198.243 327.302 196.574 329.389 196.181 332.237C195.027 340.463 196.034 348.198 201.999 354.656C204.282 357.112 210.713 358.708 214.248 357.431C216.383 356.67 218.494 355.835 220.581 354.951C223.305 353.772 224.876 351.759 226.276 348.984C230.694 340.291 229.81 333.293 221.317 327.744C220.139 326.982 219.378 325.534 219.28 325.435H219.304ZM-391.054 171.619C-389.704 170.023 -388.305 168.501 -387.028 166.855C-386.415 166.045 -385.752 165.063 -385.678 164.105C-385.187 158.948 -384.917 153.743 -384.451 148.586C-384.23 146.229 -385.04 144.706 -387.053 143.307C-393.091 139.157 -400.775 138.15 -405.954 142.3C-409.955 145.517 -413.073 149.887 -416.313 153.964C-417.098 154.946 -417.049 156.812 -416.951 158.261C-416.337 168.206 -407.795 176.211 -397.927 175.622C-395.448 175.474 -393.091 173.485 -390.686 172.331C-390.809 172.086 -390.931 171.865 -391.054 171.619ZM-237.98 341.126C-241.097 337.566 -243.576 335.307 -245.319 332.606C-247.258 329.585 -249.836 328.186 -253.174 328.063C-257.985 327.915 -263.116 327.105 -265.988 332.581C-266.086 332.753 -266.282 332.876 -266.454 332.998C-269.964 335.577 -274.162 337.541 -273.45 343.189C-272.493 350.826 -269.424 357.333 -262.257 360.427C-259.139 361.778 -254.426 361.753 -251.309 360.378C-241.588 356.056 -238.716 354.583 -237.955 342.649C-237.906 341.814 -237.98 340.979 -237.955 341.126H-237.98ZM66.009 350.85C71.0656 347.977 76.0977 345.129 80.3198 342.747C81.7926 338.499 82.9709 334.963 84.2473 331.427C86.162 326.098 85.1555 323.643 80.4671 321.433C79.117 320.794 77.8405 319.616 76.9569 318.388C72.7839 312.47 67.6291 312.003 62.3269 316.939C60.8541 318.314 58.8413 319.223 56.9266 319.935C53.441 321.261 50.3235 324.428 50.9863 327.768C52.0418 333.219 51.8209 339.162 56.2639 343.68C58.0803 345.522 59.4059 347.462 62.2778 347.781C63.2843 347.904 64.1434 349.254 66.009 350.85ZM-90.4529 314.017C-79.5295 322.145 -72.5582 320.819 -63.4268 313.133C-61.5367 311.537 -61.5367 307.755 -60.4566 305.054C-59.0819 301.592 -61.5366 300.364 -63.5495 298.35C-66.8142 295.06 -69.6125 291.156 -74.031 289.461C-78.6213 287.693 -83.4325 286.245 -87.7281 290.444C-88.3418 291.033 -89.0291 291.573 -89.741 291.991C-92.5639 293.685 -96.6387 294.471 -96.4669 298.719C-96.2459 304.195 -96.0496 309.892 -90.9438 313.624C-90.772 313.747 -90.6002 313.87 -90.4283 313.992L-90.4529 314.017ZM-342.476 186.033C-336.118 191.337 -328.631 191.239 -322.445 185.812C-321.169 184.707 -319.745 183.7 -318.665 182.424C-316.873 180.312 -314.296 178.568 -315.941 174.91C-316.481 173.731 -315.106 171.816 -315.032 170.219C-314.959 167.813 -314.713 165.161 -315.523 163C-316.873 159.415 -326.864 154.602 -330.693 155.314C-331.871 155.535 -333.074 156.198 -333.983 156.984C-338.352 160.913 -342.697 164.891 -346.919 168.992C-347.729 169.777 -348.465 171.275 -348.342 172.331C-347.729 177.414 -346.722 182.424 -342.476 185.96V186.033ZM-23.1699 256.385C-23.8817 258.006 -24.569 259.528 -25.1091 260.78C-27.2201 261.689 -29.2329 262.303 -30.9512 263.359C-35.836 266.33 -34.9278 266.379 -34.7069 272.174C-34.4123 279.836 -30.8285 284.747 -24.8881 288.602C-23.7835 289.314 -22.6053 290.247 -21.3779 290.395C-15.3885 291.107 -9.61996 289.24 -5.44699 285.557C-2.91867 283.322 -1.91226 278.387 -1.8877 274.654C-1.8877 271.585 -3.50781 267.41 -5.83975 265.642C-10.6264 262.057 -14.9958 257.465 -21.2307 256.115C-21.6234 256.041 -22.0652 256.213 -23.1699 256.385ZM198.562 282.88C195.076 280.941 191.689 278.78 188.081 277.159C184.865 275.735 181.6 276.029 178.606 278.411C177.206 279.541 175.316 280.106 173.598 280.818C169.4 282.561 169.278 283.789 168.86 288.43C168.222 295.551 172.125 300.241 176.765 304.072C181.011 307.583 186.559 307.289 191.787 305.398C193.751 304.686 195.641 303.826 197.629 303.213C203.054 301.567 199.961 294.864 204.061 292.457C203.103 290.223 202.318 287.914 201.14 285.827C200.55 284.796 199.274 284.157 198.317 283.322C198.415 283.175 198.488 283.003 198.587 282.856L198.562 282.88ZM136.704 115.166C135.943 114.429 135.158 113.717 134.397 112.98C131.819 110.427 129.021 109.96 125.756 111.753C123.35 113.054 120.454 113.643 118.417 115.338C116.477 116.958 114.194 119.561 114.121 121.796C113.9 128.377 114.661 134.982 121.264 138.96C123.13 140.09 125.093 142.644 126.64 142.373C131.77 141.465 137.195 140.335 141.589 137.732C144.142 136.234 145.222 131.864 146.449 128.573C146.842 127.542 145.909 125.7 145.074 124.595C142.546 121.256 139.797 118.088 137.121 114.847C136.974 114.945 136.851 115.068 136.704 115.166ZM125.363 462.824C127.204 463.806 129.242 464.518 130.837 465.82C136.017 470.043 141.54 467.391 146.4 465.992C152.488 464.248 154.893 453.763 151.432 448.115C150.548 446.691 149.812 445.168 149.149 443.621C146.621 437.777 143.945 436.23 137.76 437.556C135.477 438.047 133.439 438.833 131.009 437.703C130.174 437.311 127.818 438.293 127.352 439.226C125.437 443.155 123.792 447.256 122.467 451.43C121.755 453.665 122.344 455.875 124.185 457.864C125.093 458.821 124.922 460.81 125.339 462.824H125.363ZM-208.474 244.77C-205.921 247.152 -202.018 248.282 -197.526 247.864C-188.125 247.029 -184.148 240.006 -186.603 230.896C-188.788 222.818 -194.458 219.895 -201.307 217.685C-203.712 216.924 -205.799 216.998 -207.787 218.864C-209.014 220.018 -210.413 221.099 -211.935 221.737C-216.648 223.751 -217.164 227.802 -216.427 231.829C-215.544 236.642 -213.457 241.111 -208.474 244.77ZM-158.276 223.8C-151.378 229.718 -141.609 227.901 -135.816 218.717C-133.999 215.844 -132.133 213.339 -132.453 209.607C-132.747 206.218 -134.343 203.959 -137.141 202.608C-139.988 201.233 -142.983 200.153 -146.027 199.293C-150.961 197.894 -155.748 197.525 -158.791 202.927C-158.988 203.296 -159.331 203.59 -159.675 203.836C-162.4 205.85 -165.665 207.814 -164.904 211.767C-164.118 215.868 -162.891 220.018 -158.276 223.775V223.8ZM-96.9824 347.437C-92.3921 341.667 -92.3921 341.225 -96.4178 335.307C-97.3505 333.932 -97.7678 332.041 -98.9461 330.985C-101.057 329.07 -103.414 327.203 -105.991 326.074C-108.691 324.895 -111.293 325.165 -114.092 327.449C-116.178 329.168 -120.228 327.793 -122.388 330.739C-122.855 331.378 -124.107 331.795 -124.156 332.385C-124.524 337.32 -126.291 342.403 -123.346 347.069C-120.646 351.341 -116.914 354.19 -111.514 353.969C-105.697 353.748 -100.1 353.011 -96.9824 347.462V347.437ZM-63.4513 408.752C-62.0521 406.395 -60.6284 404.062 -59.3029 401.705C-59.0083 401.165 -58.9592 400.477 -58.8611 399.863C-58.0265 394.584 -66.3724 383.878 -71.6254 383.46C-71.8463 383.46 -72.1164 383.362 -72.2391 383.46C-76.0193 386.652 -81.1741 385.253 -85.2244 387.365C-86.2799 387.905 -87.36 388.936 -87.8018 389.992C-90.9438 397.727 -88.2436 407.328 -81.6896 412.215C-81.1987 412.583 -80.6096 412.902 -80.0204 413.099C-76.5348 414.228 -66.0778 411.331 -63.4513 408.777V408.752ZM-112.373 172.258C-115.147 170.244 -117.945 168.181 -116.252 164.081C-116.055 163.589 -116.325 162.828 -116.497 162.214C-117.872 157.991 -128.132 154.627 -131.667 157.328C-134.343 159.39 -136.871 161.625 -139.522 163.737C-142.492 166.119 -143.18 169.36 -142.713 172.847C-141.731 180.164 -134.416 187.654 -128.132 187.384C-119.983 187.04 -113.404 181.466 -112.619 174.296C-112.57 173.878 -112.521 173.461 -112.398 172.233L-112.373 172.258ZM-263.778 212.553C-257.764 216.359 -250.719 219.134 -244.607 214.37C-239.943 210.712 -236.63 203.296 -238.569 197.648C-240.189 192.933 -244.386 191.337 -248.903 190.478C-257.47 188.857 -262.846 193.793 -267.534 199.784C-268.393 200.889 -268.565 203.247 -268.025 204.597C-266.798 207.667 -264.908 210.491 -263.778 212.553ZM192.425 238.951C192.695 238.631 192.892 238.189 193.235 238.042C198.292 235.66 197.335 231.584 195.739 227.802C194.291 224.389 192.155 221.271 190.167 218.103C189.087 216.384 187.59 215.672 185.307 216.065C182.263 216.58 179.072 216.286 176.004 216.703C174.457 216.9 172.493 217.464 171.634 218.569C166.97 224.487 167.584 234.653 172.763 240.154C173.573 241.013 174.752 242.02 175.807 242.118C179.784 242.487 183.834 242.806 187.786 242.511C189.529 242.388 191.174 240.719 192.867 239.736C192.72 239.466 192.573 239.221 192.425 238.951ZM-175.262 275.391C-181.694 269.547 -191.365 269.547 -197.428 275.391C-202.583 280.351 -200.963 290.345 -194.335 293.587C-187.315 297.049 -180.172 296.828 -174.158 291.868C-171.777 289.903 -170.549 285.876 -169.985 282.586C-169.715 280.99 -172.096 278.878 -173.372 277.085C-173.839 276.422 -174.624 275.98 -175.262 275.44V275.391ZM59.4304 291.303C60.4368 288.897 61.6151 286.22 62.6215 283.47C63.6525 280.72 62.4742 276.643 60.1177 274.875C57.6385 273.009 55.0611 271.266 52.4591 269.571C48.6298 267.042 47.1324 267.214 43.6468 270.21C42.3703 271.29 40.9957 272.322 39.572 273.181C34.6871 276.103 34.7117 276.054 35.5463 282.046C36.3073 287.423 37.1909 292.629 44.0886 293.317C47.2797 298.842 50.3235 295.723 53.6373 293.341C55.012 292.359 56.9512 292.138 59.4304 291.303ZM67.6291 240.227C63.4315 242.339 60.535 244.353 57.3194 245.212C54.9383 245.851 53.981 246.98 53.9073 248.969C53.6128 256.041 54.9138 262.377 61.3205 266.821C63.677 268.442 66.2299 269.35 68.4146 268.368C72.8821 266.355 79.1416 265.863 79.0188 258.62C79.0188 257.686 80.3444 256.729 80.3198 255.82C80.2216 253.586 80.4916 250.541 79.1906 249.288C75.3859 245.654 70.9183 242.732 67.6291 240.227ZM136.999 190.134C138.324 187.089 139.38 184.683 140.435 182.276C141.662 179.501 141.122 175.671 138.447 174.394C135.968 173.191 134.716 171.251 133.12 169.385C129.806 165.554 128.284 165.726 124.627 169.851C124.308 170.219 123.768 170.514 123.301 170.612C120.38 171.251 117.435 171.816 113.924 172.528C114.096 176.702 113.826 180.533 114.587 184.118C115.054 186.303 116.747 189.152 118.588 189.888C121.289 190.944 121.534 195.659 125.437 194.259C127.965 193.351 130.42 192.172 132.948 191.214C134.274 190.723 135.698 190.478 137.023 190.134H136.999ZM-252.364 142.865C-255.408 138.837 -258.869 138.886 -262.747 141.882C-263.656 142.594 -265.128 142.938 -266.307 142.865C-269.547 142.619 -272.051 143.38 -273.843 146.376C-275.07 148.439 -278.31 150.6 -277.967 152.048C-277.156 155.339 -275.315 158.998 -272.738 161.109C-264.736 167.666 -251.26 162.092 -249.492 151.876C-248.903 148.439 -247.037 144.559 -252.364 142.889V142.865ZM-110.876 85.0852C-106.237 79.6339 -107.439 73.5932 -114.042 70.622C-117.651 69.0013 -121.48 67.5771 -125.359 66.8895C-127.273 66.5457 -129.532 68.0191 -131.569 68.8785C-132.256 69.1732 -132.649 70.1554 -133.238 70.7447C-138.712 76.4662 -137.46 84.0048 -130.415 87.6881C-122.928 91.617 -115.638 90.6348 -110.9 85.0852H-110.876ZM128.898 229.251C123.768 229.693 119.521 230.061 114.931 230.43C112.182 236.421 110.144 242.192 115.201 248.503C119.423 253.758 129.954 254.568 134.47 249.436C135.28 248.527 136.311 247.791 137.269 247.005C139.208 245.409 139.576 243.371 138.373 241.332C135.599 236.618 133.366 231.437 128.898 229.251ZM143.553 354.337C147.775 357.431 154.206 357.505 157.986 354.534C160.956 352.201 163.681 344.294 161.447 341.274C158.993 337.934 155.163 335.552 151.727 333.048C151.064 332.581 149.346 333.318 148.241 333.784C147.112 334.275 146.204 335.307 145.074 335.798C142.202 337.05 138.987 337.689 138.619 341.74C137.98 348.419 138.889 350.899 143.553 354.313V354.337ZM-20.1261 89.8244C-13.8911 93.5814 -10.2091 93.7533 -5.69247 90.0945C-1.07767 86.3375 -1.15131 75.5822 -6.03613 72.1444C-8.41718 70.4746 -11.1664 69.3205 -13.793 68.0436C-14.3084 67.7735 -15.2412 67.6016 -15.6094 67.8717C-18.5305 70.1554 -21.7216 72.2672 -24.0535 75.0665C-25.0354 76.2452 -24.6672 79.0691 -24.0781 80.8862C-23.0962 83.9802 -21.4516 86.8532 -20.1015 89.8244H-20.1261ZM75.1649 385.744C76.4168 383.853 77.7669 382.552 78.1842 381.005C78.6261 379.31 78.626 377.223 77.9878 375.651C77.276 373.859 75.7296 372.361 74.404 370.863C73.7412 370.077 72.8821 369.365 71.9738 368.899C70.4274 368.137 59.6759 371.747 58.7677 373.196C55.552 378.328 57.0984 386.186 61.9833 389.697C65.1744 391.981 70.2556 390.925 73.9131 387.217C74.5022 386.628 75.0177 385.94 75.1649 385.744ZM94.6306 404.578C94.557 407.107 94.2379 409.44 94.4588 411.724C94.827 415.505 97.7235 418.673 101.086 419.434C104.204 420.146 106.904 418.722 109.138 414.793C110.12 413.074 111.617 410.275 110.954 409.268C109.04 406.395 106.487 403.105 103.468 402.049C101.16 401.238 97.7481 403.596 94.6797 404.603L94.6306 404.578ZM106.168 350.949C105.317 356.4 107.33 360.91 112.206 364.479C118.392 364.7 119.889 359.666 122.393 355.982C122.123 355.246 122.074 354.779 121.804 354.46C117.844 349.778 112.632 348.599 106.168 350.924V350.949Z" fill="#DE9555"/>
</g>
<defs>
<clipPath id="clip0_15_1888">
<rect width="688" height="489" fill="white" transform="translate(-417)"/>
</clipPath>
</defs>
</svg>
