<svg width="708" height="703" viewBox="0 0 708 703" fill="none" xmlns="http://www.w3.org/2000/svg">
<g clip-path="url(#clip0_15_1913)">
<path d="M371.185 481.711C373.469 483.586 375.734 485.71 378.371 486.931C382.873 489.016 384.643 491.527 383.478 496.387C382.829 499.111 381.669 501.72 380.611 504.346C379.6 506.811 378.626 508.953 379.857 511.924C380.584 513.676 380.046 516.726 378.878 518.334C377.436 520.348 374.944 521.927 372.568 522.876C367.045 525.111 361.298 526.781 355.69 528.837C349.118 531.24 342.763 530.409 336.306 528.208C330.769 526.336 331.616 519.246 326.69 516.99C326.603 516.958 326.58 516.634 326.628 516.473C327.528 513.653 324.653 513.207 323.463 511.783C323.97 510.808 324.753 510.001 324.741 509.206C324.58 503.051 327.832 497.691 328.653 491.778C328.74 491.176 329.284 490.511 329.794 490.081C331.728 488.46 333.605 486.72 335.738 485.427C338.184 483.95 340.927 482.994 343.459 481.636C344.501 481.07 345.376 480.118 346.263 479.269C349.239 476.42 350.106 476.483 352.886 479.899C359.392 476.524 365.445 476.979 371.185 481.711ZM296.323 198.653C296.025 198.161 295.569 197.445 294.844 196.296C291.006 198.155 288.77 201.476 286.926 205.056C285.236 208.316 284.316 212.049 280.732 213.722C280.459 218.161 281.923 221.887 283.353 225.818C284.617 229.275 286.544 232.01 288.632 234.793C290.821 237.711 293.631 239.082 297.48 238.739C302.449 238.303 307.451 238.383 312.458 238.256C315.02 238.194 318.432 234.928 318.981 232.011C319.531 229.094 320.007 226.161 320.688 223.262C320.882 222.472 321.535 221.529 322.22 221.161C325.733 219.354 325.239 216.371 324.119 213.726C323.097 211.335 321.288 209.235 319.641 207.183C318.207 205.415 316.596 203.731 314.816 202.324C310.766 199.086 305.939 197.715 300.854 197.369C299.459 197.265 297.982 198.16 296.352 198.654L296.323 198.653ZM302.136 483.517C304.79 479.91 301.273 477.861 300.071 474.921C305.528 472.376 303.145 466.938 304.207 462.752C304.497 461.61 302.336 458.781 300.873 458.426C296.964 457.443 294.455 454.43 291.076 452.796C290.129 452.349 289.096 451.811 288.095 451.819C283.796 451.872 279.494 452.073 275.207 452.288C273.262 452.393 271.964 453.204 271.242 455.248C270.066 458.563 267.59 461.423 268.226 465.337C268.369 466.179 267.567 467.899 266.961 468.018C262.969 468.843 264.095 471.856 264.758 473.871C265.93 477.473 267.605 480.998 269.505 484.277C271.505 487.75 279.674 490.386 283.963 489.42C286.374 488.869 288.84 488.525 291.236 487.959C293.78 487.367 296.518 487.368 298.569 485.117C299.428 484.179 301.066 483.965 302.166 483.488L302.136 483.517ZM416.454 421.695C413.811 422.785 414.237 426.871 410.644 426.94C410.247 426.946 410.095 429.857 409.504 431.286C407.84 435.385 407.437 439.689 407.02 444.007C406.963 444.579 407.463 445.252 407.774 445.848C409.188 448.498 411.486 450.447 413.017 453.1C415.529 457.379 423.684 459.308 428.594 457.575C432.287 456.258 436.107 455.193 439.618 453.474C441.79 452.432 443.684 450.59 445.313 448.771C447.334 446.549 445.925 444.354 445.081 441.878C444.431 439.966 445.59 437.415 445.993 435.158C447.047 429.338 445.099 426.219 439.323 424.489C438.489 424.25 437.72 423.748 436.949 423.334C431.639 420.525 426.255 419.715 420.533 422.255C419.523 422.704 417.98 421.905 416.44 421.65L416.454 421.695ZM310.119 402.907C309.333 403.862 308.456 404.932 307.594 405.987C306.567 405.818 305.585 405.664 304.455 405.477C303.322 408.867 302.179 412.006 301.241 415.209C300.733 416.905 298.184 416.378 298.366 419.488C298.872 428.02 302.282 434.261 309.473 438.612C313.148 440.826 316.823 441.716 321.101 439.896C323.493 438.874 326.317 438.935 328.934 438.389C334.64 437.218 336.093 434.704 335.585 428.997C335.349 426.314 335.973 423.325 337.015 420.801C338.631 416.863 339.074 414.768 336.113 412.187C330.481 407.237 324.487 402.72 316.183 403.555C314.295 403.749 312.321 403.161 310.09 402.877L310.119 402.907ZM376.759 421.124C386.289 426.865 394 419.454 393.505 411.775C393.309 408.651 394.291 405.434 394.846 402.282C395.885 396.447 394.917 394.263 389.85 391.106C387.875 389.885 386.054 388.374 384.001 387.343C379.619 385.143 375.142 384.589 370.819 387.777C370.248 386.97 369.778 386.268 369.292 385.58C368.969 385.573 368.559 385.446 368.336 385.574C364.443 387.947 363.602 392.094 362.692 396.018C362.206 398.068 362.313 399.895 360.421 401.649C357.656 404.238 358.455 410.79 361.938 413.044C364.072 414.43 364.998 415.819 365.155 418.059C365.404 421.479 367.774 422.811 370.545 423.961C373.55 425.204 375.332 423.815 376.76 421.094L376.759 421.124ZM236.681 565.478C239.484 565.186 242.368 565.19 245.062 564.484C246.824 564.007 248.243 562.39 249.926 561.47C252.265 560.181 251.495 558.354 251.407 556.336C251.324 554.715 252.041 552.877 252.912 551.409C255.113 547.69 255.52 543.18 252.575 540.555C249.038 537.402 246.087 532.996 241.074 532.092C236.881 531.353 232.966 529.34 228.258 530.621C223.061 532.023 221.751 536.101 219.856 539.989C219.317 541.081 219.382 542.834 218.561 543.331C214.936 545.592 215.947 548.484 217.36 551.193C219.31 554.886 220.011 559.198 223.745 562.076C227.06 564.636 230.151 566.631 234.49 565.386C235.171 565.195 235.92 565.285 236.627 565.242C236.641 565.316 236.639 565.374 236.652 565.448L236.681 565.478ZM492.983 148.399C491.627 148.487 490.73 148.482 489.829 148.595C484.99 149.137 481.47 151.268 480.328 156.394C479.789 158.84 478.604 161.213 478.419 163.667C478.272 165.68 478.616 168.116 479.699 169.758C481.949 173.192 484.601 176.414 487.496 179.347C489.915 181.784 493.457 181.994 496.648 181.446C500.238 180.832 503.765 179.702 507.178 178.423C511.689 176.755 511.856 175.846 511.45 170.819C511.252 168.415 511.634 165.745 512.493 163.483C514.179 159.045 512.199 156.044 509.012 153.708C504.174 150.159 498.796 147.76 492.998 148.414L492.983 148.399ZM451.544 196.107C448.916 196.461 446.164 196.446 443.688 197.289C442.191 197.801 440.992 199.468 439.902 200.827C434.577 207.452 433.782 214.234 440.171 220.908C441.768 222.576 443.214 224.418 444.602 226.258C446.876 229.295 448.491 230.14 451.886 229.022C455.28 227.904 458.58 226.416 461.85 224.957C466.709 222.811 468.301 218.666 468.555 213.726C468.63 212.33 468.984 210.925 469.147 209.53C469.645 205.626 468.394 202.214 465.173 200.113C461.11 197.463 456.727 195.322 451.558 196.122L451.544 196.107ZM367.608 210.407C360.808 209.081 357.554 215.191 353.219 218.967C351.478 220.49 350.789 223.742 350.498 226.296C350.001 230.892 351.851 235.112 354.107 239.002C356.092 242.431 368.859 246.859 372.411 245.274C375.071 244.081 378.114 242.896 378.257 239.043C378.29 238.205 379.12 237.267 379.826 236.62C383.489 233.315 384.866 228.885 382.588 224.671C379.958 219.757 377.467 214.507 371.158 212.971C369.928 212.68 368.926 211.392 367.608 210.377L367.608 210.407ZM350.614 339.77C349.691 338.896 348.971 338.203 348.048 337.33C345.551 339.807 342.993 341.679 342.27 345.136C341.713 347.744 340.978 350.406 336.821 350.698C338.774 355.657 339.937 360.362 342.337 364.344C344.88 368.535 349.84 369.865 354.438 370.274C357.875 370.584 361.501 369.677 364.934 368.81C369.462 367.673 370.304 365.513 370.026 360.709C369.886 358.366 370.94 355.916 371.639 353.577C372.639 350.228 371.411 346.449 368.653 344.711C366.867 343.597 365.051 342.513 363.416 341.226C359.871 338.456 355.102 337.778 350.643 339.8L350.614 339.77ZM256.481 284.47C252.276 284.29 250.86 287.776 248.803 290.322C247.714 291.681 246.84 293.296 246.186 294.93C245.111 297.659 244.659 300.166 245.751 303.413C247.769 309.402 252.085 312.617 257.07 315.477C257.826 315.906 258.767 316.618 259.448 316.456C264.507 315.301 269.958 316.391 274.749 313.302C277.048 311.822 277.892 310.236 276.806 308.078C275.931 306.352 276.173 305.371 277.091 303.772C278.116 301.984 278.651 299.715 278.696 297.655C278.717 296.022 278.168 293.523 277.02 292.865C272.123 289.977 268.352 284.714 261.657 285.363C259.975 285.532 258.196 284.787 256.466 284.455L256.481 284.47ZM417.352 538.482C414.927 538.988 412.349 539.094 410.12 540.076C408.322 540.875 406.755 542.519 405.499 544.125C402.728 547.7 402.455 552.08 402.464 556.392C402.466 557.658 403.142 559.085 403.898 560.147C406.07 563.167 408.24 566.217 410.787 568.907C411.995 570.169 414.232 571.543 415.68 571.25C421.031 570.219 426.608 569.576 430.453 564.685C432.618 561.921 434.829 559.718 433.445 555.684C432.878 554.009 433.531 551.771 434.057 549.914C434.791 547.281 434.059 545.101 432.043 543.718C427.65 540.693 423.184 537.623 417.337 538.467L417.352 538.482ZM163.639 565.46C163.938 567.939 164.075 570.459 164.566 572.898C165.456 577.289 168.144 579.584 172.619 580.226C174.379 580.471 176.184 580.731 177.864 581.283C182.029 582.654 185.57 580.877 189.138 579.247C189.762 578.967 190.733 578.325 190.683 577.912C190.226 573.222 194.818 571.218 196.165 567.479C197.183 564.661 197.485 562.298 194.969 560.212C194.42 559.759 193.723 559.332 193.486 558.723C191.203 552.698 185.159 551.83 180.416 549.313C177.463 547.733 174.634 550.585 172.805 552.106C169.222 555.103 165.328 558.197 163.664 562.959C163.397 563.733 163.32 564.585 163.155 565.406C163.316 565.424 163.463 565.427 163.625 565.445L163.639 565.46ZM181.86 251.568C181.676 255.979 181.226 260.414 181.365 264.803C181.508 269.074 184.263 271.622 188.256 272.783C191.005 273.579 193.896 273.951 196.553 274.98C199.515 276.149 202.178 274.838 204.951 274.545C206.677 274.362 207.84 272.989 207.529 271.04C207.179 268.898 208.306 267.819 209.877 266.661C211.148 265.732 212.398 264.42 212.973 263.005C213.595 261.488 214.114 259.292 213.451 257.997C211.686 254.529 209.766 250.808 206.951 248.289C204.079 245.71 200.205 243.83 196.445 242.791C193.095 241.85 190.789 245.037 188.46 247.209C186.703 248.833 184.873 250.383 183.058 251.977C182.664 251.836 182.254 251.709 181.86 251.568ZM546.713 334.818C536.925 335.576 531.032 341.908 530.709 351.983C530.694 352.689 530.866 353.59 530.502 354.083C527.909 357.573 530.541 359.691 532.433 362.028C533.422 363.242 534.412 364.426 535.356 365.683C537.645 368.706 540.076 369.259 543.785 367.868C545.417 367.256 547.219 367.001 548.976 366.73C553.288 366.059 554.401 364.965 555.026 360.593C555.163 359.713 554.97 358.457 555.494 358.013C559.471 354.523 557.938 349.191 559.942 345.055C560.466 343.978 560.453 341.858 559.747 341.151C556.176 337.57 552.333 334.278 546.713 334.847L546.713 334.818ZM366.643 466.586C370.296 465.105 375.176 466.051 378.794 462.789C380.926 460.863 383.596 459.229 381.156 455.717C380.799 455.194 380.99 453.888 381.43 453.294C383.16 450.86 383.05 448.517 382.214 445.688C381.322 442.681 379.043 441.925 376.839 440.405C373.461 438.08 369.998 436.9 366.006 436.401C359.402 435.551 357.027 436.47 353.856 442.185C352.753 444.163 351.707 446.23 350.984 448.363C350.607 449.443 350.677 450.961 351.17 451.987C353.001 455.765 354.831 459.573 357.169 463.038C359.207 466.07 362.496 467.128 366.629 466.571L366.643 466.586ZM337.026 570.124C338.717 572.192 340.76 575.048 343.179 577.514C345.986 580.357 349.444 581.771 353.47 580.049C356.738 578.649 359.994 577.145 363.207 575.596C364.144 575.131 364.941 574.339 365.766 573.635C369.411 570.492 366.548 566.117 367.851 562.393C369.264 558.332 367.155 556.491 362.426 553.356C357.638 550.19 352.54 550.462 347.556 550.912C344.901 551.149 341.944 553.145 340.074 555.223C338.596 556.839 338.444 559.75 337.965 562.138C337.501 564.542 337.403 566.998 337.055 570.154L337.026 570.124ZM528.486 183.288C530.029 185.411 531.861 188.468 534.264 190.978C535.473 192.241 537.879 193.25 539.533 193.021C545.586 192.152 551.341 190.07 556.621 186.889C558.723 185.625 559.702 181.26 558.93 178.83C558.517 177.555 558.107 176.074 558.399 174.845C559.32 171.082 557.552 168.453 554.888 166.453C549.777 162.588 539.474 162.629 534.04 165.468C529.47 167.856 529.33 171.591 529.297 175.77C529.281 177.889 528.866 180.014 528.5 183.303L528.486 183.288ZM131.908 407.558C133.776 406.921 135.877 406.408 137.767 405.463C138.779 404.955 140.208 403.529 140.061 402.834C139.256 399.255 142.065 397.344 143.4 394.827C145.196 391.437 145.259 389.879 142.787 387.176C141.335 385.599 139.808 384.064 138.326 382.516C134.257 378.115 128.646 378.272 123.443 377.953C120.077 377.747 118.732 381.397 117.003 383.773C115.698 385.54 115.574 387.848 113.131 389.208C111.269 390.241 111.651 392.958 112.399 395.123C113.077 397.095 113.592 399.137 114.181 401.137C114.908 403.552 116.473 405.367 118.906 405.802C123.114 406.556 127.388 406.959 131.893 407.543L131.908 407.558ZM124.724 323.924C126.987 323.429 128.456 322.857 129.592 320.704C130.836 318.332 132.753 316.152 134.793 314.371C137.643 311.902 138.19 311.119 136.954 307.751C135.967 305.066 135.056 302.309 133.593 299.878C131.15 295.821 127.071 293.908 122.584 293.162C120.252 292.773 117.218 292.221 115.545 293.332C112.021 295.669 109.138 298.977 106.099 302.001C105.528 302.548 105.089 303.775 105.31 304.456C106.733 308.711 105.831 313.637 109.327 317.289C111.198 319.243 112.513 321.7 115.934 320.73C116.689 320.526 117.756 321.55 118.72 321.895C120.706 322.615 122.708 323.262 124.68 323.938L124.724 323.924ZM379.856 287.175C368.266 288.879 363.641 291.751 362.553 301.176C362.117 304.964 362.032 307.523 365.412 310.452C368.055 312.732 369.975 314.437 373.685 315.062C380.284 316.148 385.598 314.085 390.764 310.695C392.929 309.286 394.44 307.494 393.448 304.381C392.966 302.855 393.348 300.876 393.869 299.254C394.882 295.979 393.817 293.543 391.176 291.837C386.952 289.11 382.561 286.66 379.856 287.175ZM439.244 484.799C436.862 489.413 435.002 493.758 434.491 498.942C433.942 504.537 437.901 506.596 440.658 509.747C441.203 510.377 442.483 510.419 442.939 511.077C444.709 513.617 446.439 515.274 450.039 514.19C454.942 512.722 459.741 511.325 462.48 506.543C462.939 505.729 462.599 504.471 462.68 503.413C462.849 501.091 462.435 498.492 463.331 496.51C465.062 492.721 463.346 490.446 460.91 488.083C455.65 482.949 448.992 481.892 442.52 485.092C441.776 485.458 440.609 484.962 439.229 484.814L439.244 484.799ZM489.122 211.408C488.912 214.288 488.716 217.212 488.52 220.137C488.516 220.313 488.599 220.521 488.537 220.667C487.579 222.795 485.581 224.62 487.701 227.316C489.176 229.188 489.947 231.618 491.407 233.504C493.726 236.498 497.192 236.839 500.672 236.532C506.703 236.001 511.154 232.345 515.589 228.733C515.844 228.518 516.087 228.141 516.138 227.833C516.766 224.035 517.924 220.189 517.77 216.418C517.676 214.003 515.7 212.149 512.831 210.777C507.602 208.264 502.593 206.492 496.888 208.266C494.428 209.036 492.077 210.221 489.106 211.452L489.122 211.408ZM182.422 515.36C183.092 512.961 183.822 510.563 184.419 508.148C184.934 506.099 185.613 504.009 185.643 501.934C185.68 499.566 182.843 499.43 181.826 498.157C177.901 493.215 172.919 492.194 167.072 492.375C162.153 492.533 158.497 494.852 155.826 498.561C153.2 502.228 151.61 506.285 153.655 511.039C154.566 513.134 155.59 514.775 157.673 515.777C159.275 516.548 160.769 517.566 162.325 518.41C163.256 518.93 164.267 519.777 165.195 519.753C169.436 519.639 173.692 519.511 177.9 518.911C179.716 518.642 181.365 517.265 183.091 516.39L182.378 515.344L182.422 515.36ZM584.716 292.848C581.709 293.739 578.405 294.109 575.737 295.625C570.103 298.858 569.433 304.628 569.438 310.5C569.439 315.828 572.738 319.093 576.804 321.595C578.14 322.419 580.518 322.707 581.93 322.105C586.995 319.963 591.935 317.481 596.791 314.849C599.963 313.138 600.016 312.02 599.29 308.193C598.893 306.153 599.103 303.965 599.266 301.878C599.492 298.954 598.489 297.034 595.61 296.103C592.058 294.981 588.953 292.278 584.716 292.848ZM280.789 601.924C281.624 603.458 282.719 605.895 284.202 608.076C285.542 610.048 287.634 611.301 288.266 614.037C288.589 615.457 291.052 617.248 292.639 617.341C296.27 617.553 300.018 617.105 303.582 616.314C305.016 616.007 306.539 614.318 307.262 612.877C308.678 610.052 309.279 606.798 310.811 604.035C312.037 601.796 311.841 599.996 310.796 597.971C307.747 591.989 298.446 586.605 292.046 587.172C287.254 587.583 280.586 595.723 280.819 601.924L280.789 601.924ZM185.47 316.183C184.904 313.094 184.772 310.369 187.199 307.728C189.401 305.304 188.224 301.246 185.498 299.361C184.483 298.662 183.303 298.092 182.529 297.163C179.587 293.728 175.979 292.487 171.507 293.052C170.09 293.227 168.22 291.906 167.164 292.456C165.199 293.473 163.44 295.157 162.062 296.937C160.351 299.151 159.074 301.699 157.71 304.157C157.282 304.913 157.026 305.82 156.934 306.686C156.501 310.989 158.864 314.661 161.051 317.637C163.167 320.509 167.369 321.498 171.412 320.365C172.418 320.093 173.561 319.661 174.499 319.858C178.674 320.759 182.156 319.672 185.485 316.168L185.47 316.183ZM218.83 298.16C214.67 296.583 213.411 300.985 210.814 302.636C209.232 303.632 208.334 305.673 206.922 306.996C203.241 310.433 203.95 314.393 205.437 318.414C205.784 319.348 206.796 320.857 207.386 320.811C211.323 320.47 212.707 323.811 215.094 325.703C215.76 326.218 217.055 326.879 217.474 326.594C220.446 324.584 223.62 326.183 226.645 325.823C230.452 325.376 231.733 323.976 232.713 320.215C233.324 317.844 234.316 315.54 235.278 313.266C237.125 308.905 236.49 306.287 232.74 303.453C232.175 303.013 231.415 302.791 230.97 302.266C227.8 298.473 223.842 297.107 218.815 298.175L218.83 298.16ZM494.858 381.003C494.926 377.193 494.557 374.551 495.11 372.149C495.94 368.503 494.424 366.468 491.655 364.539C485.711 360.406 479.407 359.989 472.692 362.153C469.728 363.118 467.764 364.768 467.091 367.977C466.663 370.057 465.722 372.023 465.191 374.087C463.906 379.033 468.207 385.632 473.307 386.627C474.01 386.76 474.927 386.544 475.405 386.923C479.57 390.281 483.599 387.778 487.611 386.674C491.327 385.651 493.437 382.739 494.843 381.018L494.858 381.003ZM492.207 316.278C492.22 315.027 491.969 313.712 492.274 312.526C493.075 309.541 491.453 307.666 489.471 306.078C482.976 300.917 473.123 301.247 466.821 306.761C462.365 310.652 461.443 316.49 464.42 321.735C465.099 322.957 465.644 324.279 466.071 325.627C467.159 329.08 468.626 330.613 472.024 330.731C479.376 331.039 485.736 328.205 490.893 323.24C492.396 321.801 492.33 318.753 492.983 316.456L492.207 316.278ZM270.231 351.792C270.846 351.261 272.02 350.713 272.393 349.838C273.34 347.578 274.347 345.23 274.577 342.821C274.879 339.767 271.517 339.384 269.965 337.643C267.623 335.046 265.223 333.051 261.664 332.282C259.115 331.726 256.36 333.903 253.952 331.599C253.751 331.388 251.875 332.348 251.373 333.117C250.062 335.178 249.071 337.453 247.948 339.65C247.579 340.378 247.379 341.463 246.769 341.788C244.102 343.246 244.446 345.711 245.184 347.655C246.547 351.276 248.265 354.846 250.342 358.099C252.591 361.622 254.794 361.846 258.454 360.042C259.242 359.662 260.314 359.759 261.242 359.706C263.334 359.604 265.563 359.977 267.49 359.371C272.809 357.736 272.8 357.485 270.231 351.763L270.231 351.792ZM191.871 443.112C192.758 445.634 193.604 447.33 193.947 449.133C194.821 453.626 196.622 455.387 201.004 455.571C203.503 455.684 206.002 455.827 208.502 455.911C211.605 456.023 214.441 455.555 216.99 453.403C218.489 452.141 219.39 451.307 219.042 449.047C218.824 447.585 219.997 445.771 220.853 444.289C223.025 440.539 222.827 438.136 219.71 435.301C216.001 431.938 212.441 428.49 206.704 429.057C205.067 429.213 203.615 426.914 201.362 428.322C198.557 430.086 196.259 432.199 194.928 435.202C193.735 437.928 192.791 440.763 191.9 443.113L191.871 443.112ZM127.505 473.13C132.571 472.976 133.817 471.87 135.091 468.086C135.8 465.967 136.787 463.899 137.933 461.967C139.308 459.642 139.107 457.386 137.678 455.412C133.564 449.7 128.415 445.555 120.978 445.099C118.141 444.934 113.268 447.727 111.852 450.581C110.99 452.299 110.187 454.047 109.427 455.811C108.449 458.13 108.667 460.284 109.436 462.802C111.825 470.713 116.467 474.479 124.92 472.898C126.087 472.673 127.402 473.114 127.52 473.116L127.505 473.13ZM591.391 209.488C591.499 211.256 591.535 213.008 591.717 214.763C591.816 215.619 591.986 216.609 592.502 217.238C595.223 220.683 598.109 224.028 600.845 227.458C602.091 229.03 603.479 229.487 605.532 229.164C611.661 228.164 616.956 224.277 617.696 218.7C618.261 214.386 617.608 209.883 617.204 205.488C617.109 204.426 615.986 203.313 615.077 202.483C608.873 196.756 598.951 196.863 593.254 203.008C591.822 204.552 591.545 207.151 590.748 209.267C590.967 209.346 591.172 209.409 591.391 209.488ZM398.325 195.461C402.32 195.813 405.162 195.743 407.813 196.375C410.77 197.087 413.168 196.432 415.285 194.551C418.317 191.82 421.933 189.309 420.483 184.274C420.443 184.111 420.491 183.921 420.524 183.745C421.163 180.109 422.582 176.446 418.836 173.406C413.775 169.292 408.083 167.108 401.881 169.415C399.18 170.416 396.309 173.194 395.205 175.863C391.786 184.207 390.89 186.793 397.418 194.544C397.877 195.084 398.411 195.551 398.31 195.476L398.325 195.461ZM206.481 367.71C205.068 372.433 203.656 377.126 202.467 381.06C204.054 384.523 205.405 387.378 206.695 390.291C208.645 394.675 210.701 395.589 214.867 394.193C216.067 393.792 217.54 393.765 218.8 393.999C224.824 395.175 228.253 392.439 228.608 386.31C228.704 384.605 229.404 382.868 230.159 381.31C231.517 378.455 231.569 374.689 229.206 373.033C225.366 370.315 222.019 366.548 216.65 366.386C214.459 366.324 212.51 365.914 210.565 367.402C209.876 367.917 208.559 367.593 206.481 367.71ZM323.874 298.537C312.422 299.965 308.93 304.864 307.843 314.921C307.621 317.006 309.837 319.321 310.758 321.608C311.945 324.533 314.168 323.846 316.58 323.898C320.508 323.999 324.509 324.748 328.208 323.195C332.055 321.586 335.85 319.653 336.02 314.564C336.05 313.844 336.154 313.11 336.346 312.438C337.081 309.746 339.116 306.876 336.521 304.376C333.177 301.154 329.719 297.782 324.405 298.49C324.228 298.516 324.051 298.541 323.873 298.567L323.874 298.537ZM553.197 229.141C546.196 229.621 541.669 234.07 541.062 241.019C540.927 242.443 540.646 243.894 540.732 245.309C540.873 247.652 540.316 250.23 543.467 251.506C544.489 251.91 544.769 253.889 545.66 254.909C547.025 256.425 548.428 258.192 550.191 259.04C553.118 260.443 562.056 257.533 563.984 254.852C564.576 254.026 564.924 252.915 565.02 251.902C565.393 246.936 565.722 241.954 565.904 236.968C565.94 236.013 565.513 234.664 564.819 234.09C561.465 231.338 557.913 228.861 553.241 229.186L553.197 229.141ZM316.446 373.257C315.932 371.848 315.461 370.513 315.058 369.43C315.818 367.636 316.691 366.081 317.124 364.427C318.374 359.745 317.789 360.247 314.258 356.829C309.588 352.312 304.516 351.407 298.619 352.529C297.525 352.741 296.257 352.86 295.419 353.49C291.334 356.565 288.896 361.089 288.499 365.79C288.26 368.64 290.536 372.251 292.708 374.55C294.507 376.429 297.945 378.034 300.409 377.75C305.441 377.138 310.808 377.388 315.417 374.559C315.701 374.374 315.87 374.01 316.446 373.257ZM165.144 487.02C168.415 486.164 171.755 485.501 174.915 484.378C177.718 483.365 179.545 481.271 179.983 478.057C180.178 476.545 181.004 475.092 181.639 473.649C183.188 470.121 182.543 469.297 180.079 466.212C176.297 461.479 171.159 460.896 166.073 461.27C161.415 461.61 158.19 465.043 156.097 469.265C155.312 470.852 154.658 472.486 153.8 474.028C151.442 478.215 157.265 480.505 156.165 484.381C158.06 485.188 159.894 486.14 161.838 486.727C162.804 487.013 163.959 486.656 165.035 486.606C165.061 486.754 165.117 486.902 165.143 487.05L165.144 487.02ZM301.303 553.421C302.201 553.426 303.099 553.401 303.997 553.406C307.071 553.459 309.058 552.104 310.007 549.093C310.718 546.886 312.146 544.827 312.401 542.596C312.638 540.467 312.511 537.535 311.247 536.124C307.525 531.966 303.189 528.369 296.814 529.805C295.01 530.207 292.311 529.795 291.522 530.867C288.913 534.43 286.253 538.302 285.088 542.471C284.402 544.884 286.302 548.193 287.479 550.927C287.843 551.788 289.493 552.369 290.652 552.556C294.157 553.118 297.697 553.445 301.235 553.861C301.267 553.715 301.27 553.568 301.303 553.421ZM104.519 333.962C102.816 334.44 101.151 335.199 99.4117 335.337C93.7651 335.788 91.9372 340.649 89.7812 344.355C87.0751 348.991 91.7465 356.819 97.1755 358.248C98.5512 358.601 99.8943 359.102 101.207 359.66C106.18 361.755 108.725 361.134 111.735 356.696C112.845 355.057 113.633 353.382 115.783 352.649C116.524 352.4 117.391 350.417 117.13 349.573C116 346.045 114.604 342.571 112.97 339.239C112.096 337.454 110.44 336.446 108.147 336.308C107.03 336.254 105.97 334.936 104.534 333.948L104.519 333.962ZM436.722 271.74C433.763 271.778 430.712 273.375 428.205 276.264C422.938 282.286 424.618 288.916 431.46 293.054C437.532 296.718 442.716 295.183 448.205 292.521C450.124 291.577 451.359 290.308 451.483 288.001C451.558 286.575 451.782 285.093 452.339 283.81C454.045 279.815 451.987 277.032 449.176 274.999C445.814 272.571 441.918 271.058 436.722 271.74ZM418.273 314.003C410.581 314.424 405.663 321.264 407.498 330.281C408.069 333.105 408.394 335.731 410.777 337.829C412.943 339.731 415.244 340.178 417.749 339.364C420.298 338.537 422.765 337.443 425.133 336.185C428.974 334.149 432.121 331.569 430.819 326.477C430.724 326.137 430.762 325.755 430.828 325.403C431.317 322.573 432.165 319.457 429.382 317.483C426.498 315.433 423.314 313.613 418.287 314.018L418.273 314.003ZM308.288 274.252C308.859 280.475 309.118 280.746 315.051 282.009C316.428 282.304 317.791 283.216 319.132 283.172C321.547 283.107 324.083 282.868 326.323 282.048C328.668 281.187 330.103 279.496 330.478 276.458C330.748 274.183 334.034 272.65 333.63 269.58C333.542 268.916 334.064 267.927 333.748 267.537C331.082 264.3 329.185 260.152 324.647 259.023C320.49 257.991 316.536 258.434 313.359 261.735C309.926 265.281 306.931 269.013 308.274 274.237L308.288 274.252ZM251.825 256.376C252.349 258.639 252.844 260.902 253.414 263.122C253.55 263.625 253.923 264.075 254.223 264.508C256.806 268.229 268.19 269.89 271.651 267.066C271.787 266.937 272.009 266.838 272.027 266.706C272.471 262.536 276.448 260.371 277.691 256.704C278.02 255.755 278.077 254.49 277.729 253.585C275.12 247.008 267.841 242.714 260.964 243.565C260.447 243.627 259.9 243.777 259.424 244.002C256.627 245.354 251.922 253.258 251.81 256.361L251.825 256.376ZM420.368 372.462C423.247 372.069 426.169 371.691 427.535 375.194C427.702 375.61 428.314 375.917 428.779 376.192C432.096 377.972 440.35 374.016 440.932 370.291C441.361 367.46 441.6 364.61 441.986 361.763C442.409 358.564 440.93 356.177 438.601 354.316C433.712 350.412 424.844 350.116 421.154 353.965C416.365 358.953 415.603 366.221 419.324 371.071C419.539 371.355 419.753 371.639 420.398 372.463L420.368 372.462ZM489.467 259.041C483.554 260.236 477.614 262.668 476.663 269.167C475.951 274.14 478.267 280.622 482.764 282.943C486.519 284.879 490.025 283.396 493.294 281.274C499.49 277.244 499.889 271.071 499.249 264.655C499.128 263.475 497.852 261.932 496.729 261.421C494.179 260.262 491.367 259.642 489.467 259.041ZM194.644 510.314C194.666 510.667 194.805 511.053 194.681 511.345C192.98 515.767 195.955 517.701 199.148 519.08C202.035 520.321 205.17 520.978 208.244 521.751C209.913 522.17 211.247 521.728 212.414 520.15C213.976 518.05 216.103 516.359 217.737 514.305C218.569 513.278 219.441 511.781 219.319 510.601C218.707 504.245 212.374 498.382 205.979 498.051C204.98 498 203.668 498.074 202.964 498.633C200.313 500.738 197.646 502.917 195.399 505.414C194.403 506.511 194.375 508.497 193.913 510.092C194.162 510.171 194.396 510.235 194.644 510.314ZM398.441 272.465C405.804 272.272 411.727 266.603 412.015 259.471C412.264 253.413 405.416 248.245 399.458 250.146C393.13 252.142 388.886 256.465 388.11 263.027C387.803 265.625 389.411 268.81 390.994 271.155C391.764 272.29 394.459 272.187 396.291 272.536C396.965 272.668 397.705 272.479 398.413 272.435L398.441 272.465ZM245.404 400.304C246.198 402.367 247.045 404.696 248.041 406.97C249.021 409.258 252.131 411.062 254.61 410.763C257.222 410.452 259.822 410.008 262.408 409.52C266.235 408.823 267.051 407.841 267.43 403.963C267.579 402.554 267.816 401.117 268.184 399.756C269.463 395.104 269.477 395.148 265.455 391.97C261.837 389.124 258.246 386.455 253.619 390.078C248.427 388.567 248.391 392.26 247.757 395.661C247.491 397.068 246.433 398.34 245.404 400.304ZM270.314 436.375C271.647 432.622 272.241 429.691 273.706 427.28C274.79 425.493 274.715 424.241 273.594 422.98C269.63 418.479 265.121 415.363 258.593 416.398C256.201 416.788 254.105 417.728 253.343 419.61C251.787 423.461 248.242 427.431 252.562 431.794C253.109 432.365 252.858 433.728 253.406 434.27C254.775 435.58 256.394 437.602 257.925 437.606C262.384 437.6 266.832 436.77 270.314 436.375ZM257.191 507.704C258.164 510.345 258.928 512.436 259.692 514.528C260.566 516.946 263.141 518.974 265.528 518.188C267.751 517.471 269.655 517.924 271.725 518.131C275.999 518.534 276.831 517.536 276.653 512.867C276.632 512.454 276.79 511.958 277.018 511.624C278.433 509.521 279.906 507.448 281.638 504.955C279.086 502.5 277.007 499.997 274.44 498.249C272.874 497.184 270.167 496.433 268.608 497.062C266.336 497.998 263.423 495.256 261.853 498.401C260.838 500.439 260.025 502.6 259.038 504.668C258.514 505.746 257.786 506.731 257.176 507.718L257.191 507.704ZM523.315 308.39C527.539 309.071 529.629 307.012 530.249 302.905C530.388 301.936 531.088 300.863 531.853 300.217C533.981 298.468 535.068 296.534 534.41 293.65C533.952 291.668 534.67 288.446 533.611 287.76C531.187 286.221 527.915 285.061 525.099 285.279C516.357 285.957 511.372 297.268 516.275 304.558C517.929 307.007 519.06 310.476 523.301 308.375L523.315 308.39ZM470.534 426.7C470.888 432.757 475.164 435.75 480.949 433.697C484.108 432.574 487.288 431.201 490.066 429.349C491.439 428.437 491.959 426.211 492.703 424.491C492.951 423.907 492.616 423.076 492.631 422.37C492.631 415.658 487.446 411.778 480.974 413.653C474.087 415.637 470.198 420.512 470.549 426.686L470.534 426.7ZM239.229 479.01C242.111 475.732 244.496 473.018 247.091 470.101C245.263 464.822 243.129 460.095 236.335 459.197C230.67 458.455 223.747 464.132 223.988 469.921C224.025 470.952 223.825 472.008 223.699 473.05C223.447 475.164 224.416 476.627 226.347 477.17C230.808 478.43 235.212 480.292 239.229 479.01ZM156.954 411.032C152.556 411.614 148.575 415.339 148.001 419.373C147.549 422.542 150.514 428.98 153.652 429.519C157.112 430.124 160.853 429.338 164.425 428.856C165.104 428.753 165.725 427.295 166.128 426.362C166.531 425.399 166.483 424.236 166.887 423.273C167.911 420.823 169.506 418.547 167.358 415.851C163.834 411.389 161.825 410.403 156.969 411.048L156.954 411.032ZM412.187 476.998C406.168 478.353 403.812 480.406 403.191 485.294C402.566 490.299 408.914 496.839 413.92 496.08C416.356 495.706 418.716 494.801 421.073 494.043C421.547 493.906 422.219 493.465 422.286 493.083C422.736 489.973 423.453 486.81 423.24 483.729C423.151 482.432 421.271 480.919 419.845 480.152C417.431 478.834 414.74 478.04 412.172 477.012L412.187 476.998ZM180.427 351.718C180.768 353.609 180.704 355.198 181.355 356.389C182.078 357.685 183.301 358.963 184.612 359.551C186.099 360.231 187.923 360.241 189.613 360.381C190.479 360.473 191.423 360.406 192.252 360.159C193.645 359.718 198.114 351.206 197.821 349.787C196.782 344.76 191.231 340.857 186.182 341.571C182.89 342.044 180.397 345.669 180.33 350.082C180.315 350.789 180.402 351.512 180.427 351.718ZM157.47 351.6C156.033 350.009 154.862 348.394 153.388 347.125C150.947 345.027 147.317 344.786 144.811 346.291C142.485 347.682 141.666 350.137 142.601 353.852C143.007 355.479 143.73 358.071 144.726 358.298C147.582 358.935 151.074 359.452 153.541 358.329C155.429 357.472 156.137 354.029 157.426 351.614L157.47 351.6ZM181.833 391.191C179.159 387.356 175.284 385.775 170.206 386.449C166.289 389.94 168.322 393.899 168.947 397.622C169.544 397.914 169.848 398.171 170.2 398.208C175.369 398.753 179.251 396.419 181.847 391.206L181.833 391.191Z" fill="#588F9C"/>
</g>
<defs>
<clipPath id="clip0_15_1913">
<rect width="583.222" height="414.382" fill="white" transform="translate(707.848 299.33) rotate(136.249)"/>
</clipPath>
</defs>
</svg>
