<svg width="27" height="24" viewBox="0 0 27 24" fill="none" xmlns="http://www.w3.org/2000/svg">
<path d="M17.695 16.9995V18.9995H2.21191V16.9995C2.21191 16.9995 2.21191 12.9995 9.95346 12.9995C17.695 12.9995 17.695 16.9995 17.695 16.9995ZM13.8242 7.49955C13.8242 6.80731 13.5972 6.13062 13.1719 5.55505C12.7466 4.97948 12.142 4.53088 11.4347 4.26597C10.7274 4.00106 9.94916 3.93175 9.19831 4.0668C8.44745 4.20185 7.75775 4.53519 7.21641 5.02468C6.67507 5.51416 6.30642 6.1378 6.15706 6.81673C6.00771 7.49567 6.08436 8.1994 6.37733 8.83894C6.6703 9.47848 7.16643 10.0251 7.80297 10.4097C8.43952 10.7943 9.18789 10.9995 9.95346 10.9995C10.9801 10.9995 11.9646 10.6308 12.6905 9.97442C13.4164 9.31804 13.8242 8.42781 13.8242 7.49955ZM17.6286 12.9995C18.3085 13.4753 18.8648 14.08 19.2584 14.7711C19.652 15.4621 19.8734 16.2228 19.9069 16.9995V18.9995H24.3306V16.9995C24.3306 16.9995 24.3306 13.3695 17.6286 12.9995ZM16.5891 3.99955C15.8279 3.99635 15.0837 4.20208 14.4546 4.58955C15.1264 5.43829 15.4876 6.45583 15.4876 7.49955C15.4876 8.54326 15.1264 9.56081 14.4546 10.4095C15.0837 10.797 15.8279 11.0027 16.5891 10.9995C17.6157 10.9995 18.6002 10.6308 19.3261 9.97442C20.052 9.31804 20.4598 8.42781 20.4598 7.49955C20.4598 6.57129 20.052 5.68105 19.3261 5.02468C18.6002 4.3683 17.6157 3.99955 16.5891 3.99955Z" fill="#FFC635"/>
</svg>
