<svg width="27" height="24" viewBox="0 0 27 24" fill="none" xmlns="http://www.w3.org/2000/svg">
<path d="M21.0641 2.99951C21.6507 2.99951 22.2133 3.21023 22.6281 3.5853C23.0429 3.96037 23.276 4.46908 23.276 4.99951V18.9995C23.276 19.5299 23.0429 20.0387 22.6281 20.4137C22.2133 20.7888 21.6507 20.9995 21.0641 20.9995H5.58101C4.99439 20.9995 4.43179 20.7888 4.01698 20.4137C3.60218 20.0387 3.36914 19.5299 3.36914 18.9995V4.99951C3.36914 4.46908 3.60218 3.96037 4.01698 3.5853C4.43179 3.21023 4.99439 2.99951 5.58101 2.99951H21.0641ZM20.5111 18.4995V13.1995C20.5111 12.3349 20.1313 11.5057 19.4551 10.8943C18.779 10.283 17.862 9.93951 16.9058 9.93951C15.9657 9.93951 14.8709 10.4595 14.34 11.2395V10.1295H11.2545V18.4995H14.34V13.5695C14.34 12.7995 15.0257 12.1695 15.8773 12.1695C16.2879 12.1695 16.6817 12.317 16.9721 12.5796C17.2624 12.8421 17.4256 13.1982 17.4256 13.5695V18.4995H20.5111ZM7.66017 8.55951C8.15293 8.55951 8.62551 8.38251 8.97395 8.06745C9.32239 7.75239 9.51814 7.32508 9.51814 6.87951C9.51814 5.94951 8.68869 5.18951 7.66017 5.18951C7.16447 5.18951 6.68908 5.36756 6.33856 5.6845C5.98805 6.00144 5.79114 6.4313 5.79114 6.87951C5.79114 7.80951 6.63165 8.55951 7.66017 8.55951ZM9.19742 18.4995V10.1295H6.13398V18.4995H9.19742Z" fill="#FFC635"/>
</svg>
