<svg width="1147" height="1607" viewBox="0 0 1147 1607" fill="none" xmlns="http://www.w3.org/2000/svg">
<path d="M1486.96 156.489C1433.52 87.9792 1163.19 0.549746 835.934 1.00175C830.758 1.00175 825.583 1.00161 820.408 1.06618C815.233 1.06618 810.058 1.00175 804.883 1.00175C477.625 0.549746 207.293 87.9792 153.86 156.489C89.0424 223.902 1.4545 489.936 1.00168 803.623C0.548866 1130.68 91.5006 1398.45 160.264 1451.4C229.287 1515.59 492.18 1605.6 805.012 1606.05C810.188 1606.05 815.298 1606.05 820.408 1606.05C825.519 1606.05 830.629 1606.05 835.804 1606.05C1148.64 1605.6 1411.53 1515.59 1480.55 1451.4C1549.32 1398.52 1640.27 1130.68 1639.81 803.623C1639.36 489.936 1551.77 223.966 1487.02 156.554L1486.96 156.489Z" stroke="#FDFDFD" stroke-width="0.05" stroke-miterlimit="10"/>
<path d="M1460.11 182.577C1408.81 116.843 1149.41 32.9004 835.349 33.3524C830.368 33.3524 825.387 33.3525 820.406 33.417C815.425 33.417 810.444 33.3524 805.463 33.3524C491.401 32.9004 231.936 116.779 180.703 182.577C118.538 247.277 34.5078 502.528 34.055 803.559C33.6022 1117.38 120.931 1374.43 186.913 1425.19C253.154 1486.79 505.439 1573.19 805.657 1573.57C810.573 1573.57 815.49 1573.57 820.406 1573.57C825.322 1573.57 830.238 1573.57 835.155 1573.57C1135.37 1573.12 1387.66 1486.79 1453.9 1425.19C1519.88 1374.43 1607.21 1117.38 1606.76 803.559C1606.3 502.528 1522.27 247.277 1460.11 182.577Z" stroke="#FDFDFD" stroke-width="0.08" stroke-miterlimit="10"/>
<path d="M1433.07 208.792C1383.97 145.835 1135.44 65.4437 834.639 65.8957C829.852 65.8957 825.13 65.8958 820.343 65.9603C815.621 65.9603 810.834 65.8957 806.047 65.8957C505.246 65.4437 256.778 145.835 207.615 208.792C148.102 270.781 67.5653 515.248 67.1771 803.559C66.7243 1104.14 150.366 1350.35 213.567 1398.97C277.026 1457.99 518.701 1540.7 806.176 1541.09C810.898 1541.09 815.621 1541.09 820.343 1541.09C825.065 1541.09 829.787 1541.09 834.51 1541.09C1122.05 1540.7 1363.66 1457.92 1427.12 1398.97C1490.32 1350.35 1573.96 1104.2 1573.51 803.559C1573.12 515.248 1492.58 270.716 1433.07 208.792Z" stroke="#FDFDFD" stroke-width="0.11" stroke-miterlimit="10"/>
<path d="M1406.1 235.009C1359.13 174.828 1121.6 97.9882 834.058 98.4402C829.465 98.4402 824.936 98.4403 820.408 98.5049C815.88 98.5049 811.287 98.4402 806.759 98.4402C519.22 98.0528 281.684 174.828 234.721 235.009C177.795 294.22 100.816 527.969 100.428 803.559C100.04 1090.9 179.994 1326.2 240.348 1372.69C301.026 1429.13 532.028 1508.16 806.888 1508.55C811.417 1508.55 815.945 1508.55 820.408 1508.55C824.936 1508.55 829.4 1508.55 833.928 1508.55C1108.79 1508.16 1339.79 1429.06 1400.47 1372.69C1460.89 1326.2 1540.84 1090.9 1540.39 803.559C1540 527.904 1463.02 294.22 1406.1 235.009Z" stroke="#FDFDFD" stroke-width="0.11" stroke-miterlimit="10"/>
<path d="M1376.6 263.614C1332.03 206.468 1106.4 133.503 833.348 133.89C829.014 133.89 824.68 133.89 820.346 133.955C816.012 133.955 811.677 133.89 807.343 133.89C534.294 133.503 308.661 206.468 264.091 263.614C210.076 319.856 136.978 541.852 136.59 803.624C136.202 1076.5 212.146 1299.98 269.525 1344.15C327.097 1397.74 546.52 1472.84 807.537 1473.23C811.807 1473.23 816.141 1473.23 820.41 1473.23C824.68 1473.23 828.949 1473.23 833.283 1473.23C1094.3 1472.84 1313.72 1397.74 1371.3 1344.15C1428.67 1299.98 1504.62 1076.5 1504.23 803.624C1503.84 541.852 1430.74 319.92 1376.73 263.614H1376.6Z" stroke="#FDFDFD" stroke-width="0.14" stroke-miterlimit="10"/>
<path d="M1346.07 293.252C1303.96 239.206 1090.75 170.244 832.639 170.632C828.563 170.632 824.423 170.632 820.348 170.696C816.273 170.696 812.197 170.632 808.057 170.632C549.951 170.244 336.803 239.206 294.626 293.252C243.522 346.395 174.435 556.187 174.112 803.56C173.724 1061.46 245.528 1272.67 299.737 1314.38C354.139 1365.01 561.53 1435.97 808.187 1436.36C812.262 1436.36 816.273 1436.36 820.348 1436.36C824.359 1436.36 828.434 1436.36 832.509 1436.36C1079.17 1435.97 1286.56 1365.01 1340.96 1314.38C1395.17 1272.67 1466.91 1061.46 1466.58 803.56C1466.2 556.187 1397.11 346.395 1346.07 293.252Z" stroke="#FDFDFD" stroke-width="0.2" stroke-miterlimit="10"/>
<path d="M1314.37 323.987C1274.78 273.234 1074.44 208.404 831.859 208.792C827.978 208.792 824.161 208.792 820.345 208.856C816.528 208.856 812.647 208.792 808.83 208.792C566.314 208.469 365.974 273.234 326.32 323.987C278.321 373.965 213.374 571.101 213.051 803.558C212.728 1045.89 280.133 1244.39 331.107 1283.58C382.276 1331.17 577.117 1397.87 808.895 1398.2C812.711 1398.2 816.528 1398.2 820.28 1398.2C824.097 1398.2 827.848 1398.2 831.665 1398.2C1063.51 1397.87 1258.35 1331.17 1309.45 1283.58C1360.36 1244.39 1427.83 1045.89 1427.51 803.558C1427.19 571.101 1362.24 373.965 1314.24 323.987H1314.37Z" stroke="#FDFDFD" stroke-width="0.23" stroke-miterlimit="10"/>
<path d="M1281.44 355.95C1244.5 308.554 1057.49 248.116 831.146 248.439C827.523 248.439 823.965 248.438 820.407 248.503C816.849 248.503 813.227 248.503 809.669 248.439C583.325 248.116 396.311 308.619 359.374 355.95C314.545 402.57 253.997 586.534 253.673 803.558C253.35 1029.75 316.291 1215.01 363.837 1251.62C411.577 1296.04 593.416 1358.29 809.798 1358.61C813.356 1358.61 816.914 1358.61 820.472 1358.61C824.03 1358.61 827.588 1358.61 831.146 1358.61C1047.53 1358.29 1229.37 1296.04 1277.11 1251.62C1324.65 1215.01 1387.59 1029.75 1387.27 803.558C1386.95 586.599 1326.33 402.57 1281.57 355.95H1281.44Z" stroke="#FDFDFD" stroke-width="0.23" stroke-miterlimit="10"/>
<path d="M1250.07 386.429C1215.59 342.262 1041.32 285.891 830.372 286.214C827.009 286.214 823.709 286.214 820.346 286.214C816.982 286.214 813.683 286.214 810.319 286.214C599.37 285.891 425.1 342.262 390.621 386.429C348.897 429.885 292.424 601.387 292.101 803.559C291.777 1014.38 350.45 1187.05 394.761 1221.14C439.267 1262.53 608.75 1320.52 810.384 1320.84C813.683 1320.84 816.982 1320.84 820.281 1320.84C823.58 1320.84 826.879 1320.84 830.178 1320.84C1031.81 1320.52 1201.29 1262.53 1245.8 1221.14C1290.11 1187.05 1348.78 1014.38 1348.46 803.559C1348.14 601.322 1291.66 429.885 1249.94 386.429H1250.07Z" stroke="#FDFDFD" stroke-width="0.25" stroke-miterlimit="10"/>
<path d="M1220.64 415.034C1188.55 373.902 1026.25 321.406 829.724 321.664C826.619 321.664 823.514 321.664 820.409 321.664C817.304 321.664 814.199 321.664 811.094 321.664C614.571 321.406 452.268 373.902 420.182 415.034C381.305 455.52 328.713 615.205 328.39 803.624C328.131 999.985 382.728 1160.83 423.999 1192.6C465.464 1231.15 623.304 1285.2 811.158 1285.46C814.263 1285.46 817.304 1285.46 820.409 1285.46C823.514 1285.46 826.554 1285.46 829.659 1285.46C1017.51 1285.2 1175.35 1231.15 1216.82 1192.6C1258.09 1160.83 1312.75 999.985 1312.43 803.624C1312.17 615.269 1259.58 455.52 1220.64 415.034Z" stroke="#FDFDFD" stroke-width="0.31" stroke-miterlimit="10"/>
<path d="M1188.03 446.609C1158.53 408.834 1009.43 360.6 828.947 360.858C826.101 360.858 823.19 360.858 820.343 360.858C817.497 360.858 814.651 360.858 811.74 360.858C631.259 360.6 482.088 408.834 452.655 446.609C416.947 483.802 368.625 630.508 368.366 803.559C368.107 983.971 418.306 1131.65 456.213 1160.83C494.314 1196.22 639.281 1245.87 811.869 1246.13C814.715 1246.13 817.562 1246.13 820.343 1246.13C823.19 1246.13 825.971 1246.13 828.817 1246.13C1001.34 1245.87 1146.37 1196.22 1184.47 1160.83C1222.38 1131.65 1272.58 983.907 1272.32 803.559C1272.06 630.508 1223.74 483.802 1188.03 446.609Z" stroke="#FDFDFD" stroke-width="0.34" stroke-miterlimit="10"/>
<path d="M1156.79 476.956C1129.81 442.411 993.384 398.244 828.17 398.502C825.518 398.502 822.93 398.502 820.342 398.502C817.755 398.502 815.103 398.502 812.515 398.502C647.366 398.244 510.874 442.411 483.899 476.956C451.231 510.986 406.984 645.229 406.79 803.558C406.531 968.603 452.46 1103.75 487.198 1130.48C522.065 1162.9 654.74 1208.29 812.58 1208.55C815.167 1208.55 817.755 1208.55 820.342 1208.55C822.93 1208.55 825.518 1208.55 828.105 1208.55C986.009 1208.29 1118.68 1162.9 1153.49 1130.48C1188.16 1103.75 1234.09 968.603 1233.89 803.558C1233.64 645.229 1189.45 510.986 1156.79 476.956Z" stroke="#FDFDFD" stroke-width="0.37" stroke-miterlimit="10"/>
<path d="M1126.83 506.014C1102.25 474.503 977.984 434.34 827.519 434.534C825.126 434.534 822.733 434.534 820.339 434.534C817.946 434.534 815.552 434.534 813.159 434.534C662.694 434.34 538.363 474.503 513.846 506.014C484.089 537.008 443.788 659.307 443.594 803.559C443.4 953.945 485.189 1077.08 516.822 1101.36C548.584 1130.87 669.421 1172.26 813.288 1172.45C815.681 1172.45 818.01 1172.45 820.339 1172.45C822.668 1172.45 825.061 1172.45 827.39 1172.45C971.192 1172.26 1092.09 1130.87 1123.86 1101.36C1155.49 1077.02 1197.28 953.881 1197.08 803.559C1196.89 659.307 1156.59 537.008 1126.83 506.014Z" stroke="#FDFDFD" stroke-width="0.4" stroke-miterlimit="10"/>
<path d="M1100.31 531.777C1077.87 502.979 964.338 466.302 826.875 466.496C824.676 466.496 822.541 466.496 820.342 466.496C818.142 466.496 816.008 466.496 813.808 466.496C676.346 466.302 562.818 503.043 540.371 531.777C513.137 560.06 476.394 671.833 476.2 803.558C476.006 940.901 514.237 1053.38 543.088 1075.6C572.068 1102.59 682.491 1140.36 813.873 1140.56C816.008 1140.56 818.207 1140.56 820.342 1140.56C822.476 1140.56 824.676 1140.56 826.811 1140.56C958.192 1140.36 1068.62 1102.59 1097.6 1075.6C1126.45 1053.38 1164.68 940.901 1164.48 803.558C1164.29 671.833 1127.48 560.06 1100.31 531.777Z" stroke="#FDFDFD" stroke-width="0.43" stroke-miterlimit="10"/>
<path d="M1067.52 563.677C1047.72 538.3 947.455 505.885 826.164 506.015C824.224 506.015 822.348 506.015 820.407 506.015C818.466 506.015 816.59 506.015 814.65 506.015C693.359 505.821 593.092 538.236 573.298 563.677C549.298 588.666 516.825 687.266 516.631 803.559C516.437 924.824 550.204 1024.07 575.691 1043.7C601.308 1067.53 698.728 1100.85 814.714 1101.04C816.655 1101.04 818.531 1101.04 820.407 1101.04C822.283 1101.04 824.224 1101.04 826.1 1101.04C942.086 1100.85 1039.51 1067.53 1065.12 1043.7C1090.61 1024.07 1124.31 924.824 1124.18 803.559C1123.99 687.266 1091.52 588.666 1067.52 563.677Z" stroke="#FDFDFD" stroke-width="0.49" stroke-miterlimit="10"/>
<path d="M1036.6 593.637C1019.26 571.424 931.608 543.078 825.455 543.207C823.773 543.207 822.091 543.207 820.409 543.207C818.727 543.207 817.045 543.207 815.363 543.207C709.21 543.078 621.557 571.424 604.221 593.637C583.197 615.527 554.799 701.794 554.669 803.494C554.54 909.584 584.038 996.433 606.355 1013.61C628.738 1034.4 713.997 1063.65 815.493 1063.78C817.175 1063.78 818.856 1063.78 820.474 1063.78C822.155 1063.78 823.773 1063.78 825.455 1063.78C926.886 1063.65 1012.21 1034.47 1034.59 1013.61C1056.91 996.433 1086.41 909.584 1086.28 803.494C1086.15 701.729 1057.69 615.462 1036.73 593.637H1036.6Z" stroke="#FDFDFD" stroke-width="0.49" stroke-miterlimit="10"/>
</svg>
