<svg width="1010" height="1099" viewBox="0 0 1010 1099" fill="none" xmlns="http://www.w3.org/2000/svg">
<path d="M1151.04 107.278C1109.68 60.4509 900.463 0.692248 647.186 1.00119C643.181 1.00119 639.175 1.0011 635.17 1.04524C631.165 1.04524 627.16 1.00119 623.155 1.00119C369.878 0.692248 160.657 60.4509 119.304 107.278C69.1393 153.355 1.35176 335.191 1.0013 549.599C0.650851 773.142 71.0418 956.17 124.26 992.36C177.679 1036.23 381.142 1097.75 623.255 1098.06C627.26 1098.06 631.215 1098.06 635.17 1098.06C639.125 1098.06 643.081 1098.06 647.086 1098.06C889.198 1097.75 1092.66 1036.23 1146.08 992.36C1199.3 956.214 1269.69 773.142 1269.34 549.599C1268.99 335.191 1201.2 153.399 1151.09 107.322L1151.04 107.278Z" stroke="#FFC635" stroke-width="0.05" stroke-miterlimit="10"/>
<path d="M1130.26 125.109C1090.56 80.1794 889.801 22.8039 646.737 23.1128C642.882 23.1128 639.027 23.1129 635.172 23.157C631.317 23.157 627.462 23.1128 623.607 23.1128C380.543 22.8039 179.734 80.1352 140.083 125.109C91.9708 169.332 26.9368 343.797 26.5863 549.555C26.2359 764.05 93.8231 939.752 144.889 974.442C196.155 1016.55 391.407 1075.6 623.758 1075.86C627.562 1075.86 631.367 1075.86 635.172 1075.86C638.977 1075.86 642.782 1075.86 646.587 1075.86C878.937 1075.55 1074.19 1016.55 1125.46 974.442C1176.52 939.752 1244.11 764.05 1243.76 549.555C1243.41 343.797 1178.37 169.332 1130.26 125.109Z" stroke="#FFC635" stroke-width="0.08" stroke-miterlimit="10"/>
<path d="M1109.33 143.028C1071.33 99.9961 878.983 45.0481 646.182 45.357C642.478 45.357 638.823 45.3571 635.118 45.4012C631.463 45.4012 627.759 45.357 624.054 45.357C391.253 45.0481 198.955 99.9961 160.906 143.028C114.846 185.397 52.5157 352.492 52.2153 549.555C51.8648 755.003 116.598 923.289 165.512 956.523C214.625 996.862 401.667 1053.4 624.154 1053.66C627.809 1053.66 631.463 1053.66 635.118 1053.66C638.773 1053.66 642.428 1053.66 646.082 1053.66C868.62 1053.4 1055.61 996.818 1104.72 956.523C1153.64 923.289 1218.37 755.047 1218.02 549.555C1217.72 352.492 1155.39 185.353 1109.33 143.028Z" stroke="#FFC635" stroke-width="0.11" stroke-miterlimit="10"/>
<path d="M1088.46 160.946C1052.11 119.812 868.272 67.2913 645.735 67.6002C642.18 67.6002 638.675 67.6003 635.171 67.6444C631.666 67.6444 628.112 67.6002 624.607 67.6002C402.07 67.3354 218.232 119.812 181.886 160.946C137.829 201.417 78.2517 361.186 77.9513 549.554C77.6509 745.954 139.531 906.782 186.241 938.559C233.202 977.133 411.983 1031.15 624.707 1031.42C628.212 1031.42 631.716 1031.42 635.171 1031.42C638.675 1031.42 642.13 1031.42 645.634 1031.42C858.359 1031.15 1037.14 977.089 1084.1 938.559C1130.86 906.782 1192.74 745.954 1192.39 549.554C1192.09 361.142 1132.51 201.417 1088.46 160.946Z" stroke="#FFC635" stroke-width="0.11" stroke-miterlimit="10"/>
<path d="M1065.63 180.498C1031.13 141.439 856.506 91.5663 645.183 91.8311C641.829 91.8311 638.474 91.8312 635.12 91.8753C631.766 91.8753 628.411 91.8311 625.057 91.8311C413.734 91.5663 239.109 141.439 204.614 180.498C162.81 218.94 106.237 370.676 105.937 549.599C105.636 736.113 164.412 888.864 208.82 919.053C253.377 955.685 423.196 1007.01 625.207 1007.28C628.512 1007.28 631.866 1007.28 635.17 1007.28C638.474 1007.28 641.779 1007.28 645.133 1007.28C847.144 1007.01 1016.96 955.685 1061.52 919.053C1105.93 888.864 1164.7 736.113 1164.4 549.599C1164.1 370.676 1107.53 218.984 1065.73 180.498H1065.63Z" stroke="#FFC635" stroke-width="0.14" stroke-miterlimit="10"/>
<path d="M1041.99 200.756C1009.4 163.815 844.389 116.679 644.631 116.944C641.477 116.944 638.273 116.944 635.119 116.988C631.965 116.988 628.811 116.944 625.607 116.944C425.849 116.679 260.885 163.815 228.243 200.756C188.692 237.079 135.223 380.474 134.973 549.555C134.673 725.83 190.244 870.195 232.198 898.706C274.303 933.308 434.81 981.812 625.707 982.077C628.861 982.077 631.965 982.077 635.119 982.077C638.223 982.077 641.377 982.077 644.531 982.077C835.427 981.812 995.935 933.308 1038.04 898.706C1079.99 870.195 1135.51 725.83 1135.26 549.555C1134.96 380.474 1081.5 237.079 1041.99 200.756Z" stroke="#FFC635" stroke-width="0.2" stroke-miterlimit="10"/>
<path d="M1017.46 221.764C986.825 187.074 831.775 142.762 644.033 143.027C641.029 143.027 638.075 143.027 635.121 143.071C632.167 143.071 629.163 143.027 626.21 143.027C438.517 142.806 283.467 187.074 252.777 221.764C215.629 255.924 165.365 390.668 165.114 549.554C164.864 715.193 217.031 850.863 256.482 877.653C296.083 910.181 446.878 955.772 626.26 955.993C629.214 955.993 632.167 955.993 635.071 955.993C638.025 955.993 640.929 955.993 643.882 955.993C823.314 955.772 974.109 910.181 1013.66 877.653C1053.06 850.863 1105.28 715.193 1105.03 549.554C1104.78 390.668 1054.51 255.924 1017.36 221.764H1017.46Z" stroke="#FFC635" stroke-width="0.23" stroke-miterlimit="10"/>
<path d="M991.984 243.611C963.397 211.216 818.66 169.906 643.484 170.126C640.68 170.126 637.927 170.126 635.173 170.17C632.42 170.17 629.616 170.171 626.862 170.126C451.686 169.906 306.949 211.26 278.362 243.611C243.667 275.476 196.807 401.217 196.557 549.554C196.306 704.159 245.019 830.782 281.817 855.807C318.764 886.172 459.496 928.718 626.962 928.938C629.716 928.938 632.47 928.938 635.223 928.938C637.977 928.938 640.73 928.938 643.484 928.938C810.95 928.718 951.682 886.172 988.63 855.807C1025.43 830.782 1074.14 704.159 1073.89 549.554C1073.64 401.261 1026.73 275.476 992.084 243.611H991.984Z" stroke="#FFC635" stroke-width="0.23" stroke-miterlimit="10"/>
<path d="M967.699 264.442C941.015 234.254 806.141 195.724 642.88 195.945C640.277 195.945 637.723 195.945 635.12 195.945C632.517 195.945 629.963 195.945 627.36 195.945C464.099 195.724 329.225 234.254 302.541 264.442C270.249 294.145 226.542 411.367 226.292 549.554C226.042 693.654 271.45 811.671 305.745 834.974C340.189 863.265 471.359 902.898 627.41 903.119C629.963 903.119 632.517 903.119 635.07 903.119C637.623 903.119 640.177 903.119 642.73 903.119C798.781 902.898 929.951 863.265 964.395 834.974C998.689 811.671 1044.1 693.654 1043.85 549.554C1043.6 411.323 999.891 294.145 967.599 264.442H967.699Z" stroke="#FFC635" stroke-width="0.25" stroke-miterlimit="10"/>
<path d="M944.921 283.995C920.089 255.881 794.477 219.999 642.381 220.175C639.978 220.175 637.574 220.175 635.171 220.175C632.768 220.175 630.365 220.175 627.962 220.175C475.866 219.999 350.253 255.881 325.421 283.995C295.333 311.667 254.63 420.813 254.38 549.599C254.179 683.813 296.434 793.753 328.375 815.468C360.467 841.816 482.624 878.757 628.012 878.934C630.415 878.934 632.768 878.934 635.171 878.934C637.574 878.934 639.928 878.934 642.331 878.934C787.718 878.757 909.876 841.816 941.968 815.468C973.909 793.753 1016.21 683.813 1015.96 549.599C1015.76 420.857 975.06 311.667 944.921 283.995Z" stroke="#FFC635" stroke-width="0.31" stroke-miterlimit="10"/>
<path d="M919.687 305.576C896.858 279.757 781.459 246.788 641.779 246.965C639.576 246.965 637.323 246.965 635.12 246.965C632.917 246.965 630.714 246.965 628.461 246.965C488.781 246.788 373.332 279.757 350.552 305.576C322.917 330.998 285.518 431.272 285.318 549.554C285.118 672.867 323.968 773.803 353.306 793.752C382.794 817.938 494.989 851.878 628.561 852.055C630.764 852.055 632.967 852.055 635.12 852.055C637.323 852.055 639.476 852.055 641.678 852.055C775.201 851.878 887.446 817.938 916.934 793.752C946.272 773.803 985.122 672.823 984.922 549.554C984.721 431.272 947.323 330.998 919.687 305.576Z" stroke="#FFC635" stroke-width="0.34" stroke-miterlimit="10"/>
<path d="M895.508 326.32C874.631 302.708 769.045 272.519 641.18 272.696C639.127 272.696 637.124 272.696 635.122 272.696C633.119 272.696 631.067 272.696 629.064 272.696C501.249 272.519 395.612 302.708 374.736 326.32C349.453 349.579 315.209 441.336 315.058 549.554C314.858 662.363 350.404 754.738 377.289 773.01C404.274 795.165 506.956 826.192 629.114 826.369C631.117 826.369 633.119 826.369 635.122 826.369C637.124 826.369 639.127 826.369 641.13 826.369C763.337 826.192 866.02 795.165 892.955 773.01C919.789 754.738 955.335 662.363 955.185 549.554C954.985 441.336 920.791 349.579 895.508 326.32Z" stroke="#FFC635" stroke-width="0.37" stroke-miterlimit="10"/>
<path d="M872.325 346.181C853.301 324.643 757.127 297.191 640.676 297.323C638.824 297.323 636.971 297.323 635.119 297.323C633.267 297.323 631.414 297.323 629.562 297.323C513.112 297.191 416.887 324.643 397.913 346.181C374.883 367.365 343.693 450.957 343.543 549.555C343.392 652.345 375.734 736.51 400.216 753.105C424.797 773.275 518.318 801.565 629.662 801.697C631.514 801.697 633.317 801.697 635.119 801.697C636.921 801.697 638.774 801.697 640.576 801.697C751.87 801.565 845.441 773.275 870.022 753.105C894.504 736.466 926.846 652.301 926.696 549.555C926.545 450.957 895.355 367.365 872.325 346.181Z" stroke="#FFC635" stroke-width="0.4" stroke-miterlimit="10"/>
<path d="M851.799 363.79C834.426 344.106 746.563 319.037 640.175 319.17C638.473 319.17 636.821 319.17 635.119 319.17C633.417 319.17 631.765 319.17 630.062 319.17C523.675 319.037 435.812 344.15 418.439 363.79C397.362 383.121 368.925 459.519 368.775 549.554C368.625 643.429 398.213 720.312 420.542 735.495C442.971 753.943 528.431 779.762 630.113 779.894C631.765 779.894 633.467 779.894 635.119 779.894C636.771 779.894 638.473 779.894 640.125 779.894C741.807 779.762 827.267 753.943 849.696 735.495C872.025 720.312 901.613 643.429 901.463 549.554C901.313 459.519 872.826 383.121 851.799 363.79Z" stroke="#FFC635" stroke-width="0.43" stroke-miterlimit="10"/>
<path d="M826.417 385.593C811.097 368.248 733.497 346.092 639.625 346.181C638.124 346.181 636.672 346.181 635.17 346.181C633.668 346.181 632.216 346.181 630.714 346.181C536.843 346.048 459.243 368.204 443.923 385.593C425.349 402.673 400.216 470.068 400.066 549.555C399.916 632.44 426.05 700.275 445.775 713.692C465.601 729.978 540.998 752.752 630.764 752.884C632.266 752.884 633.718 752.884 635.17 752.884C636.622 752.884 638.124 752.884 639.575 752.884C729.341 752.752 804.739 729.978 824.564 713.692C844.29 700.275 870.373 632.44 870.273 549.555C870.123 470.068 844.991 402.673 826.417 385.593Z" stroke="#FFC635" stroke-width="0.46" stroke-miterlimit="10"/>
<path d="M802.485 406.072C789.068 390.889 721.23 371.514 639.074 371.602C637.772 371.602 636.471 371.602 635.169 371.602C633.867 371.602 632.566 371.602 631.264 371.602C549.108 371.514 481.27 390.889 467.853 406.072C451.582 421.033 429.603 479.998 429.503 549.51C429.403 622.024 452.233 681.386 469.505 693.125C486.827 707.337 552.813 727.33 631.364 727.418C632.666 727.418 633.967 727.418 635.219 727.418C636.521 727.418 637.772 727.418 639.074 727.418C717.575 727.33 783.611 707.381 800.933 693.125C818.205 681.386 841.035 622.024 840.935 549.51C840.835 479.954 818.806 420.989 802.585 406.072H802.485Z" stroke="#FFC635" stroke-width="0.49" stroke-miterlimit="10"/>
</svg>
