<svg width="698" height="905" viewBox="0 0 698 905" fill="none" xmlns="http://www.w3.org/2000/svg">
<path d="M610.907 87.5906C580.814 49.0049 428.559 -0.236376 244.244 0.0181949C241.329 0.0181949 238.415 0.0181195 235.5 0.0544868C232.585 0.0544868 229.671 0.0181949 226.756 0.0181949C42.4406 -0.236376 -109.814 49.0049 -139.907 87.5906C-176.414 125.558 -225.744 275.391 -225.999 452.064C-226.254 636.264 -175.029 787.079 -136.301 816.9C-97.4264 853.049 50.6381 903.745 226.829 904C229.744 904 232.622 904 235.5 904C238.378 904 241.256 904 244.171 904C420.362 903.745 568.426 853.049 607.301 816.9C646.029 787.116 697.254 636.264 696.999 452.064C696.744 275.391 647.414 125.594 610.944 87.627L610.907 87.5906Z" stroke="#FDFDFD" stroke-width="0.05" stroke-miterlimit="10"/>
<path d="M595.786 102.283C566.895 65.2614 420.798 17.9839 243.914 18.2385C241.109 18.2385 238.304 18.2385 235.498 18.2749C232.693 18.2749 229.888 18.2385 227.082 18.2385C50.1993 17.9839 -95.9342 65.2251 -124.789 102.283C-159.802 138.723 -207.128 282.483 -207.383 452.028C-207.638 628.773 -158.454 773.551 -121.292 802.136C-83.9841 836.83 58.1053 885.49 227.192 885.708C229.961 885.708 232.73 885.708 235.498 885.708C238.267 885.708 241.036 885.708 243.805 885.708C412.892 885.453 554.981 836.83 592.289 802.136C629.45 773.551 678.635 628.773 678.38 452.028C678.125 282.483 630.798 138.723 595.786 102.283Z" stroke="#FDFDFD" stroke-width="0.08" stroke-miterlimit="10"/>
<path d="M580.559 117.048C552.906 81.59 412.93 36.3127 243.515 36.5672C240.819 36.5672 238.16 36.5673 235.464 36.6036C232.804 36.6036 230.108 36.5672 227.412 36.5672C57.9975 36.3127 -81.9423 81.59 -109.632 117.048C-143.15 151.961 -188.509 289.647 -188.728 452.027C-188.983 621.317 -141.875 759.985 -106.28 787.37C-70.5387 820.61 65.5756 867.196 227.485 867.414C230.144 867.414 232.804 867.414 235.464 867.414C238.123 867.414 240.783 867.414 243.442 867.414C405.388 867.196 541.466 820.573 577.207 787.37C612.802 759.985 659.91 621.353 659.655 452.027C659.436 289.647 614.077 151.924 580.559 117.048Z" stroke="#FDFDFD" stroke-width="0.11" stroke-miterlimit="10"/>
<path d="M565.367 131.814C538.916 97.9192 405.133 54.6422 243.188 54.8967C240.601 54.8967 238.051 54.8968 235.501 54.9332C232.95 54.9332 230.363 54.8967 227.813 54.8967C65.8677 54.6785 -67.9149 97.9192 -94.3654 131.814C-126.427 165.162 -169.782 296.812 -170.001 452.028C-170.219 613.862 -125.188 746.384 -91.1957 772.569C-57.0214 804.354 73.0815 848.868 227.886 849.086C230.436 849.086 232.987 849.086 235.501 849.086C238.051 849.086 240.565 849.086 243.115 849.086C397.92 848.868 528.022 804.318 562.197 772.569C596.225 746.384 641.257 613.862 641.002 452.028C640.783 296.776 597.428 165.162 565.367 131.814Z" stroke="#FDFDFD" stroke-width="0.11" stroke-miterlimit="10"/>
<path d="M548.753 147.924C523.65 115.739 396.571 74.6441 242.787 74.8623C240.346 74.8623 237.905 74.8624 235.464 74.8987C233.023 74.8987 230.582 74.8623 228.141 74.8623C74.3563 74.6441 -52.7227 115.739 -77.8251 147.924C-108.247 179.6 -149.416 304.631 -149.635 452.064C-149.854 605.752 -107.081 731.619 -74.7647 756.494C-42.3392 786.679 81.2422 828.975 228.25 829.193C230.655 829.193 233.096 829.193 235.5 829.193C237.905 829.193 240.309 829.193 242.75 829.193C389.758 828.975 513.34 786.679 545.765 756.494C578.081 731.619 620.854 605.752 620.635 452.064C620.417 304.631 579.247 179.636 548.826 147.924H548.753Z" stroke="#FDFDFD" stroke-width="0.14" stroke-miterlimit="10"/>
<path d="M531.559 164.617C507.841 134.177 387.758 95.3369 242.389 95.5551C240.094 95.5551 237.762 95.5552 235.467 95.5915C233.172 95.5915 230.876 95.5551 228.545 95.5551C83.1762 95.3369 -36.8711 134.177 -60.6256 164.617C-89.4078 194.547 -128.318 312.704 -128.501 452.027C-128.719 597.278 -88.2783 716.236 -57.7473 739.729C-27.107 768.241 89.6977 808.209 228.617 808.427C230.913 808.427 233.172 808.427 235.467 808.427C237.726 808.427 240.021 808.427 242.316 808.427C381.236 808.209 498.041 768.241 528.681 739.729C559.212 716.236 599.617 597.278 599.434 452.027C599.216 312.704 560.305 194.547 531.559 164.617Z" stroke="#FDFDFD" stroke-width="0.2" stroke-miterlimit="10"/>
<path d="M513.704 181.927C491.407 153.343 378.573 116.83 241.949 117.048C239.763 117.048 237.613 117.048 235.464 117.084C233.314 117.084 231.128 117.048 228.978 117.048C92.3904 116.866 -20.4431 153.343 -42.7766 181.927C-69.81 210.076 -106.389 321.105 -106.571 452.027C-106.753 588.514 -68.7899 700.307 -40.0806 722.382C-11.2619 749.184 98.4748 786.752 229.015 786.934C231.164 786.934 233.314 786.934 235.427 786.934C237.577 786.934 239.69 786.934 241.839 786.934C372.416 786.752 482.153 749.184 510.935 722.382C539.608 700.307 577.608 588.514 577.425 452.027C577.243 321.105 540.664 210.076 513.631 181.927H513.704Z" stroke="#FDFDFD" stroke-width="0.23" stroke-miterlimit="10"/>
<path d="M495.159 199.929C474.355 173.235 369.027 139.196 241.547 139.377C239.507 139.377 237.503 139.377 235.499 139.414C233.496 139.414 231.455 139.414 229.452 139.377C101.972 139.196 -3.35651 173.272 -24.1599 199.929C-49.4081 226.186 -83.5095 329.797 -83.6917 452.027C-83.8738 579.422 -48.4244 683.759 -21.646 704.38C5.24172 729.4 107.655 764.459 229.524 764.64C231.528 764.64 233.532 764.64 235.536 764.64C237.54 764.64 239.544 764.64 241.547 764.64C363.416 764.459 465.83 729.4 492.718 704.38C519.496 683.759 554.946 579.422 554.763 452.027C554.581 329.833 520.443 226.186 495.232 199.929H495.159Z" stroke="#FDFDFD" stroke-width="0.23" stroke-miterlimit="10"/>
<path d="M477.489 217.095C458.07 192.22 359.92 160.471 241.111 160.653C239.216 160.653 237.358 160.653 235.464 160.653C233.569 160.653 231.711 160.653 229.817 160.653C111.008 160.471 12.8571 192.22 -6.56181 217.095C-30.0612 241.57 -61.8674 338.162 -62.0495 452.028C-62.2317 570.767 -29.1868 668.013 -4.23009 687.215C20.8359 710.526 116.291 743.184 229.853 743.366C231.711 743.366 233.569 743.366 235.427 743.366C237.285 743.366 239.144 743.366 241.002 743.366C354.564 743.184 450.019 710.526 475.085 687.215C500.041 668.013 533.086 570.767 532.904 452.028C532.722 338.125 500.916 241.57 477.417 217.095H477.489Z" stroke="#FDFDFD" stroke-width="0.25" stroke-miterlimit="10"/>
<path d="M460.913 233.206C442.842 210.04 351.431 180.473 240.747 180.619C238.998 180.619 237.25 180.619 235.501 180.619C233.752 180.619 232.003 180.619 230.255 180.619C119.571 180.473 28.1597 210.04 10.0888 233.206C-11.8075 256.008 -41.4277 345.944 -41.6098 452.064C-41.7556 562.657 -11.006 653.248 12.2384 671.141C35.5921 692.852 124.489 723.291 230.291 723.437C232.04 723.437 233.752 723.437 235.501 723.437C237.25 723.437 238.962 723.437 240.711 723.437C346.513 723.291 435.41 692.852 458.763 671.141C482.008 653.248 512.794 562.657 512.612 452.064C512.466 345.981 482.846 256.008 460.913 233.206Z" stroke="#FDFDFD" stroke-width="0.31" stroke-miterlimit="10"/>
<path d="M442.549 250.989C425.936 229.714 341.957 202.548 240.309 202.693C238.706 202.693 237.066 202.693 235.463 202.693C233.86 202.693 232.257 202.693 230.617 202.693C128.969 202.548 44.9539 229.714 28.3768 250.989C8.26568 271.936 -18.9499 354.563 -19.0956 452.027C-19.2414 553.638 9.03079 636.81 30.3806 653.248C51.8398 673.177 133.486 701.143 230.69 701.289C232.293 701.289 233.896 701.289 235.463 701.289C237.066 701.289 238.633 701.289 240.236 701.289C337.403 701.143 419.086 673.177 440.545 653.248C461.895 636.81 490.167 553.601 490.022 452.027C489.876 354.563 462.66 271.936 442.549 250.989Z" stroke="#FDFDFD" stroke-width="0.34" stroke-miterlimit="10"/>
<path d="M424.952 268.081C409.76 248.625 332.922 223.75 239.872 223.895C238.378 223.895 236.921 223.895 235.463 223.895C234.006 223.895 232.512 223.895 231.055 223.895C138.041 223.75 61.167 248.625 45.9744 268.081C27.5756 287.247 2.65532 362.855 2.54602 452.027C2.40029 544.982 28.2679 621.099 47.8325 636.155C67.47 654.411 142.194 679.977 231.091 680.123C232.549 680.123 234.006 680.123 235.463 680.123C236.921 680.123 238.378 680.123 239.835 680.123C328.769 679.977 403.493 654.411 423.094 636.155C442.622 621.099 468.49 544.982 468.381 452.027C468.235 362.855 443.351 287.247 424.952 268.081Z" stroke="#FDFDFD" stroke-width="0.37" stroke-miterlimit="10"/>
<path d="M408.081 284.447C394.237 266.7 324.249 244.079 239.505 244.188C238.157 244.188 236.809 244.188 235.461 244.188C234.113 244.188 232.765 244.188 231.417 244.188C146.673 244.079 76.6489 266.7 62.8407 284.447C46.0815 301.903 23.3836 370.783 23.2743 452.028C23.165 536.727 46.7008 606.079 64.5167 619.753C82.4053 636.373 150.463 659.685 231.49 659.794C232.838 659.794 234.15 659.794 235.461 659.794C236.773 659.794 238.121 659.794 239.432 659.794C320.423 659.685 388.517 636.373 406.406 619.753C424.221 606.043 447.757 536.691 447.648 452.028C447.539 370.783 424.841 301.903 408.081 284.447Z" stroke="#FDFDFD" stroke-width="0.4" stroke-miterlimit="10"/>
<path d="M393.146 298.957C380.504 282.737 316.563 262.081 239.143 262.19C237.904 262.19 236.702 262.19 235.463 262.19C234.224 262.19 233.022 262.19 231.783 262.19C154.363 262.081 90.4226 282.773 77.7803 298.957C62.4419 314.886 41.7479 377.838 41.6386 452.027C41.5293 529.38 63.0613 592.732 79.3105 605.242C95.6326 620.444 157.824 641.719 231.82 641.828C233.022 641.828 234.261 641.828 235.463 641.828C236.665 641.828 237.904 641.828 239.106 641.828C313.102 641.719 375.294 620.444 391.616 605.242C407.865 592.732 429.397 529.38 429.288 452.027C429.178 377.838 408.448 314.886 393.146 298.957Z" stroke="#FDFDFD" stroke-width="0.43" stroke-miterlimit="10"/>
<path d="M374.674 316.923C363.526 302.631 307.054 284.374 238.742 284.447C237.649 284.447 236.592 284.447 235.499 284.447C234.406 284.447 233.35 284.447 232.257 284.447C163.945 284.338 107.473 302.594 96.3246 316.923C82.8079 330.997 64.5185 386.53 64.4092 452.028C64.2999 520.325 83.318 576.222 97.6726 587.277C112.1 600.697 166.969 619.462 232.293 619.572C233.386 619.572 234.443 619.572 235.499 619.572C236.556 619.572 237.649 619.572 238.706 619.572C304.03 619.462 358.899 600.697 373.326 587.277C387.681 576.222 406.663 520.325 406.59 452.028C406.48 386.53 388.191 330.997 374.674 316.923Z" stroke="#FDFDFD" stroke-width="0.49" stroke-miterlimit="10"/>
<path d="M357.26 333.797C347.496 321.287 298.129 305.322 238.342 305.394C237.395 305.394 236.448 305.394 235.5 305.394C234.553 305.394 233.606 305.394 232.658 305.394C172.872 305.322 123.505 321.287 113.741 333.797C101.9 346.126 85.9056 394.712 85.8328 451.991C85.7599 511.742 102.373 560.656 114.943 570.33C127.549 582.04 175.568 598.515 232.731 598.587C233.679 598.587 234.626 598.587 235.537 598.587C236.484 598.587 237.395 598.587 238.342 598.587C295.469 598.515 343.525 582.077 356.131 570.33C368.7 560.656 385.314 511.742 385.241 451.991C385.168 394.676 369.137 346.089 357.333 333.797H357.26Z" stroke="#FDFDFD" stroke-width="0.49" stroke-miterlimit="10"/>
</svg>
