<svg width="1920" height="1847" viewBox="0 0 1920 1847" fill="none" xmlns="http://www.w3.org/2000/svg">
<path d="M1834.44 179.406C1764.31 100.63 1409.47 0.0984232 979.92 0.618157C973.127 0.618157 966.335 0.618003 959.542 0.69225C952.749 0.69225 945.956 0.618157 939.164 0.618157C509.61 0.0984232 154.776 100.63 84.6417 179.406C-0.436944 256.921 -115.403 562.821 -115.998 923.516C-116.592 1299.58 2.78961 1607.49 93.0477 1668.37C183.645 1742.17 528.715 1845.67 939.334 1846.19C946.126 1846.19 952.834 1846.19 959.542 1846.19C966.25 1846.19 972.957 1846.19 979.75 1846.19C1390.37 1845.67 1735.44 1742.17 1826.04 1668.37C1916.29 1607.56 2035.68 1299.58 2035.08 923.516C2034.49 562.821 1919.52 256.995 1834.53 179.481L1834.44 179.406Z" stroke="#FFC635" stroke-opacity="0.2" stroke-width="0.05" stroke-miterlimit="10"/>
<path d="M1799.21 209.403C1731.88 133.819 1391.39 37.297 979.159 37.8167C972.621 37.8167 966.083 37.8168 959.545 37.891C953.007 37.891 946.469 37.8167 939.931 37.8167C527.699 37.297 187.13 133.745 119.882 209.403C38.2848 283.799 -72.0117 577.3 -72.6061 923.443C-73.2005 1284.29 41.4264 1579.87 128.033 1638.22C214.98 1709.06 546.124 1808.4 940.186 1808.85C946.639 1808.85 953.092 1808.85 959.545 1808.85C965.998 1808.85 972.451 1808.85 978.904 1808.85C1372.97 1808.33 1704.11 1709.06 1791.06 1638.22C1877.66 1579.87 1992.29 1284.29 1991.7 923.443C1991.1 577.3 1880.81 283.799 1799.21 209.403Z" stroke="#FFC635" stroke-opacity="0.2" stroke-width="0.08" stroke-miterlimit="10"/>
<path d="M1763.71 239.547C1699.26 167.155 1373.04 74.7168 978.217 75.2365C971.933 75.2365 965.735 75.2366 959.452 75.3108C953.254 75.3108 946.97 75.2365 940.687 75.2365C545.861 74.7168 219.726 167.155 155.196 239.547C77.0797 310.824 -28.6317 591.926 -29.1412 923.442C-29.7355 1269.06 80.0516 1552.17 163.007 1608.08C246.303 1675.94 563.522 1771.05 940.857 1771.5C947.055 1771.5 953.254 1771.5 959.452 1771.5C965.65 1771.5 971.849 1771.5 978.047 1771.5C1355.47 1771.05 1672.6 1675.87 1755.9 1608.08C1838.85 1552.17 1948.64 1269.14 1948.04 923.442C1947.54 591.926 1841.82 310.75 1763.71 239.547Z" stroke="#FFC635" stroke-opacity="0.2" stroke-width="0.11" stroke-miterlimit="10"/>
<path d="M1728.31 269.692C1666.66 200.493 1354.88 112.138 977.459 112.658C971.431 112.658 965.487 112.658 959.544 112.732C953.6 112.732 947.571 112.658 941.628 112.658C564.208 112.213 252.423 200.493 190.779 269.692C116.06 337.777 15.0181 606.554 14.5087 923.443C13.9992 1253.84 118.947 1524.4 198.166 1577.86C277.811 1642.75 581.02 1733.63 941.798 1734.08C947.741 1734.08 953.685 1734.08 959.544 1734.08C965.487 1734.08 971.346 1734.08 977.289 1734.08C1338.07 1733.63 1641.28 1642.68 1720.92 1577.86C1800.23 1524.4 1905.17 1253.84 1904.58 923.443C1904.07 606.479 1803.03 337.777 1728.31 269.692Z" stroke="#FFC635" stroke-opacity="0.2" stroke-width="0.11" stroke-miterlimit="10"/>
<path d="M1689.59 302.584C1631.09 236.874 1334.92 152.975 976.523 153.42C970.834 153.42 965.146 153.42 959.457 153.494C953.768 153.494 948.079 153.42 942.39 153.42C583.99 152.975 287.828 236.874 229.326 302.584C158.427 367.253 62.4801 622.517 61.9707 923.517C61.4612 1237.29 161.144 1494.26 236.458 1545.04C312.027 1606.67 600.038 1693.02 942.645 1693.47C948.249 1693.47 953.938 1693.47 959.542 1693.47C965.145 1693.47 970.75 1693.47 976.438 1693.47C1319.05 1693.02 1607.06 1606.67 1682.62 1545.04C1757.94 1494.26 1857.62 1237.29 1857.11 923.517C1856.6 622.517 1760.66 367.328 1689.76 302.584H1689.59Z" stroke="#FFC635" stroke-opacity="0.2" stroke-width="0.14" stroke-miterlimit="10"/>
<path d="M1649.51 336.663C1594.23 274.517 1314.37 195.221 975.585 195.666C970.236 195.666 964.802 195.666 959.453 195.741C954.104 195.741 948.754 195.666 943.32 195.666C604.534 195.221 324.76 274.517 269.399 336.663C202.321 397.768 111.639 638.999 111.214 923.442C110.705 1219.99 204.953 1462.85 276.107 1510.82C347.515 1569.03 619.733 1650.62 943.49 1651.07C948.839 1651.07 954.104 1651.07 959.453 1651.07C964.717 1651.07 970.066 1651.07 975.416 1651.07C1299.17 1650.62 1571.39 1569.03 1642.8 1510.82C1713.95 1462.85 1808.12 1219.99 1807.69 923.442C1807.18 638.999 1716.5 397.768 1649.51 336.663Z" stroke="#FFC635" stroke-opacity="0.2" stroke-width="0.2" stroke-miterlimit="10"/>
<path d="M1607.91 372.005C1555.94 313.646 1292.98 239.102 974.572 239.547C969.477 239.547 964.468 239.547 959.458 239.621C954.449 239.621 949.354 239.547 944.344 239.547C626.021 239.176 363.059 313.646 311.01 372.005C248.008 429.473 162.759 656.151 162.335 923.442C161.91 1202.09 250.385 1430.33 317.293 1475.4C384.456 1530.12 640.201 1606.82 944.429 1607.19C949.439 1607.19 954.449 1607.19 959.373 1607.19C964.383 1607.19 969.308 1607.19 974.317 1607.19C1278.63 1606.82 1534.38 1530.12 1601.45 1475.4C1668.28 1430.33 1756.84 1202.09 1756.41 923.442C1755.99 656.151 1670.74 429.473 1607.74 372.005H1607.91Z" stroke="#FFC635" stroke-opacity="0.2" stroke-width="0.23" stroke-miterlimit="10"/>
<path d="M1564.69 408.758C1516.21 354.26 1270.73 284.764 973.639 285.135C968.884 285.135 964.214 285.135 959.544 285.209C954.874 285.209 950.119 285.21 945.449 285.135C648.353 284.764 402.882 354.334 354.399 408.758C295.557 462.364 216.082 673.896 215.658 923.442C215.233 1183.53 297.85 1396.55 360.258 1438.65C422.92 1489.73 661.599 1561.3 945.619 1561.68C950.289 1561.68 954.959 1561.68 959.629 1561.68C964.299 1561.68 968.969 1561.68 973.639 1561.68C1257.66 1561.3 1496.34 1489.73 1559 1438.65C1621.41 1396.55 1704.02 1183.53 1703.6 923.442C1703.17 673.97 1623.62 462.364 1564.86 408.758H1564.69Z" stroke="#FFC635" stroke-opacity="0.2" stroke-width="0.23" stroke-miterlimit="10"/>
<path d="M1523.51 443.803C1478.25 393.017 1249.51 328.199 972.618 328.57C968.202 328.57 963.872 328.57 959.457 328.57C955.041 328.57 950.711 328.57 946.296 328.57C669.408 328.199 440.664 393.017 395.408 443.803C340.642 493.771 266.516 690.973 266.092 923.443C265.667 1165.86 342.679 1364.4 400.842 1403.6C459.259 1451.19 681.72 1517.87 946.381 1518.24C950.711 1518.24 955.041 1518.24 959.372 1518.24C963.702 1518.24 968.032 1518.24 972.363 1518.24C1237.02 1517.87 1459.48 1451.19 1517.9 1403.6C1576.06 1364.4 1653.08 1165.86 1652.65 923.443C1652.23 690.899 1578.1 493.771 1523.34 443.803H1523.51Z" stroke="#FFC635" stroke-opacity="0.2" stroke-width="0.25" stroke-miterlimit="10"/>
<path d="M1484.87 476.694C1442.76 429.398 1229.72 369.035 971.771 369.332C967.695 369.332 963.62 369.332 959.544 369.332C955.468 369.332 951.393 369.332 947.317 369.332C689.364 369.035 476.328 429.398 434.213 476.694C383.183 523.247 314.152 706.862 313.728 923.516C313.388 1149.3 385.051 1334.25 439.223 1370.78C493.649 1415.11 700.827 1477.26 947.402 1477.55C951.478 1477.55 955.468 1477.55 959.544 1477.55C963.62 1477.55 967.61 1477.55 971.686 1477.55C1218.26 1477.26 1425.44 1415.11 1479.87 1370.78C1534.04 1334.25 1605.78 1149.3 1605.36 923.516C1605.02 706.936 1535.99 523.247 1484.87 476.694Z" stroke="#FFC635" stroke-opacity="0.2" stroke-width="0.31" stroke-miterlimit="10"/>
<path d="M1442.08 513.001C1403.36 469.566 1207.64 414.103 970.747 414.4C967.011 414.4 963.19 414.4 959.454 414.4C955.718 414.4 951.982 414.4 948.162 414.4C711.266 414.103 515.466 469.566 476.833 513.001C429.963 555.768 366.536 724.459 366.197 923.443C365.857 1130.89 431.746 1300.69 481.503 1334.25C531.514 1374.94 721.795 1432.04 948.331 1432.34C952.067 1432.34 955.803 1432.34 959.454 1432.34C963.19 1432.34 966.841 1432.34 970.577 1432.34C1197.03 1432.04 1387.39 1374.94 1437.41 1334.25C1487.16 1300.69 1553.05 1130.82 1552.71 923.443C1552.37 724.459 1488.95 555.768 1442.08 513.001Z" stroke="#FFC635" stroke-opacity="0.2" stroke-width="0.34" stroke-miterlimit="10"/>
<path d="M1401.07 547.897C1365.66 508.175 1186.59 457.39 969.732 457.687C966.251 457.687 962.854 457.687 959.458 457.687C956.062 457.687 952.58 457.687 949.184 457.687C732.412 457.39 553.254 508.175 517.847 547.897C474.969 587.026 416.891 741.387 416.636 923.442C416.297 1113.22 476.582 1268.62 522.178 1299.36C567.944 1336.63 742.092 1388.83 949.269 1389.12C952.665 1389.12 956.062 1389.12 959.458 1389.12C962.854 1389.12 966.251 1389.12 969.647 1389.12C1176.91 1388.83 1351.06 1336.63 1396.74 1299.36C1442.25 1268.62 1502.53 1113.22 1502.28 923.442C1501.94 741.387 1443.95 587.026 1401.07 547.897Z" stroke="#FFC635" stroke-opacity="0.2" stroke-width="0.37" stroke-miterlimit="10"/>
<path d="M1361.75 581.309C1329.49 545.076 1166.38 498.894 968.882 499.117C965.74 499.117 962.599 499.117 959.457 499.117C956.315 499.117 953.174 499.117 950.032 499.117C752.534 498.894 589.34 545.076 557.159 581.309C518.101 616.948 465.203 757.573 464.948 923.442C464.693 1096.37 519.544 1237.96 561.065 1265.87C602.755 1299.8 761.365 1347.4 950.202 1347.62C953.344 1347.62 956.4 1347.62 959.457 1347.62C962.514 1347.62 965.655 1347.62 968.712 1347.62C1157.46 1347.4 1316.16 1299.8 1357.85 1265.87C1399.37 1237.88 1454.22 1096.29 1453.97 923.442C1453.71 757.573 1400.81 616.948 1361.75 581.309Z" stroke="#FFC635" stroke-opacity="0.2" stroke-width="0.4" stroke-miterlimit="10"/>
<path d="M1326.94 610.934C1297.48 577.819 1148.46 535.647 968.032 535.869C965.145 535.869 962.343 535.869 959.456 535.869C956.569 535.869 953.767 535.869 950.88 535.869C770.449 535.647 621.434 577.893 591.971 610.934C556.224 643.454 507.996 771.977 507.741 923.442C507.486 1081.37 557.668 1210.71 595.537 1236.25C633.576 1267.28 778.515 1310.72 950.965 1310.94C953.767 1310.94 956.654 1310.94 959.456 1310.94C962.258 1310.94 965.145 1310.94 967.947 1310.94C1140.4 1310.72 1285.34 1267.28 1323.38 1236.25C1361.24 1210.71 1411.43 1081.37 1411.17 923.442C1410.92 771.977 1362.6 643.454 1326.94 610.934Z" stroke="#FFC635" stroke-opacity="0.2" stroke-width="0.43" stroke-miterlimit="10"/>
<path d="M1283.89 647.613C1257.91 618.433 1126.3 581.161 967.097 581.31C964.55 581.31 962.088 581.31 959.54 581.31C956.993 581.31 954.531 581.31 951.984 581.31C792.78 581.087 661.171 618.359 635.189 647.613C603.688 676.347 561.063 789.723 560.809 923.443C560.554 1062.88 604.876 1177 638.33 1199.57C671.954 1226.97 799.827 1265.28 952.068 1265.5C954.616 1265.5 957.078 1265.5 959.54 1265.5C962.003 1265.5 964.55 1265.5 967.012 1265.5C1119.25 1265.28 1247.13 1226.97 1280.75 1199.57C1314.2 1177 1358.44 1062.88 1358.27 923.443C1358.02 789.723 1315.39 676.347 1283.89 647.613Z" stroke="#FFC635" stroke-opacity="0.2" stroke-width="0.46" stroke-miterlimit="10"/>
<path d="M1243.3 682.063C1220.55 656.522 1105.5 623.927 966.162 624.075C963.954 624.075 961.747 624.075 959.539 624.075C957.332 624.075 955.124 624.075 952.916 624.075C813.581 623.927 698.53 656.522 675.774 682.063C648.179 707.233 610.904 806.428 610.734 923.368C610.564 1045.36 649.283 1145.22 678.576 1164.97C707.955 1188.88 819.864 1222.51 953.086 1222.66C955.294 1222.66 957.501 1222.66 959.624 1222.66C961.832 1222.66 963.954 1222.66 966.162 1222.66C1099.3 1222.51 1211.29 1188.95 1240.67 1164.97C1269.97 1145.22 1308.68 1045.36 1308.51 923.368C1308.34 806.353 1270.98 707.159 1243.47 682.063H1243.3Z" stroke="#FFC635" stroke-opacity="0.2" stroke-width="0.49" stroke-miterlimit="10"/>
</svg>
