<svg width="255" height="250" viewBox="0 0 255 250" fill="none" xmlns="http://www.w3.org/2000/svg">
<path d="M230.71 25.0803C222.45 14.4703 180.66 0.93027 130.07 1.00027C129.27 1.00027 128.47 1.00025 127.67 1.01025C126.87 1.01025 126.07 1.00027 125.27 1.00027C74.6803 0.93027 32.8903 14.4703 24.6303 25.0803C14.6103 35.5203 1.07026 76.7203 1.00026 125.3C0.93026 175.95 14.9903 217.42 25.6203 225.62C36.2903 235.56 76.9303 249.5 125.29 249.57C126.09 249.57 126.88 249.57 127.67 249.57C128.46 249.57 129.25 249.57 130.05 249.57C178.41 249.5 219.05 235.56 229.72 225.62C240.35 217.43 254.41 175.95 254.34 125.3C254.27 76.7203 240.73 35.5303 230.72 25.0903L230.71 25.0803Z" stroke="#FFC635" stroke-width="0.05" stroke-miterlimit="10"/>
<path d="M226.56 29.1201C218.63 18.9401 178.53 5.94005 129.98 6.01005C129.21 6.01005 128.44 6.01006 127.67 6.02006C126.9 6.02006 126.13 6.01005 125.36 6.01005C76.8097 5.94005 36.6996 18.9301 28.7796 29.1201C19.1696 39.1401 6.17965 78.6701 6.10965 125.29C6.03965 173.89 19.5396 213.7 29.7396 221.56C39.9796 231.1 78.9796 244.48 125.39 244.54C126.15 244.54 126.91 244.54 127.67 244.54C128.43 244.54 129.19 244.54 129.95 244.54C176.36 244.47 215.36 231.1 225.6 221.56C235.8 213.7 249.3 173.89 249.23 125.29C249.16 78.6701 236.17 39.1401 226.56 29.1201Z" stroke="#FFC635" stroke-width="0.08" stroke-miterlimit="10"/>
<path d="M222.381 33.1801C214.791 23.4301 176.371 10.9801 129.871 11.0501C129.131 11.0501 128.401 11.0501 127.661 11.0601C126.931 11.0601 126.191 11.0501 125.451 11.0501C78.9508 10.9801 40.5408 23.4301 32.9408 33.1801C23.7408 42.7801 11.2908 80.6401 11.2308 125.29C11.1608 171.84 24.0908 209.97 33.8608 217.5C43.6708 226.64 81.0308 239.45 125.471 239.51C126.201 239.51 126.931 239.51 127.661 239.51C128.391 239.51 129.121 239.51 129.851 239.51C174.301 239.45 211.651 226.63 221.461 217.5C231.231 209.97 244.161 171.85 244.091 125.29C244.031 80.6401 231.581 42.7701 222.381 33.1801Z" stroke="#FFC635" stroke-width="0.11" stroke-miterlimit="10"/>
<path d="M218.209 37.2401C210.949 27.9201 174.229 16.0202 129.779 16.0902C129.069 16.0902 128.369 16.0902 127.669 16.1002C126.969 16.1002 126.259 16.0902 125.559 16.0902C81.1094 16.0302 44.3894 27.9201 37.1294 37.2401C28.3294 46.4101 16.4294 82.6102 16.3694 125.29C16.3094 169.79 28.6694 206.23 37.9994 213.43C47.3794 222.17 83.0894 234.41 125.579 234.47C126.279 234.47 126.979 234.47 127.669 234.47C128.369 234.47 129.059 234.47 129.759 234.47C172.249 234.41 207.959 222.16 217.339 213.43C226.679 206.23 239.039 169.79 238.969 125.29C238.909 82.6002 227.009 46.4101 218.209 37.2401Z" stroke="#FFC635" stroke-width="0.11" stroke-miterlimit="10"/>
<path d="M213.651 41.6703C206.761 32.8203 171.881 21.5203 129.671 21.5803C129.001 21.5803 128.331 21.5803 127.661 21.5903C126.991 21.5903 126.321 21.5803 125.651 21.5803C83.4412 21.5203 48.5612 32.8203 41.6712 41.6703C33.3212 50.3803 22.0212 84.7603 21.9612 125.3C21.9012 167.56 33.6412 202.17 42.5112 209.01C51.4112 217.31 85.3312 228.94 125.681 229C126.341 229 127.011 229 127.671 229C128.331 229 128.991 229 129.661 229C170.011 228.94 203.931 217.31 212.831 209.01C221.701 202.17 233.441 167.56 233.381 125.3C233.321 84.7603 222.021 50.3903 213.671 41.6703H213.651Z" stroke="#FFC635" stroke-width="0.14" stroke-miterlimit="10"/>
<path d="M208.93 46.2603C202.42 37.8903 169.46 27.2103 129.56 27.2703C128.93 27.2703 128.29 27.2703 127.66 27.2803C127.03 27.2803 126.4 27.2703 125.76 27.2703C85.86 27.2103 52.91 37.8903 46.39 46.2603C38.49 54.4903 27.81 86.9803 27.76 125.29C27.7 165.23 38.8 197.94 47.18 204.4C55.59 212.24 87.65 223.23 125.78 223.29C126.41 223.29 127.03 223.29 127.66 223.29C128.28 223.29 128.91 223.29 129.54 223.29C167.67 223.23 199.73 212.24 208.14 204.4C216.52 197.94 227.61 165.23 227.56 125.29C227.5 86.9803 216.82 54.4903 208.93 46.2603Z" stroke="#FFC635" stroke-width="0.2" stroke-miterlimit="10"/>
<path d="M204.029 51.0204C197.909 43.1604 166.939 33.1204 129.439 33.1804C128.839 33.1804 128.249 33.1805 127.659 33.1905C127.069 33.1905 126.469 33.1804 125.879 33.1804C88.3895 33.1304 57.4195 43.1604 51.2895 51.0204C43.8695 58.7604 33.8295 89.2905 33.7795 125.29C33.7295 162.82 44.1495 193.56 52.0295 199.63C59.9395 207 90.0595 217.33 125.889 217.38C126.479 217.38 127.069 217.38 127.649 217.38C128.239 217.38 128.819 217.38 129.409 217.38C165.249 217.33 195.369 207 203.269 199.63C211.139 193.56 221.569 162.82 221.519 125.29C221.469 89.2905 211.429 58.7604 204.009 51.0204H204.029Z" stroke="#FFC635" stroke-width="0.23" stroke-miterlimit="10"/>
<path d="M198.941 55.9705C193.231 48.6305 164.321 39.2705 129.331 39.3205C128.771 39.3205 128.221 39.3205 127.671 39.3305C127.121 39.3305 126.561 39.3305 126.011 39.3205C91.0207 39.2705 62.1107 48.6405 56.4007 55.9705C49.4707 63.1905 40.1107 91.6805 40.0607 125.291C40.0107 160.321 49.7407 189.01 57.0907 194.68C64.4707 201.56 92.5807 211.201 126.031 211.251C126.581 211.251 127.131 211.251 127.681 211.251C128.231 211.251 128.781 211.251 129.331 211.251C162.781 211.201 190.891 201.56 198.271 194.68C205.621 189.01 215.351 160.321 215.301 125.291C215.251 91.6905 205.881 63.1905 198.961 55.9705H198.941Z" stroke="#FFC635" stroke-width="0.23" stroke-miterlimit="10"/>
<path d="M194.09 60.6902C188.76 53.8502 161.82 45.1201 129.21 45.1701C128.69 45.1701 128.18 45.1701 127.66 45.1701C127.14 45.1701 126.63 45.1701 126.11 45.1701C93.5002 45.1201 66.5602 53.8502 61.2302 60.6902C54.7802 67.4202 46.0502 93.9802 46.0002 125.29C45.9502 157.94 55.0202 184.68 61.8702 189.96C68.7502 196.37 94.9502 205.35 126.12 205.4C126.63 205.4 127.14 205.4 127.65 205.4C128.16 205.4 128.67 205.4 129.18 205.4C160.35 205.35 186.55 196.37 193.43 189.96C200.28 184.68 209.35 157.94 209.3 125.29C209.25 93.9702 200.52 67.4202 194.07 60.6902H194.09Z" stroke="#FFC635" stroke-width="0.25" stroke-miterlimit="10"/>
<path d="M189.54 65.1203C184.58 58.7503 159.49 50.6203 129.11 50.6603C128.63 50.6603 128.15 50.6603 127.67 50.6603C127.19 50.6603 126.71 50.6603 126.23 50.6603C95.8495 50.6203 70.7595 58.7503 65.7995 65.1203C59.7895 71.3903 51.6595 96.1203 51.6095 125.3C51.5695 155.71 60.0095 180.62 66.3895 185.54C72.7995 191.51 97.1995 199.88 126.24 199.92C126.72 199.92 127.19 199.92 127.67 199.92C128.15 199.92 128.62 199.92 129.1 199.92C158.14 199.88 182.54 191.51 188.95 185.54C195.33 180.62 203.78 155.71 203.73 125.3C203.69 96.1303 195.56 71.3903 189.54 65.1203Z" stroke="#FFC635" stroke-width="0.31" stroke-miterlimit="10"/>
<path d="M184.501 70.0101C179.941 64.1601 156.891 56.6901 128.991 56.7301C128.551 56.7301 128.101 56.7301 127.661 56.7301C127.221 56.7301 126.781 56.7301 126.331 56.7301C98.4312 56.6901 75.3712 64.1601 70.8212 70.0101C65.3012 75.7701 57.8312 98.4902 57.7912 125.29C57.7512 153.23 65.5112 176.1 71.3712 180.62C77.2612 186.1 99.6712 193.79 126.351 193.83C126.791 193.83 127.231 193.83 127.661 193.83C128.101 193.83 128.531 193.83 128.971 193.83C155.641 193.79 178.061 186.1 183.951 180.62C189.811 176.1 197.571 153.22 197.531 125.29C197.491 98.4902 190.021 75.7701 184.501 70.0101Z" stroke="#FFC635" stroke-width="0.34" stroke-miterlimit="10"/>
<path d="M179.671 74.7102C175.501 69.3602 154.411 62.5202 128.871 62.5602C128.461 62.5602 128.061 62.5602 127.661 62.5602C127.261 62.5602 126.851 62.5602 126.451 62.5602C100.921 62.5202 79.8206 69.3602 75.6506 74.7102C70.6006 79.9802 63.7606 100.77 63.7306 125.29C63.6906 150.85 70.7906 171.78 76.1606 175.92C81.5506 180.94 102.061 187.97 126.461 188.01C126.861 188.01 127.261 188.01 127.661 188.01C128.061 188.01 128.461 188.01 128.861 188.01C153.271 187.97 173.781 180.94 179.161 175.92C184.521 171.78 191.621 150.85 191.591 125.29C191.551 100.77 184.721 79.9802 179.671 74.7102Z" stroke="#FFC635" stroke-width="0.37" stroke-miterlimit="10"/>
<path d="M175.04 79.2103C171.24 74.3303 152.03 68.1102 128.77 68.1402C128.4 68.1402 128.03 68.1402 127.66 68.1402C127.29 68.1402 126.92 68.1402 126.55 68.1402C103.29 68.1102 84.07 74.3303 80.28 79.2103C75.68 84.0103 69.45 102.95 69.42 125.29C69.39 148.58 75.85 167.65 80.74 171.41C85.65 175.98 104.33 182.39 126.57 182.42C126.94 182.42 127.3 182.42 127.66 182.42C128.02 182.42 128.39 182.42 128.75 182.42C150.98 182.39 169.67 175.98 174.58 171.41C179.47 167.64 185.93 148.57 185.9 125.29C185.87 102.95 179.64 84.0103 175.04 79.2103Z" stroke="#FFC635" stroke-width="0.4" stroke-miterlimit="10"/>
<path d="M170.941 83.2004C167.471 78.7404 149.921 73.0605 128.671 73.0905C128.331 73.0905 128.001 73.0905 127.661 73.0905C127.321 73.0905 126.991 73.0905 126.651 73.0905C105.401 73.0605 87.851 78.7504 84.381 83.2004C80.171 87.5804 74.4911 104.89 74.4611 125.29C74.4311 146.56 80.3411 163.98 84.8011 167.42C89.2811 171.6 106.351 177.45 126.661 177.48C126.991 177.48 127.331 177.48 127.661 177.48C127.991 177.48 128.331 177.48 128.661 177.48C148.971 177.45 166.041 171.6 170.521 167.42C174.981 163.98 180.891 146.56 180.861 125.29C180.831 104.89 175.141 87.5804 170.941 83.2004Z" stroke="#FFC635" stroke-width="0.43" stroke-miterlimit="10"/>
<path d="M165.871 88.1401C162.811 84.2101 147.311 79.1901 128.561 79.2101C128.261 79.2101 127.971 79.2101 127.671 79.2101C127.371 79.2101 127.081 79.2101 126.781 79.2101C108.031 79.1801 92.5311 84.2001 89.4711 88.1401C85.7611 92.0101 80.7411 107.28 80.7111 125.29C80.6811 144.07 85.9011 159.44 89.8411 162.48C93.8011 166.17 108.861 171.33 126.791 171.36C127.091 171.36 127.381 171.36 127.671 171.36C127.961 171.36 128.261 171.36 128.551 171.36C146.481 171.33 161.541 166.17 165.501 162.48C169.441 159.44 174.651 144.07 174.631 125.29C174.601 107.28 169.581 92.0101 165.871 88.1401Z" stroke="#FFC635" stroke-width="0.46" stroke-miterlimit="10"/>
<path d="M161.09 92.7803C158.41 89.3403 144.86 84.9503 128.45 84.9703C128.19 84.9703 127.93 84.9703 127.67 84.9703C127.41 84.9703 127.15 84.9703 126.89 84.9703C110.48 84.9503 96.9299 89.3403 94.2499 92.7803C90.9999 96.1703 86.6099 109.53 86.5899 125.28C86.5699 141.71 91.1299 155.16 94.5799 157.82C98.0399 161.04 111.22 165.57 126.91 165.59C127.17 165.59 127.43 165.59 127.68 165.59C127.94 165.59 128.19 165.59 128.45 165.59C144.13 165.57 157.32 161.05 160.78 157.82C164.23 155.16 168.79 141.71 168.77 125.28C168.75 109.52 164.35 96.1603 161.11 92.7803H161.09Z" stroke="#FFC635" stroke-width="0.49" stroke-miterlimit="10"/>
</svg>
