<svg width="536" height="553" viewBox="0 0 536 553" fill="none" xmlns="http://www.w3.org/2000/svg">
<path d="M472.93 -36.7477C451.233 -64.6173 341.462 -100.183 208.576 -99.9993C206.475 -99.9993 204.373 -99.9993 202.272 -99.9731C200.17 -99.9731 198.069 -99.9993 195.968 -99.9993C63.0814 -100.183 -46.6895 -64.6173 -68.3863 -36.7477C-94.7061 -9.32468 -130.272 98.8965 -130.456 226.503C-130.64 359.547 -93.7079 468.477 -65.7858 490.016C-37.7586 516.126 68.9916 552.743 196.02 552.926C198.121 552.926 200.197 552.926 202.272 552.926C204.347 552.926 206.422 552.926 208.523 552.926C335.552 552.743 442.302 516.126 470.329 490.016C498.251 468.503 535.183 359.547 534.999 226.503C534.815 98.8965 499.25 -9.29839 472.956 -36.7214L472.93 -36.7477Z" stroke="#1A2B4B" stroke-width="0.05" stroke-miterlimit="10"/>
<path d="M462.029 -26.1356C441.199 -52.8757 335.867 -87.0232 208.339 -86.8393C206.317 -86.8393 204.294 -86.8393 202.272 -86.8131C200.249 -86.8131 198.226 -86.8393 196.204 -86.8393C68.6762 -87.0232 -36.6819 -52.902 -57.4856 -26.1356C-82.7284 0.184181 -116.85 104.019 -117.033 226.477C-117.217 354.136 -81.7565 458.706 -54.9639 479.352C-28.0662 504.411 74.3762 539.556 196.283 539.714C198.279 539.714 200.275 539.714 202.272 539.714C204.268 539.714 206.264 539.714 208.26 539.714C330.167 539.53 432.609 504.411 459.507 479.352C486.3 458.706 521.76 354.136 521.577 226.477C521.393 104.019 487.271 0.184181 462.029 -26.1356Z" stroke="#1A2B4B" stroke-width="0.08" stroke-miterlimit="10"/>
<path d="M451.049 -15.4713C431.112 -41.0819 330.194 -73.7847 208.051 -73.6008C206.107 -73.6008 204.189 -73.6008 202.246 -73.5745C200.328 -73.5745 198.384 -73.6008 196.441 -73.6008C74.2978 -73.7847 -26.5948 -41.0819 -46.558 -15.4713C-70.7239 9.7453 -103.427 109.193 -103.584 226.477C-103.768 348.751 -69.8045 448.908 -44.1414 468.687C-18.3732 492.695 79.7614 526.344 196.493 526.501C198.411 526.501 200.328 526.501 202.246 526.501C204.163 526.501 206.081 526.501 207.998 526.501C324.756 526.344 422.865 492.669 448.633 468.687C474.296 448.908 508.259 348.777 508.076 226.477C507.918 109.193 475.215 9.71903 451.049 -15.4713Z" stroke="#1A2B4B" stroke-width="0.11" stroke-miterlimit="10"/>
<path d="M440.095 -4.80671C421.025 -29.2878 324.572 -60.5459 207.814 -60.362C205.949 -60.362 204.11 -60.362 202.271 -60.3357C200.433 -60.3357 198.568 -60.362 196.729 -60.362C79.9709 -60.5196 -16.4825 -29.2878 -35.5525 -4.80671C-58.6677 19.2804 -89.9258 114.368 -90.0834 226.477C-90.241 343.366 -57.7747 439.084 -33.2673 457.996C-8.62859 480.954 85.1719 513.105 196.782 513.263C198.62 513.263 200.459 513.263 202.271 513.263C204.11 513.263 205.923 513.263 207.761 513.263C319.371 513.105 413.171 480.928 437.81 457.996C462.344 439.084 494.81 343.366 494.626 226.477C494.469 114.342 463.211 19.2804 440.095 -4.80671Z" stroke="#1A2B4B" stroke-width="0.11" stroke-miterlimit="10"/>
<path d="M428.118 6.82993C410.02 -16.4166 318.4 -46.0986 207.526 -45.941C205.766 -45.941 204.006 -45.941 202.246 -45.9147C200.486 -45.9147 198.726 -45.941 196.966 -45.941C86.0919 -46.0986 -5.52835 -16.4166 -23.6265 6.82993C-45.5597 29.7087 -75.2417 120.016 -75.3993 226.503C-75.5569 337.509 -44.7191 428.42 -21.4201 446.387C1.95782 468.188 91.0564 498.737 197.045 498.895C198.779 498.895 200.538 498.895 202.272 498.895C204.006 498.895 205.739 498.895 207.499 498.895C313.488 498.737 402.586 468.188 425.964 446.387C449.263 428.42 480.101 337.509 479.943 226.503C479.786 120.016 450.104 29.735 428.171 6.82993H428.118Z" stroke="#1A2B4B" stroke-width="0.14" stroke-miterlimit="10"/>
<path d="M415.721 18.8863C398.621 -3.09937 312.044 -31.1528 207.237 -30.9952C205.583 -30.9952 203.902 -30.9952 202.247 -30.9689C200.592 -30.9689 198.937 -30.9952 197.256 -30.9952C92.4495 -31.1528 5.89878 -3.09937 -11.2275 18.8863C-31.9786 40.5043 -60.0321 125.847 -60.1634 226.477C-60.321 331.388 -31.1644 417.308 -9.15237 434.277C12.9384 454.871 97.1513 483.738 197.308 483.896C198.963 483.896 200.592 483.896 202.247 483.896C203.875 483.896 205.53 483.896 207.185 483.896C307.342 483.738 391.555 454.871 413.646 434.277C435.658 417.308 464.788 331.388 464.657 226.477C464.499 125.847 436.446 40.5043 415.721 18.8863Z" stroke="#1A2B4B" stroke-width="0.2" stroke-miterlimit="10"/>
<path d="M402.849 31.3895C386.773 10.7434 305.423 -15.6289 206.921 -15.4713C205.345 -15.4713 203.795 -15.4713 202.246 -15.445C200.696 -15.445 199.12 -15.4713 197.57 -15.4713C99.094 -15.6027 17.7443 10.7434 1.64243 31.3895C-17.8479 51.7203 -44.2202 131.914 -44.3516 226.477C-44.4829 325.058 -17.1124 405.803 3.5862 421.748C24.3636 441.106 103.481 468.241 197.596 468.372C199.146 468.372 200.696 468.372 202.219 468.372C203.769 468.372 205.293 468.372 206.842 468.372C300.984 468.241 380.101 441.106 400.853 421.748C421.525 405.803 448.922 325.058 448.79 226.477C448.659 131.914 422.287 51.7203 402.796 31.3895H402.849Z" stroke="#1A2B4B" stroke-width="0.23" stroke-miterlimit="10"/>
<path d="M389.479 44.3918C374.48 25.1116 298.541 0.525438 206.632 0.656774C205.161 0.656774 203.716 0.656719 202.272 0.682987C200.827 0.682987 199.356 0.683041 197.911 0.656774C106.002 0.525438 30.0634 25.1379 15.0648 44.3918C-3.13843 63.3568 -27.7246 138.192 -27.8559 226.477C-27.9873 318.491 -2.42922 393.852 16.8772 408.745C36.2625 426.817 110.1 452.139 197.964 452.27C199.409 452.27 200.853 452.27 202.298 452.27C203.743 452.27 205.187 452.27 206.632 452.27C294.496 452.139 368.333 426.817 387.719 408.745C407.025 393.852 432.583 318.491 432.452 226.477C432.32 138.219 407.708 63.3568 389.531 44.3918H389.479Z" stroke="#1A2B4B" stroke-width="0.23" stroke-miterlimit="10"/>
<path d="M376.739 56.79C362.738 38.8232 291.974 15.8918 206.317 16.0231C204.951 16.0231 203.611 16.0231 202.245 16.0231C200.879 16.0231 199.54 16.0231 198.174 16.0231C112.516 15.8918 41.7522 38.8232 27.7517 56.79C10.8093 74.4679 -12.122 144.234 -12.2534 226.477C-12.3847 312.239 11.4397 382.478 29.4328 396.347C47.5047 413.184 116.325 436.772 198.2 436.904C199.54 436.904 200.879 436.904 202.219 436.904C203.559 436.904 204.898 436.904 206.238 436.904C288.113 436.772 356.933 413.184 375.005 396.347C392.998 382.478 416.823 312.239 416.691 226.477C416.56 144.208 393.629 74.4679 376.686 56.79H376.739Z" stroke="#1A2B4B" stroke-width="0.25" stroke-miterlimit="10"/>
<path d="M364.788 68.4266C351.759 51.6943 285.855 30.339 206.055 30.4441C204.794 30.4441 203.533 30.4441 202.272 30.4441C201.011 30.4441 199.751 30.4441 198.49 30.4441C118.69 30.339 52.7851 51.6943 39.7566 68.4266C23.9699 84.8962 2.61462 149.855 2.48328 226.503C2.37821 306.382 24.5478 371.814 41.3063 384.737C58.1436 400.419 122.236 422.404 198.516 422.509C199.777 422.509 201.011 422.509 202.272 422.509C203.533 422.509 204.768 422.509 206.028 422.509C282.309 422.404 346.401 400.419 363.238 384.737C379.997 371.814 402.192 306.382 402.061 226.503C401.956 149.881 380.601 84.8962 364.788 68.4266Z" stroke="#1A2B4B" stroke-width="0.31" stroke-miterlimit="10"/>
<path d="M351.548 81.2711C339.571 65.9047 279.024 46.283 205.739 46.3881C204.583 46.3881 203.401 46.3881 202.245 46.3881C201.089 46.3881 199.934 46.3881 198.752 46.3881C125.466 46.283 64.8936 65.9047 52.942 81.2711C38.4425 96.401 18.8208 156.08 18.7157 226.477C18.6107 299.867 38.9941 359.941 54.3867 371.813C69.8581 386.208 128.723 406.407 198.804 406.512C199.96 406.512 201.116 406.512 202.245 406.512C203.401 406.512 204.53 406.512 205.686 406.512C275.741 406.407 334.632 386.208 350.104 371.813C365.496 359.941 385.88 299.841 385.775 226.477C385.67 156.08 366.048 96.401 351.548 81.2711Z" stroke="#1A2B4B" stroke-width="0.34" stroke-miterlimit="10"/>
<path d="M338.861 93.6167C327.907 79.5637 272.51 61.5969 205.423 61.702C204.346 61.702 203.295 61.702 202.245 61.702C201.194 61.702 200.117 61.702 199.066 61.702C132.006 61.5969 76.5819 79.5637 65.6284 93.6167C52.3634 107.46 34.3966 162.069 34.3178 226.477C34.2128 293.616 52.8625 348.593 66.9681 359.468C81.1261 372.654 135 391.12 199.092 391.225C200.143 391.225 201.194 391.225 202.245 391.225C203.295 391.225 204.346 391.225 205.397 391.225C269.515 391.12 323.389 372.654 337.521 359.468C351.6 348.593 370.25 293.616 370.171 226.477C370.066 162.069 352.126 107.46 338.861 93.6167Z" stroke="#1A2B4B" stroke-width="0.37" stroke-miterlimit="10"/>
<path d="M326.699 105.437C316.717 92.6186 266.258 76.2804 205.16 76.3592C204.188 76.3592 203.216 76.3592 202.245 76.3592C201.273 76.3592 200.301 76.3592 199.329 76.3592C138.231 76.2804 87.7455 92.6186 77.7902 105.437C65.7073 118.045 49.3427 167.796 49.2639 226.477C49.1851 287.653 66.1538 337.745 78.9985 347.621C91.8957 359.626 140.963 376.463 199.381 376.542C200.353 376.542 201.299 376.542 202.245 376.542C203.19 376.542 204.162 376.542 205.108 376.542C263.5 376.463 312.593 359.626 325.491 347.621C338.335 337.719 355.304 287.627 355.225 226.477C355.146 167.796 338.782 118.045 326.699 105.437Z" stroke="#1A2B4B" stroke-width="0.4" stroke-miterlimit="10"/>
<path d="M315.929 115.918C306.815 104.202 260.716 89.2826 204.898 89.3614C204.005 89.3614 203.138 89.3614 202.245 89.3614C201.352 89.3614 200.485 89.3614 199.592 89.3614C143.774 89.2826 97.6746 104.229 88.5599 115.918C77.5014 127.423 62.5815 172.891 62.5027 226.477C62.4239 282.347 77.9479 328.105 89.6631 337.141C101.431 348.12 146.269 363.487 199.618 363.565C200.485 363.565 201.378 363.565 202.245 363.565C203.111 363.565 204.005 363.565 204.871 363.565C258.22 363.487 303.058 348.12 314.826 337.141C326.541 328.105 342.065 282.347 341.987 226.477C341.908 172.891 326.962 127.423 315.929 115.918Z" stroke="#1A2B4B" stroke-width="0.43" stroke-miterlimit="10"/>
<path d="M302.612 128.894C294.575 118.571 253.86 105.385 204.609 105.437C203.821 105.437 203.059 105.437 202.271 105.437C201.483 105.437 200.722 105.437 199.934 105.437C150.682 105.358 109.968 118.545 101.93 128.894C92.1852 139.059 78.9991 179.17 78.9203 226.477C78.8415 275.807 92.553 316.18 102.902 324.165C113.304 333.857 152.863 347.411 199.96 347.49C200.748 347.49 201.51 347.49 202.271 347.49C203.033 347.49 203.821 347.49 204.583 347.49C251.68 347.411 291.239 333.857 301.64 324.165C311.99 316.18 325.675 275.807 325.623 226.477C325.544 179.17 312.358 139.059 302.612 128.894Z" stroke="#1A2B4B" stroke-width="0.46" stroke-miterlimit="10"/>
<path d="M290.057 141.082C283.017 132.046 247.425 120.514 204.321 120.567C203.638 120.567 202.955 120.567 202.272 120.567C201.589 120.567 200.906 120.567 200.223 120.567C157.118 120.514 121.526 132.046 114.487 141.082C105.95 149.986 94.4184 185.079 94.3659 226.45C94.3134 269.607 106.291 304.937 115.353 311.924C124.442 320.382 159.062 332.281 200.276 332.334C200.959 332.334 201.641 332.334 202.298 332.334C202.981 332.334 203.638 332.334 204.321 332.334C245.508 332.281 280.154 320.408 289.243 311.924C298.305 304.937 310.283 269.607 310.23 226.45C310.178 185.053 298.62 149.96 290.11 141.082H290.057Z" stroke="#1A2B4B" stroke-width="0.49" stroke-miterlimit="10"/>
</svg>
