<svg width="27" height="24" viewBox="0 0 27 24" fill="none" xmlns="http://www.w3.org/2000/svg">
<path d="M14.4078 1.99951C15.652 2.00251 16.2835 2.00851 16.8287 2.02251L17.0433 2.02951C17.291 2.03751 17.5354 2.04751 17.8307 2.05951C19.0074 2.10951 19.8103 2.27751 20.5148 2.52451C21.2447 2.77851 21.8596 3.12251 22.4745 3.67751C23.0369 4.17741 23.472 4.7821 23.7497 5.44951C24.0228 6.08651 24.2086 6.81251 24.2639 7.87751C24.2772 8.14351 24.2882 8.36451 24.2971 8.58951L24.3037 8.78351C24.3203 9.27551 24.327 9.84651 24.3292 10.9715L24.3303 11.7175V13.0275C24.333 13.7569 24.3245 14.4863 24.3048 15.2155L24.2982 15.4095C24.2894 15.6345 24.2783 15.8555 24.265 16.1215C24.2097 17.1865 24.0217 17.9115 23.7497 18.5495C23.4728 19.2173 23.0376 19.8221 22.4745 20.3215C21.9215 20.8298 21.2528 21.2233 20.5148 21.4745C19.8103 21.7215 19.0074 21.8895 17.8307 21.9395C17.5683 21.9507 17.3058 21.9607 17.0433 21.9695L16.8287 21.9755C16.2835 21.9895 15.652 21.9965 14.4078 21.9985L13.5828 21.9995H12.1351C11.3281 22.002 10.521 21.9944 9.71424 21.9765L9.49969 21.9705C9.23715 21.9615 8.97467 21.9512 8.71226 21.9395C7.53555 21.8895 6.73264 21.7215 6.02705 21.4745C5.28903 21.2239 4.62054 20.8304 4.06844 20.3215C3.50557 19.8218 3.07003 19.2171 2.79219 18.5495C2.51903 17.9125 2.33323 17.1865 2.27793 16.1215C2.26561 15.8842 2.25455 15.6469 2.24475 15.4095L2.23922 15.2155C2.21884 14.4863 2.20963 13.7569 2.21158 13.0275V10.9715C2.20849 10.2421 2.2166 9.51271 2.23591 8.78351L2.24365 8.58951C2.2525 8.36451 2.26355 8.14351 2.27683 7.87751C2.33212 6.81251 2.51792 6.08751 2.79109 5.44951C3.0688 4.78142 3.50521 4.17654 4.06955 3.67751C4.62151 3.16899 5.28955 2.7755 6.02705 2.52451C6.73264 2.27751 7.53444 2.10951 8.71226 2.05951C9.00644 2.04751 9.25196 2.03751 9.49969 2.02951L9.71424 2.02351C10.5207 2.00574 11.3274 1.99808 12.134 2.00051L14.4078 1.99951ZM13.2709 6.99951C11.8044 6.99951 10.3979 7.5263 9.36085 8.46398C8.32384 9.40166 7.74125 10.6734 7.74125 11.9995C7.74125 13.3256 8.32384 14.5974 9.36085 15.535C10.3979 16.4727 11.8044 16.9995 13.2709 16.9995C14.7375 16.9995 16.144 16.4727 17.181 15.535C18.218 14.5974 18.8006 13.3256 18.8006 11.9995C18.8006 10.6734 18.218 9.40166 17.181 8.46398C16.144 7.5263 14.7375 6.99951 13.2709 6.99951ZM13.2709 8.99951C13.7066 8.99945 14.1381 9.07698 14.5406 9.22768C14.9432 9.37839 15.309 9.59931 15.6171 9.87784C15.9253 10.1564 16.1697 10.487 16.3365 10.851C16.5033 11.215 16.5892 11.605 16.5893 11.999C16.5894 12.393 16.5036 12.7831 16.3369 13.1471C16.1703 13.5111 15.9259 13.8419 15.6179 14.1205C15.3099 14.3991 14.9442 14.6201 14.5417 14.771C14.1392 14.9218 13.7077 14.9994 13.272 14.9995C12.3921 14.9995 11.5482 14.6834 10.926 14.1208C10.3038 13.5582 9.95423 12.7952 9.95423 11.9995C9.95423 11.2039 10.3038 10.4408 10.926 9.87819C11.5482 9.31558 12.3921 8.99951 13.272 8.99951M19.0782 5.49951C18.7115 5.49951 18.3599 5.63121 18.1007 5.86563C17.8414 6.10005 17.6958 6.41799 17.6958 6.74951C17.6958 7.08103 17.8414 7.39897 18.1007 7.6334C18.3599 7.86782 18.7115 7.99951 19.0782 7.99951C19.4448 7.99951 19.7965 7.86782 20.0557 7.6334C20.315 7.39897 20.4606 7.08103 20.4606 6.74951C20.4606 6.41799 20.315 6.10005 20.0557 5.86563C19.7965 5.63121 19.4448 5.49951 19.0782 5.49951Z" fill="#FFC635"/>
</svg>
