<svg width="27" height="24" viewBox="0 0 27 24" fill="none" xmlns="http://www.w3.org/2000/svg">
<path d="M23.2242 16.4195V19.9555C23.2243 20.2087 23.1183 20.4525 22.9274 20.6377C22.7365 20.8229 22.475 20.9358 22.1957 20.9535C21.7124 20.9835 21.3176 20.9995 21.0123 20.9995C11.2392 20.9995 3.31738 13.8365 3.31738 4.99951C3.31738 4.72351 3.33397 4.36651 3.36826 3.92951C3.38786 3.67696 3.51267 3.44052 3.71751 3.26792C3.92236 3.09532 4.19198 2.9994 4.47198 2.99951H8.38257C8.51974 2.99939 8.65208 3.04537 8.75386 3.12853C8.85564 3.21169 8.9196 3.32609 8.93332 3.44951C8.95876 3.67951 8.98198 3.86251 9.0041 4.00151C9.22389 5.38843 9.6743 6.73734 10.3401 8.00251C10.4451 8.20251 10.3766 8.44151 10.1775 8.56951L7.79089 10.1115C9.25012 13.186 11.9598 15.6361 15.3599 16.9555L17.0631 14.8015C17.1327 14.7135 17.2342 14.6504 17.35 14.6232C17.4658 14.5959 17.5885 14.6063 17.6968 14.6525C19.0958 15.2534 20.5872 15.6597 22.1205 15.8575C22.2742 15.8775 22.4766 15.8985 22.7288 15.9215C22.865 15.9341 22.9913 15.9921 23.083 16.0841C23.1748 16.1761 23.2244 16.2956 23.2242 16.4195Z" fill="#FFC635"/>
</svg>
